G04 #@! TF.FileFunction,Legend,Bot*
%FSLAX46Y46*%
G04 Gerber Fmt 4.6, Leading zero omitted, Abs format (unit mm)*
G04 Created by KiCad (PCBNEW (2015-08-28 BZR 6132, Git 156d5f5)-product) date 30-Aug-15 1:46:12 AM*
%MOMM*%
G01*
G04 APERTURE LIST*
%ADD10C,0.100000*%
%ADD11C,0.300000*%
%ADD12C,0.150000*%
%ADD13R,0.806400X1.670000*%
%ADD14R,1.901140X3.399740*%
%ADD15R,2.400000X2.000000*%
%ADD16C,1.901140*%
%ADD17R,3.900120X3.900120*%
%ADD18R,2.432000X2.127200*%
%ADD19O,2.432000X2.127200*%
%ADD20R,0.800000X1.750000*%
%ADD21O,1.650000X1.350000*%
%ADD22O,1.400000X1.950000*%
%ADD23R,1.200100X1.200100*%
%ADD24R,2.400000X2.100000*%
%ADD25R,2.100000X2.400000*%
%ADD26C,1.924000*%
%ADD27R,2.432000X4.057600*%
%ADD28R,2.432000X1.416000*%
%ADD29O,2.899360X2.398980*%
G04 APERTURE END LIST*
D10*
D11*
X170742571Y-98682571D02*
X170385428Y-99682571D01*
X170028286Y-98682571D01*
X169599714Y-98682571D02*
X169242571Y-99682571D01*
X168885429Y-98682571D02*
X169242571Y-99682571D01*
X169385429Y-100039714D01*
X169456857Y-100111143D01*
X169599714Y-100182571D01*
X168385429Y-99611143D02*
X168242572Y-99682571D01*
X167956857Y-99682571D01*
X167814000Y-99611143D01*
X167742572Y-99468286D01*
X167742572Y-99396857D01*
X167814000Y-99254000D01*
X167956857Y-99182571D01*
X168171143Y-99182571D01*
X168314000Y-99111143D01*
X168385429Y-98968286D01*
X168385429Y-98896857D01*
X168314000Y-98754000D01*
X168171143Y-98682571D01*
X167956857Y-98682571D01*
X167814000Y-98754000D01*
X166456857Y-99682571D02*
X166456857Y-98896857D01*
X166528286Y-98754000D01*
X166671143Y-98682571D01*
X166956857Y-98682571D01*
X167099714Y-98754000D01*
X166456857Y-99611143D02*
X166599714Y-99682571D01*
X166956857Y-99682571D01*
X167099714Y-99611143D01*
X167171143Y-99468286D01*
X167171143Y-99325429D01*
X167099714Y-99182571D01*
X166956857Y-99111143D01*
X166599714Y-99111143D01*
X166456857Y-99039714D01*
X165742571Y-99682571D02*
X165742571Y-98182571D01*
X165599714Y-99111143D02*
X165171143Y-99682571D01*
X165171143Y-98682571D02*
X165742571Y-99254000D01*
X164528285Y-99682571D02*
X164528285Y-98182571D01*
X163885428Y-99682571D02*
X163885428Y-98896857D01*
X163956857Y-98754000D01*
X164099714Y-98682571D01*
X164313999Y-98682571D01*
X164456857Y-98754000D01*
X164528285Y-98825429D01*
X162028285Y-98682571D02*
X162028285Y-100182571D01*
X162028285Y-98754000D02*
X161885428Y-98682571D01*
X161599714Y-98682571D01*
X161456857Y-98754000D01*
X161385428Y-98825429D01*
X161313999Y-98968286D01*
X161313999Y-99396857D01*
X161385428Y-99539714D01*
X161456857Y-99611143D01*
X161599714Y-99682571D01*
X161885428Y-99682571D01*
X162028285Y-99611143D01*
X159528285Y-98682571D02*
X159528285Y-100182571D01*
X159528285Y-98754000D02*
X159385428Y-98682571D01*
X159099714Y-98682571D01*
X158956857Y-98754000D01*
X158885428Y-98825429D01*
X158813999Y-98968286D01*
X158813999Y-99396857D01*
X158885428Y-99539714D01*
X158956857Y-99611143D01*
X159099714Y-99682571D01*
X159385428Y-99682571D01*
X159528285Y-99611143D01*
X158171142Y-99682571D02*
X158171142Y-98682571D01*
X158171142Y-98182571D02*
X158242571Y-98254000D01*
X158171142Y-98325429D01*
X158099714Y-98254000D01*
X158171142Y-98182571D01*
X158171142Y-98325429D01*
X157242570Y-99682571D02*
X157385428Y-99611143D01*
X157456856Y-99468286D01*
X157456856Y-98182571D01*
X156456856Y-99682571D02*
X156599714Y-99611143D01*
X156671142Y-99468286D01*
X156671142Y-98182571D01*
X155242571Y-99682571D02*
X155242571Y-98896857D01*
X155314000Y-98754000D01*
X155456857Y-98682571D01*
X155742571Y-98682571D01*
X155885428Y-98754000D01*
X155242571Y-99611143D02*
X155385428Y-99682571D01*
X155742571Y-99682571D01*
X155885428Y-99611143D01*
X155956857Y-99468286D01*
X155956857Y-99325429D01*
X155885428Y-99182571D01*
X155742571Y-99111143D01*
X155385428Y-99111143D01*
X155242571Y-99039714D01*
X154528285Y-99682571D02*
X154528285Y-98682571D01*
X154528285Y-98182571D02*
X154599714Y-98254000D01*
X154528285Y-98325429D01*
X154456857Y-98254000D01*
X154528285Y-98182571D01*
X154528285Y-98325429D01*
X166206856Y-100582571D02*
X166063999Y-100582571D01*
X165921142Y-100654000D01*
X165849713Y-100725429D01*
X165778284Y-100868286D01*
X165706856Y-101154000D01*
X165706856Y-101511143D01*
X165778284Y-101796857D01*
X165849713Y-101939714D01*
X165921142Y-102011143D01*
X166063999Y-102082571D01*
X166206856Y-102082571D01*
X166349713Y-102011143D01*
X166421142Y-101939714D01*
X166492570Y-101796857D01*
X166563999Y-101511143D01*
X166563999Y-101154000D01*
X166492570Y-100868286D01*
X166421142Y-100725429D01*
X166349713Y-100654000D01*
X166206856Y-100582571D01*
X164992571Y-102082571D02*
X164706856Y-102082571D01*
X164563999Y-102011143D01*
X164492571Y-101939714D01*
X164349713Y-101725429D01*
X164278285Y-101439714D01*
X164278285Y-100868286D01*
X164349713Y-100725429D01*
X164421142Y-100654000D01*
X164563999Y-100582571D01*
X164849713Y-100582571D01*
X164992571Y-100654000D01*
X165063999Y-100725429D01*
X165135428Y-100868286D01*
X165135428Y-101225429D01*
X165063999Y-101368286D01*
X164992571Y-101439714D01*
X164849713Y-101511143D01*
X164563999Y-101511143D01*
X164421142Y-101439714D01*
X164349713Y-101368286D01*
X164278285Y-101225429D01*
X163706857Y-100725429D02*
X163635428Y-100654000D01*
X163492571Y-100582571D01*
X163135428Y-100582571D01*
X162992571Y-100654000D01*
X162921142Y-100725429D01*
X162849714Y-100868286D01*
X162849714Y-101011143D01*
X162921142Y-101225429D01*
X163778285Y-102082571D01*
X162849714Y-102082571D01*
X161921143Y-100582571D02*
X161778286Y-100582571D01*
X161635429Y-100654000D01*
X161564000Y-100725429D01*
X161492571Y-100868286D01*
X161421143Y-101154000D01*
X161421143Y-101511143D01*
X161492571Y-101796857D01*
X161564000Y-101939714D01*
X161635429Y-102011143D01*
X161778286Y-102082571D01*
X161921143Y-102082571D01*
X162064000Y-102011143D01*
X162135429Y-101939714D01*
X162206857Y-101796857D01*
X162278286Y-101511143D01*
X162278286Y-101154000D01*
X162206857Y-100868286D01*
X162135429Y-100725429D01*
X162064000Y-100654000D01*
X161921143Y-100582571D01*
X159992572Y-102082571D02*
X160849715Y-102082571D01*
X160421143Y-102082571D02*
X160421143Y-100582571D01*
X160564000Y-100796857D01*
X160706858Y-100939714D01*
X160849715Y-101011143D01*
X158635429Y-100582571D02*
X159349715Y-100582571D01*
X159421144Y-101296857D01*
X159349715Y-101225429D01*
X159206858Y-101154000D01*
X158849715Y-101154000D01*
X158706858Y-101225429D01*
X158635429Y-101296857D01*
X158564001Y-101439714D01*
X158564001Y-101796857D01*
X158635429Y-101939714D01*
X158706858Y-102011143D01*
X158849715Y-102082571D01*
X159206858Y-102082571D01*
X159349715Y-102011143D01*
X159421144Y-101939714D01*
D12*
X144865280Y-111446040D02*
X152485280Y-111446040D01*
X152485280Y-115002040D02*
X144865280Y-115002040D01*
X144865280Y-111446040D02*
X144865280Y-115002040D01*
X152485280Y-115002040D02*
X152485280Y-111446040D01*
X152336490Y-114494040D02*
G75*
G03X152336490Y-114494040I-359210J0D01*
G01*
X152485280Y-112589040D02*
X151723280Y-112589040D01*
X151723280Y-112589040D02*
X151723280Y-113859040D01*
X151723280Y-113859040D02*
X152485280Y-113859040D01*
X162116960Y-115489720D02*
X162116960Y-110287800D01*
X164514720Y-110287800D02*
X164514720Y-115489720D01*
X165614540Y-117488700D02*
X164514720Y-117488700D01*
X165114160Y-118088140D02*
X165114160Y-116889260D01*
X164514720Y-116884180D02*
X162116960Y-116884180D01*
X153872120Y-115504960D02*
X153872120Y-110303040D01*
X156269880Y-110303040D02*
X156269880Y-115504960D01*
X157369700Y-117503940D02*
X156269880Y-117503940D01*
X156869320Y-118103380D02*
X156869320Y-116904500D01*
X156269880Y-116899420D02*
X153872120Y-116899420D01*
X149619400Y-108493400D02*
X147619400Y-108493400D01*
X147619400Y-106443400D02*
X149619400Y-106443400D01*
X149675280Y-119892920D02*
X147675280Y-119892920D01*
X147675280Y-117842920D02*
X149675280Y-117842920D01*
X165247000Y-89781000D02*
X167247000Y-89781000D01*
X167247000Y-91831000D02*
X165247000Y-91831000D01*
X150232180Y-127099900D02*
X141532180Y-127099900D01*
X150232180Y-120694900D02*
X141532180Y-120694900D01*
X141532180Y-120694900D02*
X141532180Y-127099900D01*
X141532180Y-125869900D02*
X150232180Y-125869900D01*
X150232180Y-127099900D02*
X150232180Y-120694900D01*
X155213240Y-81505840D02*
X155213240Y-81554100D01*
X154512200Y-84304820D02*
X155213240Y-84304820D01*
X155213240Y-84304820D02*
X155213240Y-84055900D01*
X155213240Y-81505840D02*
X155213240Y-81305180D01*
X155213240Y-81305180D02*
X154512200Y-81305180D01*
X155213240Y-87474840D02*
X155213240Y-87523100D01*
X154512200Y-90273820D02*
X155213240Y-90273820D01*
X155213240Y-90273820D02*
X155213240Y-90024900D01*
X155213240Y-87474840D02*
X155213240Y-87274180D01*
X155213240Y-87274180D02*
X154512200Y-87274180D01*
X145943000Y-98993000D02*
X147943000Y-98993000D01*
X147943000Y-96843000D02*
X145943000Y-96843000D01*
X159203000Y-93235000D02*
X159203000Y-95235000D01*
X161353000Y-95235000D02*
X161353000Y-93235000D01*
X145943000Y-81340000D02*
X147943000Y-81340000D01*
X147943000Y-79190000D02*
X145943000Y-79190000D01*
X145816000Y-94929000D02*
X147816000Y-94929000D01*
X147816000Y-92779000D02*
X145816000Y-92779000D01*
X145943000Y-86039000D02*
X147943000Y-86039000D01*
X147943000Y-83889000D02*
X145943000Y-83889000D01*
X145943000Y-90484000D02*
X147943000Y-90484000D01*
X147943000Y-88334000D02*
X145943000Y-88334000D01*
X159330000Y-84345000D02*
X159330000Y-86345000D01*
X161480000Y-86345000D02*
X161480000Y-84345000D01*
X156846460Y-125385560D02*
X153798460Y-125385560D01*
X153798460Y-125385560D02*
X153798460Y-118273560D01*
X153798460Y-118273560D02*
X156846460Y-118273560D01*
X159894460Y-125385560D02*
X160656460Y-125385560D01*
X160656460Y-125385560D02*
X162942460Y-123861560D01*
X162942460Y-123861560D02*
X162942460Y-119797560D01*
X162942460Y-119797560D02*
X160656460Y-118273560D01*
X160656460Y-118273560D02*
X159894460Y-118273560D01*
X163672983Y-107722094D02*
X163720602Y-107674475D01*
X163768221Y-107531618D01*
X163768221Y-107436380D01*
X163720602Y-107293522D01*
X163625364Y-107198284D01*
X163530126Y-107150665D01*
X163339650Y-107103046D01*
X163196792Y-107103046D01*
X163006316Y-107150665D01*
X162911078Y-107198284D01*
X162815840Y-107293522D01*
X162768221Y-107436380D01*
X162768221Y-107531618D01*
X162815840Y-107674475D01*
X162863459Y-107722094D01*
X162768221Y-108626856D02*
X162768221Y-108150665D01*
X163244411Y-108103046D01*
X163196792Y-108150665D01*
X163149173Y-108245903D01*
X163149173Y-108483999D01*
X163196792Y-108579237D01*
X163244411Y-108626856D01*
X163339650Y-108674475D01*
X163577745Y-108674475D01*
X163672983Y-108626856D01*
X163720602Y-108579237D01*
X163768221Y-108483999D01*
X163768221Y-108245903D01*
X163720602Y-108150665D01*
X163672983Y-108103046D01*
X165188129Y-117107748D02*
X165188129Y-117869653D01*
X165569081Y-117488701D02*
X164807176Y-117488701D01*
X155428143Y-107737334D02*
X155475762Y-107689715D01*
X155523381Y-107546858D01*
X155523381Y-107451620D01*
X155475762Y-107308762D01*
X155380524Y-107213524D01*
X155285286Y-107165905D01*
X155094810Y-107118286D01*
X154951952Y-107118286D01*
X154761476Y-107165905D01*
X154666238Y-107213524D01*
X154571000Y-107308762D01*
X154523381Y-107451620D01*
X154523381Y-107546858D01*
X154571000Y-107689715D01*
X154618619Y-107737334D01*
X154523381Y-108594477D02*
X154523381Y-108404000D01*
X154571000Y-108308762D01*
X154618619Y-108261143D01*
X154761476Y-108165905D01*
X154951952Y-108118286D01*
X155332905Y-108118286D01*
X155428143Y-108165905D01*
X155475762Y-108213524D01*
X155523381Y-108308762D01*
X155523381Y-108499239D01*
X155475762Y-108594477D01*
X155428143Y-108642096D01*
X155332905Y-108689715D01*
X155094810Y-108689715D01*
X154999571Y-108642096D01*
X154951952Y-108594477D01*
X154904333Y-108499239D01*
X154904333Y-108308762D01*
X154951952Y-108213524D01*
X154999571Y-108165905D01*
X155094810Y-108118286D01*
X156943289Y-117122988D02*
X156943289Y-117884893D01*
X157324241Y-117503941D02*
X156562336Y-117503941D01*
X144315666Y-107749343D02*
X144363285Y-107796962D01*
X144506142Y-107844581D01*
X144601380Y-107844581D01*
X144744238Y-107796962D01*
X144839476Y-107701724D01*
X144887095Y-107606486D01*
X144934714Y-107416010D01*
X144934714Y-107273152D01*
X144887095Y-107082676D01*
X144839476Y-106987438D01*
X144744238Y-106892200D01*
X144601380Y-106844581D01*
X144506142Y-106844581D01*
X144363285Y-106892200D01*
X144315666Y-106939819D01*
X143982333Y-106844581D02*
X143315666Y-106844581D01*
X143744238Y-107844581D01*
X150841946Y-121525063D02*
X150889565Y-121572682D01*
X151032422Y-121620301D01*
X151127660Y-121620301D01*
X151270518Y-121572682D01*
X151365756Y-121477444D01*
X151413375Y-121382206D01*
X151460994Y-121191730D01*
X151460994Y-121048872D01*
X151413375Y-120858396D01*
X151365756Y-120763158D01*
X151270518Y-120667920D01*
X151127660Y-120620301D01*
X151032422Y-120620301D01*
X150889565Y-120667920D01*
X150841946Y-120715539D01*
X150270518Y-121048872D02*
X150365756Y-121001253D01*
X150413375Y-120953634D01*
X150460994Y-120858396D01*
X150460994Y-120810777D01*
X150413375Y-120715539D01*
X150365756Y-120667920D01*
X150270518Y-120620301D01*
X150080041Y-120620301D01*
X149984803Y-120667920D01*
X149937184Y-120715539D01*
X149889565Y-120810777D01*
X149889565Y-120858396D01*
X149937184Y-120953634D01*
X149984803Y-121001253D01*
X150080041Y-121048872D01*
X150270518Y-121048872D01*
X150365756Y-121096491D01*
X150413375Y-121144110D01*
X150460994Y-121239349D01*
X150460994Y-121429825D01*
X150413375Y-121525063D01*
X150365756Y-121572682D01*
X150270518Y-121620301D01*
X150080041Y-121620301D01*
X149984803Y-121572682D01*
X149937184Y-121525063D01*
X149889565Y-121429825D01*
X149889565Y-121239349D01*
X149937184Y-121144110D01*
X149984803Y-121096491D01*
X150080041Y-121048872D01*
X166889857Y-88863143D02*
X166937476Y-88910762D01*
X167080333Y-88958381D01*
X167175571Y-88958381D01*
X167318429Y-88910762D01*
X167413667Y-88815524D01*
X167461286Y-88720286D01*
X167508905Y-88529810D01*
X167508905Y-88386952D01*
X167461286Y-88196476D01*
X167413667Y-88101238D01*
X167318429Y-88006000D01*
X167175571Y-87958381D01*
X167080333Y-87958381D01*
X166937476Y-88006000D01*
X166889857Y-88053619D01*
X165937476Y-88958381D02*
X166508905Y-88958381D01*
X166223191Y-88958381D02*
X166223191Y-87958381D01*
X166318429Y-88101238D01*
X166413667Y-88196476D01*
X166508905Y-88244095D01*
X165318429Y-87958381D02*
X165223190Y-87958381D01*
X165127952Y-88006000D01*
X165080333Y-88053619D01*
X165032714Y-88148857D01*
X164985095Y-88339333D01*
X164985095Y-88577429D01*
X165032714Y-88767905D01*
X165080333Y-88863143D01*
X165127952Y-88910762D01*
X165223190Y-88958381D01*
X165318429Y-88958381D01*
X165413667Y-88910762D01*
X165461286Y-88863143D01*
X165508905Y-88767905D01*
X165556524Y-88577429D01*
X165556524Y-88339333D01*
X165508905Y-88148857D01*
X165461286Y-88053619D01*
X165413667Y-88006000D01*
X165318429Y-87958381D01*
X157360619Y-82709762D02*
X157313000Y-82614524D01*
X157217762Y-82519286D01*
X157074905Y-82376429D01*
X157027286Y-82281190D01*
X157027286Y-82185952D01*
X157265381Y-82233571D02*
X157217762Y-82138333D01*
X157122524Y-82043095D01*
X156932048Y-81995476D01*
X156598714Y-81995476D01*
X156408238Y-82043095D01*
X156313000Y-82138333D01*
X156265381Y-82233571D01*
X156265381Y-82424048D01*
X156313000Y-82519286D01*
X156408238Y-82614524D01*
X156598714Y-82662143D01*
X156932048Y-82662143D01*
X157122524Y-82614524D01*
X157217762Y-82519286D01*
X157265381Y-82424048D01*
X157265381Y-82233571D01*
X157265381Y-83614524D02*
X157265381Y-83043095D01*
X157265381Y-83328809D02*
X156265381Y-83328809D01*
X156408238Y-83233571D01*
X156503476Y-83138333D01*
X156551095Y-83043095D01*
X157360619Y-88678762D02*
X157313000Y-88583524D01*
X157217762Y-88488286D01*
X157074905Y-88345429D01*
X157027286Y-88250190D01*
X157027286Y-88154952D01*
X157265381Y-88202571D02*
X157217762Y-88107333D01*
X157122524Y-88012095D01*
X156932048Y-87964476D01*
X156598714Y-87964476D01*
X156408238Y-88012095D01*
X156313000Y-88107333D01*
X156265381Y-88202571D01*
X156265381Y-88393048D01*
X156313000Y-88488286D01*
X156408238Y-88583524D01*
X156598714Y-88631143D01*
X156932048Y-88631143D01*
X157122524Y-88583524D01*
X157217762Y-88488286D01*
X157265381Y-88393048D01*
X157265381Y-88202571D01*
X156360619Y-89012095D02*
X156313000Y-89059714D01*
X156265381Y-89154952D01*
X156265381Y-89393048D01*
X156313000Y-89488286D01*
X156360619Y-89535905D01*
X156455857Y-89583524D01*
X156551095Y-89583524D01*
X156693952Y-89535905D01*
X157265381Y-88964476D01*
X157265381Y-89583524D01*
X147109666Y-96070381D02*
X147443000Y-95594190D01*
X147681095Y-96070381D02*
X147681095Y-95070381D01*
X147300142Y-95070381D01*
X147204904Y-95118000D01*
X147157285Y-95165619D01*
X147109666Y-95260857D01*
X147109666Y-95403714D01*
X147157285Y-95498952D01*
X147204904Y-95546571D01*
X147300142Y-95594190D01*
X147681095Y-95594190D01*
X146157285Y-96070381D02*
X146728714Y-96070381D01*
X146443000Y-96070381D02*
X146443000Y-95070381D01*
X146538238Y-95213238D01*
X146633476Y-95308476D01*
X146728714Y-95356095D01*
X163030381Y-94068334D02*
X162554190Y-93735000D01*
X163030381Y-93496905D02*
X162030381Y-93496905D01*
X162030381Y-93877858D01*
X162078000Y-93973096D01*
X162125619Y-94020715D01*
X162220857Y-94068334D01*
X162363714Y-94068334D01*
X162458952Y-94020715D01*
X162506571Y-93973096D01*
X162554190Y-93877858D01*
X162554190Y-93496905D01*
X162363714Y-94925477D02*
X163030381Y-94925477D01*
X161982762Y-94687381D02*
X162697048Y-94449286D01*
X162697048Y-95068334D01*
X147109666Y-78417381D02*
X147443000Y-77941190D01*
X147681095Y-78417381D02*
X147681095Y-77417381D01*
X147300142Y-77417381D01*
X147204904Y-77465000D01*
X147157285Y-77512619D01*
X147109666Y-77607857D01*
X147109666Y-77750714D01*
X147157285Y-77845952D01*
X147204904Y-77893571D01*
X147300142Y-77941190D01*
X147681095Y-77941190D01*
X146204904Y-77417381D02*
X146681095Y-77417381D01*
X146728714Y-77893571D01*
X146681095Y-77845952D01*
X146585857Y-77798333D01*
X146347761Y-77798333D01*
X146252523Y-77845952D01*
X146204904Y-77893571D01*
X146157285Y-77988810D01*
X146157285Y-78226905D01*
X146204904Y-78322143D01*
X146252523Y-78369762D01*
X146347761Y-78417381D01*
X146585857Y-78417381D01*
X146681095Y-78369762D01*
X146728714Y-78322143D01*
X146982666Y-92006381D02*
X147316000Y-91530190D01*
X147554095Y-92006381D02*
X147554095Y-91006381D01*
X147173142Y-91006381D01*
X147077904Y-91054000D01*
X147030285Y-91101619D01*
X146982666Y-91196857D01*
X146982666Y-91339714D01*
X147030285Y-91434952D01*
X147077904Y-91482571D01*
X147173142Y-91530190D01*
X147554095Y-91530190D01*
X146125523Y-91006381D02*
X146316000Y-91006381D01*
X146411238Y-91054000D01*
X146458857Y-91101619D01*
X146554095Y-91244476D01*
X146601714Y-91434952D01*
X146601714Y-91815905D01*
X146554095Y-91911143D01*
X146506476Y-91958762D01*
X146411238Y-92006381D01*
X146220761Y-92006381D01*
X146125523Y-91958762D01*
X146077904Y-91911143D01*
X146030285Y-91815905D01*
X146030285Y-91577810D01*
X146077904Y-91482571D01*
X146125523Y-91434952D01*
X146220761Y-91387333D01*
X146411238Y-91387333D01*
X146506476Y-91434952D01*
X146554095Y-91482571D01*
X146601714Y-91577810D01*
X147109666Y-83116381D02*
X147443000Y-82640190D01*
X147681095Y-83116381D02*
X147681095Y-82116381D01*
X147300142Y-82116381D01*
X147204904Y-82164000D01*
X147157285Y-82211619D01*
X147109666Y-82306857D01*
X147109666Y-82449714D01*
X147157285Y-82544952D01*
X147204904Y-82592571D01*
X147300142Y-82640190D01*
X147681095Y-82640190D01*
X146776333Y-82116381D02*
X146109666Y-82116381D01*
X146538238Y-83116381D01*
X147109666Y-87561381D02*
X147443000Y-87085190D01*
X147681095Y-87561381D02*
X147681095Y-86561381D01*
X147300142Y-86561381D01*
X147204904Y-86609000D01*
X147157285Y-86656619D01*
X147109666Y-86751857D01*
X147109666Y-86894714D01*
X147157285Y-86989952D01*
X147204904Y-87037571D01*
X147300142Y-87085190D01*
X147681095Y-87085190D01*
X146538238Y-86989952D02*
X146633476Y-86942333D01*
X146681095Y-86894714D01*
X146728714Y-86799476D01*
X146728714Y-86751857D01*
X146681095Y-86656619D01*
X146633476Y-86609000D01*
X146538238Y-86561381D01*
X146347761Y-86561381D01*
X146252523Y-86609000D01*
X146204904Y-86656619D01*
X146157285Y-86751857D01*
X146157285Y-86799476D01*
X146204904Y-86894714D01*
X146252523Y-86942333D01*
X146347761Y-86989952D01*
X146538238Y-86989952D01*
X146633476Y-87037571D01*
X146681095Y-87085190D01*
X146728714Y-87180429D01*
X146728714Y-87370905D01*
X146681095Y-87466143D01*
X146633476Y-87513762D01*
X146538238Y-87561381D01*
X146347761Y-87561381D01*
X146252523Y-87513762D01*
X146204904Y-87466143D01*
X146157285Y-87370905D01*
X146157285Y-87180429D01*
X146204904Y-87085190D01*
X146252523Y-87037571D01*
X146347761Y-86989952D01*
X163157381Y-84702143D02*
X162681190Y-84368809D01*
X163157381Y-84130714D02*
X162157381Y-84130714D01*
X162157381Y-84511667D01*
X162205000Y-84606905D01*
X162252619Y-84654524D01*
X162347857Y-84702143D01*
X162490714Y-84702143D01*
X162585952Y-84654524D01*
X162633571Y-84606905D01*
X162681190Y-84511667D01*
X162681190Y-84130714D01*
X163157381Y-85654524D02*
X163157381Y-85083095D01*
X163157381Y-85368809D02*
X162157381Y-85368809D01*
X162300238Y-85273571D01*
X162395476Y-85178333D01*
X162443095Y-85083095D01*
X163157381Y-86606905D02*
X163157381Y-86035476D01*
X163157381Y-86321190D02*
X162157381Y-86321190D01*
X162300238Y-86225952D01*
X162395476Y-86130714D01*
X162443095Y-86035476D01*
X158584841Y-121067655D02*
X159394365Y-121067655D01*
X159489603Y-121115274D01*
X159537222Y-121162893D01*
X159584841Y-121258131D01*
X159584841Y-121448608D01*
X159537222Y-121543846D01*
X159489603Y-121591465D01*
X159394365Y-121639084D01*
X158584841Y-121639084D01*
X158584841Y-122020036D02*
X158584841Y-122639084D01*
X158965793Y-122305750D01*
X158965793Y-122448608D01*
X159013412Y-122543846D01*
X159061031Y-122591465D01*
X159156270Y-122639084D01*
X159394365Y-122639084D01*
X159489603Y-122591465D01*
X159537222Y-122543846D01*
X159584841Y-122448608D01*
X159584841Y-122162893D01*
X159537222Y-122067655D01*
X159489603Y-122020036D01*
X158060841Y-118734322D02*
X158060841Y-118162893D01*
X158060841Y-118448607D02*
X157060841Y-118448607D01*
X157203698Y-118353369D01*
X157298936Y-118258131D01*
X157346555Y-118162893D01*
X158060841Y-119686703D02*
X158060841Y-119115274D01*
X158060841Y-119400988D02*
X157060841Y-119400988D01*
X157203698Y-119305750D01*
X157298936Y-119210512D01*
X157346555Y-119115274D01*
X158060841Y-120639084D02*
X158060841Y-120067655D01*
X158060841Y-120353369D02*
X157060841Y-120353369D01*
X157203698Y-120258131D01*
X157298936Y-120162893D01*
X157346555Y-120067655D01*
X157060841Y-120972417D02*
X157060841Y-121639084D01*
X158060841Y-121210512D01*
X157679889Y-122020036D02*
X157679889Y-122781941D01*
X157060841Y-123162893D02*
X157060841Y-123781941D01*
X157441793Y-123448607D01*
X157441793Y-123591465D01*
X157489412Y-123686703D01*
X157537031Y-123734322D01*
X157632270Y-123781941D01*
X157870365Y-123781941D01*
X157965603Y-123734322D01*
X158013222Y-123686703D01*
X158060841Y-123591465D01*
X158060841Y-123305750D01*
X158013222Y-123210512D01*
X157965603Y-123162893D01*
X157394174Y-124115274D02*
X158060841Y-124353369D01*
X157394174Y-124591465D01*
X157060841Y-124877179D02*
X157060841Y-125496227D01*
X157441793Y-125162893D01*
X157441793Y-125305751D01*
X157489412Y-125400989D01*
X157537031Y-125448608D01*
X157632270Y-125496227D01*
X157870365Y-125496227D01*
X157965603Y-125448608D01*
X158013222Y-125400989D01*
X158060841Y-125305751D01*
X158060841Y-125020036D01*
X158013222Y-124924798D01*
X157965603Y-124877179D01*
%LPC*%
D13*
X151596280Y-115891040D03*
X150961280Y-115891040D03*
X150300880Y-115891040D03*
X149640480Y-115891040D03*
X149005480Y-115891040D03*
X148345080Y-115891040D03*
X147684680Y-115891040D03*
X147049680Y-115891040D03*
X146389280Y-115891040D03*
X145754280Y-115891040D03*
X145754280Y-110557040D03*
X146389280Y-110557040D03*
X147049680Y-110557040D03*
X147684680Y-110557040D03*
X148345080Y-110557040D03*
X149005480Y-110557040D03*
X149640480Y-110557040D03*
X150300880Y-110557040D03*
X150961280Y-110557040D03*
X151596280Y-110557040D03*
D14*
X163315840Y-110889780D03*
X163315840Y-114887740D03*
X155071000Y-110905020D03*
X155071000Y-114902980D03*
D15*
X146619400Y-107468400D03*
X150619400Y-107468400D03*
X146675280Y-118867920D03*
X150675280Y-118867920D03*
D16*
X159262000Y-112015000D03*
X159262000Y-114555000D03*
D15*
X168247000Y-90806000D03*
X164247000Y-90806000D03*
D17*
X168660000Y-115593860D03*
X168660000Y-121593340D03*
X173359000Y-118593600D03*
D18*
X171885800Y-104699800D03*
D19*
X171885800Y-107239800D03*
X171885800Y-109779800D03*
D20*
X147182180Y-121719900D03*
X146532180Y-121719900D03*
X145882180Y-121719900D03*
X145232180Y-121719900D03*
X144582180Y-121719900D03*
D21*
X148382180Y-121719900D03*
X143382180Y-121719900D03*
D22*
X149382180Y-124419900D03*
X142382180Y-124419900D03*
D18*
X141228000Y-80011000D03*
D19*
X141228000Y-82551000D03*
X141228000Y-85091000D03*
X141228000Y-87631000D03*
X141228000Y-90171000D03*
D23*
X153562240Y-83755000D03*
X153562240Y-81855000D03*
X155561220Y-82805000D03*
X153562240Y-89724000D03*
X153562240Y-87824000D03*
X155561220Y-88774000D03*
D24*
X148943000Y-97918000D03*
X144943000Y-97918000D03*
D25*
X160278000Y-96235000D03*
X160278000Y-92235000D03*
D24*
X148943000Y-80265000D03*
X144943000Y-80265000D03*
X148816000Y-93854000D03*
X144816000Y-93854000D03*
X148943000Y-84964000D03*
X144943000Y-84964000D03*
X148943000Y-89409000D03*
X144943000Y-89409000D03*
D25*
X160405000Y-87345000D03*
X160405000Y-83345000D03*
D26*
X169549000Y-79122000D03*
X172089000Y-79122000D03*
X167009000Y-79122000D03*
D27*
X161672460Y-121829560D03*
D28*
X155068460Y-121829560D03*
X155068460Y-119543560D03*
X155068460Y-124115560D03*
D29*
X141410880Y-111733060D03*
X141410880Y-116614940D03*
M02*
