G04 #@! TF.FileFunction,Copper,L2,Bot,Signal*
%FSLAX46Y46*%
G04 Gerber Fmt 4.6, Leading zero omitted, Abs format (unit mm)*
G04 Created by KiCad (PCBNEW (2015-08-30 BZR 6134, Git 4e94d52)-product) date 02-Sep-15 10:21:18 AM*
%MOMM*%
G01*
G04 APERTURE LIST*
%ADD10C,0.100000*%
%ADD11R,0.406400X1.270000*%
%ADD12R,1.501140X2.999740*%
%ADD13R,2.000000X1.600000*%
%ADD14C,1.501140*%
%ADD15R,2.032000X1.727200*%
%ADD16O,2.032000X1.727200*%
%ADD17R,0.800100X0.800100*%
%ADD18R,2.000000X1.700000*%
%ADD19R,1.700000X2.000000*%
%ADD20C,1.524000*%
%ADD21R,2.032000X3.657600*%
%ADD22R,2.032000X1.016000*%
%ADD23O,2.499360X1.998980*%
%ADD24R,0.450000X1.380000*%
%ADD25R,1.475000X2.100000*%
%ADD26R,2.375000X1.900000*%
%ADD27R,1.150000X1.900000*%
%ADD28C,0.762000*%
%ADD29C,2.500000*%
%ADD30C,0.177800*%
%ADD31C,0.500000*%
%ADD32C,0.254000*%
G04 APERTURE END LIST*
D10*
D11*
X151596280Y-115891040D03*
X150961280Y-115891040D03*
X150300880Y-115891040D03*
X149640480Y-115891040D03*
X149005480Y-115891040D03*
X148345080Y-115891040D03*
X147684680Y-115891040D03*
X147049680Y-115891040D03*
X146389280Y-115891040D03*
X145754280Y-115891040D03*
X145754280Y-110557040D03*
X146389280Y-110557040D03*
X147049680Y-110557040D03*
X147684680Y-110557040D03*
X148345080Y-110557040D03*
X149005480Y-110557040D03*
X149640480Y-110557040D03*
X150300880Y-110557040D03*
X150961280Y-110557040D03*
X151596280Y-110557040D03*
D12*
X163315840Y-110889780D03*
X163315840Y-114887740D03*
X155071000Y-110905020D03*
X155071000Y-114902980D03*
D13*
X146619400Y-107468400D03*
X150619400Y-107468400D03*
X146675280Y-118867920D03*
X150675280Y-118867920D03*
D14*
X159262000Y-112015000D03*
X159262000Y-114555000D03*
D13*
X168247000Y-90806000D03*
X164247000Y-90806000D03*
D15*
X171885800Y-104699800D03*
D16*
X171885800Y-107239800D03*
X171885800Y-109779800D03*
D15*
X141228000Y-80011000D03*
D16*
X141228000Y-82551000D03*
X141228000Y-85091000D03*
X141228000Y-87631000D03*
X141228000Y-90171000D03*
D17*
X153562240Y-83755000D03*
X153562240Y-81855000D03*
X155561220Y-82805000D03*
X153562240Y-89724000D03*
X153562240Y-87824000D03*
X155561220Y-88774000D03*
D18*
X148943000Y-97918000D03*
X144943000Y-97918000D03*
D19*
X160278000Y-96235000D03*
X160278000Y-92235000D03*
D18*
X148943000Y-80265000D03*
X144943000Y-80265000D03*
X148816000Y-93854000D03*
X144816000Y-93854000D03*
X148943000Y-84964000D03*
X144943000Y-84964000D03*
X148943000Y-89409000D03*
X144943000Y-89409000D03*
D19*
X160405000Y-87345000D03*
X160405000Y-83345000D03*
D20*
X169549000Y-79122000D03*
X172089000Y-79122000D03*
X167009000Y-79122000D03*
D21*
X161672460Y-121829560D03*
D22*
X155068460Y-121829560D03*
X155068460Y-119543560D03*
X155068460Y-124115560D03*
D23*
X141410880Y-111733060D03*
X141410880Y-116614940D03*
D24*
X145000000Y-122170000D03*
X145650000Y-122170000D03*
X146300000Y-122170000D03*
X144350000Y-122170000D03*
X143700000Y-122170000D03*
D25*
X142225000Y-122530000D03*
X147775000Y-122530000D03*
D26*
X141775000Y-125160000D03*
D27*
X144162500Y-125160000D03*
D26*
X148225000Y-125160000D03*
D27*
X145837500Y-125160000D03*
D28*
X147728423Y-117362101D03*
X145034000Y-109093000D03*
X146748500Y-112903000D03*
X149987000Y-109093000D03*
X153162404Y-111097619D03*
X152527000Y-118110000D03*
X156126336Y-98623680D03*
X141631116Y-101092624D03*
X151386678Y-95462320D03*
D29*
X173359000Y-118593600D03*
X168660000Y-121593340D03*
D28*
X158754000Y-82932000D03*
X164342000Y-92330000D03*
X152912000Y-116460000D03*
X144881085Y-115494484D03*
D29*
X168660000Y-115593860D03*
D28*
X164846000Y-122809000D03*
X172021500Y-112712500D03*
X170185224Y-89367861D03*
X158211267Y-96263342D03*
X157838560Y-108860249D03*
X146562000Y-107316000D03*
X163065422Y-86954627D03*
X157250410Y-91185488D03*
X148960658Y-99946441D03*
X147044859Y-87198672D03*
X149696232Y-113221421D03*
X148256123Y-112890009D03*
X151878986Y-89898399D03*
D30*
X147728423Y-117362101D02*
X147728423Y-115934783D01*
X147728423Y-115934783D02*
X147684680Y-115891040D01*
X147706551Y-117383973D02*
X147728423Y-117362101D01*
X147706551Y-117392723D02*
X147706551Y-117383973D01*
X146748500Y-112903000D02*
X145034000Y-111188500D01*
X145034000Y-111188500D02*
X145034000Y-109093000D01*
X150619400Y-107468400D02*
X150819400Y-107468400D01*
X150819400Y-107468400D02*
X153162404Y-109811404D01*
X153162404Y-109811404D02*
X153162404Y-110558804D01*
X153162404Y-110558804D02*
X153162404Y-111097619D01*
X150675280Y-118867920D02*
X151853080Y-118867920D01*
X151853080Y-118867920D02*
X152527000Y-118194000D01*
X152527000Y-118194000D02*
X152527000Y-118110000D01*
X149987000Y-109093000D02*
X150619400Y-108460600D01*
X150619400Y-108460600D02*
X150619400Y-107468400D01*
X155071000Y-110905020D02*
X153355003Y-110905020D01*
X153355003Y-110905020D02*
X153162404Y-111097619D01*
X156135577Y-98688366D02*
X156126336Y-98679125D01*
X155561220Y-98326550D02*
X155643687Y-98409017D01*
X156126336Y-98679125D02*
X156126336Y-98623680D01*
X155561220Y-88774000D02*
X155561220Y-98326550D01*
X152696990Y-95462320D02*
X155643687Y-98409017D01*
X151386678Y-95462320D02*
X152696990Y-95462320D01*
X141631116Y-101079884D02*
X141631116Y-101092624D01*
X144793000Y-97918000D02*
X141631116Y-101079884D01*
X144943000Y-97918000D02*
X144793000Y-97918000D01*
X148681543Y-95357257D02*
X150742800Y-95357257D01*
X150742800Y-95357257D02*
X150847863Y-95462320D01*
X150847863Y-95462320D02*
X151386678Y-95462320D01*
X144943000Y-97918000D02*
X146120800Y-97918000D01*
X146120800Y-97918000D02*
X148681543Y-95357257D01*
X148225000Y-125160000D02*
X148225000Y-122980000D01*
X148225000Y-122980000D02*
X147775000Y-122530000D01*
X145837500Y-125160000D02*
X146590300Y-125160000D01*
X146590300Y-125160000D02*
X148225000Y-125160000D01*
X144162500Y-125160000D02*
X145837500Y-125160000D01*
X141775000Y-125160000D02*
X143140300Y-125160000D01*
X143140300Y-125160000D02*
X144162500Y-125160000D01*
X142225000Y-122530000D02*
X142225000Y-124710000D01*
X142225000Y-124710000D02*
X141775000Y-125160000D01*
X143700000Y-122170000D02*
X142585000Y-122170000D01*
X142585000Y-122170000D02*
X142225000Y-122530000D01*
X144350000Y-122170000D02*
X143700000Y-122170000D01*
X158754000Y-82932000D02*
X159167000Y-83345000D01*
X159167000Y-83345000D02*
X160405000Y-83345000D01*
X164342000Y-92330000D02*
X164342000Y-90901000D01*
X164342000Y-90901000D02*
X164247000Y-90806000D01*
X155561220Y-88774000D02*
X155561220Y-82805000D01*
X152912000Y-116460000D02*
X152165240Y-116460000D01*
X152165240Y-116460000D02*
X151596280Y-115891040D01*
X160405000Y-83345000D02*
X156101220Y-83345000D01*
X156101220Y-83345000D02*
X155561220Y-82805000D01*
X144881085Y-116033299D02*
X144881085Y-115494484D01*
X144881085Y-116731667D02*
X144881085Y-116033299D01*
X145234270Y-117084852D02*
X144881085Y-116731667D01*
X146668668Y-117084852D02*
X145234270Y-117084852D01*
X147049680Y-116703840D02*
X146668668Y-117084852D01*
X147049680Y-115891040D02*
X147049680Y-116703840D01*
D31*
X172021500Y-112712500D02*
X172021500Y-115633500D01*
X172021500Y-115633500D02*
X164846000Y-122809000D01*
D30*
X170185224Y-89367861D02*
X168747085Y-90806000D01*
X168747085Y-90806000D02*
X168247000Y-90806000D01*
X169804225Y-88986862D02*
X170185224Y-89367861D01*
X156569609Y-87383731D02*
X156569609Y-91420701D01*
X159341639Y-84611701D02*
X156569609Y-87383731D01*
X161468361Y-84611701D02*
X159341639Y-84611701D01*
X167650075Y-77737688D02*
X168406000Y-78493613D01*
X161521701Y-84558361D02*
X161468361Y-84611701D01*
X161521701Y-82131639D02*
X161521701Y-84558361D01*
X161420361Y-82030299D02*
X161521701Y-82131639D01*
X156569609Y-91420701D02*
X158650609Y-93501701D01*
X158650609Y-93501701D02*
X166051384Y-93501701D01*
X154894469Y-82191589D02*
X155055759Y-82030299D01*
X168406000Y-78493613D02*
X168406000Y-87588637D01*
X159348370Y-77737688D02*
X167650075Y-77737688D01*
X154894469Y-82191589D02*
X159348370Y-77737688D01*
X168406000Y-87588637D02*
X169804225Y-88986862D01*
X155055759Y-82030299D02*
X161420361Y-82030299D01*
X166051384Y-93501701D02*
X169804225Y-89748860D01*
X153984917Y-91380417D02*
X154894469Y-90470865D01*
X153619645Y-91380417D02*
X153984917Y-91380417D01*
X144943000Y-89409000D02*
X144943000Y-92311062D01*
X147602639Y-94970701D02*
X150029361Y-94970701D01*
X144943000Y-92311062D02*
X147602639Y-94970701D01*
X154894469Y-90470865D02*
X154894469Y-82191589D01*
X150029361Y-94970701D02*
X153619645Y-91380417D01*
X150530391Y-94970701D02*
X154894469Y-90606623D01*
X154894469Y-90606623D02*
X154894469Y-82191589D01*
X147110501Y-94970701D02*
X150530391Y-94970701D01*
X145993800Y-93854000D02*
X147110501Y-94970701D01*
X144816000Y-93854000D02*
X145993800Y-93854000D01*
X144943000Y-89409000D02*
X144943000Y-93727000D01*
X144943000Y-93727000D02*
X144816000Y-93854000D01*
X141228000Y-85091000D02*
X141380400Y-85091000D01*
X141380400Y-85091000D02*
X144943000Y-88653600D01*
X144943000Y-88653600D02*
X144943000Y-89409000D01*
X168247000Y-90806000D02*
X168447000Y-90806000D01*
X168447000Y-90806000D02*
X173168501Y-95527501D01*
X173168501Y-95527501D02*
X173168501Y-106109499D01*
X173168501Y-106109499D02*
X172038200Y-107239800D01*
X172038200Y-107239800D02*
X171885800Y-107239800D01*
X164085460Y-114887740D02*
X163315840Y-114887740D01*
X171733400Y-107239800D02*
X164085460Y-114887740D01*
X171885800Y-107239800D02*
X171733400Y-107239800D01*
X163315840Y-114887740D02*
X162387470Y-114887740D01*
X162387470Y-114887740D02*
X157731650Y-119543560D01*
X157731650Y-119543560D02*
X156262260Y-119543560D01*
X156262260Y-119543560D02*
X155068460Y-119543560D01*
X160278000Y-96235000D02*
X158239609Y-96235000D01*
X158239609Y-96235000D02*
X158211267Y-96263342D01*
X157838560Y-109399064D02*
X157838560Y-108860249D01*
X157838560Y-110964170D02*
X157838560Y-109399064D01*
X155071000Y-113731730D02*
X157838560Y-110964170D01*
X155071000Y-114902980D02*
X155071000Y-113731730D01*
X153559701Y-115924061D02*
X152538620Y-114902980D01*
X153559701Y-116770897D02*
X153559701Y-115924061D01*
X153222897Y-117107701D02*
X153559701Y-116770897D01*
X150044341Y-117107701D02*
X153222897Y-117107701D01*
X149640480Y-116703840D02*
X150044341Y-117107701D01*
X155071000Y-116580650D02*
X155071000Y-114902980D01*
X153430148Y-118221502D02*
X155071000Y-116580650D01*
X154560460Y-121829560D02*
X153430148Y-120699248D01*
X155068460Y-121829560D02*
X154560460Y-121829560D01*
X153430148Y-120699248D02*
X153430148Y-118221502D01*
X149640480Y-115891040D02*
X149640480Y-116703840D01*
X152538620Y-114902980D02*
X154142630Y-114902980D01*
X149005480Y-111369840D02*
X152538620Y-114902980D01*
X149005480Y-110557040D02*
X149005480Y-111369840D01*
X154142630Y-114902980D02*
X155071000Y-114902980D01*
X146675280Y-118867920D02*
X147853080Y-118867920D01*
X147853080Y-118867920D02*
X149640480Y-117080520D01*
X149640480Y-117080520D02*
X149640480Y-116703840D01*
X146562000Y-107316000D02*
X149005480Y-109759480D01*
X149005480Y-109759480D02*
X149005480Y-110557040D01*
X159909702Y-105823496D02*
X161033398Y-104699800D01*
X160188959Y-109472129D02*
X160188959Y-108554359D01*
X159909702Y-108275102D02*
X159909702Y-105823496D01*
X160188959Y-108554359D02*
X159909702Y-108275102D01*
X146300000Y-122170000D02*
X146300000Y-121705000D01*
X146300000Y-121705000D02*
X147137900Y-120867100D01*
X152101938Y-120867100D02*
X153839099Y-122604261D01*
X147137900Y-120867100D02*
X152101938Y-120867100D01*
X161033398Y-104699800D02*
X171885800Y-104699800D01*
X153785759Y-120264921D02*
X153785759Y-118822199D01*
X153785759Y-118822199D02*
X156297821Y-116310137D01*
X156401959Y-120422399D02*
X156297821Y-120318261D01*
X153839099Y-122604261D02*
X156401959Y-122604261D01*
X156297821Y-116310137D02*
X156297821Y-113016779D01*
X156401959Y-122604261D02*
X156401959Y-120422399D01*
X159505667Y-109808933D02*
X159852155Y-109808933D01*
X156297821Y-113016779D02*
X159505667Y-109808933D01*
X159852155Y-109808933D02*
X160188959Y-109472129D01*
X156297821Y-120318261D02*
X153839099Y-120318261D01*
X153839099Y-120318261D02*
X153785759Y-120264921D01*
X167502777Y-78093299D02*
X168037701Y-78628223D01*
X166515223Y-78093299D02*
X167502777Y-78093299D01*
X165980299Y-78628223D02*
X166515223Y-78093299D01*
X165980299Y-81116793D02*
X165980299Y-78628223D01*
X168037701Y-78628223D02*
X168037701Y-81982348D01*
X161018793Y-86078299D02*
X165980299Y-81116793D01*
X157250410Y-88169528D02*
X159341639Y-86078299D01*
X157250410Y-91185488D02*
X157250410Y-88169528D01*
X163446421Y-86573628D02*
X163065422Y-86954627D01*
X168037701Y-81982348D02*
X163446421Y-86573628D01*
X159341639Y-86078299D02*
X161018793Y-86078299D01*
X148943000Y-97918000D02*
X148943000Y-99928783D01*
X148943000Y-99928783D02*
X148960658Y-99946441D01*
X143676299Y-86027361D02*
X144847610Y-87198672D01*
X144943000Y-80265000D02*
X144943000Y-81292800D01*
X144943000Y-81292800D02*
X143676299Y-82559501D01*
X143676299Y-82559501D02*
X143676299Y-86027361D01*
X146506044Y-87198672D02*
X147044859Y-87198672D01*
X144847610Y-87198672D02*
X146506044Y-87198672D01*
X150077231Y-113602420D02*
X149696232Y-113221421D01*
X150961280Y-114486469D02*
X150077231Y-113602420D01*
X150961280Y-115891040D02*
X150961280Y-114486469D01*
X148637122Y-113271008D02*
X148256123Y-112890009D01*
X150300880Y-115891040D02*
X150300880Y-114934766D01*
X150300880Y-114934766D02*
X148637122Y-113271008D01*
X144628012Y-114788957D02*
X145303166Y-114788957D01*
X145284379Y-119589442D02*
X145284379Y-117641485D01*
X148256179Y-114989339D02*
X148345080Y-115078240D01*
X145503548Y-114989339D02*
X148256179Y-114989339D01*
X145303166Y-114788957D02*
X145503548Y-114989339D01*
X144233383Y-115183586D02*
X144628012Y-114788957D01*
X144233383Y-116590489D02*
X144233383Y-115183586D01*
X145284379Y-117641485D02*
X144233383Y-116590489D01*
X148345080Y-115078240D02*
X148345080Y-115891040D01*
X145650000Y-122170000D02*
X145650000Y-121302200D01*
X145650000Y-121302200D02*
X145284379Y-120936579D01*
X145284379Y-120936579D02*
X145284379Y-119589442D01*
X145284379Y-119757081D02*
X145284379Y-119589442D01*
X149005480Y-115078240D02*
X148560968Y-114633728D01*
X144928768Y-121230968D02*
X145000000Y-121302200D01*
X143877772Y-116853435D02*
X144928768Y-117904431D01*
X144480714Y-114433346D02*
X143877772Y-115036288D01*
X145450464Y-114433346D02*
X144480714Y-114433346D01*
X145650846Y-114633728D02*
X145450464Y-114433346D01*
X148560968Y-114633728D02*
X145650846Y-114633728D01*
X149005480Y-115891040D02*
X149005480Y-115078240D01*
X145000000Y-121302200D02*
X145000000Y-122170000D01*
X143877772Y-115036288D02*
X143877772Y-116853435D01*
X144928768Y-117904431D02*
X144928768Y-121230968D01*
X148816000Y-92826200D02*
X148816000Y-93854000D01*
X147676299Y-91686499D02*
X148816000Y-92826200D01*
X147676299Y-87525830D02*
X147676299Y-91686499D01*
X147692560Y-86535760D02*
X147692560Y-87509569D01*
X147692560Y-87509569D02*
X147676299Y-87525830D01*
X144943000Y-84964000D02*
X146120800Y-84964000D01*
X146120800Y-84964000D02*
X147692560Y-86535760D01*
X145124200Y-83755000D02*
X144943000Y-83936200D01*
X153562240Y-83755000D02*
X145124200Y-83755000D01*
X144943000Y-83936200D02*
X144943000Y-84964000D01*
X153562240Y-81855000D02*
X149505200Y-81855000D01*
X149505200Y-81855000D02*
X148943000Y-81292800D01*
X148943000Y-81292800D02*
X148943000Y-80265000D01*
X151878986Y-89898399D02*
X152848857Y-89898399D01*
X152848857Y-89898399D02*
X152848857Y-89859533D01*
X152848857Y-89859533D02*
X152984390Y-89724000D01*
X152984390Y-89724000D02*
X153562240Y-89724000D01*
X148943000Y-89409000D02*
X151389587Y-89409000D01*
X151389587Y-89409000D02*
X151878986Y-89898399D01*
X148943000Y-84964000D02*
X151280090Y-84964000D01*
X151280090Y-84964000D02*
X153562240Y-87246150D01*
X153562240Y-87246150D02*
X153562240Y-87824000D01*
X160278000Y-92235000D02*
X160278000Y-87472000D01*
X160278000Y-87472000D02*
X160405000Y-87345000D01*
X167009000Y-80591000D02*
X167009000Y-79122000D01*
X160405000Y-87195000D02*
X167009000Y-80591000D01*
X160405000Y-87345000D02*
X160405000Y-87195000D01*
D32*
G36*
X170316529Y-110353289D02*
X170641385Y-110839470D01*
X171127566Y-111164326D01*
X171701055Y-111278400D01*
X172070545Y-111278400D01*
X172644034Y-111164326D01*
X173130215Y-110839470D01*
X173264982Y-110637777D01*
X173173834Y-124473000D01*
X140157828Y-124473000D01*
X140200409Y-117925984D01*
X140498275Y-118125012D01*
X141123767Y-118249430D01*
X141697993Y-118249430D01*
X142323485Y-118125012D01*
X142853752Y-117770699D01*
X143208065Y-117240432D01*
X143225131Y-117154637D01*
X143310747Y-117282772D01*
X143365897Y-117365310D01*
X144204868Y-118204280D01*
X144204868Y-121189620D01*
X144178569Y-121228110D01*
X144127560Y-121480000D01*
X144127560Y-122860000D01*
X144171838Y-123095317D01*
X144310910Y-123311441D01*
X144523110Y-123456431D01*
X144775000Y-123507440D01*
X145225000Y-123507440D01*
X145328671Y-123487933D01*
X145425000Y-123507440D01*
X145875000Y-123507440D01*
X145978671Y-123487933D01*
X146075000Y-123507440D01*
X146525000Y-123507440D01*
X146760317Y-123463162D01*
X146976441Y-123324090D01*
X147121431Y-123111890D01*
X147172440Y-122860000D01*
X147172440Y-121856310D01*
X147437749Y-121591000D01*
X151802088Y-121591000D01*
X153327222Y-123116133D01*
X153327224Y-123116136D01*
X153484146Y-123220987D01*
X153562075Y-123273058D01*
X153839099Y-123328162D01*
X153839104Y-123328161D01*
X156401959Y-123328161D01*
X156678984Y-123273057D01*
X156913834Y-123116136D01*
X157070755Y-122881286D01*
X157125859Y-122604261D01*
X157125859Y-120422399D01*
X157095040Y-120267460D01*
X157731645Y-120267460D01*
X157731650Y-120267461D01*
X157962713Y-120221499D01*
X158008675Y-120212356D01*
X158243525Y-120055435D01*
X158298199Y-120000760D01*
X160009020Y-120000760D01*
X160009020Y-123658360D01*
X160053298Y-123893677D01*
X160192370Y-124109801D01*
X160404570Y-124254791D01*
X160656460Y-124305800D01*
X162688460Y-124305800D01*
X162923777Y-124261522D01*
X163139901Y-124122450D01*
X163284891Y-123910250D01*
X163335900Y-123658360D01*
X163335900Y-123010208D01*
X163829824Y-123010208D01*
X163984175Y-123383766D01*
X164269731Y-123669821D01*
X164643018Y-123824824D01*
X165047208Y-123825176D01*
X165420766Y-123670825D01*
X165706821Y-123385269D01*
X165838551Y-123068029D01*
X172647287Y-116259292D01*
X172647290Y-116259290D01*
X172839133Y-115972175D01*
X172906500Y-115633500D01*
X172906500Y-113230540D01*
X173037324Y-112915482D01*
X173037676Y-112511292D01*
X172883325Y-112137734D01*
X172597769Y-111851679D01*
X172224482Y-111696676D01*
X171820292Y-111696324D01*
X171446734Y-111850675D01*
X171160679Y-112136231D01*
X171005676Y-112509518D01*
X171005324Y-112913708D01*
X171136500Y-113231178D01*
X171136500Y-115266921D01*
X170544770Y-115858651D01*
X170545326Y-115220555D01*
X170258957Y-114527488D01*
X169729161Y-113996767D01*
X169036595Y-113709188D01*
X168286695Y-113708534D01*
X167593628Y-113994903D01*
X167062907Y-114524699D01*
X166775328Y-115217265D01*
X166774674Y-115967165D01*
X167061043Y-116660232D01*
X167590839Y-117190953D01*
X168283405Y-117478532D01*
X168924330Y-117479091D01*
X164586518Y-121816903D01*
X164271234Y-121947175D01*
X163985179Y-122232731D01*
X163830176Y-122606018D01*
X163829824Y-123010208D01*
X163335900Y-123010208D01*
X163335900Y-120000760D01*
X163291622Y-119765443D01*
X163152550Y-119549319D01*
X162940350Y-119404329D01*
X162688460Y-119353320D01*
X160656460Y-119353320D01*
X160421143Y-119397598D01*
X160205019Y-119536670D01*
X160060029Y-119748870D01*
X160009020Y-120000760D01*
X158298199Y-120000760D01*
X161917830Y-116381129D01*
X161917830Y-116387610D01*
X161962108Y-116622927D01*
X162101180Y-116839051D01*
X162313380Y-116984041D01*
X162565270Y-117035050D01*
X164066410Y-117035050D01*
X164301727Y-116990772D01*
X164517851Y-116851700D01*
X164662841Y-116639500D01*
X164713850Y-116387610D01*
X164713850Y-115283100D01*
X170204893Y-109792056D01*
X170316529Y-110353289D01*
X170316529Y-110353289D01*
G37*
X170316529Y-110353289D02*
X170641385Y-110839470D01*
X171127566Y-111164326D01*
X171701055Y-111278400D01*
X172070545Y-111278400D01*
X172644034Y-111164326D01*
X173130215Y-110839470D01*
X173264982Y-110637777D01*
X173173834Y-124473000D01*
X140157828Y-124473000D01*
X140200409Y-117925984D01*
X140498275Y-118125012D01*
X141123767Y-118249430D01*
X141697993Y-118249430D01*
X142323485Y-118125012D01*
X142853752Y-117770699D01*
X143208065Y-117240432D01*
X143225131Y-117154637D01*
X143310747Y-117282772D01*
X143365897Y-117365310D01*
X144204868Y-118204280D01*
X144204868Y-121189620D01*
X144178569Y-121228110D01*
X144127560Y-121480000D01*
X144127560Y-122860000D01*
X144171838Y-123095317D01*
X144310910Y-123311441D01*
X144523110Y-123456431D01*
X144775000Y-123507440D01*
X145225000Y-123507440D01*
X145328671Y-123487933D01*
X145425000Y-123507440D01*
X145875000Y-123507440D01*
X145978671Y-123487933D01*
X146075000Y-123507440D01*
X146525000Y-123507440D01*
X146760317Y-123463162D01*
X146976441Y-123324090D01*
X147121431Y-123111890D01*
X147172440Y-122860000D01*
X147172440Y-121856310D01*
X147437749Y-121591000D01*
X151802088Y-121591000D01*
X153327222Y-123116133D01*
X153327224Y-123116136D01*
X153484146Y-123220987D01*
X153562075Y-123273058D01*
X153839099Y-123328162D01*
X153839104Y-123328161D01*
X156401959Y-123328161D01*
X156678984Y-123273057D01*
X156913834Y-123116136D01*
X157070755Y-122881286D01*
X157125859Y-122604261D01*
X157125859Y-120422399D01*
X157095040Y-120267460D01*
X157731645Y-120267460D01*
X157731650Y-120267461D01*
X157962713Y-120221499D01*
X158008675Y-120212356D01*
X158243525Y-120055435D01*
X158298199Y-120000760D01*
X160009020Y-120000760D01*
X160009020Y-123658360D01*
X160053298Y-123893677D01*
X160192370Y-124109801D01*
X160404570Y-124254791D01*
X160656460Y-124305800D01*
X162688460Y-124305800D01*
X162923777Y-124261522D01*
X163139901Y-124122450D01*
X163284891Y-123910250D01*
X163335900Y-123658360D01*
X163335900Y-123010208D01*
X163829824Y-123010208D01*
X163984175Y-123383766D01*
X164269731Y-123669821D01*
X164643018Y-123824824D01*
X165047208Y-123825176D01*
X165420766Y-123670825D01*
X165706821Y-123385269D01*
X165838551Y-123068029D01*
X172647287Y-116259292D01*
X172647290Y-116259290D01*
X172839133Y-115972175D01*
X172906500Y-115633500D01*
X172906500Y-113230540D01*
X173037324Y-112915482D01*
X173037676Y-112511292D01*
X172883325Y-112137734D01*
X172597769Y-111851679D01*
X172224482Y-111696676D01*
X171820292Y-111696324D01*
X171446734Y-111850675D01*
X171160679Y-112136231D01*
X171005676Y-112509518D01*
X171005324Y-112913708D01*
X171136500Y-113231178D01*
X171136500Y-115266921D01*
X170544770Y-115858651D01*
X170545326Y-115220555D01*
X170258957Y-114527488D01*
X169729161Y-113996767D01*
X169036595Y-113709188D01*
X168286695Y-113708534D01*
X167593628Y-113994903D01*
X167062907Y-114524699D01*
X166775328Y-115217265D01*
X166774674Y-115967165D01*
X167061043Y-116660232D01*
X167590839Y-117190953D01*
X168283405Y-117478532D01*
X168924330Y-117479091D01*
X164586518Y-121816903D01*
X164271234Y-121947175D01*
X163985179Y-122232731D01*
X163830176Y-122606018D01*
X163829824Y-123010208D01*
X163335900Y-123010208D01*
X163335900Y-120000760D01*
X163291622Y-119765443D01*
X163152550Y-119549319D01*
X162940350Y-119404329D01*
X162688460Y-119353320D01*
X160656460Y-119353320D01*
X160421143Y-119397598D01*
X160205019Y-119536670D01*
X160060029Y-119748870D01*
X160009020Y-120000760D01*
X158298199Y-120000760D01*
X161917830Y-116381129D01*
X161917830Y-116387610D01*
X161962108Y-116622927D01*
X162101180Y-116839051D01*
X162313380Y-116984041D01*
X162565270Y-117035050D01*
X164066410Y-117035050D01*
X164301727Y-116990772D01*
X164517851Y-116851700D01*
X164662841Y-116639500D01*
X164713850Y-116387610D01*
X164713850Y-115283100D01*
X170204893Y-109792056D01*
X170316529Y-110353289D01*
G36*
X150044341Y-117831602D02*
X150044346Y-117831601D01*
X152836773Y-117831601D01*
X152761352Y-117944477D01*
X152761352Y-117944478D01*
X152706247Y-118221502D01*
X152706248Y-118221507D01*
X152706248Y-120447660D01*
X152613813Y-120355225D01*
X152558492Y-120318261D01*
X152378963Y-120198304D01*
X152333001Y-120189161D01*
X152101938Y-120143199D01*
X152101933Y-120143200D01*
X148109331Y-120143200D01*
X148126721Y-120132010D01*
X148271711Y-119919810D01*
X148322720Y-119667920D01*
X148322720Y-119408015D01*
X148364955Y-119379795D01*
X149934914Y-117809835D01*
X150044341Y-117831602D01*
X150044341Y-117831602D01*
G37*
X150044341Y-117831602D02*
X150044346Y-117831601D01*
X152836773Y-117831601D01*
X152761352Y-117944477D01*
X152761352Y-117944478D01*
X152706247Y-118221502D01*
X152706248Y-118221507D01*
X152706248Y-120447660D01*
X152613813Y-120355225D01*
X152558492Y-120318261D01*
X152378963Y-120198304D01*
X152333001Y-120189161D01*
X152101938Y-120143199D01*
X152101933Y-120143200D01*
X148109331Y-120143200D01*
X148126721Y-120132010D01*
X148271711Y-119919810D01*
X148322720Y-119667920D01*
X148322720Y-119408015D01*
X148364955Y-119379795D01*
X149934914Y-117809835D01*
X150044341Y-117831602D01*
G36*
X170222360Y-105563400D02*
X170266638Y-105798717D01*
X170405710Y-106014841D01*
X170617910Y-106159831D01*
X170659239Y-106168200D01*
X170641385Y-106180130D01*
X170316529Y-106666311D01*
X170202455Y-107239800D01*
X170286604Y-107662847D01*
X164689736Y-113259714D01*
X164669572Y-113152553D01*
X164530500Y-112936429D01*
X164318300Y-112791439D01*
X164066410Y-112740430D01*
X162565270Y-112740430D01*
X162329953Y-112784708D01*
X162113829Y-112923780D01*
X161968839Y-113135980D01*
X161917830Y-113387870D01*
X161917830Y-114347645D01*
X161875595Y-114375865D01*
X161875593Y-114375868D01*
X157431800Y-118819660D01*
X156691276Y-118819660D01*
X156687622Y-118800243D01*
X156548550Y-118584119D01*
X156336350Y-118439129D01*
X156084460Y-118388120D01*
X155243588Y-118388120D01*
X156809693Y-116822014D01*
X156809696Y-116822012D01*
X156966617Y-116587162D01*
X157021721Y-116310137D01*
X157021721Y-114829398D01*
X157876190Y-114829398D01*
X158086686Y-115338837D01*
X158476113Y-115728944D01*
X158985184Y-115940329D01*
X159536398Y-115940810D01*
X160045837Y-115730314D01*
X160435944Y-115340887D01*
X160647329Y-114831816D01*
X160647810Y-114280602D01*
X160437314Y-113771163D01*
X160047887Y-113381056D01*
X159538816Y-113169671D01*
X158987602Y-113169190D01*
X158478163Y-113379686D01*
X158088056Y-113769113D01*
X157876671Y-114278184D01*
X157876190Y-114829398D01*
X157021721Y-114829398D01*
X157021721Y-113316629D01*
X159805516Y-110532833D01*
X159852150Y-110532833D01*
X159852155Y-110532834D01*
X160083218Y-110486872D01*
X160129180Y-110477729D01*
X160364030Y-110320808D01*
X160700831Y-109984006D01*
X160700834Y-109984004D01*
X160837278Y-109779800D01*
X160857756Y-109749153D01*
X160912860Y-109472129D01*
X160912859Y-109472124D01*
X160912859Y-108554364D01*
X160912860Y-108554359D01*
X160857755Y-108277335D01*
X160857755Y-108277334D01*
X160700834Y-108042484D01*
X160633602Y-107975252D01*
X160633602Y-106123346D01*
X161333248Y-105423700D01*
X170222360Y-105423700D01*
X170222360Y-105563400D01*
X170222360Y-105563400D01*
G37*
X170222360Y-105563400D02*
X170266638Y-105798717D01*
X170405710Y-106014841D01*
X170617910Y-106159831D01*
X170659239Y-106168200D01*
X170641385Y-106180130D01*
X170316529Y-106666311D01*
X170202455Y-107239800D01*
X170286604Y-107662847D01*
X164689736Y-113259714D01*
X164669572Y-113152553D01*
X164530500Y-112936429D01*
X164318300Y-112791439D01*
X164066410Y-112740430D01*
X162565270Y-112740430D01*
X162329953Y-112784708D01*
X162113829Y-112923780D01*
X161968839Y-113135980D01*
X161917830Y-113387870D01*
X161917830Y-114347645D01*
X161875595Y-114375865D01*
X161875593Y-114375868D01*
X157431800Y-118819660D01*
X156691276Y-118819660D01*
X156687622Y-118800243D01*
X156548550Y-118584119D01*
X156336350Y-118439129D01*
X156084460Y-118388120D01*
X155243588Y-118388120D01*
X156809693Y-116822014D01*
X156809696Y-116822012D01*
X156966617Y-116587162D01*
X157021721Y-116310137D01*
X157021721Y-114829398D01*
X157876190Y-114829398D01*
X158086686Y-115338837D01*
X158476113Y-115728944D01*
X158985184Y-115940329D01*
X159536398Y-115940810D01*
X160045837Y-115730314D01*
X160435944Y-115340887D01*
X160647329Y-114831816D01*
X160647810Y-114280602D01*
X160437314Y-113771163D01*
X160047887Y-113381056D01*
X159538816Y-113169671D01*
X158987602Y-113169190D01*
X158478163Y-113379686D01*
X158088056Y-113769113D01*
X157876671Y-114278184D01*
X157876190Y-114829398D01*
X157021721Y-114829398D01*
X157021721Y-113316629D01*
X159805516Y-110532833D01*
X159852150Y-110532833D01*
X159852155Y-110532834D01*
X160083218Y-110486872D01*
X160129180Y-110477729D01*
X160364030Y-110320808D01*
X160700831Y-109984006D01*
X160700834Y-109984004D01*
X160837278Y-109779800D01*
X160857756Y-109749153D01*
X160912860Y-109472129D01*
X160912859Y-109472124D01*
X160912859Y-108554364D01*
X160912860Y-108554359D01*
X160857755Y-108277335D01*
X160857755Y-108277334D01*
X160700834Y-108042484D01*
X160633602Y-107975252D01*
X160633602Y-106123346D01*
X161333248Y-105423700D01*
X170222360Y-105423700D01*
X170222360Y-105563400D01*
G36*
X160797801Y-83887801D02*
X159341639Y-83887801D01*
X159064614Y-83942905D01*
X158829764Y-84099826D01*
X158829762Y-84099829D01*
X156057734Y-86871856D01*
X155900813Y-87106706D01*
X155900813Y-87106707D01*
X155845708Y-87383731D01*
X155845709Y-87383736D01*
X155845709Y-91420696D01*
X155845708Y-91420701D01*
X155867430Y-91529900D01*
X155900813Y-91697726D01*
X155942593Y-91760254D01*
X156057734Y-91932576D01*
X158138732Y-94013573D01*
X158138734Y-94013576D01*
X158373584Y-94170497D01*
X158650609Y-94225601D01*
X166051379Y-94225601D01*
X166051384Y-94225602D01*
X166282447Y-94179640D01*
X166328409Y-94170497D01*
X166563259Y-94013576D01*
X168323395Y-92253440D01*
X168870690Y-92253440D01*
X172444601Y-95827350D01*
X172444601Y-103188760D01*
X170869800Y-103188760D01*
X170634483Y-103233038D01*
X170418359Y-103372110D01*
X170273369Y-103584310D01*
X170222360Y-103836200D01*
X170222360Y-103975900D01*
X161033398Y-103975900D01*
X160756373Y-104031004D01*
X160521523Y-104187925D01*
X159397827Y-105311621D01*
X159240906Y-105546471D01*
X159240906Y-105546472D01*
X159185801Y-105823496D01*
X159185802Y-105823501D01*
X159185802Y-108275097D01*
X159185801Y-108275102D01*
X159231277Y-108503717D01*
X159240906Y-108552127D01*
X159361420Y-108732490D01*
X159397827Y-108786977D01*
X159465059Y-108854209D01*
X159465059Y-109093110D01*
X159228642Y-109140137D01*
X158993792Y-109297058D01*
X158993790Y-109297061D01*
X158562460Y-109728391D01*
X158562460Y-109573200D01*
X158699381Y-109436518D01*
X158854384Y-109063231D01*
X158854736Y-108659041D01*
X158700385Y-108285483D01*
X158414829Y-107999428D01*
X158041542Y-107844425D01*
X157637352Y-107844073D01*
X157263794Y-107998424D01*
X156977739Y-108283980D01*
X156822736Y-108657267D01*
X156822384Y-109061457D01*
X156976735Y-109435015D01*
X157114660Y-109573181D01*
X157114660Y-110664320D01*
X155023310Y-112755670D01*
X154320430Y-112755670D01*
X154085113Y-112799948D01*
X153868989Y-112939020D01*
X153723999Y-113151220D01*
X153672990Y-113403110D01*
X153672990Y-114179080D01*
X152838469Y-114179080D01*
X150498870Y-111839480D01*
X150504080Y-111839480D01*
X150635742Y-111814706D01*
X150758080Y-111839480D01*
X151164480Y-111839480D01*
X151282976Y-111817183D01*
X151393080Y-111839480D01*
X151799480Y-111839480D01*
X152034797Y-111795202D01*
X152250921Y-111656130D01*
X152395911Y-111443930D01*
X152446920Y-111192040D01*
X152446920Y-109922040D01*
X152402642Y-109686723D01*
X152263570Y-109470599D01*
X152051370Y-109325609D01*
X151799480Y-109274600D01*
X151393080Y-109274600D01*
X151274584Y-109296897D01*
X151164480Y-109274600D01*
X150758080Y-109274600D01*
X150626418Y-109299374D01*
X150504080Y-109274600D01*
X150097680Y-109274600D01*
X149966018Y-109299374D01*
X149843680Y-109274600D01*
X149535392Y-109274600D01*
X149517355Y-109247605D01*
X149517352Y-109247603D01*
X148266840Y-107997090D01*
X148266840Y-106668400D01*
X148222562Y-106433083D01*
X148083490Y-106216959D01*
X147871290Y-106071969D01*
X147619400Y-106020960D01*
X145619400Y-106020960D01*
X145384083Y-106065238D01*
X145167959Y-106204310D01*
X145022969Y-106416510D01*
X144971960Y-106668400D01*
X144971960Y-108268400D01*
X145016238Y-108503717D01*
X145155310Y-108719841D01*
X145367510Y-108864831D01*
X145619400Y-108915840D01*
X147138090Y-108915840D01*
X147496851Y-109274600D01*
X147481480Y-109274600D01*
X147362984Y-109296897D01*
X147252880Y-109274600D01*
X146846480Y-109274600D01*
X146714818Y-109299374D01*
X146592480Y-109274600D01*
X146186080Y-109274600D01*
X146067584Y-109296897D01*
X145957480Y-109274600D01*
X145551080Y-109274600D01*
X145315763Y-109318878D01*
X145099639Y-109457950D01*
X144954649Y-109670150D01*
X144903640Y-109922040D01*
X144903640Y-111192040D01*
X144947918Y-111427357D01*
X145086990Y-111643481D01*
X145299190Y-111788471D01*
X145551080Y-111839480D01*
X145957480Y-111839480D01*
X146075976Y-111817183D01*
X146186080Y-111839480D01*
X146592480Y-111839480D01*
X146724142Y-111814706D01*
X146846480Y-111839480D01*
X147252880Y-111839480D01*
X147371376Y-111817183D01*
X147481480Y-111839480D01*
X147887880Y-111839480D01*
X148019542Y-111814706D01*
X148141880Y-111839480D01*
X148465385Y-111839480D01*
X148493605Y-111881715D01*
X148505226Y-111893336D01*
X148459105Y-111874185D01*
X148054915Y-111873833D01*
X147681357Y-112028184D01*
X147395302Y-112313740D01*
X147240299Y-112687027D01*
X147239947Y-113091217D01*
X147394298Y-113464775D01*
X147679854Y-113750830D01*
X148053141Y-113905833D01*
X148248367Y-113906003D01*
X148252192Y-113909828D01*
X145944914Y-113909828D01*
X145899441Y-113879444D01*
X145727489Y-113764550D01*
X145663562Y-113751834D01*
X145450464Y-113709445D01*
X145450459Y-113709446D01*
X144480719Y-113709446D01*
X144480714Y-113709445D01*
X144203690Y-113764549D01*
X144154091Y-113797690D01*
X143968839Y-113921471D01*
X143968837Y-113921474D01*
X143365897Y-114524413D01*
X143208976Y-114759263D01*
X143202474Y-114791950D01*
X143153871Y-115036288D01*
X143153872Y-115036293D01*
X143153872Y-115908342D01*
X142853752Y-115459181D01*
X142323485Y-115104868D01*
X141697993Y-114980450D01*
X141123767Y-114980450D01*
X140498275Y-115104868D01*
X140217537Y-115292451D01*
X140232023Y-113065228D01*
X140498275Y-113243132D01*
X141123767Y-113367550D01*
X141697993Y-113367550D01*
X142323485Y-113243132D01*
X142853752Y-112888819D01*
X143208065Y-112358552D01*
X143332483Y-111733060D01*
X143208065Y-111107568D01*
X142853752Y-110577301D01*
X142323485Y-110222988D01*
X141697993Y-110098570D01*
X141123767Y-110098570D01*
X140498275Y-110222988D01*
X140249427Y-110389263D01*
X140336067Y-97068000D01*
X147295560Y-97068000D01*
X147295560Y-98768000D01*
X147339838Y-99003317D01*
X147478910Y-99219441D01*
X147691110Y-99364431D01*
X147943000Y-99415440D01*
X148081040Y-99415440D01*
X147944834Y-99743459D01*
X147944482Y-100147649D01*
X148098833Y-100521207D01*
X148384389Y-100807262D01*
X148757676Y-100962265D01*
X149161866Y-100962617D01*
X149535424Y-100808266D01*
X149821479Y-100522710D01*
X149976482Y-100149423D01*
X149976834Y-99745233D01*
X149840566Y-99415440D01*
X149943000Y-99415440D01*
X150178317Y-99371162D01*
X150394441Y-99232090D01*
X150539431Y-99019890D01*
X150590440Y-98768000D01*
X150590440Y-97068000D01*
X150546162Y-96832683D01*
X150407090Y-96616559D01*
X150194890Y-96471569D01*
X150160230Y-96464550D01*
X157195091Y-96464550D01*
X157349442Y-96838108D01*
X157634998Y-97124163D01*
X158008285Y-97279166D01*
X158412475Y-97279518D01*
X158780560Y-97127428D01*
X158780560Y-97235000D01*
X158824838Y-97470317D01*
X158963910Y-97686441D01*
X159176110Y-97831431D01*
X159428000Y-97882440D01*
X161128000Y-97882440D01*
X161363317Y-97838162D01*
X161579441Y-97699090D01*
X161724431Y-97486890D01*
X161775440Y-97235000D01*
X161775440Y-95235000D01*
X161731162Y-94999683D01*
X161592090Y-94783559D01*
X161379890Y-94638569D01*
X161128000Y-94587560D01*
X159428000Y-94587560D01*
X159192683Y-94631838D01*
X158976559Y-94770910D01*
X158831569Y-94983110D01*
X158780560Y-95235000D01*
X158780560Y-95399624D01*
X158414249Y-95247518D01*
X158010059Y-95247166D01*
X157636501Y-95401517D01*
X157350446Y-95687073D01*
X157195443Y-96060360D01*
X157195091Y-96464550D01*
X150160230Y-96464550D01*
X149943000Y-96420560D01*
X147943000Y-96420560D01*
X147707683Y-96464838D01*
X147491559Y-96603910D01*
X147346569Y-96816110D01*
X147295560Y-97068000D01*
X140336067Y-97068000D01*
X140388792Y-88961421D01*
X140469766Y-89015526D01*
X141043255Y-89129600D01*
X141412745Y-89129600D01*
X141986234Y-89015526D01*
X142472415Y-88690670D01*
X142797271Y-88204489D01*
X142908907Y-87643256D01*
X143438384Y-88172734D01*
X143346569Y-88307110D01*
X143295560Y-88559000D01*
X143295560Y-90259000D01*
X143339838Y-90494317D01*
X143478910Y-90710441D01*
X143691110Y-90855431D01*
X143943000Y-90906440D01*
X144219100Y-90906440D01*
X144219100Y-92311057D01*
X144219099Y-92311062D01*
X144219100Y-92311067D01*
X144219100Y-92356560D01*
X143816000Y-92356560D01*
X143580683Y-92400838D01*
X143364559Y-92539910D01*
X143219569Y-92752110D01*
X143168560Y-93004000D01*
X143168560Y-94704000D01*
X143212838Y-94939317D01*
X143351910Y-95155441D01*
X143564110Y-95300431D01*
X143816000Y-95351440D01*
X145816000Y-95351440D01*
X146051317Y-95307162D01*
X146267441Y-95168090D01*
X146274220Y-95158169D01*
X146598624Y-95482573D01*
X146598626Y-95482576D01*
X146723783Y-95566203D01*
X146833477Y-95639498D01*
X147110501Y-95694602D01*
X147110506Y-95694601D01*
X147602634Y-95694601D01*
X147602639Y-95694602D01*
X147602644Y-95694601D01*
X150029356Y-95694601D01*
X150029361Y-95694602D01*
X150029366Y-95694601D01*
X150530386Y-95694601D01*
X150530391Y-95694602D01*
X150761454Y-95648640D01*
X150807416Y-95639497D01*
X151042266Y-95482576D01*
X155406341Y-91118500D01*
X155406344Y-91118498D01*
X155563265Y-90883648D01*
X155618369Y-90606623D01*
X155618369Y-90470870D01*
X155618370Y-90470865D01*
X155618369Y-90470860D01*
X155618369Y-82754199D01*
X160797801Y-82754199D01*
X160797801Y-83887801D01*
X160797801Y-83887801D01*
G37*
X160797801Y-83887801D02*
X159341639Y-83887801D01*
X159064614Y-83942905D01*
X158829764Y-84099826D01*
X158829762Y-84099829D01*
X156057734Y-86871856D01*
X155900813Y-87106706D01*
X155900813Y-87106707D01*
X155845708Y-87383731D01*
X155845709Y-87383736D01*
X155845709Y-91420696D01*
X155845708Y-91420701D01*
X155867430Y-91529900D01*
X155900813Y-91697726D01*
X155942593Y-91760254D01*
X156057734Y-91932576D01*
X158138732Y-94013573D01*
X158138734Y-94013576D01*
X158373584Y-94170497D01*
X158650609Y-94225601D01*
X166051379Y-94225601D01*
X166051384Y-94225602D01*
X166282447Y-94179640D01*
X166328409Y-94170497D01*
X166563259Y-94013576D01*
X168323395Y-92253440D01*
X168870690Y-92253440D01*
X172444601Y-95827350D01*
X172444601Y-103188760D01*
X170869800Y-103188760D01*
X170634483Y-103233038D01*
X170418359Y-103372110D01*
X170273369Y-103584310D01*
X170222360Y-103836200D01*
X170222360Y-103975900D01*
X161033398Y-103975900D01*
X160756373Y-104031004D01*
X160521523Y-104187925D01*
X159397827Y-105311621D01*
X159240906Y-105546471D01*
X159240906Y-105546472D01*
X159185801Y-105823496D01*
X159185802Y-105823501D01*
X159185802Y-108275097D01*
X159185801Y-108275102D01*
X159231277Y-108503717D01*
X159240906Y-108552127D01*
X159361420Y-108732490D01*
X159397827Y-108786977D01*
X159465059Y-108854209D01*
X159465059Y-109093110D01*
X159228642Y-109140137D01*
X158993792Y-109297058D01*
X158993790Y-109297061D01*
X158562460Y-109728391D01*
X158562460Y-109573200D01*
X158699381Y-109436518D01*
X158854384Y-109063231D01*
X158854736Y-108659041D01*
X158700385Y-108285483D01*
X158414829Y-107999428D01*
X158041542Y-107844425D01*
X157637352Y-107844073D01*
X157263794Y-107998424D01*
X156977739Y-108283980D01*
X156822736Y-108657267D01*
X156822384Y-109061457D01*
X156976735Y-109435015D01*
X157114660Y-109573181D01*
X157114660Y-110664320D01*
X155023310Y-112755670D01*
X154320430Y-112755670D01*
X154085113Y-112799948D01*
X153868989Y-112939020D01*
X153723999Y-113151220D01*
X153672990Y-113403110D01*
X153672990Y-114179080D01*
X152838469Y-114179080D01*
X150498870Y-111839480D01*
X150504080Y-111839480D01*
X150635742Y-111814706D01*
X150758080Y-111839480D01*
X151164480Y-111839480D01*
X151282976Y-111817183D01*
X151393080Y-111839480D01*
X151799480Y-111839480D01*
X152034797Y-111795202D01*
X152250921Y-111656130D01*
X152395911Y-111443930D01*
X152446920Y-111192040D01*
X152446920Y-109922040D01*
X152402642Y-109686723D01*
X152263570Y-109470599D01*
X152051370Y-109325609D01*
X151799480Y-109274600D01*
X151393080Y-109274600D01*
X151274584Y-109296897D01*
X151164480Y-109274600D01*
X150758080Y-109274600D01*
X150626418Y-109299374D01*
X150504080Y-109274600D01*
X150097680Y-109274600D01*
X149966018Y-109299374D01*
X149843680Y-109274600D01*
X149535392Y-109274600D01*
X149517355Y-109247605D01*
X149517352Y-109247603D01*
X148266840Y-107997090D01*
X148266840Y-106668400D01*
X148222562Y-106433083D01*
X148083490Y-106216959D01*
X147871290Y-106071969D01*
X147619400Y-106020960D01*
X145619400Y-106020960D01*
X145384083Y-106065238D01*
X145167959Y-106204310D01*
X145022969Y-106416510D01*
X144971960Y-106668400D01*
X144971960Y-108268400D01*
X145016238Y-108503717D01*
X145155310Y-108719841D01*
X145367510Y-108864831D01*
X145619400Y-108915840D01*
X147138090Y-108915840D01*
X147496851Y-109274600D01*
X147481480Y-109274600D01*
X147362984Y-109296897D01*
X147252880Y-109274600D01*
X146846480Y-109274600D01*
X146714818Y-109299374D01*
X146592480Y-109274600D01*
X146186080Y-109274600D01*
X146067584Y-109296897D01*
X145957480Y-109274600D01*
X145551080Y-109274600D01*
X145315763Y-109318878D01*
X145099639Y-109457950D01*
X144954649Y-109670150D01*
X144903640Y-109922040D01*
X144903640Y-111192040D01*
X144947918Y-111427357D01*
X145086990Y-111643481D01*
X145299190Y-111788471D01*
X145551080Y-111839480D01*
X145957480Y-111839480D01*
X146075976Y-111817183D01*
X146186080Y-111839480D01*
X146592480Y-111839480D01*
X146724142Y-111814706D01*
X146846480Y-111839480D01*
X147252880Y-111839480D01*
X147371376Y-111817183D01*
X147481480Y-111839480D01*
X147887880Y-111839480D01*
X148019542Y-111814706D01*
X148141880Y-111839480D01*
X148465385Y-111839480D01*
X148493605Y-111881715D01*
X148505226Y-111893336D01*
X148459105Y-111874185D01*
X148054915Y-111873833D01*
X147681357Y-112028184D01*
X147395302Y-112313740D01*
X147240299Y-112687027D01*
X147239947Y-113091217D01*
X147394298Y-113464775D01*
X147679854Y-113750830D01*
X148053141Y-113905833D01*
X148248367Y-113906003D01*
X148252192Y-113909828D01*
X145944914Y-113909828D01*
X145899441Y-113879444D01*
X145727489Y-113764550D01*
X145663562Y-113751834D01*
X145450464Y-113709445D01*
X145450459Y-113709446D01*
X144480719Y-113709446D01*
X144480714Y-113709445D01*
X144203690Y-113764549D01*
X144154091Y-113797690D01*
X143968839Y-113921471D01*
X143968837Y-113921474D01*
X143365897Y-114524413D01*
X143208976Y-114759263D01*
X143202474Y-114791950D01*
X143153871Y-115036288D01*
X143153872Y-115036293D01*
X143153872Y-115908342D01*
X142853752Y-115459181D01*
X142323485Y-115104868D01*
X141697993Y-114980450D01*
X141123767Y-114980450D01*
X140498275Y-115104868D01*
X140217537Y-115292451D01*
X140232023Y-113065228D01*
X140498275Y-113243132D01*
X141123767Y-113367550D01*
X141697993Y-113367550D01*
X142323485Y-113243132D01*
X142853752Y-112888819D01*
X143208065Y-112358552D01*
X143332483Y-111733060D01*
X143208065Y-111107568D01*
X142853752Y-110577301D01*
X142323485Y-110222988D01*
X141697993Y-110098570D01*
X141123767Y-110098570D01*
X140498275Y-110222988D01*
X140249427Y-110389263D01*
X140336067Y-97068000D01*
X147295560Y-97068000D01*
X147295560Y-98768000D01*
X147339838Y-99003317D01*
X147478910Y-99219441D01*
X147691110Y-99364431D01*
X147943000Y-99415440D01*
X148081040Y-99415440D01*
X147944834Y-99743459D01*
X147944482Y-100147649D01*
X148098833Y-100521207D01*
X148384389Y-100807262D01*
X148757676Y-100962265D01*
X149161866Y-100962617D01*
X149535424Y-100808266D01*
X149821479Y-100522710D01*
X149976482Y-100149423D01*
X149976834Y-99745233D01*
X149840566Y-99415440D01*
X149943000Y-99415440D01*
X150178317Y-99371162D01*
X150394441Y-99232090D01*
X150539431Y-99019890D01*
X150590440Y-98768000D01*
X150590440Y-97068000D01*
X150546162Y-96832683D01*
X150407090Y-96616559D01*
X150194890Y-96471569D01*
X150160230Y-96464550D01*
X157195091Y-96464550D01*
X157349442Y-96838108D01*
X157634998Y-97124163D01*
X158008285Y-97279166D01*
X158412475Y-97279518D01*
X158780560Y-97127428D01*
X158780560Y-97235000D01*
X158824838Y-97470317D01*
X158963910Y-97686441D01*
X159176110Y-97831431D01*
X159428000Y-97882440D01*
X161128000Y-97882440D01*
X161363317Y-97838162D01*
X161579441Y-97699090D01*
X161724431Y-97486890D01*
X161775440Y-97235000D01*
X161775440Y-95235000D01*
X161731162Y-94999683D01*
X161592090Y-94783559D01*
X161379890Y-94638569D01*
X161128000Y-94587560D01*
X159428000Y-94587560D01*
X159192683Y-94631838D01*
X158976559Y-94770910D01*
X158831569Y-94983110D01*
X158780560Y-95235000D01*
X158780560Y-95399624D01*
X158414249Y-95247518D01*
X158010059Y-95247166D01*
X157636501Y-95401517D01*
X157350446Y-95687073D01*
X157195443Y-96060360D01*
X157195091Y-96464550D01*
X150160230Y-96464550D01*
X149943000Y-96420560D01*
X147943000Y-96420560D01*
X147707683Y-96464838D01*
X147491559Y-96603910D01*
X147346569Y-96816110D01*
X147295560Y-97068000D01*
X140336067Y-97068000D01*
X140388792Y-88961421D01*
X140469766Y-89015526D01*
X141043255Y-89129600D01*
X141412745Y-89129600D01*
X141986234Y-89015526D01*
X142472415Y-88690670D01*
X142797271Y-88204489D01*
X142908907Y-87643256D01*
X143438384Y-88172734D01*
X143346569Y-88307110D01*
X143295560Y-88559000D01*
X143295560Y-90259000D01*
X143339838Y-90494317D01*
X143478910Y-90710441D01*
X143691110Y-90855431D01*
X143943000Y-90906440D01*
X144219100Y-90906440D01*
X144219100Y-92311057D01*
X144219099Y-92311062D01*
X144219100Y-92311067D01*
X144219100Y-92356560D01*
X143816000Y-92356560D01*
X143580683Y-92400838D01*
X143364559Y-92539910D01*
X143219569Y-92752110D01*
X143168560Y-93004000D01*
X143168560Y-94704000D01*
X143212838Y-94939317D01*
X143351910Y-95155441D01*
X143564110Y-95300431D01*
X143816000Y-95351440D01*
X145816000Y-95351440D01*
X146051317Y-95307162D01*
X146267441Y-95168090D01*
X146274220Y-95158169D01*
X146598624Y-95482573D01*
X146598626Y-95482576D01*
X146723783Y-95566203D01*
X146833477Y-95639498D01*
X147110501Y-95694602D01*
X147110506Y-95694601D01*
X147602634Y-95694601D01*
X147602639Y-95694602D01*
X147602644Y-95694601D01*
X150029356Y-95694601D01*
X150029361Y-95694602D01*
X150029366Y-95694601D01*
X150530386Y-95694601D01*
X150530391Y-95694602D01*
X150761454Y-95648640D01*
X150807416Y-95639497D01*
X151042266Y-95482576D01*
X155406341Y-91118500D01*
X155406344Y-91118498D01*
X155563265Y-90883648D01*
X155618369Y-90606623D01*
X155618369Y-90470870D01*
X155618370Y-90470865D01*
X155618369Y-90470860D01*
X155618369Y-82754199D01*
X160797801Y-82754199D01*
X160797801Y-83887801D01*
G36*
X173369947Y-94705198D02*
X169894440Y-91229690D01*
X169894440Y-90682395D01*
X170192966Y-90383869D01*
X170386432Y-90384037D01*
X170759990Y-90229686D01*
X171046045Y-89944130D01*
X171201048Y-89570843D01*
X171201400Y-89166653D01*
X171047049Y-88793095D01*
X170761493Y-88507040D01*
X170388206Y-88352037D01*
X170192979Y-88351867D01*
X169129900Y-87288787D01*
X169129900Y-80460624D01*
X169269900Y-80518757D01*
X169825661Y-80519242D01*
X170339303Y-80307010D01*
X170732629Y-79914370D01*
X170945757Y-79401100D01*
X170946242Y-78845339D01*
X170734010Y-78331697D01*
X170341370Y-77938371D01*
X169828100Y-77725243D01*
X169272339Y-77724758D01*
X168839669Y-77903533D01*
X168161950Y-77225813D01*
X168148760Y-77217000D01*
X173485161Y-77217000D01*
X173369947Y-94705198D01*
X173369947Y-94705198D01*
G37*
X173369947Y-94705198D02*
X169894440Y-91229690D01*
X169894440Y-90682395D01*
X170192966Y-90383869D01*
X170386432Y-90384037D01*
X170759990Y-90229686D01*
X171046045Y-89944130D01*
X171201048Y-89570843D01*
X171201400Y-89166653D01*
X171047049Y-88793095D01*
X170761493Y-88507040D01*
X170388206Y-88352037D01*
X170192979Y-88351867D01*
X169129900Y-87288787D01*
X169129900Y-80460624D01*
X169269900Y-80518757D01*
X169825661Y-80519242D01*
X170339303Y-80307010D01*
X170732629Y-79914370D01*
X170945757Y-79401100D01*
X170946242Y-78845339D01*
X170734010Y-78331697D01*
X170341370Y-77938371D01*
X169828100Y-77725243D01*
X169272339Y-77724758D01*
X168839669Y-77903533D01*
X168161950Y-77225813D01*
X168148760Y-77217000D01*
X173485161Y-77217000D01*
X173369947Y-94705198D01*
G36*
X167682100Y-87588632D02*
X167682099Y-87588637D01*
X167714003Y-87749024D01*
X167737204Y-87865662D01*
X167841293Y-88021443D01*
X167894125Y-88100512D01*
X169152174Y-89358560D01*
X167247000Y-89358560D01*
X167011683Y-89402838D01*
X166795559Y-89541910D01*
X166650569Y-89754110D01*
X166599560Y-90006000D01*
X166599560Y-91606000D01*
X166643838Y-91841317D01*
X166661136Y-91868199D01*
X165751534Y-92777801D01*
X161775440Y-92777801D01*
X161775440Y-91235000D01*
X161731162Y-90999683D01*
X161592090Y-90783559D01*
X161379890Y-90638569D01*
X161128000Y-90587560D01*
X161001900Y-90587560D01*
X161001900Y-88992440D01*
X161255000Y-88992440D01*
X161490317Y-88948162D01*
X161706441Y-88809090D01*
X161851431Y-88596890D01*
X161902440Y-88345000D01*
X161902440Y-86721310D01*
X162175636Y-86448114D01*
X162049598Y-86751645D01*
X162049246Y-87155835D01*
X162203597Y-87529393D01*
X162489153Y-87815448D01*
X162862440Y-87970451D01*
X163266630Y-87970803D01*
X163640188Y-87816452D01*
X163926243Y-87530896D01*
X164081246Y-87157609D01*
X164081416Y-86962383D01*
X167682100Y-83361698D01*
X167682100Y-87588632D01*
X167682100Y-87588632D01*
G37*
X167682100Y-87588632D02*
X167682099Y-87588637D01*
X167714003Y-87749024D01*
X167737204Y-87865662D01*
X167841293Y-88021443D01*
X167894125Y-88100512D01*
X169152174Y-89358560D01*
X167247000Y-89358560D01*
X167011683Y-89402838D01*
X166795559Y-89541910D01*
X166650569Y-89754110D01*
X166599560Y-90006000D01*
X166599560Y-91606000D01*
X166643838Y-91841317D01*
X166661136Y-91868199D01*
X165751534Y-92777801D01*
X161775440Y-92777801D01*
X161775440Y-91235000D01*
X161731162Y-90999683D01*
X161592090Y-90783559D01*
X161379890Y-90638569D01*
X161128000Y-90587560D01*
X161001900Y-90587560D01*
X161001900Y-88992440D01*
X161255000Y-88992440D01*
X161490317Y-88948162D01*
X161706441Y-88809090D01*
X161851431Y-88596890D01*
X161902440Y-88345000D01*
X161902440Y-86721310D01*
X162175636Y-86448114D01*
X162049598Y-86751645D01*
X162049246Y-87155835D01*
X162203597Y-87529393D01*
X162489153Y-87815448D01*
X162862440Y-87970451D01*
X163266630Y-87970803D01*
X163640188Y-87816452D01*
X163926243Y-87530896D01*
X164081246Y-87157609D01*
X164081416Y-86962383D01*
X167682100Y-83361698D01*
X167682100Y-87588632D01*
M02*
