G04 #@! TF.FileFunction,Copper,L1,Top,Signal*
%FSLAX46Y46*%
G04 Gerber Fmt 4.6, Leading zero omitted, Abs format (unit mm)*
G04 Created by KiCad (PCBNEW (2015-08-30 BZR 6134, Git 4e94d52)-product) date 03-Sep-15 10:47:18 PM*
%MOMM*%
G01*
G04 APERTURE LIST*
%ADD10C,0.100000*%
%ADD11R,1.700000X2.000000*%
%ADD12R,3.500120X3.500120*%
%ADD13R,2.000000X1.600000*%
%ADD14R,1.501140X2.999740*%
%ADD15R,1.524000X2.032000*%
%ADD16R,2.032000X1.727200*%
%ADD17O,2.032000X1.727200*%
%ADD18R,2.000000X1.700000*%
%ADD19C,1.524000*%
%ADD20R,2.180000X1.600000*%
%ADD21R,2.032000X3.657600*%
%ADD22R,2.032000X1.016000*%
%ADD23R,1.500000X0.900000*%
%ADD24O,2.499360X1.998980*%
%ADD25R,2.000000X1.000000*%
%ADD26C,1.501140*%
%ADD27C,0.762000*%
%ADD28C,2.500000*%
%ADD29C,0.177800*%
%ADD30C,0.500000*%
%ADD31C,0.254000*%
G04 APERTURE END LIST*
D10*
D11*
X165358000Y-90139000D03*
X165358000Y-86139000D03*
D12*
X168660000Y-115593860D03*
X168660000Y-121593340D03*
X173359000Y-118593600D03*
D13*
X145578000Y-111507000D03*
X149578000Y-111507000D03*
X145725320Y-117051820D03*
X149725320Y-117051820D03*
D14*
X164517260Y-105665000D03*
X164517260Y-109662960D03*
X168406000Y-105604040D03*
X168406000Y-109602000D03*
D15*
X172851000Y-92838000D03*
X169549000Y-92838000D03*
X172851000Y-96902000D03*
X169549000Y-96902000D03*
D16*
X171885800Y-104699800D03*
D17*
X171885800Y-107239800D03*
X171885800Y-109779800D03*
D16*
X141228000Y-80011000D03*
D17*
X141228000Y-82551000D03*
X141228000Y-85091000D03*
X141228000Y-87631000D03*
X141228000Y-90171000D03*
D18*
X155611000Y-108332000D03*
X159611000Y-108332000D03*
X159738000Y-104395000D03*
X155738000Y-104395000D03*
X162596000Y-96013000D03*
X166596000Y-96013000D03*
D19*
X169549000Y-79122000D03*
X172089000Y-79122000D03*
X167009000Y-79122000D03*
D20*
X156183570Y-100455680D03*
X165388430Y-100460320D03*
X151037430Y-103000320D03*
X141832570Y-102995680D03*
X141705570Y-97153680D03*
X150910430Y-97158320D03*
D21*
X155040520Y-121885440D03*
D22*
X161644520Y-121885440D03*
X161644520Y-119599440D03*
X161644520Y-124171440D03*
D23*
X173877000Y-86614000D03*
X173877000Y-83314000D03*
X168777000Y-83314000D03*
X168777000Y-86614000D03*
D24*
X141410880Y-111733060D03*
X141410880Y-116614940D03*
D25*
X161293000Y-91440000D03*
X161293000Y-89440000D03*
X161293000Y-87440000D03*
X161293000Y-85440000D03*
X161293000Y-83440000D03*
X161293000Y-81440000D03*
X161293000Y-79440000D03*
X161293000Y-77440000D03*
X145293000Y-91440000D03*
X145293000Y-89440000D03*
X145293000Y-87440000D03*
X145293000Y-85440000D03*
X145293000Y-83440000D03*
X145293000Y-81440000D03*
X145293000Y-79440000D03*
X145293000Y-77440000D03*
D26*
X159262000Y-112015000D03*
X159262000Y-114555000D03*
D27*
X147728423Y-117362101D03*
X150600000Y-111900000D03*
X154139197Y-100426987D03*
X150910430Y-97158320D03*
X151360676Y-95488322D03*
X158754000Y-83245019D03*
X149987000Y-109093000D03*
X153162404Y-111097619D03*
X152527000Y-118110000D03*
X141631116Y-101092624D03*
D28*
X173359000Y-118593600D03*
X168660000Y-121593340D03*
D27*
X164342000Y-92330000D03*
X152912000Y-116460000D03*
X144881085Y-115494484D03*
D28*
X168660000Y-115593860D03*
D27*
X164846000Y-122809000D03*
X172021500Y-112712500D03*
X158100000Y-93250000D03*
X153475000Y-91350000D03*
X170185224Y-89367861D03*
X157300118Y-99097509D03*
X158144441Y-95305002D03*
X157838560Y-108860249D03*
X146562000Y-107316000D03*
X156372383Y-89847575D03*
X159000000Y-102100000D03*
X148960658Y-99946441D03*
X146096669Y-87198672D03*
X147100000Y-85200000D03*
X150000000Y-91100000D03*
X149696232Y-113221421D03*
X148256123Y-112890009D03*
X151878986Y-89898399D03*
D29*
X145578000Y-111507000D02*
X145578000Y-114721728D01*
X147347424Y-116981102D02*
X147728423Y-117362101D01*
X147347424Y-116491152D02*
X147347424Y-116981102D01*
X145578000Y-114721728D02*
X147347424Y-116491152D01*
X141410880Y-111733060D02*
X145351940Y-111733060D01*
X145351940Y-111733060D02*
X145578000Y-111507000D01*
X149578000Y-111507000D02*
X150207000Y-111507000D01*
X150207000Y-111507000D02*
X150600000Y-111900000D01*
X159262000Y-112015000D02*
X154079785Y-112015000D01*
X155852280Y-98684469D02*
X155852280Y-100295729D01*
X155852280Y-100295729D02*
X155721022Y-100426987D01*
X155721022Y-100426987D02*
X154139197Y-100426987D01*
X150910430Y-97158320D02*
X150910430Y-95938568D01*
X150910430Y-95938568D02*
X150979677Y-95869321D01*
X150979677Y-95869321D02*
X151360676Y-95488322D01*
X172851000Y-96902000D02*
X172851000Y-95384392D01*
X172851000Y-95384392D02*
X172030566Y-94563958D01*
X172030566Y-94563958D02*
X166575958Y-94563958D01*
X166575958Y-94563958D02*
X164342000Y-92330000D01*
X149725320Y-117051820D02*
X149725320Y-118608215D01*
X149725320Y-118608215D02*
X152028785Y-118608215D01*
X152028785Y-118608215D02*
X152527000Y-118110000D01*
X159292815Y-83245019D02*
X158754000Y-83245019D01*
X159864535Y-82673299D02*
X159292815Y-83245019D01*
X168777000Y-83314000D02*
X163147062Y-83314000D01*
X162506361Y-82673299D02*
X159864535Y-82673299D01*
X163147062Y-83314000D02*
X162506361Y-82673299D01*
X149725320Y-117051820D02*
X149725320Y-115879820D01*
X149578000Y-111507000D02*
X149578000Y-109502000D01*
X149578000Y-109502000D02*
X149987000Y-109093000D01*
X153543403Y-111478618D02*
X153162404Y-111097619D01*
X154079785Y-112015000D02*
X153543403Y-111478618D01*
X141832570Y-102995680D02*
X141832570Y-101294078D01*
X141832570Y-101294078D02*
X141631116Y-101092624D01*
X172851000Y-92838000D02*
X172851000Y-96902000D01*
X149725320Y-117051820D02*
X152320180Y-117051820D01*
X152320180Y-117051820D02*
X152912000Y-116460000D01*
X168777000Y-83314000D02*
X168777000Y-82434000D01*
X168777000Y-82434000D02*
X172089000Y-79122000D01*
X144881085Y-115494484D02*
X144881085Y-116207585D01*
X144881085Y-116207585D02*
X145725320Y-117051820D01*
X141410880Y-116614940D02*
X145288440Y-116614940D01*
X145288440Y-116614940D02*
X145725320Y-117051820D01*
D30*
X159262000Y-114555000D02*
X159450026Y-114743026D01*
X159450026Y-114743026D02*
X159450026Y-117912946D01*
X159450026Y-117912946D02*
X161136520Y-119599440D01*
X164517260Y-110412260D02*
X164517260Y-110444452D01*
X164517260Y-110444452D02*
X160406712Y-114555000D01*
X160406712Y-114555000D02*
X160374520Y-114555000D01*
X164517260Y-109662960D02*
X164517260Y-110078710D01*
X164517260Y-110078710D02*
X166732140Y-112293590D01*
X166732140Y-112293590D02*
X166732140Y-115593860D01*
D29*
X166732140Y-115593860D02*
X168660000Y-115593860D01*
X164517260Y-109662960D02*
X164517260Y-110412260D01*
X160374520Y-114555000D02*
X160323466Y-114555000D01*
D30*
X160323466Y-114555000D02*
X159262000Y-114555000D01*
D29*
X161136520Y-119599440D02*
X161644520Y-119599440D01*
D30*
X164846000Y-122809000D02*
X161882280Y-122809000D01*
X161882280Y-122809000D02*
X161644520Y-122571240D01*
D29*
X161644520Y-122571240D02*
X161644520Y-121885440D01*
D30*
X168406000Y-110351300D02*
X170767200Y-112712500D01*
X170767200Y-112712500D02*
X172021500Y-112712500D01*
D29*
X168406000Y-109602000D02*
X168406000Y-110351300D01*
X162152520Y-121885440D02*
X161644520Y-121885440D01*
D30*
X171885800Y-109779800D02*
X168266300Y-109779800D01*
D29*
X168266300Y-109779800D02*
X168149460Y-109662960D01*
X168149460Y-110412260D02*
X168149460Y-109662960D01*
D30*
X155894001Y-90969001D02*
X158100000Y-93175000D01*
D29*
X158100000Y-93175000D02*
X158100000Y-93250000D01*
D30*
X153475000Y-91350000D02*
X153855999Y-90969001D01*
X153855999Y-90969001D02*
X155894001Y-90969001D01*
X173877000Y-86614000D02*
X172939085Y-86614000D01*
X172939085Y-86614000D02*
X170185224Y-89367861D01*
D29*
X158144441Y-95305002D02*
X161293000Y-92156443D01*
X161293000Y-92156443D02*
X161293000Y-91440000D01*
X157532600Y-99329991D02*
X157300118Y-99097509D01*
X157627083Y-99329991D02*
X157532600Y-99329991D01*
X161293000Y-91440000D02*
X160793000Y-91440000D01*
X155738000Y-104395000D02*
X155738000Y-103367200D01*
X155738000Y-103367200D02*
X157627083Y-101478117D01*
X157627083Y-101478117D02*
X157627083Y-99329991D01*
X159611000Y-108332000D02*
X158366809Y-108332000D01*
X158366809Y-108332000D02*
X157838560Y-108860249D01*
X161293000Y-81440000D02*
X160793000Y-81440000D01*
X160793000Y-81440000D02*
X156026299Y-76673299D01*
X156026299Y-76673299D02*
X142206039Y-76673299D01*
X142206039Y-76673299D02*
X139945290Y-78934048D01*
X139945290Y-78934048D02*
X139945290Y-86500690D01*
X139945290Y-86500690D02*
X141075600Y-87631000D01*
X141075600Y-87631000D02*
X141228000Y-87631000D01*
X155738000Y-104395000D02*
X155888000Y-104395000D01*
X155888000Y-104395000D02*
X159611000Y-108118000D01*
X159611000Y-108118000D02*
X159611000Y-108332000D01*
X141228000Y-87631000D02*
X141380400Y-87631000D01*
X141380400Y-87631000D02*
X143189271Y-89439871D01*
X143189271Y-89439871D02*
X143189271Y-103943271D01*
X143189271Y-103943271D02*
X146562000Y-107316000D01*
X169549000Y-92838000D02*
X168609200Y-92838000D01*
X168609200Y-92838000D02*
X166830312Y-91059112D01*
X166830312Y-91059112D02*
X166830312Y-87482813D01*
X166830312Y-87482813D02*
X166664299Y-87316800D01*
X166664299Y-87316800D02*
X166385800Y-87316800D01*
X166385800Y-87316800D02*
X165358000Y-86289000D01*
X165358000Y-86289000D02*
X165358000Y-86139000D01*
X169549000Y-96902000D02*
X167485000Y-96902000D01*
X167485000Y-96902000D02*
X166596000Y-96013000D01*
X161293000Y-89440000D02*
X164659000Y-89440000D01*
X164659000Y-89440000D02*
X165358000Y-90139000D01*
X161293000Y-87440000D02*
X160793000Y-87440000D01*
X160793000Y-87440000D02*
X159900000Y-88333000D01*
X159900000Y-90027062D02*
X160281375Y-90408437D01*
X159900000Y-88333000D02*
X159900000Y-90027062D01*
X162596000Y-90770938D02*
X162596000Y-96013000D01*
X160281375Y-90408437D02*
X162241499Y-90408437D01*
X162241499Y-90408437D02*
X162600000Y-90766938D01*
X162600000Y-90766938D02*
X162596000Y-90770938D01*
X156385425Y-89847575D02*
X156372383Y-89847575D01*
X161293000Y-85440000D02*
X160793000Y-85440000D01*
X160793000Y-85440000D02*
X156385425Y-89847575D01*
X157873770Y-113906044D02*
X158539907Y-113239907D01*
X148254452Y-113906044D02*
X157873770Y-113906044D01*
X147459702Y-113111294D02*
X148254452Y-113906044D01*
X141705570Y-97153680D02*
X141705570Y-98131480D01*
X141705570Y-98131480D02*
X140475869Y-99361181D01*
X162082198Y-106589198D02*
X159888000Y-104395000D01*
X159888000Y-104395000D02*
X159738000Y-104395000D01*
X140475869Y-99361181D02*
X140475869Y-108684931D01*
X140475869Y-108684931D02*
X142231237Y-110440299D01*
X142231237Y-110440299D02*
X146791361Y-110440299D01*
X146791361Y-110440299D02*
X147459702Y-111108640D01*
X162082198Y-111118877D02*
X162082198Y-106589198D01*
X147459702Y-111108640D02*
X147459702Y-113111294D01*
X158539907Y-113239907D02*
X159961168Y-113239907D01*
X159961168Y-113239907D02*
X162082198Y-111118877D01*
X159738000Y-104395000D02*
X159738000Y-102838000D01*
X159738000Y-102838000D02*
X159000000Y-102100000D01*
X148441076Y-91605494D02*
X149294506Y-92458924D01*
X153026299Y-95735023D02*
X153026299Y-100033651D01*
X160115200Y-83440000D02*
X154304502Y-89250698D01*
X149584884Y-89250698D02*
X148441076Y-90394506D01*
X153026299Y-100033651D02*
X151037430Y-102022520D01*
X149294506Y-92458924D02*
X149750200Y-92458924D01*
X161293000Y-83440000D02*
X160115200Y-83440000D01*
X149750200Y-92458924D02*
X153026299Y-95735023D01*
X151037430Y-102022520D02*
X151037430Y-103000320D01*
X154304502Y-89250698D02*
X149584884Y-89250698D01*
X148441076Y-90394506D02*
X148441076Y-91605494D01*
X155611000Y-108332000D02*
X155461000Y-108332000D01*
X155461000Y-108332000D02*
X151037430Y-103908430D01*
X151037430Y-103908430D02*
X151037430Y-103000320D01*
X161293000Y-79440000D02*
X161793000Y-79440000D01*
X161793000Y-79440000D02*
X163139701Y-78093299D01*
X163139701Y-78093299D02*
X168520299Y-78093299D01*
X168520299Y-78093299D02*
X168787001Y-78360001D01*
X168787001Y-78360001D02*
X169549000Y-79122000D01*
X147685465Y-98671248D02*
X148579659Y-99565442D01*
X148579659Y-99565442D02*
X148960658Y-99946441D01*
X147685465Y-91332465D02*
X147685465Y-98671248D01*
X145293000Y-89440000D02*
X145793000Y-89440000D01*
X145793000Y-89440000D02*
X147685465Y-91332465D01*
X146196669Y-87198672D02*
X146096669Y-87198672D01*
X157349807Y-98449807D02*
X150380999Y-91480999D01*
X157611016Y-98449807D02*
X157349807Y-98449807D01*
X159621529Y-100460320D02*
X157611016Y-98449807D01*
X165388430Y-100460320D02*
X159621529Y-100460320D01*
X150380999Y-91480999D02*
X150000000Y-91100000D01*
X147100000Y-85200000D02*
X145533000Y-85200000D01*
X145533000Y-85200000D02*
X145293000Y-85440000D01*
X165388430Y-100460320D02*
X165098430Y-100460320D01*
X142421800Y-82551000D02*
X143310800Y-83440000D01*
X141228000Y-82551000D02*
X142421800Y-82551000D01*
X143310800Y-83440000D02*
X144115200Y-83440000D01*
X144115200Y-83440000D02*
X145293000Y-83440000D01*
X141228000Y-80011000D02*
X142421800Y-80011000D01*
X142421800Y-80011000D02*
X143850800Y-81440000D01*
X143850800Y-81440000D02*
X144115200Y-81440000D01*
X144115200Y-81440000D02*
X145293000Y-81440000D01*
X150235047Y-113221421D02*
X149696232Y-113221421D01*
X146915312Y-84300659D02*
X146653659Y-84562312D01*
X151357179Y-113221421D02*
X150235047Y-113221421D01*
X151260999Y-105593951D02*
X151260999Y-108905493D01*
X144151916Y-84562312D02*
X144026299Y-84687929D01*
X151786485Y-112792115D02*
X151357179Y-113221421D01*
X151786485Y-109430979D02*
X151786485Y-112792115D01*
X148085465Y-90247208D02*
X148085465Y-91752792D01*
X151260999Y-108905493D02*
X151786485Y-109430979D01*
X152394131Y-99273557D02*
X149458297Y-102209391D01*
X152394131Y-95605763D02*
X152394131Y-99273557D01*
X149458297Y-103791249D02*
X151260999Y-105593951D01*
X148333169Y-86476077D02*
X148333169Y-89999505D01*
X149602903Y-92814535D02*
X152394131Y-95605763D01*
X149147208Y-92814535D02*
X149602903Y-92814535D01*
X148085465Y-91752792D02*
X149147208Y-92814535D01*
X146915312Y-80562312D02*
X146915312Y-84300659D01*
X145793000Y-79440000D02*
X146915312Y-80562312D01*
X145293000Y-79440000D02*
X145793000Y-79440000D01*
X148333169Y-89999505D02*
X148293778Y-90038895D01*
X148293778Y-90038895D02*
X148085465Y-90247208D01*
X149458297Y-102209391D02*
X149458297Y-103791249D01*
X148063793Y-86206701D02*
X148333169Y-86476077D01*
X144026299Y-84687929D02*
X144026299Y-86153361D01*
X144026299Y-86153361D02*
X144079639Y-86206701D01*
X144079639Y-86206701D02*
X148063793Y-86206701D01*
X146653659Y-84562312D02*
X144151916Y-84562312D01*
X148794938Y-112890009D02*
X148256123Y-112890009D01*
X151247702Y-112210898D02*
X150884899Y-112573701D01*
X151247702Y-111589102D02*
X151247702Y-112210898D01*
X144026299Y-80619959D02*
X144079639Y-80673299D01*
X148796361Y-108445299D02*
X150297897Y-108445299D01*
X150297897Y-108445299D02*
X151202463Y-109349865D01*
X143670688Y-84540632D02*
X143670688Y-103319626D01*
X146506361Y-84206701D02*
X144004619Y-84206701D01*
X146559701Y-80726639D02*
X146559701Y-84153361D01*
X150884899Y-112573701D02*
X149111246Y-112573701D01*
X146506361Y-80673299D02*
X146559701Y-80726639D01*
X146559701Y-84153361D02*
X146506361Y-84206701D01*
X144026299Y-78206701D02*
X144026299Y-80619959D01*
X144004619Y-84206701D02*
X143670688Y-84540632D01*
X143670688Y-103319626D02*
X148796361Y-108445299D01*
X151202463Y-111543863D02*
X151247702Y-111589102D01*
X151202463Y-109349865D02*
X151202463Y-111543863D01*
X144793000Y-77440000D02*
X144026299Y-78206701D01*
X145293000Y-77440000D02*
X144793000Y-77440000D01*
X149111246Y-112573701D02*
X148794938Y-112890009D01*
X144079639Y-80673299D02*
X146506361Y-80673299D01*
X154508335Y-89898399D02*
X151878986Y-89898399D01*
X160089047Y-84317687D02*
X154508335Y-89898399D01*
X152417801Y-89898399D02*
X151878986Y-89898399D01*
X167108487Y-84317687D02*
X160089047Y-84317687D01*
X168777000Y-85986200D02*
X167108487Y-84317687D01*
X168777000Y-86614000D02*
X168777000Y-85986200D01*
D31*
G36*
X175570000Y-77214654D02*
X175570000Y-116406455D01*
X175468759Y-116305213D01*
X175235370Y-116208540D01*
X173644750Y-116208540D01*
X173486000Y-116367290D01*
X173486000Y-118466600D01*
X173506000Y-118466600D01*
X173506000Y-118720600D01*
X173486000Y-118720600D01*
X173486000Y-120819910D01*
X173644750Y-120978660D01*
X175235370Y-120978660D01*
X175468759Y-120881987D01*
X175570000Y-120780745D01*
X175570000Y-125099208D01*
X163050614Y-125187372D01*
X163198847Y-125039138D01*
X163295520Y-124805749D01*
X163295520Y-124457190D01*
X163136770Y-124298440D01*
X161771520Y-124298440D01*
X161771520Y-124318440D01*
X161517520Y-124318440D01*
X161517520Y-124298440D01*
X160152270Y-124298440D01*
X159993520Y-124457190D01*
X159993520Y-124805749D01*
X160090193Y-125039138D01*
X160258092Y-125207038D01*
X140085000Y-125349102D01*
X140085000Y-120056640D01*
X153377080Y-120056640D01*
X153377080Y-123714240D01*
X153421358Y-123949557D01*
X153560430Y-124165681D01*
X153772630Y-124310671D01*
X154024520Y-124361680D01*
X156056520Y-124361680D01*
X156291837Y-124317402D01*
X156507961Y-124178330D01*
X156652951Y-123966130D01*
X156703960Y-123714240D01*
X156703960Y-120056640D01*
X156659682Y-119821323D01*
X156520610Y-119605199D01*
X156308410Y-119460209D01*
X156056520Y-119409200D01*
X154024520Y-119409200D01*
X153789203Y-119453478D01*
X153573079Y-119592550D01*
X153428089Y-119804750D01*
X153377080Y-120056640D01*
X140085000Y-120056640D01*
X140085000Y-117848871D01*
X140498275Y-118125012D01*
X141123767Y-118249430D01*
X141697993Y-118249430D01*
X142323485Y-118125012D01*
X142853752Y-117770699D01*
X143142311Y-117338840D01*
X144077880Y-117338840D01*
X144077880Y-117851820D01*
X144122158Y-118087137D01*
X144261230Y-118303261D01*
X144473430Y-118448251D01*
X144725320Y-118499260D01*
X146725320Y-118499260D01*
X146960637Y-118454982D01*
X147176761Y-118315910D01*
X147220816Y-118251433D01*
X147525441Y-118377925D01*
X147929631Y-118378277D01*
X148229746Y-118254272D01*
X148365622Y-118390147D01*
X148599011Y-118486820D01*
X149439570Y-118486820D01*
X149598320Y-118328070D01*
X149598320Y-117178820D01*
X149852320Y-117178820D01*
X149852320Y-118328070D01*
X150011070Y-118486820D01*
X150851629Y-118486820D01*
X151085018Y-118390147D01*
X151263647Y-118211519D01*
X151360320Y-117978130D01*
X151360320Y-117337570D01*
X151201570Y-117178820D01*
X149852320Y-117178820D01*
X149598320Y-117178820D01*
X149578320Y-117178820D01*
X149578320Y-116924820D01*
X149598320Y-116924820D01*
X149598320Y-115775570D01*
X149852320Y-115775570D01*
X149852320Y-116924820D01*
X151201570Y-116924820D01*
X151360320Y-116766070D01*
X151360320Y-116125510D01*
X151263647Y-115892121D01*
X151085018Y-115713493D01*
X150851629Y-115616820D01*
X150011070Y-115616820D01*
X149852320Y-115775570D01*
X149598320Y-115775570D01*
X149439570Y-115616820D01*
X148599011Y-115616820D01*
X148365622Y-115713493D01*
X148186993Y-115892121D01*
X148090320Y-116125510D01*
X148090320Y-116412265D01*
X148052509Y-116396564D01*
X148016220Y-116214127D01*
X147859299Y-115979277D01*
X147859296Y-115979275D01*
X146301900Y-114421878D01*
X146301900Y-112954440D01*
X146578000Y-112954440D01*
X146735802Y-112924747D01*
X146735802Y-113111289D01*
X146735801Y-113111294D01*
X146761530Y-113240638D01*
X146790906Y-113388319D01*
X146876842Y-113516932D01*
X146947827Y-113623169D01*
X147742575Y-114417916D01*
X147742577Y-114417919D01*
X147977427Y-114574840D01*
X148254452Y-114629944D01*
X157873765Y-114629944D01*
X157873770Y-114629945D01*
X157876364Y-114629429D01*
X157876190Y-114829398D01*
X158086686Y-115338837D01*
X158476113Y-115728944D01*
X158565026Y-115765864D01*
X158565026Y-117912941D01*
X158565025Y-117912946D01*
X158607209Y-118125012D01*
X158632393Y-118251621D01*
X158724953Y-118390147D01*
X158824236Y-118538736D01*
X159981080Y-119695579D01*
X159981080Y-120107440D01*
X160025358Y-120342757D01*
X160164430Y-120558881D01*
X160376630Y-120703871D01*
X160564834Y-120741983D01*
X160393203Y-120774278D01*
X160177079Y-120913350D01*
X160032089Y-121125550D01*
X159981080Y-121377440D01*
X159981080Y-122393440D01*
X160025358Y-122628757D01*
X160164430Y-122844881D01*
X160376630Y-122989871D01*
X160567089Y-123028440D01*
X160502210Y-123028440D01*
X160268821Y-123125113D01*
X160090193Y-123303742D01*
X159993520Y-123537131D01*
X159993520Y-123885690D01*
X160152270Y-124044440D01*
X161517520Y-124044440D01*
X161517520Y-124024440D01*
X161771520Y-124024440D01*
X161771520Y-124044440D01*
X163136770Y-124044440D01*
X163295520Y-123885690D01*
X163295520Y-123694000D01*
X164327960Y-123694000D01*
X164643018Y-123824824D01*
X165047208Y-123825176D01*
X165420766Y-123670825D01*
X165706821Y-123385269D01*
X165861824Y-123011982D01*
X165862176Y-122607792D01*
X165707825Y-122234234D01*
X165422269Y-121948179D01*
X165255885Y-121879090D01*
X166274940Y-121879090D01*
X166274940Y-123469709D01*
X166371613Y-123703098D01*
X166550241Y-123881727D01*
X166783630Y-123978400D01*
X168374250Y-123978400D01*
X168533000Y-123819650D01*
X168533000Y-121720340D01*
X168787000Y-121720340D01*
X168787000Y-123819650D01*
X168945750Y-123978400D01*
X170536370Y-123978400D01*
X170769759Y-123881727D01*
X170948387Y-123703098D01*
X171045060Y-123469709D01*
X171045060Y-121879090D01*
X170886310Y-121720340D01*
X168787000Y-121720340D01*
X168533000Y-121720340D01*
X166433690Y-121720340D01*
X166274940Y-121879090D01*
X165255885Y-121879090D01*
X165048982Y-121793176D01*
X164644792Y-121792824D01*
X164327322Y-121924000D01*
X163307960Y-121924000D01*
X163307960Y-121377440D01*
X163263682Y-121142123D01*
X163124610Y-120925999D01*
X162912410Y-120781009D01*
X162724206Y-120742897D01*
X162895837Y-120710602D01*
X163111961Y-120571530D01*
X163256951Y-120359330D01*
X163307960Y-120107440D01*
X163307960Y-119716971D01*
X166274940Y-119716971D01*
X166274940Y-121307590D01*
X166433690Y-121466340D01*
X168533000Y-121466340D01*
X168533000Y-119367030D01*
X168787000Y-119367030D01*
X168787000Y-121466340D01*
X170886310Y-121466340D01*
X171045060Y-121307590D01*
X171045060Y-120641668D01*
X171070613Y-120703358D01*
X171249241Y-120881987D01*
X171482630Y-120978660D01*
X173073250Y-120978660D01*
X173232000Y-120819910D01*
X173232000Y-118720600D01*
X171132690Y-118720600D01*
X170973940Y-118879350D01*
X170973940Y-119545272D01*
X170948387Y-119483582D01*
X170769759Y-119304953D01*
X170536370Y-119208280D01*
X168945750Y-119208280D01*
X168787000Y-119367030D01*
X168533000Y-119367030D01*
X168374250Y-119208280D01*
X166783630Y-119208280D01*
X166550241Y-119304953D01*
X166371613Y-119483582D01*
X166274940Y-119716971D01*
X163307960Y-119716971D01*
X163307960Y-119091440D01*
X163263682Y-118856123D01*
X163124610Y-118639999D01*
X162912410Y-118495009D01*
X162660520Y-118444000D01*
X161232659Y-118444000D01*
X160335026Y-117546366D01*
X160335026Y-115441629D01*
X160339941Y-115436723D01*
X160348993Y-115434922D01*
X160374520Y-115440000D01*
X160406707Y-115440000D01*
X160406712Y-115440001D01*
X160689196Y-115383810D01*
X160745387Y-115372633D01*
X161032502Y-115180790D01*
X164403021Y-111810270D01*
X164997240Y-111810270D01*
X165847140Y-112660169D01*
X165847140Y-115593860D01*
X165914507Y-115932535D01*
X166106350Y-116219650D01*
X166262500Y-116323985D01*
X166262500Y-117343920D01*
X166306778Y-117579237D01*
X166445850Y-117795361D01*
X166658050Y-117940351D01*
X166909940Y-117991360D01*
X170410060Y-117991360D01*
X170645377Y-117947082D01*
X170861501Y-117808010D01*
X170973940Y-117643450D01*
X170973940Y-118307850D01*
X171132690Y-118466600D01*
X173232000Y-118466600D01*
X173232000Y-116367290D01*
X173073250Y-116208540D01*
X171482630Y-116208540D01*
X171249241Y-116305213D01*
X171070613Y-116483842D01*
X171057500Y-116515500D01*
X171057500Y-113843800D01*
X171013222Y-113608483D01*
X171006155Y-113597500D01*
X171503460Y-113597500D01*
X171818518Y-113728324D01*
X172222708Y-113728676D01*
X172596266Y-113574325D01*
X172882321Y-113288769D01*
X173037324Y-112915482D01*
X173037676Y-112511292D01*
X172883325Y-112137734D01*
X172597769Y-111851679D01*
X172224482Y-111696676D01*
X171820292Y-111696324D01*
X171502822Y-111827500D01*
X171133779Y-111827500D01*
X169971080Y-110664800D01*
X170524674Y-110664800D01*
X170641385Y-110839470D01*
X171127566Y-111164326D01*
X171701055Y-111278400D01*
X172070545Y-111278400D01*
X172644034Y-111164326D01*
X173130215Y-110839470D01*
X173455071Y-110353289D01*
X173569145Y-109779800D01*
X173455071Y-109206311D01*
X173130215Y-108720130D01*
X172815434Y-108509800D01*
X173130215Y-108299470D01*
X173455071Y-107813289D01*
X173569145Y-107239800D01*
X173455071Y-106666311D01*
X173130215Y-106180130D01*
X173115887Y-106170557D01*
X173137117Y-106166562D01*
X173353241Y-106027490D01*
X173498231Y-105815290D01*
X173549240Y-105563400D01*
X173549240Y-103836200D01*
X173504962Y-103600883D01*
X173365890Y-103384759D01*
X173153690Y-103239769D01*
X172901800Y-103188760D01*
X170869800Y-103188760D01*
X170634483Y-103233038D01*
X170418359Y-103372110D01*
X170273369Y-103584310D01*
X170222360Y-103836200D01*
X170222360Y-105563400D01*
X170266638Y-105798717D01*
X170405710Y-106014841D01*
X170617910Y-106159831D01*
X170659239Y-106168200D01*
X170641385Y-106180130D01*
X170316529Y-106666311D01*
X170202455Y-107239800D01*
X170316529Y-107813289D01*
X170641385Y-108299470D01*
X170956166Y-108509800D01*
X170641385Y-108720130D01*
X170524674Y-108894800D01*
X169804010Y-108894800D01*
X169804010Y-108102130D01*
X169759732Y-107866813D01*
X169620660Y-107650689D01*
X169553622Y-107604884D01*
X169694897Y-107463608D01*
X169791570Y-107230219D01*
X169791570Y-105889790D01*
X169632820Y-105731040D01*
X168533000Y-105731040D01*
X168533000Y-105751040D01*
X168279000Y-105751040D01*
X168279000Y-105731040D01*
X167179180Y-105731040D01*
X167020430Y-105889790D01*
X167020430Y-107230219D01*
X167117103Y-107463608D01*
X167257257Y-107603763D01*
X167203989Y-107638040D01*
X167058999Y-107850240D01*
X167007990Y-108102130D01*
X167007990Y-111101870D01*
X167052268Y-111337187D01*
X167097304Y-111407175D01*
X165915270Y-110225140D01*
X165915270Y-108163090D01*
X165870992Y-107927773D01*
X165731920Y-107711649D01*
X165664882Y-107665844D01*
X165806157Y-107524568D01*
X165902830Y-107291179D01*
X165902830Y-105950750D01*
X165744080Y-105792000D01*
X164644260Y-105792000D01*
X164644260Y-105812000D01*
X164390260Y-105812000D01*
X164390260Y-105792000D01*
X163290440Y-105792000D01*
X163131690Y-105950750D01*
X163131690Y-107291179D01*
X163228363Y-107524568D01*
X163368517Y-107664723D01*
X163315249Y-107699000D01*
X163170259Y-107911200D01*
X163119250Y-108163090D01*
X163119250Y-110590883D01*
X162806098Y-110904035D01*
X162806098Y-106589203D01*
X162806099Y-106589198D01*
X162750995Y-106312174D01*
X162649203Y-106159831D01*
X162594073Y-106077323D01*
X162594070Y-106077321D01*
X161385440Y-104868690D01*
X161385440Y-104038821D01*
X163131690Y-104038821D01*
X163131690Y-105379250D01*
X163290440Y-105538000D01*
X164390260Y-105538000D01*
X164390260Y-103688880D01*
X164644260Y-103688880D01*
X164644260Y-105538000D01*
X165744080Y-105538000D01*
X165902830Y-105379250D01*
X165902830Y-104038821D01*
X165877580Y-103977861D01*
X167020430Y-103977861D01*
X167020430Y-105318290D01*
X167179180Y-105477040D01*
X168279000Y-105477040D01*
X168279000Y-103627920D01*
X168533000Y-103627920D01*
X168533000Y-105477040D01*
X169632820Y-105477040D01*
X169791570Y-105318290D01*
X169791570Y-103977861D01*
X169694897Y-103744472D01*
X169516269Y-103565843D01*
X169282880Y-103469170D01*
X168691750Y-103469170D01*
X168533000Y-103627920D01*
X168279000Y-103627920D01*
X168120250Y-103469170D01*
X167529120Y-103469170D01*
X167295731Y-103565843D01*
X167117103Y-103744472D01*
X167020430Y-103977861D01*
X165877580Y-103977861D01*
X165806157Y-103805432D01*
X165627529Y-103626803D01*
X165394140Y-103530130D01*
X164803010Y-103530130D01*
X164644260Y-103688880D01*
X164390260Y-103688880D01*
X164231510Y-103530130D01*
X163640380Y-103530130D01*
X163406991Y-103626803D01*
X163228363Y-103805432D01*
X163131690Y-104038821D01*
X161385440Y-104038821D01*
X161385440Y-103545000D01*
X161341162Y-103309683D01*
X161202090Y-103093559D01*
X160989890Y-102948569D01*
X160738000Y-102897560D01*
X160461900Y-102897560D01*
X160461900Y-102838005D01*
X160461901Y-102838000D01*
X160406797Y-102560976D01*
X160253482Y-102331524D01*
X160249875Y-102326125D01*
X160249872Y-102326123D01*
X160016008Y-102092258D01*
X160016176Y-101898792D01*
X159861825Y-101525234D01*
X159576269Y-101239179D01*
X159202982Y-101084176D01*
X158798792Y-101083824D01*
X158425234Y-101238175D01*
X158350983Y-101312296D01*
X158350983Y-100213523D01*
X159109652Y-100972192D01*
X159109654Y-100972195D01*
X159266576Y-101077046D01*
X159344505Y-101129117D01*
X159621529Y-101184221D01*
X159621534Y-101184220D01*
X163650990Y-101184220D01*
X163650990Y-101260320D01*
X163695268Y-101495637D01*
X163834340Y-101711761D01*
X164046540Y-101856751D01*
X164298430Y-101907760D01*
X166478430Y-101907760D01*
X166713747Y-101863482D01*
X166929871Y-101724410D01*
X167074861Y-101512210D01*
X167125870Y-101260320D01*
X167125870Y-99660320D01*
X167081592Y-99425003D01*
X166942520Y-99208879D01*
X166730320Y-99063889D01*
X166478430Y-99012880D01*
X164298430Y-99012880D01*
X164063113Y-99057158D01*
X163846989Y-99196230D01*
X163701999Y-99408430D01*
X163650990Y-99660320D01*
X163650990Y-99736420D01*
X159921378Y-99736420D01*
X158122891Y-97937932D01*
X157888041Y-97781011D01*
X157842079Y-97771868D01*
X157659250Y-97735501D01*
X151016008Y-91092258D01*
X151016176Y-90898792D01*
X150861825Y-90525234D01*
X150576269Y-90239179D01*
X150202982Y-90084176D01*
X149798792Y-90083824D01*
X149759112Y-90100220D01*
X149884733Y-89974598D01*
X150862919Y-89974598D01*
X150862810Y-90099607D01*
X151017161Y-90473165D01*
X151302717Y-90759220D01*
X151676004Y-90914223D01*
X152080194Y-90914575D01*
X152453752Y-90760224D01*
X152591918Y-90622299D01*
X152765876Y-90622299D01*
X152614179Y-90773731D01*
X152459176Y-91147018D01*
X152458824Y-91551208D01*
X152613175Y-91924766D01*
X152898731Y-92210821D01*
X153272018Y-92365824D01*
X153676208Y-92366176D01*
X154049766Y-92211825D01*
X154335821Y-91926269D01*
X154365829Y-91854001D01*
X155527421Y-91854001D01*
X157083860Y-93410439D01*
X157083824Y-93451208D01*
X157238175Y-93824766D01*
X157523731Y-94110821D01*
X157897018Y-94265824D01*
X158159640Y-94266053D01*
X158136699Y-94288994D01*
X157943233Y-94288826D01*
X157569675Y-94443177D01*
X157283620Y-94728733D01*
X157128617Y-95102020D01*
X157128265Y-95506210D01*
X157282616Y-95879768D01*
X157568172Y-96165823D01*
X157941459Y-96320826D01*
X158345649Y-96321178D01*
X158719207Y-96166827D01*
X159005262Y-95881271D01*
X159160265Y-95507984D01*
X159160435Y-95312758D01*
X161804872Y-92668320D01*
X161804875Y-92668318D01*
X161858916Y-92587440D01*
X161872100Y-92587440D01*
X161872100Y-94515560D01*
X161596000Y-94515560D01*
X161360683Y-94559838D01*
X161144559Y-94698910D01*
X160999569Y-94911110D01*
X160948560Y-95163000D01*
X160948560Y-96863000D01*
X160992838Y-97098317D01*
X161131910Y-97314441D01*
X161344110Y-97459431D01*
X161596000Y-97510440D01*
X163596000Y-97510440D01*
X163831317Y-97466162D01*
X164047441Y-97327090D01*
X164192431Y-97114890D01*
X164243440Y-96863000D01*
X164243440Y-95163000D01*
X164948560Y-95163000D01*
X164948560Y-96863000D01*
X164992838Y-97098317D01*
X165131910Y-97314441D01*
X165344110Y-97459431D01*
X165596000Y-97510440D01*
X167117645Y-97510440D01*
X167130047Y-97518726D01*
X167207976Y-97570797D01*
X167485000Y-97625901D01*
X167485005Y-97625900D01*
X168139560Y-97625900D01*
X168139560Y-97918000D01*
X168183838Y-98153317D01*
X168322910Y-98369441D01*
X168535110Y-98514431D01*
X168787000Y-98565440D01*
X170311000Y-98565440D01*
X170546317Y-98521162D01*
X170762441Y-98382090D01*
X170907431Y-98169890D01*
X170958440Y-97918000D01*
X170958440Y-97187750D01*
X171454000Y-97187750D01*
X171454000Y-98044310D01*
X171550673Y-98277699D01*
X171729302Y-98456327D01*
X171962691Y-98553000D01*
X172565250Y-98553000D01*
X172724000Y-98394250D01*
X172724000Y-97029000D01*
X172978000Y-97029000D01*
X172978000Y-98394250D01*
X173136750Y-98553000D01*
X173739309Y-98553000D01*
X173972698Y-98456327D01*
X174151327Y-98277699D01*
X174248000Y-98044310D01*
X174248000Y-97187750D01*
X174089250Y-97029000D01*
X172978000Y-97029000D01*
X172724000Y-97029000D01*
X171612750Y-97029000D01*
X171454000Y-97187750D01*
X170958440Y-97187750D01*
X170958440Y-95886000D01*
X170934674Y-95759690D01*
X171454000Y-95759690D01*
X171454000Y-96616250D01*
X171612750Y-96775000D01*
X172724000Y-96775000D01*
X172724000Y-95409750D01*
X172978000Y-95409750D01*
X172978000Y-96775000D01*
X174089250Y-96775000D01*
X174248000Y-96616250D01*
X174248000Y-95759690D01*
X174151327Y-95526301D01*
X173972698Y-95347673D01*
X173739309Y-95251000D01*
X173136750Y-95251000D01*
X172978000Y-95409750D01*
X172724000Y-95409750D01*
X172565250Y-95251000D01*
X171962691Y-95251000D01*
X171729302Y-95347673D01*
X171550673Y-95526301D01*
X171454000Y-95759690D01*
X170934674Y-95759690D01*
X170914162Y-95650683D01*
X170775090Y-95434559D01*
X170562890Y-95289569D01*
X170311000Y-95238560D01*
X168787000Y-95238560D01*
X168551683Y-95282838D01*
X168335559Y-95421910D01*
X168243440Y-95556731D01*
X168243440Y-95163000D01*
X168199162Y-94927683D01*
X168060090Y-94711559D01*
X167847890Y-94566569D01*
X167596000Y-94515560D01*
X165596000Y-94515560D01*
X165360683Y-94559838D01*
X165144559Y-94698910D01*
X164999569Y-94911110D01*
X164948560Y-95163000D01*
X164243440Y-95163000D01*
X164199162Y-94927683D01*
X164060090Y-94711559D01*
X163847890Y-94566569D01*
X163596000Y-94515560D01*
X163319900Y-94515560D01*
X163319900Y-90787052D01*
X163323901Y-90766938D01*
X163268797Y-90489914D01*
X163111875Y-90255063D01*
X163020712Y-90163900D01*
X163860560Y-90163900D01*
X163860560Y-91139000D01*
X163904838Y-91374317D01*
X164043910Y-91590441D01*
X164256110Y-91735431D01*
X164508000Y-91786440D01*
X166208000Y-91786440D01*
X166443317Y-91742162D01*
X166471486Y-91724036D01*
X168097323Y-93349872D01*
X168097325Y-93349875D01*
X168139560Y-93378095D01*
X168139560Y-93854000D01*
X168183838Y-94089317D01*
X168322910Y-94305441D01*
X168535110Y-94450431D01*
X168787000Y-94501440D01*
X170311000Y-94501440D01*
X170546317Y-94457162D01*
X170762441Y-94318090D01*
X170907431Y-94105890D01*
X170958440Y-93854000D01*
X170958440Y-93123750D01*
X171454000Y-93123750D01*
X171454000Y-93980310D01*
X171550673Y-94213699D01*
X171729302Y-94392327D01*
X171962691Y-94489000D01*
X172565250Y-94489000D01*
X172724000Y-94330250D01*
X172724000Y-92965000D01*
X172978000Y-92965000D01*
X172978000Y-94330250D01*
X173136750Y-94489000D01*
X173739309Y-94489000D01*
X173972698Y-94392327D01*
X174151327Y-94213699D01*
X174248000Y-93980310D01*
X174248000Y-93123750D01*
X174089250Y-92965000D01*
X172978000Y-92965000D01*
X172724000Y-92965000D01*
X171612750Y-92965000D01*
X171454000Y-93123750D01*
X170958440Y-93123750D01*
X170958440Y-91822000D01*
X170934674Y-91695690D01*
X171454000Y-91695690D01*
X171454000Y-92552250D01*
X171612750Y-92711000D01*
X172724000Y-92711000D01*
X172724000Y-91345750D01*
X172978000Y-91345750D01*
X172978000Y-92711000D01*
X174089250Y-92711000D01*
X174248000Y-92552250D01*
X174248000Y-91695690D01*
X174151327Y-91462301D01*
X173972698Y-91283673D01*
X173739309Y-91187000D01*
X173136750Y-91187000D01*
X172978000Y-91345750D01*
X172724000Y-91345750D01*
X172565250Y-91187000D01*
X171962691Y-91187000D01*
X171729302Y-91283673D01*
X171550673Y-91462301D01*
X171454000Y-91695690D01*
X170934674Y-91695690D01*
X170914162Y-91586683D01*
X170775090Y-91370559D01*
X170562890Y-91225569D01*
X170311000Y-91174560D01*
X168787000Y-91174560D01*
X168551683Y-91218838D01*
X168335559Y-91357910D01*
X168261398Y-91466448D01*
X167554212Y-90759262D01*
X167554212Y-89569069D01*
X169169048Y-89569069D01*
X169323399Y-89942627D01*
X169608955Y-90228682D01*
X169982242Y-90383685D01*
X170386432Y-90384037D01*
X170759990Y-90229686D01*
X171046045Y-89944130D01*
X171177775Y-89626890D01*
X173098912Y-87705752D01*
X173127000Y-87711440D01*
X174627000Y-87711440D01*
X174862317Y-87667162D01*
X175078441Y-87528090D01*
X175223431Y-87315890D01*
X175274440Y-87064000D01*
X175274440Y-86164000D01*
X175230162Y-85928683D01*
X175091090Y-85712559D01*
X174878890Y-85567569D01*
X174627000Y-85516560D01*
X173127000Y-85516560D01*
X172891683Y-85560838D01*
X172675559Y-85699910D01*
X172611107Y-85794238D01*
X172600411Y-85796366D01*
X172600409Y-85796367D01*
X172600410Y-85796367D01*
X172313295Y-85988210D01*
X172313293Y-85988213D01*
X169925742Y-88375763D01*
X169610458Y-88506036D01*
X169324403Y-88791592D01*
X169169400Y-89164879D01*
X169169048Y-89569069D01*
X167554212Y-89569069D01*
X167554212Y-87501924D01*
X167562910Y-87515441D01*
X167775110Y-87660431D01*
X168027000Y-87711440D01*
X169527000Y-87711440D01*
X169762317Y-87667162D01*
X169978441Y-87528090D01*
X170123431Y-87315890D01*
X170174440Y-87064000D01*
X170174440Y-86164000D01*
X170130162Y-85928683D01*
X169991090Y-85712559D01*
X169778890Y-85567569D01*
X169527000Y-85516560D01*
X169317095Y-85516560D01*
X169288875Y-85474325D01*
X169288872Y-85474323D01*
X168213550Y-84399000D01*
X168491250Y-84399000D01*
X168650000Y-84240250D01*
X168650000Y-83441000D01*
X168904000Y-83441000D01*
X168904000Y-84240250D01*
X169062750Y-84399000D01*
X169653309Y-84399000D01*
X169886698Y-84302327D01*
X170065327Y-84123699D01*
X170162000Y-83890310D01*
X170162000Y-83599750D01*
X170003250Y-83441000D01*
X168904000Y-83441000D01*
X168650000Y-83441000D01*
X167550750Y-83441000D01*
X167392000Y-83599750D01*
X167392000Y-83653226D01*
X167385512Y-83648891D01*
X167339550Y-83639748D01*
X167108487Y-83593786D01*
X167108482Y-83593787D01*
X162940440Y-83593787D01*
X162940440Y-82940000D01*
X162902373Y-82737690D01*
X167392000Y-82737690D01*
X167392000Y-83028250D01*
X167550750Y-83187000D01*
X168650000Y-83187000D01*
X168650000Y-82387750D01*
X168904000Y-82387750D01*
X168904000Y-83187000D01*
X170003250Y-83187000D01*
X170162000Y-83028250D01*
X170162000Y-82864000D01*
X172479560Y-82864000D01*
X172479560Y-83764000D01*
X172523838Y-83999317D01*
X172662910Y-84215441D01*
X172875110Y-84360431D01*
X173127000Y-84411440D01*
X174627000Y-84411440D01*
X174862317Y-84367162D01*
X175078441Y-84228090D01*
X175223431Y-84015890D01*
X175274440Y-83764000D01*
X175274440Y-82864000D01*
X175230162Y-82628683D01*
X175091090Y-82412559D01*
X174878890Y-82267569D01*
X174627000Y-82216560D01*
X173127000Y-82216560D01*
X172891683Y-82260838D01*
X172675559Y-82399910D01*
X172530569Y-82612110D01*
X172479560Y-82864000D01*
X170162000Y-82864000D01*
X170162000Y-82737690D01*
X170065327Y-82504301D01*
X169886698Y-82325673D01*
X169653309Y-82229000D01*
X169062750Y-82229000D01*
X168904000Y-82387750D01*
X168650000Y-82387750D01*
X168491250Y-82229000D01*
X167900691Y-82229000D01*
X167667302Y-82325673D01*
X167488673Y-82504301D01*
X167392000Y-82737690D01*
X162902373Y-82737690D01*
X162896162Y-82704683D01*
X162757090Y-82488559D01*
X162687289Y-82440866D01*
X162744441Y-82404090D01*
X162889431Y-82191890D01*
X162940440Y-81940000D01*
X162940440Y-80940000D01*
X162896162Y-80704683D01*
X162757090Y-80488559D01*
X162687289Y-80440866D01*
X162744441Y-80404090D01*
X162889431Y-80191890D01*
X162940440Y-79940000D01*
X162940440Y-79316310D01*
X163439550Y-78817199D01*
X165622915Y-78817199D01*
X165612243Y-78842900D01*
X165611758Y-79398661D01*
X165823990Y-79912303D01*
X166216630Y-80305629D01*
X166729900Y-80518757D01*
X167285661Y-80519242D01*
X167799303Y-80307010D01*
X168192629Y-79914370D01*
X168278949Y-79706488D01*
X168363990Y-79912303D01*
X168756630Y-80305629D01*
X169269900Y-80518757D01*
X169825661Y-80519242D01*
X170339303Y-80307010D01*
X170544457Y-80102213D01*
X171288392Y-80102213D01*
X171357857Y-80344397D01*
X171881302Y-80531144D01*
X172436368Y-80503362D01*
X172820143Y-80344397D01*
X172889608Y-80102213D01*
X172089000Y-79301605D01*
X171288392Y-80102213D01*
X170544457Y-80102213D01*
X170732629Y-79914370D01*
X170812395Y-79722273D01*
X170866603Y-79853143D01*
X171108787Y-79922608D01*
X171909395Y-79122000D01*
X172268605Y-79122000D01*
X173069213Y-79922608D01*
X173311397Y-79853143D01*
X173498144Y-79329698D01*
X173470362Y-78774632D01*
X173311397Y-78390857D01*
X173069213Y-78321392D01*
X172268605Y-79122000D01*
X171909395Y-79122000D01*
X171108787Y-78321392D01*
X170866603Y-78390857D01*
X170816491Y-78531318D01*
X170734010Y-78331697D01*
X170544432Y-78141787D01*
X171288392Y-78141787D01*
X172089000Y-78942395D01*
X172889608Y-78141787D01*
X172820143Y-77899603D01*
X172296698Y-77712856D01*
X171741632Y-77740638D01*
X171357857Y-77899603D01*
X171288392Y-78141787D01*
X170544432Y-78141787D01*
X170341370Y-77938371D01*
X169828100Y-77725243D01*
X169272339Y-77724758D01*
X169203819Y-77753070D01*
X169032174Y-77581424D01*
X168967043Y-77537905D01*
X168797324Y-77424503D01*
X168751362Y-77415360D01*
X168520299Y-77369398D01*
X168520294Y-77369399D01*
X163139706Y-77369399D01*
X163139701Y-77369398D01*
X162940440Y-77409034D01*
X162940440Y-77124442D01*
X175570000Y-77214654D01*
X175570000Y-77214654D01*
G37*
X175570000Y-77214654D02*
X175570000Y-116406455D01*
X175468759Y-116305213D01*
X175235370Y-116208540D01*
X173644750Y-116208540D01*
X173486000Y-116367290D01*
X173486000Y-118466600D01*
X173506000Y-118466600D01*
X173506000Y-118720600D01*
X173486000Y-118720600D01*
X173486000Y-120819910D01*
X173644750Y-120978660D01*
X175235370Y-120978660D01*
X175468759Y-120881987D01*
X175570000Y-120780745D01*
X175570000Y-125099208D01*
X163050614Y-125187372D01*
X163198847Y-125039138D01*
X163295520Y-124805749D01*
X163295520Y-124457190D01*
X163136770Y-124298440D01*
X161771520Y-124298440D01*
X161771520Y-124318440D01*
X161517520Y-124318440D01*
X161517520Y-124298440D01*
X160152270Y-124298440D01*
X159993520Y-124457190D01*
X159993520Y-124805749D01*
X160090193Y-125039138D01*
X160258092Y-125207038D01*
X140085000Y-125349102D01*
X140085000Y-120056640D01*
X153377080Y-120056640D01*
X153377080Y-123714240D01*
X153421358Y-123949557D01*
X153560430Y-124165681D01*
X153772630Y-124310671D01*
X154024520Y-124361680D01*
X156056520Y-124361680D01*
X156291837Y-124317402D01*
X156507961Y-124178330D01*
X156652951Y-123966130D01*
X156703960Y-123714240D01*
X156703960Y-120056640D01*
X156659682Y-119821323D01*
X156520610Y-119605199D01*
X156308410Y-119460209D01*
X156056520Y-119409200D01*
X154024520Y-119409200D01*
X153789203Y-119453478D01*
X153573079Y-119592550D01*
X153428089Y-119804750D01*
X153377080Y-120056640D01*
X140085000Y-120056640D01*
X140085000Y-117848871D01*
X140498275Y-118125012D01*
X141123767Y-118249430D01*
X141697993Y-118249430D01*
X142323485Y-118125012D01*
X142853752Y-117770699D01*
X143142311Y-117338840D01*
X144077880Y-117338840D01*
X144077880Y-117851820D01*
X144122158Y-118087137D01*
X144261230Y-118303261D01*
X144473430Y-118448251D01*
X144725320Y-118499260D01*
X146725320Y-118499260D01*
X146960637Y-118454982D01*
X147176761Y-118315910D01*
X147220816Y-118251433D01*
X147525441Y-118377925D01*
X147929631Y-118378277D01*
X148229746Y-118254272D01*
X148365622Y-118390147D01*
X148599011Y-118486820D01*
X149439570Y-118486820D01*
X149598320Y-118328070D01*
X149598320Y-117178820D01*
X149852320Y-117178820D01*
X149852320Y-118328070D01*
X150011070Y-118486820D01*
X150851629Y-118486820D01*
X151085018Y-118390147D01*
X151263647Y-118211519D01*
X151360320Y-117978130D01*
X151360320Y-117337570D01*
X151201570Y-117178820D01*
X149852320Y-117178820D01*
X149598320Y-117178820D01*
X149578320Y-117178820D01*
X149578320Y-116924820D01*
X149598320Y-116924820D01*
X149598320Y-115775570D01*
X149852320Y-115775570D01*
X149852320Y-116924820D01*
X151201570Y-116924820D01*
X151360320Y-116766070D01*
X151360320Y-116125510D01*
X151263647Y-115892121D01*
X151085018Y-115713493D01*
X150851629Y-115616820D01*
X150011070Y-115616820D01*
X149852320Y-115775570D01*
X149598320Y-115775570D01*
X149439570Y-115616820D01*
X148599011Y-115616820D01*
X148365622Y-115713493D01*
X148186993Y-115892121D01*
X148090320Y-116125510D01*
X148090320Y-116412265D01*
X148052509Y-116396564D01*
X148016220Y-116214127D01*
X147859299Y-115979277D01*
X147859296Y-115979275D01*
X146301900Y-114421878D01*
X146301900Y-112954440D01*
X146578000Y-112954440D01*
X146735802Y-112924747D01*
X146735802Y-113111289D01*
X146735801Y-113111294D01*
X146761530Y-113240638D01*
X146790906Y-113388319D01*
X146876842Y-113516932D01*
X146947827Y-113623169D01*
X147742575Y-114417916D01*
X147742577Y-114417919D01*
X147977427Y-114574840D01*
X148254452Y-114629944D01*
X157873765Y-114629944D01*
X157873770Y-114629945D01*
X157876364Y-114629429D01*
X157876190Y-114829398D01*
X158086686Y-115338837D01*
X158476113Y-115728944D01*
X158565026Y-115765864D01*
X158565026Y-117912941D01*
X158565025Y-117912946D01*
X158607209Y-118125012D01*
X158632393Y-118251621D01*
X158724953Y-118390147D01*
X158824236Y-118538736D01*
X159981080Y-119695579D01*
X159981080Y-120107440D01*
X160025358Y-120342757D01*
X160164430Y-120558881D01*
X160376630Y-120703871D01*
X160564834Y-120741983D01*
X160393203Y-120774278D01*
X160177079Y-120913350D01*
X160032089Y-121125550D01*
X159981080Y-121377440D01*
X159981080Y-122393440D01*
X160025358Y-122628757D01*
X160164430Y-122844881D01*
X160376630Y-122989871D01*
X160567089Y-123028440D01*
X160502210Y-123028440D01*
X160268821Y-123125113D01*
X160090193Y-123303742D01*
X159993520Y-123537131D01*
X159993520Y-123885690D01*
X160152270Y-124044440D01*
X161517520Y-124044440D01*
X161517520Y-124024440D01*
X161771520Y-124024440D01*
X161771520Y-124044440D01*
X163136770Y-124044440D01*
X163295520Y-123885690D01*
X163295520Y-123694000D01*
X164327960Y-123694000D01*
X164643018Y-123824824D01*
X165047208Y-123825176D01*
X165420766Y-123670825D01*
X165706821Y-123385269D01*
X165861824Y-123011982D01*
X165862176Y-122607792D01*
X165707825Y-122234234D01*
X165422269Y-121948179D01*
X165255885Y-121879090D01*
X166274940Y-121879090D01*
X166274940Y-123469709D01*
X166371613Y-123703098D01*
X166550241Y-123881727D01*
X166783630Y-123978400D01*
X168374250Y-123978400D01*
X168533000Y-123819650D01*
X168533000Y-121720340D01*
X168787000Y-121720340D01*
X168787000Y-123819650D01*
X168945750Y-123978400D01*
X170536370Y-123978400D01*
X170769759Y-123881727D01*
X170948387Y-123703098D01*
X171045060Y-123469709D01*
X171045060Y-121879090D01*
X170886310Y-121720340D01*
X168787000Y-121720340D01*
X168533000Y-121720340D01*
X166433690Y-121720340D01*
X166274940Y-121879090D01*
X165255885Y-121879090D01*
X165048982Y-121793176D01*
X164644792Y-121792824D01*
X164327322Y-121924000D01*
X163307960Y-121924000D01*
X163307960Y-121377440D01*
X163263682Y-121142123D01*
X163124610Y-120925999D01*
X162912410Y-120781009D01*
X162724206Y-120742897D01*
X162895837Y-120710602D01*
X163111961Y-120571530D01*
X163256951Y-120359330D01*
X163307960Y-120107440D01*
X163307960Y-119716971D01*
X166274940Y-119716971D01*
X166274940Y-121307590D01*
X166433690Y-121466340D01*
X168533000Y-121466340D01*
X168533000Y-119367030D01*
X168787000Y-119367030D01*
X168787000Y-121466340D01*
X170886310Y-121466340D01*
X171045060Y-121307590D01*
X171045060Y-120641668D01*
X171070613Y-120703358D01*
X171249241Y-120881987D01*
X171482630Y-120978660D01*
X173073250Y-120978660D01*
X173232000Y-120819910D01*
X173232000Y-118720600D01*
X171132690Y-118720600D01*
X170973940Y-118879350D01*
X170973940Y-119545272D01*
X170948387Y-119483582D01*
X170769759Y-119304953D01*
X170536370Y-119208280D01*
X168945750Y-119208280D01*
X168787000Y-119367030D01*
X168533000Y-119367030D01*
X168374250Y-119208280D01*
X166783630Y-119208280D01*
X166550241Y-119304953D01*
X166371613Y-119483582D01*
X166274940Y-119716971D01*
X163307960Y-119716971D01*
X163307960Y-119091440D01*
X163263682Y-118856123D01*
X163124610Y-118639999D01*
X162912410Y-118495009D01*
X162660520Y-118444000D01*
X161232659Y-118444000D01*
X160335026Y-117546366D01*
X160335026Y-115441629D01*
X160339941Y-115436723D01*
X160348993Y-115434922D01*
X160374520Y-115440000D01*
X160406707Y-115440000D01*
X160406712Y-115440001D01*
X160689196Y-115383810D01*
X160745387Y-115372633D01*
X161032502Y-115180790D01*
X164403021Y-111810270D01*
X164997240Y-111810270D01*
X165847140Y-112660169D01*
X165847140Y-115593860D01*
X165914507Y-115932535D01*
X166106350Y-116219650D01*
X166262500Y-116323985D01*
X166262500Y-117343920D01*
X166306778Y-117579237D01*
X166445850Y-117795361D01*
X166658050Y-117940351D01*
X166909940Y-117991360D01*
X170410060Y-117991360D01*
X170645377Y-117947082D01*
X170861501Y-117808010D01*
X170973940Y-117643450D01*
X170973940Y-118307850D01*
X171132690Y-118466600D01*
X173232000Y-118466600D01*
X173232000Y-116367290D01*
X173073250Y-116208540D01*
X171482630Y-116208540D01*
X171249241Y-116305213D01*
X171070613Y-116483842D01*
X171057500Y-116515500D01*
X171057500Y-113843800D01*
X171013222Y-113608483D01*
X171006155Y-113597500D01*
X171503460Y-113597500D01*
X171818518Y-113728324D01*
X172222708Y-113728676D01*
X172596266Y-113574325D01*
X172882321Y-113288769D01*
X173037324Y-112915482D01*
X173037676Y-112511292D01*
X172883325Y-112137734D01*
X172597769Y-111851679D01*
X172224482Y-111696676D01*
X171820292Y-111696324D01*
X171502822Y-111827500D01*
X171133779Y-111827500D01*
X169971080Y-110664800D01*
X170524674Y-110664800D01*
X170641385Y-110839470D01*
X171127566Y-111164326D01*
X171701055Y-111278400D01*
X172070545Y-111278400D01*
X172644034Y-111164326D01*
X173130215Y-110839470D01*
X173455071Y-110353289D01*
X173569145Y-109779800D01*
X173455071Y-109206311D01*
X173130215Y-108720130D01*
X172815434Y-108509800D01*
X173130215Y-108299470D01*
X173455071Y-107813289D01*
X173569145Y-107239800D01*
X173455071Y-106666311D01*
X173130215Y-106180130D01*
X173115887Y-106170557D01*
X173137117Y-106166562D01*
X173353241Y-106027490D01*
X173498231Y-105815290D01*
X173549240Y-105563400D01*
X173549240Y-103836200D01*
X173504962Y-103600883D01*
X173365890Y-103384759D01*
X173153690Y-103239769D01*
X172901800Y-103188760D01*
X170869800Y-103188760D01*
X170634483Y-103233038D01*
X170418359Y-103372110D01*
X170273369Y-103584310D01*
X170222360Y-103836200D01*
X170222360Y-105563400D01*
X170266638Y-105798717D01*
X170405710Y-106014841D01*
X170617910Y-106159831D01*
X170659239Y-106168200D01*
X170641385Y-106180130D01*
X170316529Y-106666311D01*
X170202455Y-107239800D01*
X170316529Y-107813289D01*
X170641385Y-108299470D01*
X170956166Y-108509800D01*
X170641385Y-108720130D01*
X170524674Y-108894800D01*
X169804010Y-108894800D01*
X169804010Y-108102130D01*
X169759732Y-107866813D01*
X169620660Y-107650689D01*
X169553622Y-107604884D01*
X169694897Y-107463608D01*
X169791570Y-107230219D01*
X169791570Y-105889790D01*
X169632820Y-105731040D01*
X168533000Y-105731040D01*
X168533000Y-105751040D01*
X168279000Y-105751040D01*
X168279000Y-105731040D01*
X167179180Y-105731040D01*
X167020430Y-105889790D01*
X167020430Y-107230219D01*
X167117103Y-107463608D01*
X167257257Y-107603763D01*
X167203989Y-107638040D01*
X167058999Y-107850240D01*
X167007990Y-108102130D01*
X167007990Y-111101870D01*
X167052268Y-111337187D01*
X167097304Y-111407175D01*
X165915270Y-110225140D01*
X165915270Y-108163090D01*
X165870992Y-107927773D01*
X165731920Y-107711649D01*
X165664882Y-107665844D01*
X165806157Y-107524568D01*
X165902830Y-107291179D01*
X165902830Y-105950750D01*
X165744080Y-105792000D01*
X164644260Y-105792000D01*
X164644260Y-105812000D01*
X164390260Y-105812000D01*
X164390260Y-105792000D01*
X163290440Y-105792000D01*
X163131690Y-105950750D01*
X163131690Y-107291179D01*
X163228363Y-107524568D01*
X163368517Y-107664723D01*
X163315249Y-107699000D01*
X163170259Y-107911200D01*
X163119250Y-108163090D01*
X163119250Y-110590883D01*
X162806098Y-110904035D01*
X162806098Y-106589203D01*
X162806099Y-106589198D01*
X162750995Y-106312174D01*
X162649203Y-106159831D01*
X162594073Y-106077323D01*
X162594070Y-106077321D01*
X161385440Y-104868690D01*
X161385440Y-104038821D01*
X163131690Y-104038821D01*
X163131690Y-105379250D01*
X163290440Y-105538000D01*
X164390260Y-105538000D01*
X164390260Y-103688880D01*
X164644260Y-103688880D01*
X164644260Y-105538000D01*
X165744080Y-105538000D01*
X165902830Y-105379250D01*
X165902830Y-104038821D01*
X165877580Y-103977861D01*
X167020430Y-103977861D01*
X167020430Y-105318290D01*
X167179180Y-105477040D01*
X168279000Y-105477040D01*
X168279000Y-103627920D01*
X168533000Y-103627920D01*
X168533000Y-105477040D01*
X169632820Y-105477040D01*
X169791570Y-105318290D01*
X169791570Y-103977861D01*
X169694897Y-103744472D01*
X169516269Y-103565843D01*
X169282880Y-103469170D01*
X168691750Y-103469170D01*
X168533000Y-103627920D01*
X168279000Y-103627920D01*
X168120250Y-103469170D01*
X167529120Y-103469170D01*
X167295731Y-103565843D01*
X167117103Y-103744472D01*
X167020430Y-103977861D01*
X165877580Y-103977861D01*
X165806157Y-103805432D01*
X165627529Y-103626803D01*
X165394140Y-103530130D01*
X164803010Y-103530130D01*
X164644260Y-103688880D01*
X164390260Y-103688880D01*
X164231510Y-103530130D01*
X163640380Y-103530130D01*
X163406991Y-103626803D01*
X163228363Y-103805432D01*
X163131690Y-104038821D01*
X161385440Y-104038821D01*
X161385440Y-103545000D01*
X161341162Y-103309683D01*
X161202090Y-103093559D01*
X160989890Y-102948569D01*
X160738000Y-102897560D01*
X160461900Y-102897560D01*
X160461900Y-102838005D01*
X160461901Y-102838000D01*
X160406797Y-102560976D01*
X160253482Y-102331524D01*
X160249875Y-102326125D01*
X160249872Y-102326123D01*
X160016008Y-102092258D01*
X160016176Y-101898792D01*
X159861825Y-101525234D01*
X159576269Y-101239179D01*
X159202982Y-101084176D01*
X158798792Y-101083824D01*
X158425234Y-101238175D01*
X158350983Y-101312296D01*
X158350983Y-100213523D01*
X159109652Y-100972192D01*
X159109654Y-100972195D01*
X159266576Y-101077046D01*
X159344505Y-101129117D01*
X159621529Y-101184221D01*
X159621534Y-101184220D01*
X163650990Y-101184220D01*
X163650990Y-101260320D01*
X163695268Y-101495637D01*
X163834340Y-101711761D01*
X164046540Y-101856751D01*
X164298430Y-101907760D01*
X166478430Y-101907760D01*
X166713747Y-101863482D01*
X166929871Y-101724410D01*
X167074861Y-101512210D01*
X167125870Y-101260320D01*
X167125870Y-99660320D01*
X167081592Y-99425003D01*
X166942520Y-99208879D01*
X166730320Y-99063889D01*
X166478430Y-99012880D01*
X164298430Y-99012880D01*
X164063113Y-99057158D01*
X163846989Y-99196230D01*
X163701999Y-99408430D01*
X163650990Y-99660320D01*
X163650990Y-99736420D01*
X159921378Y-99736420D01*
X158122891Y-97937932D01*
X157888041Y-97781011D01*
X157842079Y-97771868D01*
X157659250Y-97735501D01*
X151016008Y-91092258D01*
X151016176Y-90898792D01*
X150861825Y-90525234D01*
X150576269Y-90239179D01*
X150202982Y-90084176D01*
X149798792Y-90083824D01*
X149759112Y-90100220D01*
X149884733Y-89974598D01*
X150862919Y-89974598D01*
X150862810Y-90099607D01*
X151017161Y-90473165D01*
X151302717Y-90759220D01*
X151676004Y-90914223D01*
X152080194Y-90914575D01*
X152453752Y-90760224D01*
X152591918Y-90622299D01*
X152765876Y-90622299D01*
X152614179Y-90773731D01*
X152459176Y-91147018D01*
X152458824Y-91551208D01*
X152613175Y-91924766D01*
X152898731Y-92210821D01*
X153272018Y-92365824D01*
X153676208Y-92366176D01*
X154049766Y-92211825D01*
X154335821Y-91926269D01*
X154365829Y-91854001D01*
X155527421Y-91854001D01*
X157083860Y-93410439D01*
X157083824Y-93451208D01*
X157238175Y-93824766D01*
X157523731Y-94110821D01*
X157897018Y-94265824D01*
X158159640Y-94266053D01*
X158136699Y-94288994D01*
X157943233Y-94288826D01*
X157569675Y-94443177D01*
X157283620Y-94728733D01*
X157128617Y-95102020D01*
X157128265Y-95506210D01*
X157282616Y-95879768D01*
X157568172Y-96165823D01*
X157941459Y-96320826D01*
X158345649Y-96321178D01*
X158719207Y-96166827D01*
X159005262Y-95881271D01*
X159160265Y-95507984D01*
X159160435Y-95312758D01*
X161804872Y-92668320D01*
X161804875Y-92668318D01*
X161858916Y-92587440D01*
X161872100Y-92587440D01*
X161872100Y-94515560D01*
X161596000Y-94515560D01*
X161360683Y-94559838D01*
X161144559Y-94698910D01*
X160999569Y-94911110D01*
X160948560Y-95163000D01*
X160948560Y-96863000D01*
X160992838Y-97098317D01*
X161131910Y-97314441D01*
X161344110Y-97459431D01*
X161596000Y-97510440D01*
X163596000Y-97510440D01*
X163831317Y-97466162D01*
X164047441Y-97327090D01*
X164192431Y-97114890D01*
X164243440Y-96863000D01*
X164243440Y-95163000D01*
X164948560Y-95163000D01*
X164948560Y-96863000D01*
X164992838Y-97098317D01*
X165131910Y-97314441D01*
X165344110Y-97459431D01*
X165596000Y-97510440D01*
X167117645Y-97510440D01*
X167130047Y-97518726D01*
X167207976Y-97570797D01*
X167485000Y-97625901D01*
X167485005Y-97625900D01*
X168139560Y-97625900D01*
X168139560Y-97918000D01*
X168183838Y-98153317D01*
X168322910Y-98369441D01*
X168535110Y-98514431D01*
X168787000Y-98565440D01*
X170311000Y-98565440D01*
X170546317Y-98521162D01*
X170762441Y-98382090D01*
X170907431Y-98169890D01*
X170958440Y-97918000D01*
X170958440Y-97187750D01*
X171454000Y-97187750D01*
X171454000Y-98044310D01*
X171550673Y-98277699D01*
X171729302Y-98456327D01*
X171962691Y-98553000D01*
X172565250Y-98553000D01*
X172724000Y-98394250D01*
X172724000Y-97029000D01*
X172978000Y-97029000D01*
X172978000Y-98394250D01*
X173136750Y-98553000D01*
X173739309Y-98553000D01*
X173972698Y-98456327D01*
X174151327Y-98277699D01*
X174248000Y-98044310D01*
X174248000Y-97187750D01*
X174089250Y-97029000D01*
X172978000Y-97029000D01*
X172724000Y-97029000D01*
X171612750Y-97029000D01*
X171454000Y-97187750D01*
X170958440Y-97187750D01*
X170958440Y-95886000D01*
X170934674Y-95759690D01*
X171454000Y-95759690D01*
X171454000Y-96616250D01*
X171612750Y-96775000D01*
X172724000Y-96775000D01*
X172724000Y-95409750D01*
X172978000Y-95409750D01*
X172978000Y-96775000D01*
X174089250Y-96775000D01*
X174248000Y-96616250D01*
X174248000Y-95759690D01*
X174151327Y-95526301D01*
X173972698Y-95347673D01*
X173739309Y-95251000D01*
X173136750Y-95251000D01*
X172978000Y-95409750D01*
X172724000Y-95409750D01*
X172565250Y-95251000D01*
X171962691Y-95251000D01*
X171729302Y-95347673D01*
X171550673Y-95526301D01*
X171454000Y-95759690D01*
X170934674Y-95759690D01*
X170914162Y-95650683D01*
X170775090Y-95434559D01*
X170562890Y-95289569D01*
X170311000Y-95238560D01*
X168787000Y-95238560D01*
X168551683Y-95282838D01*
X168335559Y-95421910D01*
X168243440Y-95556731D01*
X168243440Y-95163000D01*
X168199162Y-94927683D01*
X168060090Y-94711559D01*
X167847890Y-94566569D01*
X167596000Y-94515560D01*
X165596000Y-94515560D01*
X165360683Y-94559838D01*
X165144559Y-94698910D01*
X164999569Y-94911110D01*
X164948560Y-95163000D01*
X164243440Y-95163000D01*
X164199162Y-94927683D01*
X164060090Y-94711559D01*
X163847890Y-94566569D01*
X163596000Y-94515560D01*
X163319900Y-94515560D01*
X163319900Y-90787052D01*
X163323901Y-90766938D01*
X163268797Y-90489914D01*
X163111875Y-90255063D01*
X163020712Y-90163900D01*
X163860560Y-90163900D01*
X163860560Y-91139000D01*
X163904838Y-91374317D01*
X164043910Y-91590441D01*
X164256110Y-91735431D01*
X164508000Y-91786440D01*
X166208000Y-91786440D01*
X166443317Y-91742162D01*
X166471486Y-91724036D01*
X168097323Y-93349872D01*
X168097325Y-93349875D01*
X168139560Y-93378095D01*
X168139560Y-93854000D01*
X168183838Y-94089317D01*
X168322910Y-94305441D01*
X168535110Y-94450431D01*
X168787000Y-94501440D01*
X170311000Y-94501440D01*
X170546317Y-94457162D01*
X170762441Y-94318090D01*
X170907431Y-94105890D01*
X170958440Y-93854000D01*
X170958440Y-93123750D01*
X171454000Y-93123750D01*
X171454000Y-93980310D01*
X171550673Y-94213699D01*
X171729302Y-94392327D01*
X171962691Y-94489000D01*
X172565250Y-94489000D01*
X172724000Y-94330250D01*
X172724000Y-92965000D01*
X172978000Y-92965000D01*
X172978000Y-94330250D01*
X173136750Y-94489000D01*
X173739309Y-94489000D01*
X173972698Y-94392327D01*
X174151327Y-94213699D01*
X174248000Y-93980310D01*
X174248000Y-93123750D01*
X174089250Y-92965000D01*
X172978000Y-92965000D01*
X172724000Y-92965000D01*
X171612750Y-92965000D01*
X171454000Y-93123750D01*
X170958440Y-93123750D01*
X170958440Y-91822000D01*
X170934674Y-91695690D01*
X171454000Y-91695690D01*
X171454000Y-92552250D01*
X171612750Y-92711000D01*
X172724000Y-92711000D01*
X172724000Y-91345750D01*
X172978000Y-91345750D01*
X172978000Y-92711000D01*
X174089250Y-92711000D01*
X174248000Y-92552250D01*
X174248000Y-91695690D01*
X174151327Y-91462301D01*
X173972698Y-91283673D01*
X173739309Y-91187000D01*
X173136750Y-91187000D01*
X172978000Y-91345750D01*
X172724000Y-91345750D01*
X172565250Y-91187000D01*
X171962691Y-91187000D01*
X171729302Y-91283673D01*
X171550673Y-91462301D01*
X171454000Y-91695690D01*
X170934674Y-91695690D01*
X170914162Y-91586683D01*
X170775090Y-91370559D01*
X170562890Y-91225569D01*
X170311000Y-91174560D01*
X168787000Y-91174560D01*
X168551683Y-91218838D01*
X168335559Y-91357910D01*
X168261398Y-91466448D01*
X167554212Y-90759262D01*
X167554212Y-89569069D01*
X169169048Y-89569069D01*
X169323399Y-89942627D01*
X169608955Y-90228682D01*
X169982242Y-90383685D01*
X170386432Y-90384037D01*
X170759990Y-90229686D01*
X171046045Y-89944130D01*
X171177775Y-89626890D01*
X173098912Y-87705752D01*
X173127000Y-87711440D01*
X174627000Y-87711440D01*
X174862317Y-87667162D01*
X175078441Y-87528090D01*
X175223431Y-87315890D01*
X175274440Y-87064000D01*
X175274440Y-86164000D01*
X175230162Y-85928683D01*
X175091090Y-85712559D01*
X174878890Y-85567569D01*
X174627000Y-85516560D01*
X173127000Y-85516560D01*
X172891683Y-85560838D01*
X172675559Y-85699910D01*
X172611107Y-85794238D01*
X172600411Y-85796366D01*
X172600409Y-85796367D01*
X172600410Y-85796367D01*
X172313295Y-85988210D01*
X172313293Y-85988213D01*
X169925742Y-88375763D01*
X169610458Y-88506036D01*
X169324403Y-88791592D01*
X169169400Y-89164879D01*
X169169048Y-89569069D01*
X167554212Y-89569069D01*
X167554212Y-87501924D01*
X167562910Y-87515441D01*
X167775110Y-87660431D01*
X168027000Y-87711440D01*
X169527000Y-87711440D01*
X169762317Y-87667162D01*
X169978441Y-87528090D01*
X170123431Y-87315890D01*
X170174440Y-87064000D01*
X170174440Y-86164000D01*
X170130162Y-85928683D01*
X169991090Y-85712559D01*
X169778890Y-85567569D01*
X169527000Y-85516560D01*
X169317095Y-85516560D01*
X169288875Y-85474325D01*
X169288872Y-85474323D01*
X168213550Y-84399000D01*
X168491250Y-84399000D01*
X168650000Y-84240250D01*
X168650000Y-83441000D01*
X168904000Y-83441000D01*
X168904000Y-84240250D01*
X169062750Y-84399000D01*
X169653309Y-84399000D01*
X169886698Y-84302327D01*
X170065327Y-84123699D01*
X170162000Y-83890310D01*
X170162000Y-83599750D01*
X170003250Y-83441000D01*
X168904000Y-83441000D01*
X168650000Y-83441000D01*
X167550750Y-83441000D01*
X167392000Y-83599750D01*
X167392000Y-83653226D01*
X167385512Y-83648891D01*
X167339550Y-83639748D01*
X167108487Y-83593786D01*
X167108482Y-83593787D01*
X162940440Y-83593787D01*
X162940440Y-82940000D01*
X162902373Y-82737690D01*
X167392000Y-82737690D01*
X167392000Y-83028250D01*
X167550750Y-83187000D01*
X168650000Y-83187000D01*
X168650000Y-82387750D01*
X168904000Y-82387750D01*
X168904000Y-83187000D01*
X170003250Y-83187000D01*
X170162000Y-83028250D01*
X170162000Y-82864000D01*
X172479560Y-82864000D01*
X172479560Y-83764000D01*
X172523838Y-83999317D01*
X172662910Y-84215441D01*
X172875110Y-84360431D01*
X173127000Y-84411440D01*
X174627000Y-84411440D01*
X174862317Y-84367162D01*
X175078441Y-84228090D01*
X175223431Y-84015890D01*
X175274440Y-83764000D01*
X175274440Y-82864000D01*
X175230162Y-82628683D01*
X175091090Y-82412559D01*
X174878890Y-82267569D01*
X174627000Y-82216560D01*
X173127000Y-82216560D01*
X172891683Y-82260838D01*
X172675559Y-82399910D01*
X172530569Y-82612110D01*
X172479560Y-82864000D01*
X170162000Y-82864000D01*
X170162000Y-82737690D01*
X170065327Y-82504301D01*
X169886698Y-82325673D01*
X169653309Y-82229000D01*
X169062750Y-82229000D01*
X168904000Y-82387750D01*
X168650000Y-82387750D01*
X168491250Y-82229000D01*
X167900691Y-82229000D01*
X167667302Y-82325673D01*
X167488673Y-82504301D01*
X167392000Y-82737690D01*
X162902373Y-82737690D01*
X162896162Y-82704683D01*
X162757090Y-82488559D01*
X162687289Y-82440866D01*
X162744441Y-82404090D01*
X162889431Y-82191890D01*
X162940440Y-81940000D01*
X162940440Y-80940000D01*
X162896162Y-80704683D01*
X162757090Y-80488559D01*
X162687289Y-80440866D01*
X162744441Y-80404090D01*
X162889431Y-80191890D01*
X162940440Y-79940000D01*
X162940440Y-79316310D01*
X163439550Y-78817199D01*
X165622915Y-78817199D01*
X165612243Y-78842900D01*
X165611758Y-79398661D01*
X165823990Y-79912303D01*
X166216630Y-80305629D01*
X166729900Y-80518757D01*
X167285661Y-80519242D01*
X167799303Y-80307010D01*
X168192629Y-79914370D01*
X168278949Y-79706488D01*
X168363990Y-79912303D01*
X168756630Y-80305629D01*
X169269900Y-80518757D01*
X169825661Y-80519242D01*
X170339303Y-80307010D01*
X170544457Y-80102213D01*
X171288392Y-80102213D01*
X171357857Y-80344397D01*
X171881302Y-80531144D01*
X172436368Y-80503362D01*
X172820143Y-80344397D01*
X172889608Y-80102213D01*
X172089000Y-79301605D01*
X171288392Y-80102213D01*
X170544457Y-80102213D01*
X170732629Y-79914370D01*
X170812395Y-79722273D01*
X170866603Y-79853143D01*
X171108787Y-79922608D01*
X171909395Y-79122000D01*
X172268605Y-79122000D01*
X173069213Y-79922608D01*
X173311397Y-79853143D01*
X173498144Y-79329698D01*
X173470362Y-78774632D01*
X173311397Y-78390857D01*
X173069213Y-78321392D01*
X172268605Y-79122000D01*
X171909395Y-79122000D01*
X171108787Y-78321392D01*
X170866603Y-78390857D01*
X170816491Y-78531318D01*
X170734010Y-78331697D01*
X170544432Y-78141787D01*
X171288392Y-78141787D01*
X172089000Y-78942395D01*
X172889608Y-78141787D01*
X172820143Y-77899603D01*
X172296698Y-77712856D01*
X171741632Y-77740638D01*
X171357857Y-77899603D01*
X171288392Y-78141787D01*
X170544432Y-78141787D01*
X170341370Y-77938371D01*
X169828100Y-77725243D01*
X169272339Y-77724758D01*
X169203819Y-77753070D01*
X169032174Y-77581424D01*
X168967043Y-77537905D01*
X168797324Y-77424503D01*
X168751362Y-77415360D01*
X168520299Y-77369398D01*
X168520294Y-77369399D01*
X163139706Y-77369399D01*
X163139701Y-77369398D01*
X162940440Y-77409034D01*
X162940440Y-77124442D01*
X175570000Y-77214654D01*
G36*
X157983824Y-102301208D02*
X158138175Y-102674766D01*
X158423731Y-102960821D01*
X158453787Y-102973302D01*
X158286559Y-103080910D01*
X158141569Y-103293110D01*
X158090560Y-103545000D01*
X158090560Y-105245000D01*
X158134838Y-105480317D01*
X158273910Y-105696441D01*
X158486110Y-105841431D01*
X158738000Y-105892440D01*
X160361690Y-105892440D01*
X161358298Y-106889047D01*
X161358298Y-110819028D01*
X160595503Y-111581822D01*
X160474931Y-111290735D01*
X160233930Y-111222675D01*
X159441605Y-112015000D01*
X159455748Y-112029143D01*
X159276143Y-112208748D01*
X159262000Y-112194605D01*
X159247858Y-112208748D01*
X159068253Y-112029143D01*
X159082395Y-112015000D01*
X158290070Y-111222675D01*
X158049069Y-111290735D01*
X157864233Y-111810034D01*
X157892195Y-112360538D01*
X158040865Y-112719458D01*
X158028032Y-112728032D01*
X157573920Y-113182144D01*
X152379775Y-113182144D01*
X152455281Y-113069140D01*
X152510385Y-112792115D01*
X152510385Y-111043070D01*
X158469675Y-111043070D01*
X159262000Y-111835395D01*
X160054325Y-111043070D01*
X159986265Y-110802069D01*
X159466966Y-110617233D01*
X158916462Y-110645195D01*
X158537735Y-110802069D01*
X158469675Y-111043070D01*
X152510385Y-111043070D01*
X152510385Y-109430979D01*
X152455281Y-109153954D01*
X152298360Y-108919104D01*
X152298357Y-108919102D01*
X151984899Y-108605643D01*
X151984899Y-105879649D01*
X153963560Y-107858309D01*
X153963560Y-109182000D01*
X154007838Y-109417317D01*
X154146910Y-109633441D01*
X154359110Y-109778431D01*
X154611000Y-109829440D01*
X156611000Y-109829440D01*
X156846317Y-109785162D01*
X157062441Y-109646090D01*
X157113234Y-109571752D01*
X157262291Y-109721070D01*
X157635578Y-109876073D01*
X158039768Y-109876425D01*
X158328142Y-109757271D01*
X158359110Y-109778431D01*
X158611000Y-109829440D01*
X160611000Y-109829440D01*
X160846317Y-109785162D01*
X161062441Y-109646090D01*
X161207431Y-109433890D01*
X161258440Y-109182000D01*
X161258440Y-107482000D01*
X161214162Y-107246683D01*
X161075090Y-107030559D01*
X160862890Y-106885569D01*
X160611000Y-106834560D01*
X159351310Y-106834560D01*
X157385440Y-104868690D01*
X157385440Y-103545000D01*
X157341162Y-103309683D01*
X157202090Y-103093559D01*
X157103057Y-103025893D01*
X157983960Y-102144989D01*
X157983824Y-102301208D01*
X157983824Y-102301208D01*
G37*
X157983824Y-102301208D02*
X158138175Y-102674766D01*
X158423731Y-102960821D01*
X158453787Y-102973302D01*
X158286559Y-103080910D01*
X158141569Y-103293110D01*
X158090560Y-103545000D01*
X158090560Y-105245000D01*
X158134838Y-105480317D01*
X158273910Y-105696441D01*
X158486110Y-105841431D01*
X158738000Y-105892440D01*
X160361690Y-105892440D01*
X161358298Y-106889047D01*
X161358298Y-110819028D01*
X160595503Y-111581822D01*
X160474931Y-111290735D01*
X160233930Y-111222675D01*
X159441605Y-112015000D01*
X159455748Y-112029143D01*
X159276143Y-112208748D01*
X159262000Y-112194605D01*
X159247858Y-112208748D01*
X159068253Y-112029143D01*
X159082395Y-112015000D01*
X158290070Y-111222675D01*
X158049069Y-111290735D01*
X157864233Y-111810034D01*
X157892195Y-112360538D01*
X158040865Y-112719458D01*
X158028032Y-112728032D01*
X157573920Y-113182144D01*
X152379775Y-113182144D01*
X152455281Y-113069140D01*
X152510385Y-112792115D01*
X152510385Y-111043070D01*
X158469675Y-111043070D01*
X159262000Y-111835395D01*
X160054325Y-111043070D01*
X159986265Y-110802069D01*
X159466966Y-110617233D01*
X158916462Y-110645195D01*
X158537735Y-110802069D01*
X158469675Y-111043070D01*
X152510385Y-111043070D01*
X152510385Y-109430979D01*
X152455281Y-109153954D01*
X152298360Y-108919104D01*
X152298357Y-108919102D01*
X151984899Y-108605643D01*
X151984899Y-105879649D01*
X153963560Y-107858309D01*
X153963560Y-109182000D01*
X154007838Y-109417317D01*
X154146910Y-109633441D01*
X154359110Y-109778431D01*
X154611000Y-109829440D01*
X156611000Y-109829440D01*
X156846317Y-109785162D01*
X157062441Y-109646090D01*
X157113234Y-109571752D01*
X157262291Y-109721070D01*
X157635578Y-109876073D01*
X158039768Y-109876425D01*
X158328142Y-109757271D01*
X158359110Y-109778431D01*
X158611000Y-109829440D01*
X160611000Y-109829440D01*
X160846317Y-109785162D01*
X161062441Y-109646090D01*
X161207431Y-109433890D01*
X161258440Y-109182000D01*
X161258440Y-107482000D01*
X161214162Y-107246683D01*
X161075090Y-107030559D01*
X160862890Y-106885569D01*
X160611000Y-106834560D01*
X159351310Y-106834560D01*
X157385440Y-104868690D01*
X157385440Y-103545000D01*
X157341162Y-103309683D01*
X157202090Y-103093559D01*
X157103057Y-103025893D01*
X157983960Y-102144989D01*
X157983824Y-102301208D01*
G36*
X142465371Y-101560680D02*
X142118320Y-101560680D01*
X141959570Y-101719430D01*
X141959570Y-102868680D01*
X141979570Y-102868680D01*
X141979570Y-103122680D01*
X141959570Y-103122680D01*
X141959570Y-104271930D01*
X142118320Y-104430680D01*
X142661048Y-104430680D01*
X142677396Y-104455146D01*
X145545992Y-107323742D01*
X145545824Y-107517208D01*
X145700175Y-107890766D01*
X145985731Y-108176821D01*
X146359018Y-108331824D01*
X146763208Y-108332176D01*
X147136766Y-108177825D01*
X147321113Y-107993800D01*
X148284484Y-108957171D01*
X148284486Y-108957174D01*
X148519336Y-109114095D01*
X148796361Y-109169199D01*
X149998047Y-109169199D01*
X150478563Y-109649714D01*
X150478563Y-110072000D01*
X149863750Y-110072000D01*
X149705000Y-110230750D01*
X149705000Y-111380000D01*
X149725000Y-111380000D01*
X149725000Y-111634000D01*
X149705000Y-111634000D01*
X149705000Y-111654000D01*
X149451000Y-111654000D01*
X149451000Y-111634000D01*
X149431000Y-111634000D01*
X149431000Y-111380000D01*
X149451000Y-111380000D01*
X149451000Y-110230750D01*
X149292250Y-110072000D01*
X148451691Y-110072000D01*
X148218302Y-110168673D01*
X148039673Y-110347301D01*
X147946662Y-110571850D01*
X147303236Y-109928424D01*
X147068386Y-109771503D01*
X147022424Y-109762360D01*
X146791361Y-109716398D01*
X146791356Y-109716399D01*
X142531086Y-109716399D01*
X141199769Y-108385081D01*
X141199769Y-104430680D01*
X141546820Y-104430680D01*
X141705570Y-104271930D01*
X141705570Y-103122680D01*
X141685570Y-103122680D01*
X141685570Y-102868680D01*
X141705570Y-102868680D01*
X141705570Y-101719430D01*
X141546820Y-101560680D01*
X141199769Y-101560680D01*
X141199769Y-99661031D01*
X142217442Y-98643357D01*
X142217445Y-98643355D01*
X142245665Y-98601120D01*
X142465371Y-98601120D01*
X142465371Y-101560680D01*
X142465371Y-101560680D01*
G37*
X142465371Y-101560680D02*
X142118320Y-101560680D01*
X141959570Y-101719430D01*
X141959570Y-102868680D01*
X141979570Y-102868680D01*
X141979570Y-103122680D01*
X141959570Y-103122680D01*
X141959570Y-104271930D01*
X142118320Y-104430680D01*
X142661048Y-104430680D01*
X142677396Y-104455146D01*
X145545992Y-107323742D01*
X145545824Y-107517208D01*
X145700175Y-107890766D01*
X145985731Y-108176821D01*
X146359018Y-108331824D01*
X146763208Y-108332176D01*
X147136766Y-108177825D01*
X147321113Y-107993800D01*
X148284484Y-108957171D01*
X148284486Y-108957174D01*
X148519336Y-109114095D01*
X148796361Y-109169199D01*
X149998047Y-109169199D01*
X150478563Y-109649714D01*
X150478563Y-110072000D01*
X149863750Y-110072000D01*
X149705000Y-110230750D01*
X149705000Y-111380000D01*
X149725000Y-111380000D01*
X149725000Y-111634000D01*
X149705000Y-111634000D01*
X149705000Y-111654000D01*
X149451000Y-111654000D01*
X149451000Y-111634000D01*
X149431000Y-111634000D01*
X149431000Y-111380000D01*
X149451000Y-111380000D01*
X149451000Y-110230750D01*
X149292250Y-110072000D01*
X148451691Y-110072000D01*
X148218302Y-110168673D01*
X148039673Y-110347301D01*
X147946662Y-110571850D01*
X147303236Y-109928424D01*
X147068386Y-109771503D01*
X147022424Y-109762360D01*
X146791361Y-109716398D01*
X146791356Y-109716399D01*
X142531086Y-109716399D01*
X141199769Y-108385081D01*
X141199769Y-104430680D01*
X141546820Y-104430680D01*
X141705570Y-104271930D01*
X141705570Y-103122680D01*
X141685570Y-103122680D01*
X141685570Y-102868680D01*
X141705570Y-102868680D01*
X141705570Y-101719430D01*
X141546820Y-101560680D01*
X141199769Y-101560680D01*
X141199769Y-99661031D01*
X142217442Y-98643357D01*
X142217445Y-98643355D01*
X142245665Y-98601120D01*
X142465371Y-98601120D01*
X142465371Y-101560680D01*
G36*
X156427031Y-98550780D02*
X156284294Y-98894527D01*
X156283942Y-99298717D01*
X156310570Y-99363162D01*
X156310570Y-100328680D01*
X156330570Y-100328680D01*
X156330570Y-100582680D01*
X156310570Y-100582680D01*
X156310570Y-101731930D01*
X156330045Y-101751405D01*
X155226125Y-102855325D01*
X155197905Y-102897560D01*
X154738000Y-102897560D01*
X154502683Y-102941838D01*
X154286559Y-103080910D01*
X154141569Y-103293110D01*
X154090560Y-103545000D01*
X154090560Y-105245000D01*
X154134838Y-105480317D01*
X154273910Y-105696441D01*
X154486110Y-105841431D01*
X154738000Y-105892440D01*
X156361690Y-105892440D01*
X157963560Y-107494310D01*
X157963560Y-107747544D01*
X157854934Y-107820125D01*
X157830818Y-107844241D01*
X157637352Y-107844073D01*
X157263794Y-107998424D01*
X157258440Y-108003769D01*
X157258440Y-107482000D01*
X157214162Y-107246683D01*
X157075090Y-107030559D01*
X156862890Y-106885569D01*
X156611000Y-106834560D01*
X154987309Y-106834560D01*
X152480476Y-104327726D01*
X152578871Y-104264410D01*
X152723861Y-104052210D01*
X152774870Y-103800320D01*
X152774870Y-102200320D01*
X152730592Y-101965003D01*
X152591520Y-101748879D01*
X152439020Y-101644680D01*
X153342269Y-100741430D01*
X154458570Y-100741430D01*
X154458570Y-101381990D01*
X154555243Y-101615379D01*
X154733872Y-101794007D01*
X154967261Y-101890680D01*
X155897820Y-101890680D01*
X156056570Y-101731930D01*
X156056570Y-100582680D01*
X154617320Y-100582680D01*
X154458570Y-100741430D01*
X153342269Y-100741430D01*
X153538171Y-100545528D01*
X153538174Y-100545526D01*
X153695095Y-100310676D01*
X153695096Y-100310675D01*
X153750200Y-100033651D01*
X153750199Y-100033646D01*
X153750199Y-99529370D01*
X154458570Y-99529370D01*
X154458570Y-100169930D01*
X154617320Y-100328680D01*
X156056570Y-100328680D01*
X156056570Y-99179430D01*
X155897820Y-99020680D01*
X154967261Y-99020680D01*
X154733872Y-99117353D01*
X154555243Y-99295981D01*
X154458570Y-99529370D01*
X153750199Y-99529370D01*
X153750199Y-95873948D01*
X156427031Y-98550780D01*
X156427031Y-98550780D01*
G37*
X156427031Y-98550780D02*
X156284294Y-98894527D01*
X156283942Y-99298717D01*
X156310570Y-99363162D01*
X156310570Y-100328680D01*
X156330570Y-100328680D01*
X156330570Y-100582680D01*
X156310570Y-100582680D01*
X156310570Y-101731930D01*
X156330045Y-101751405D01*
X155226125Y-102855325D01*
X155197905Y-102897560D01*
X154738000Y-102897560D01*
X154502683Y-102941838D01*
X154286559Y-103080910D01*
X154141569Y-103293110D01*
X154090560Y-103545000D01*
X154090560Y-105245000D01*
X154134838Y-105480317D01*
X154273910Y-105696441D01*
X154486110Y-105841431D01*
X154738000Y-105892440D01*
X156361690Y-105892440D01*
X157963560Y-107494310D01*
X157963560Y-107747544D01*
X157854934Y-107820125D01*
X157830818Y-107844241D01*
X157637352Y-107844073D01*
X157263794Y-107998424D01*
X157258440Y-108003769D01*
X157258440Y-107482000D01*
X157214162Y-107246683D01*
X157075090Y-107030559D01*
X156862890Y-106885569D01*
X156611000Y-106834560D01*
X154987309Y-106834560D01*
X152480476Y-104327726D01*
X152578871Y-104264410D01*
X152723861Y-104052210D01*
X152774870Y-103800320D01*
X152774870Y-102200320D01*
X152730592Y-101965003D01*
X152591520Y-101748879D01*
X152439020Y-101644680D01*
X153342269Y-100741430D01*
X154458570Y-100741430D01*
X154458570Y-101381990D01*
X154555243Y-101615379D01*
X154733872Y-101794007D01*
X154967261Y-101890680D01*
X155897820Y-101890680D01*
X156056570Y-101731930D01*
X156056570Y-100582680D01*
X154617320Y-100582680D01*
X154458570Y-100741430D01*
X153342269Y-100741430D01*
X153538171Y-100545528D01*
X153538174Y-100545526D01*
X153695095Y-100310676D01*
X153695096Y-100310675D01*
X153750200Y-100033651D01*
X153750199Y-100033646D01*
X153750199Y-99529370D01*
X154458570Y-99529370D01*
X154458570Y-100169930D01*
X154617320Y-100328680D01*
X156056570Y-100328680D01*
X156056570Y-99179430D01*
X155897820Y-99020680D01*
X154967261Y-99020680D01*
X154733872Y-99117353D01*
X154555243Y-99295981D01*
X154458570Y-99529370D01*
X153750199Y-99529370D01*
X153750199Y-95873948D01*
X156427031Y-98550780D01*
G36*
X145420000Y-91313000D02*
X145440000Y-91313000D01*
X145440000Y-91567000D01*
X145420000Y-91567000D01*
X145420000Y-92416250D01*
X145578750Y-92575000D01*
X146419309Y-92575000D01*
X146652698Y-92478327D01*
X146831327Y-92299699D01*
X146928000Y-92066310D01*
X146928000Y-91725750D01*
X146769252Y-91567002D01*
X146896253Y-91567002D01*
X146961565Y-91632314D01*
X146961565Y-98671243D01*
X146961564Y-98671248D01*
X146996983Y-98849306D01*
X147016669Y-98948273D01*
X147130480Y-99118604D01*
X147173590Y-99183123D01*
X147944650Y-99954183D01*
X147944482Y-100147649D01*
X148098833Y-100521207D01*
X148384389Y-100807262D01*
X148757676Y-100962265D01*
X149161866Y-100962617D01*
X149535424Y-100808266D01*
X149821479Y-100522710D01*
X149976482Y-100149423D01*
X149976834Y-99745233D01*
X149822483Y-99371675D01*
X149536927Y-99085620D01*
X149163640Y-98930617D01*
X148968413Y-98930447D01*
X148409365Y-98371398D01*
X148409365Y-97444070D01*
X149185430Y-97444070D01*
X149185430Y-98084630D01*
X149282103Y-98318019D01*
X149460732Y-98496647D01*
X149694121Y-98593320D01*
X150624680Y-98593320D01*
X150783430Y-98434570D01*
X150783430Y-97285320D01*
X149344180Y-97285320D01*
X149185430Y-97444070D01*
X148409365Y-97444070D01*
X148409365Y-96232010D01*
X149185430Y-96232010D01*
X149185430Y-96872570D01*
X149344180Y-97031320D01*
X150783430Y-97031320D01*
X150783430Y-95882070D01*
X150624680Y-95723320D01*
X149694121Y-95723320D01*
X149460732Y-95819993D01*
X149282103Y-95998621D01*
X149185430Y-96232010D01*
X148409365Y-96232010D01*
X148409365Y-93100441D01*
X148635331Y-93326407D01*
X148635333Y-93326410D01*
X148870183Y-93483331D01*
X149147208Y-93538435D01*
X149303053Y-93538435D01*
X151487939Y-95723320D01*
X151196180Y-95723320D01*
X151037430Y-95882070D01*
X151037430Y-97031320D01*
X151057430Y-97031320D01*
X151057430Y-97285320D01*
X151037430Y-97285320D01*
X151037430Y-98434570D01*
X151196180Y-98593320D01*
X151670231Y-98593320D01*
X151670231Y-98973708D01*
X148946422Y-101697516D01*
X148789501Y-101932366D01*
X148789501Y-101932367D01*
X148734396Y-102209391D01*
X148734397Y-102209396D01*
X148734397Y-103791244D01*
X148734396Y-103791249D01*
X148773617Y-103988422D01*
X148789501Y-104068274D01*
X148912103Y-104251761D01*
X148946422Y-104303124D01*
X150537099Y-105893800D01*
X150537099Y-107768979D01*
X150528960Y-107767360D01*
X150297897Y-107721398D01*
X150297892Y-107721399D01*
X149096210Y-107721399D01*
X144394588Y-103019776D01*
X144394588Y-92575000D01*
X145007250Y-92575000D01*
X145166000Y-92416250D01*
X145166000Y-91567000D01*
X145146000Y-91567000D01*
X145146000Y-91313000D01*
X145166000Y-91313000D01*
X145166000Y-91293000D01*
X145420000Y-91293000D01*
X145420000Y-91313000D01*
X145420000Y-91313000D01*
G37*
X145420000Y-91313000D02*
X145440000Y-91313000D01*
X145440000Y-91567000D01*
X145420000Y-91567000D01*
X145420000Y-92416250D01*
X145578750Y-92575000D01*
X146419309Y-92575000D01*
X146652698Y-92478327D01*
X146831327Y-92299699D01*
X146928000Y-92066310D01*
X146928000Y-91725750D01*
X146769252Y-91567002D01*
X146896253Y-91567002D01*
X146961565Y-91632314D01*
X146961565Y-98671243D01*
X146961564Y-98671248D01*
X146996983Y-98849306D01*
X147016669Y-98948273D01*
X147130480Y-99118604D01*
X147173590Y-99183123D01*
X147944650Y-99954183D01*
X147944482Y-100147649D01*
X148098833Y-100521207D01*
X148384389Y-100807262D01*
X148757676Y-100962265D01*
X149161866Y-100962617D01*
X149535424Y-100808266D01*
X149821479Y-100522710D01*
X149976482Y-100149423D01*
X149976834Y-99745233D01*
X149822483Y-99371675D01*
X149536927Y-99085620D01*
X149163640Y-98930617D01*
X148968413Y-98930447D01*
X148409365Y-98371398D01*
X148409365Y-97444070D01*
X149185430Y-97444070D01*
X149185430Y-98084630D01*
X149282103Y-98318019D01*
X149460732Y-98496647D01*
X149694121Y-98593320D01*
X150624680Y-98593320D01*
X150783430Y-98434570D01*
X150783430Y-97285320D01*
X149344180Y-97285320D01*
X149185430Y-97444070D01*
X148409365Y-97444070D01*
X148409365Y-96232010D01*
X149185430Y-96232010D01*
X149185430Y-96872570D01*
X149344180Y-97031320D01*
X150783430Y-97031320D01*
X150783430Y-95882070D01*
X150624680Y-95723320D01*
X149694121Y-95723320D01*
X149460732Y-95819993D01*
X149282103Y-95998621D01*
X149185430Y-96232010D01*
X148409365Y-96232010D01*
X148409365Y-93100441D01*
X148635331Y-93326407D01*
X148635333Y-93326410D01*
X148870183Y-93483331D01*
X149147208Y-93538435D01*
X149303053Y-93538435D01*
X151487939Y-95723320D01*
X151196180Y-95723320D01*
X151037430Y-95882070D01*
X151037430Y-97031320D01*
X151057430Y-97031320D01*
X151057430Y-97285320D01*
X151037430Y-97285320D01*
X151037430Y-98434570D01*
X151196180Y-98593320D01*
X151670231Y-98593320D01*
X151670231Y-98973708D01*
X148946422Y-101697516D01*
X148789501Y-101932366D01*
X148789501Y-101932367D01*
X148734396Y-102209391D01*
X148734397Y-102209396D01*
X148734397Y-103791244D01*
X148734396Y-103791249D01*
X148773617Y-103988422D01*
X148789501Y-104068274D01*
X148912103Y-104251761D01*
X148946422Y-104303124D01*
X150537099Y-105893800D01*
X150537099Y-107768979D01*
X150528960Y-107767360D01*
X150297897Y-107721398D01*
X150297892Y-107721399D01*
X149096210Y-107721399D01*
X144394588Y-103019776D01*
X144394588Y-92575000D01*
X145007250Y-92575000D01*
X145166000Y-92416250D01*
X145166000Y-91567000D01*
X145146000Y-91567000D01*
X145146000Y-91313000D01*
X145166000Y-91313000D01*
X145166000Y-91293000D01*
X145420000Y-91293000D01*
X145420000Y-91313000D01*
G36*
X141355000Y-90044000D02*
X141375000Y-90044000D01*
X141375000Y-90298000D01*
X141355000Y-90298000D01*
X141355000Y-91511924D01*
X141589913Y-91656184D01*
X142142320Y-91462954D01*
X142465371Y-91174320D01*
X142465371Y-95706240D01*
X140615570Y-95706240D01*
X140380253Y-95750518D01*
X140164129Y-95889590D01*
X140085000Y-96005399D01*
X140085000Y-91258637D01*
X140313680Y-91462954D01*
X140866087Y-91656184D01*
X141101000Y-91511924D01*
X141101000Y-90298000D01*
X141081000Y-90298000D01*
X141081000Y-90044000D01*
X141101000Y-90044000D01*
X141101000Y-90024000D01*
X141355000Y-90024000D01*
X141355000Y-90044000D01*
X141355000Y-90044000D01*
G37*
X141355000Y-90044000D02*
X141375000Y-90044000D01*
X141375000Y-90298000D01*
X141355000Y-90298000D01*
X141355000Y-91511924D01*
X141589913Y-91656184D01*
X142142320Y-91462954D01*
X142465371Y-91174320D01*
X142465371Y-95706240D01*
X140615570Y-95706240D01*
X140380253Y-95750518D01*
X140164129Y-95889590D01*
X140085000Y-96005399D01*
X140085000Y-91258637D01*
X140313680Y-91462954D01*
X140866087Y-91656184D01*
X141101000Y-91511924D01*
X141101000Y-90298000D01*
X141081000Y-90298000D01*
X141081000Y-90044000D01*
X141101000Y-90044000D01*
X141101000Y-90024000D01*
X141355000Y-90024000D01*
X141355000Y-90044000D01*
G36*
X159645560Y-81316309D02*
X159645560Y-81940000D01*
X159689838Y-82175317D01*
X159828910Y-82391441D01*
X159898711Y-82439134D01*
X159841559Y-82475910D01*
X159696569Y-82688110D01*
X159654950Y-82893630D01*
X159603325Y-82928125D01*
X154004652Y-88526798D01*
X149584889Y-88526798D01*
X149584884Y-88526797D01*
X149307860Y-88581901D01*
X149265771Y-88610024D01*
X149073009Y-88738823D01*
X149073007Y-88738826D01*
X149057069Y-88754764D01*
X149057069Y-86476077D01*
X149001965Y-86199052D01*
X148845044Y-85964202D01*
X148845041Y-85964200D01*
X148575668Y-85694826D01*
X148530265Y-85664489D01*
X148340818Y-85537905D01*
X148294856Y-85528762D01*
X148081239Y-85486270D01*
X148115824Y-85402982D01*
X148116176Y-84998792D01*
X147961825Y-84625234D01*
X147676269Y-84339179D01*
X147634962Y-84322027D01*
X147639212Y-84300659D01*
X147639212Y-80562317D01*
X147639213Y-80562312D01*
X147584109Y-80285288D01*
X147461782Y-80102213D01*
X147427187Y-80050437D01*
X147427184Y-80050435D01*
X146940440Y-79563691D01*
X146940440Y-78940000D01*
X146896162Y-78704683D01*
X146757090Y-78488559D01*
X146687289Y-78440866D01*
X146744441Y-78404090D01*
X146889431Y-78191890D01*
X146940440Y-77940000D01*
X146940440Y-77397199D01*
X155726449Y-77397199D01*
X159645560Y-81316309D01*
X159645560Y-81316309D01*
G37*
X159645560Y-81316309D02*
X159645560Y-81940000D01*
X159689838Y-82175317D01*
X159828910Y-82391441D01*
X159898711Y-82439134D01*
X159841559Y-82475910D01*
X159696569Y-82688110D01*
X159654950Y-82893630D01*
X159603325Y-82928125D01*
X154004652Y-88526798D01*
X149584889Y-88526798D01*
X149584884Y-88526797D01*
X149307860Y-88581901D01*
X149265771Y-88610024D01*
X149073009Y-88738823D01*
X149073007Y-88738826D01*
X149057069Y-88754764D01*
X149057069Y-86476077D01*
X149001965Y-86199052D01*
X148845044Y-85964202D01*
X148845041Y-85964200D01*
X148575668Y-85694826D01*
X148530265Y-85664489D01*
X148340818Y-85537905D01*
X148294856Y-85528762D01*
X148081239Y-85486270D01*
X148115824Y-85402982D01*
X148116176Y-84998792D01*
X147961825Y-84625234D01*
X147676269Y-84339179D01*
X147634962Y-84322027D01*
X147639212Y-84300659D01*
X147639212Y-80562317D01*
X147639213Y-80562312D01*
X147584109Y-80285288D01*
X147461782Y-80102213D01*
X147427187Y-80050437D01*
X147427184Y-80050435D01*
X146940440Y-79563691D01*
X146940440Y-78940000D01*
X146896162Y-78704683D01*
X146757090Y-78488559D01*
X146687289Y-78440866D01*
X146744441Y-78404090D01*
X146889431Y-78191890D01*
X146940440Y-77940000D01*
X146940440Y-77397199D01*
X155726449Y-77397199D01*
X159645560Y-81316309D01*
M02*
