G04 #@! TF.FileFunction,Copper,L1,Top,Signal*
%FSLAX46Y46*%
G04 Gerber Fmt 4.6, Leading zero omitted, Abs format (unit mm)*
G04 Created by KiCad (PCBNEW (2015-08-30 BZR 6134, Git 4e94d52)-product) date 02-Sep-15 10:21:18 AM*
%MOMM*%
G01*
G04 APERTURE LIST*
%ADD10C,0.100000*%
%ADD11C,0.150000*%
%ADD12R,3.500120X3.500120*%
%ADD13R,2.000000X1.600000*%
%ADD14R,1.501140X2.999740*%
%ADD15C,1.501140*%
%ADD16R,1.524000X2.032000*%
%ADD17R,2.032000X1.727200*%
%ADD18O,2.032000X1.727200*%
%ADD19R,2.000000X1.700000*%
%ADD20R,1.700000X2.000000*%
%ADD21C,1.524000*%
%ADD22R,2.180000X1.600000*%
%ADD23R,2.032000X3.657600*%
%ADD24R,2.032000X1.016000*%
%ADD25R,1.500000X0.900000*%
%ADD26O,2.499360X1.998980*%
%ADD27R,2.000000X1.000000*%
%ADD28C,0.762000*%
%ADD29C,2.500000*%
%ADD30C,0.177800*%
%ADD31C,0.500000*%
%ADD32C,0.254000*%
G04 APERTURE END LIST*
D10*
D11*
X157562740Y-114285760D02*
X157562740Y-113785380D01*
X157562740Y-114285760D02*
X157062360Y-114285760D01*
X157562740Y-114786140D02*
X157562740Y-114285760D01*
X157562740Y-114285760D02*
X157961520Y-114285760D01*
X157961520Y-114285760D02*
X158063120Y-114285760D01*
D12*
X168660000Y-115593860D03*
X168660000Y-121593340D03*
X173359000Y-118593600D03*
D13*
X145578000Y-111507000D03*
X149578000Y-111507000D03*
X145725320Y-117051820D03*
X149725320Y-117051820D03*
D14*
X164517260Y-105665000D03*
X164517260Y-109662960D03*
X168406000Y-105604040D03*
X168406000Y-109602000D03*
D15*
X159262000Y-112015000D03*
X159262000Y-114555000D03*
D16*
X172851000Y-92838000D03*
X169549000Y-92838000D03*
X172851000Y-96902000D03*
X169549000Y-96902000D03*
D17*
X171885800Y-104699800D03*
D18*
X171885800Y-107239800D03*
X171885800Y-109779800D03*
D17*
X141228000Y-80011000D03*
D18*
X141228000Y-82551000D03*
X141228000Y-85091000D03*
X141228000Y-87631000D03*
X141228000Y-90171000D03*
D19*
X155611000Y-108332000D03*
X159611000Y-108332000D03*
X159738000Y-104395000D03*
X155738000Y-104395000D03*
D20*
X165358000Y-90139000D03*
X165358000Y-86139000D03*
D19*
X162596000Y-96013000D03*
X166596000Y-96013000D03*
D21*
X169549000Y-79122000D03*
X172089000Y-79122000D03*
X167009000Y-79122000D03*
D22*
X156183570Y-100455680D03*
X165388430Y-100460320D03*
X151037430Y-103000320D03*
X141832570Y-102995680D03*
X141705570Y-97153680D03*
X150910430Y-97158320D03*
D23*
X155040520Y-121885440D03*
D24*
X161644520Y-121885440D03*
X161644520Y-119599440D03*
X161644520Y-124171440D03*
D25*
X173877000Y-86614000D03*
X173877000Y-83314000D03*
X168777000Y-83314000D03*
X168777000Y-86614000D03*
D26*
X141410880Y-111733060D03*
X141410880Y-116614940D03*
D27*
X161293000Y-91440000D03*
X161293000Y-89440000D03*
X161293000Y-87440000D03*
X161293000Y-85440000D03*
X161293000Y-83440000D03*
X161293000Y-81440000D03*
X161293000Y-79440000D03*
X161293000Y-77440000D03*
X145293000Y-91440000D03*
X145293000Y-89440000D03*
X145293000Y-87440000D03*
X145293000Y-85440000D03*
X145293000Y-83440000D03*
X145293000Y-81440000D03*
X145293000Y-79440000D03*
X145293000Y-77440000D03*
D28*
X147728423Y-117362101D03*
X145034000Y-109093000D03*
X146748500Y-112903000D03*
X149987000Y-109093000D03*
X153162404Y-111097619D03*
X152527000Y-118110000D03*
X156126336Y-98623680D03*
X141631116Y-101092624D03*
X151386678Y-95462320D03*
D29*
X173359000Y-118593600D03*
X168660000Y-121593340D03*
D28*
X158754000Y-82932000D03*
X164342000Y-92330000D03*
X152912000Y-116460000D03*
X144881085Y-115494484D03*
D29*
X168660000Y-115593860D03*
D28*
X164846000Y-122809000D03*
X172021500Y-112712500D03*
X170185224Y-89367861D03*
X158211267Y-96263342D03*
X157838560Y-108860249D03*
X146562000Y-107316000D03*
X163065422Y-86954627D03*
X157250410Y-91185488D03*
X148960658Y-99946441D03*
X147044859Y-87198672D03*
X149696232Y-113221421D03*
X148256123Y-112890009D03*
X151878986Y-89898399D03*
D30*
X145578000Y-111507000D02*
X145578000Y-114721728D01*
X147347424Y-116981102D02*
X147728423Y-117362101D01*
X147347424Y-116491152D02*
X147347424Y-116981102D01*
X145578000Y-114721728D02*
X147347424Y-116491152D01*
X141410880Y-111733060D02*
X145351940Y-111733060D01*
X145351940Y-111733060D02*
X145578000Y-111507000D01*
X145034000Y-109093000D02*
X145414999Y-108712001D01*
X145414999Y-108712001D02*
X145605201Y-108712001D01*
X145605201Y-108712001D02*
X148400200Y-111507000D01*
X148400200Y-111507000D02*
X149578000Y-111507000D01*
X149725320Y-117051820D02*
X149725320Y-115879820D01*
X149725320Y-115879820D02*
X146748500Y-112903000D01*
X149578000Y-111507000D02*
X149578000Y-109502000D01*
X149578000Y-109502000D02*
X149987000Y-109093000D01*
X153543403Y-111478618D02*
X153162404Y-111097619D01*
X154079785Y-112015000D02*
X153543403Y-111478618D01*
X159262000Y-112015000D02*
X154079785Y-112015000D01*
X149725320Y-118099320D02*
X152527000Y-118110000D01*
X149725320Y-118099320D02*
X149725320Y-117051820D01*
X149578000Y-111507000D02*
X150755800Y-111507000D01*
X156183570Y-100455680D02*
X156183570Y-98680914D01*
X156183570Y-98680914D02*
X156126336Y-98623680D01*
X141832570Y-102995680D02*
X141832570Y-101294078D01*
X141832570Y-101294078D02*
X141631116Y-101092624D01*
X150910430Y-97158320D02*
X150910430Y-95938568D01*
X150910430Y-95938568D02*
X151386678Y-95462320D01*
X168777000Y-83314000D02*
X163147062Y-83314000D01*
X163147062Y-83314000D02*
X162506361Y-82673299D01*
X162506361Y-82673299D02*
X159012701Y-82673299D01*
X159012701Y-82673299D02*
X158754000Y-82932000D01*
X172851000Y-96902000D02*
X171911200Y-96902000D01*
X171911200Y-96902000D02*
X169129901Y-94120701D01*
X169129901Y-94120701D02*
X166132701Y-94120701D01*
X166132701Y-94120701D02*
X164342000Y-92330000D01*
X172851000Y-92838000D02*
X172851000Y-96902000D01*
X149725320Y-117051820D02*
X152320180Y-117051820D01*
X152320180Y-117051820D02*
X152912000Y-116460000D01*
X168777000Y-83314000D02*
X168777000Y-82434000D01*
X168777000Y-82434000D02*
X172089000Y-79122000D01*
X144881085Y-115494484D02*
X144881085Y-116207585D01*
X144881085Y-116207585D02*
X145725320Y-117051820D01*
X141410880Y-116614940D02*
X145288440Y-116614940D01*
X145288440Y-116614940D02*
X145725320Y-117051820D01*
D31*
X159262000Y-114555000D02*
X159450026Y-114743026D01*
X159450026Y-114743026D02*
X159450026Y-117912946D01*
X159450026Y-117912946D02*
X161136520Y-119599440D01*
X164517260Y-110412260D02*
X164517260Y-110444452D01*
X164517260Y-110444452D02*
X160406712Y-114555000D01*
X160406712Y-114555000D02*
X160374520Y-114555000D01*
X164517260Y-109662960D02*
X164517260Y-110078710D01*
X164517260Y-110078710D02*
X166732140Y-112293590D01*
X166732140Y-112293590D02*
X166732140Y-115593860D01*
D30*
X166732140Y-115593860D02*
X168660000Y-115593860D01*
X164517260Y-109662960D02*
X164517260Y-110412260D01*
X160374520Y-114555000D02*
X160323466Y-114555000D01*
D31*
X160323466Y-114555000D02*
X159262000Y-114555000D01*
D30*
X161136520Y-119599440D02*
X161644520Y-119599440D01*
D31*
X164846000Y-122809000D02*
X161882280Y-122809000D01*
X161882280Y-122809000D02*
X161644520Y-122571240D01*
D30*
X161644520Y-122571240D02*
X161644520Y-121885440D01*
D31*
X168406000Y-110351300D02*
X170767200Y-112712500D01*
X170767200Y-112712500D02*
X172021500Y-112712500D01*
D30*
X168406000Y-109602000D02*
X168406000Y-110351300D01*
X162152520Y-121885440D02*
X161644520Y-121885440D01*
D31*
X171885800Y-109779800D02*
X168266300Y-109779800D01*
D30*
X168266300Y-109779800D02*
X168149460Y-109662960D01*
X168149460Y-110412260D02*
X168149460Y-109662960D01*
X173877000Y-86614000D02*
X172939085Y-86614000D01*
X172939085Y-86614000D02*
X170185224Y-89367861D01*
X155738000Y-103367200D02*
X158211267Y-100893933D01*
X158211267Y-96802157D02*
X158211267Y-96263342D01*
X156365168Y-91112130D02*
X156365168Y-94417243D01*
X157561308Y-90537786D02*
X156939512Y-90537786D01*
X158211267Y-100893933D02*
X158211267Y-96802157D01*
X158463522Y-91440000D02*
X157561308Y-90537786D01*
X155738000Y-104395000D02*
X155738000Y-103367200D01*
X157830268Y-95882343D02*
X158211267Y-96263342D01*
X156365168Y-94417243D02*
X157830268Y-95882343D01*
X161293000Y-91440000D02*
X158463522Y-91440000D01*
X156939512Y-90537786D02*
X156365168Y-91112130D01*
X159611000Y-108332000D02*
X158366809Y-108332000D01*
X158366809Y-108332000D02*
X157838560Y-108860249D01*
X161293000Y-81440000D02*
X160793000Y-81440000D01*
X160793000Y-81440000D02*
X156026299Y-76673299D01*
X156026299Y-76673299D02*
X142206039Y-76673299D01*
X142206039Y-76673299D02*
X139945290Y-78934048D01*
X139945290Y-78934048D02*
X139945290Y-86500690D01*
X139945290Y-86500690D02*
X141075600Y-87631000D01*
X141075600Y-87631000D02*
X141228000Y-87631000D01*
X155738000Y-104395000D02*
X155888000Y-104395000D01*
X155888000Y-104395000D02*
X159611000Y-108118000D01*
X159611000Y-108118000D02*
X159611000Y-108332000D01*
X141228000Y-87631000D02*
X141380400Y-87631000D01*
X141380400Y-87631000D02*
X143189271Y-89439871D01*
X143189271Y-89439871D02*
X143189271Y-103943271D01*
X143189271Y-103943271D02*
X146562000Y-107316000D01*
X166385800Y-88333829D02*
X166385800Y-87316800D01*
X166385800Y-87316800D02*
X165358000Y-86289000D01*
X165358000Y-86289000D02*
X165358000Y-86139000D01*
X169549000Y-92838000D02*
X168609200Y-92838000D01*
X166830312Y-88778341D02*
X166385800Y-88333829D01*
X166830312Y-91059112D02*
X166830312Y-88778341D01*
X168609200Y-92838000D02*
X166830312Y-91059112D01*
X169549000Y-96902000D02*
X167485000Y-96902000D01*
X167485000Y-96902000D02*
X166596000Y-96013000D01*
X161293000Y-89440000D02*
X164659000Y-89440000D01*
X164659000Y-89440000D02*
X165358000Y-90139000D01*
X162580049Y-87440000D02*
X162684423Y-87335626D01*
X161293000Y-87440000D02*
X162580049Y-87440000D01*
X162684423Y-87335626D02*
X163065422Y-86954627D01*
X162596000Y-96013000D02*
X162446000Y-96013000D01*
X162446000Y-96013000D02*
X157618488Y-91185488D01*
X157618488Y-91185488D02*
X157250410Y-91185488D01*
X141705570Y-98131480D02*
X141705570Y-97153680D01*
X140475869Y-99361181D02*
X141705570Y-98131480D01*
X140475869Y-108684931D02*
X140475869Y-99361181D01*
X142231237Y-110440299D02*
X140475869Y-108684931D01*
X146791361Y-110440299D02*
X142231237Y-110440299D01*
X147459702Y-113111294D02*
X147459702Y-111108640D01*
X148217531Y-113869123D02*
X147459702Y-113111294D01*
X151212386Y-113869123D02*
X148217531Y-113869123D01*
X160915800Y-112520200D02*
X159898271Y-113537729D01*
X159888000Y-104395000D02*
X160915800Y-105422800D01*
X160915800Y-105422800D02*
X160915800Y-112520200D01*
X151543780Y-113537729D02*
X151212386Y-113869123D01*
X159898271Y-113537729D02*
X151543780Y-113537729D01*
X147459702Y-111108640D02*
X146791361Y-110440299D01*
X158199730Y-90673299D02*
X158199730Y-88533270D01*
X158199730Y-88533270D02*
X161293000Y-85440000D01*
X156501793Y-105511701D02*
X154524639Y-105511701D01*
X156711969Y-90182175D02*
X157708606Y-90182175D01*
X154471299Y-105458361D02*
X154471299Y-92422845D01*
X154524639Y-105511701D02*
X154471299Y-105458361D01*
X157190859Y-109171146D02*
X157190859Y-106200767D01*
X157527663Y-109507950D02*
X157190859Y-109171146D01*
X160765112Y-109507950D02*
X157527663Y-109507950D01*
X160877701Y-109395361D02*
X160765112Y-109507950D01*
X160877701Y-105384701D02*
X160877701Y-109395361D01*
X157708606Y-90182175D02*
X158199730Y-90673299D01*
X157190859Y-106200767D02*
X156501793Y-105511701D01*
X154471299Y-92422845D02*
X156711969Y-90182175D01*
X159888000Y-104395000D02*
X160877701Y-105384701D01*
X159738000Y-104395000D02*
X159888000Y-104395000D01*
X153026299Y-92327599D02*
X153026299Y-100033651D01*
X151231285Y-89587502D02*
X151231285Y-90532585D01*
X151037430Y-102022520D02*
X151037430Y-103000320D01*
X161293000Y-83440000D02*
X159185978Y-83440000D01*
X159185978Y-83440000D02*
X153375280Y-89250698D01*
X151568089Y-89250698D02*
X151231285Y-89587502D01*
X153375280Y-89250698D02*
X151568089Y-89250698D01*
X151231285Y-90532585D02*
X153026299Y-92327599D01*
X153026299Y-100033651D02*
X151037430Y-102022520D01*
X155611000Y-108332000D02*
X155461000Y-108332000D01*
X155461000Y-108332000D02*
X151037430Y-103908430D01*
X151037430Y-103908430D02*
X151037430Y-103000320D01*
X161293000Y-79440000D02*
X161793000Y-79440000D01*
X161793000Y-79440000D02*
X163139701Y-78093299D01*
X163139701Y-78093299D02*
X168520299Y-78093299D01*
X168520299Y-78093299D02*
X168787001Y-78360001D01*
X168787001Y-78360001D02*
X169549000Y-79122000D01*
X148960658Y-99407626D02*
X148960658Y-99946441D01*
X148960658Y-92607658D02*
X148960658Y-99407626D01*
X145293000Y-89440000D02*
X145793000Y-89440000D01*
X145793000Y-89440000D02*
X148960658Y-92607658D01*
X146993531Y-87250000D02*
X147044859Y-87198672D01*
X146054000Y-87250000D02*
X146993531Y-87250000D01*
X149313501Y-82597299D02*
X146470800Y-85440000D01*
X164120630Y-93067230D02*
X163694298Y-92640898D01*
X164241299Y-84925639D02*
X164294639Y-84872299D01*
X165913498Y-92180898D02*
X166474702Y-92180898D01*
X163694298Y-92640898D02*
X163694298Y-92019102D01*
X164285102Y-91428298D02*
X165160898Y-91428298D01*
X170798701Y-78889821D02*
X170798701Y-79782391D01*
X171595223Y-78093299D02*
X170798701Y-78889821D01*
X172582777Y-78093299D02*
X171595223Y-78093299D01*
X165388430Y-100460320D02*
X165098430Y-100460320D01*
X159064898Y-82030298D02*
X158443102Y-82030298D01*
X168263404Y-82317688D02*
X159352288Y-82317688D01*
X164120630Y-99482520D02*
X164120630Y-93067230D01*
X164241299Y-87352361D02*
X164241299Y-84925639D01*
X157876101Y-82597299D02*
X149313501Y-82597299D01*
X165160898Y-91428298D02*
X165913498Y-92180898D01*
X167185922Y-90911814D02*
X169793701Y-88304035D01*
X158443102Y-82030298D02*
X157876101Y-82597299D01*
X164294639Y-87405701D02*
X164241299Y-87352361D01*
X166474702Y-92180898D02*
X166474702Y-88925639D01*
X159352288Y-82317688D02*
X159064898Y-82030298D01*
X165098430Y-100460320D02*
X164120630Y-99482520D01*
X173117701Y-79615777D02*
X173117701Y-78628223D01*
X164294639Y-84872299D02*
X166421361Y-84872299D01*
X146470800Y-85440000D02*
X145293000Y-85440000D01*
X167185922Y-85636860D02*
X167185922Y-90911814D01*
X166421361Y-84872299D02*
X167185922Y-85636860D01*
X164954764Y-87405701D02*
X164294639Y-87405701D01*
X166474702Y-88925639D02*
X164954764Y-87405701D01*
X163694298Y-92019102D02*
X164285102Y-91428298D01*
X169793701Y-88304035D02*
X169793701Y-82939777D01*
X170798701Y-79782391D02*
X168263404Y-82317688D01*
X169793701Y-82939777D02*
X173117701Y-79615777D01*
X173117701Y-78628223D02*
X172582777Y-78093299D01*
X142421800Y-82551000D02*
X143310800Y-83440000D01*
X141228000Y-82551000D02*
X142421800Y-82551000D01*
X143310800Y-83440000D02*
X144115200Y-83440000D01*
X144115200Y-83440000D02*
X145293000Y-83440000D01*
X141228000Y-80011000D02*
X142421800Y-80011000D01*
X142421800Y-80011000D02*
X143850800Y-81440000D01*
X143850800Y-81440000D02*
X144115200Y-81440000D01*
X144115200Y-81440000D02*
X145293000Y-81440000D01*
X146915312Y-80562312D02*
X146915312Y-84300659D01*
X145793000Y-79440000D02*
X146915312Y-80562312D01*
X150875674Y-90679883D02*
X152394131Y-92198340D01*
X147853902Y-85996810D02*
X150875674Y-89018582D01*
X146644581Y-85996810D02*
X147853902Y-85996810D01*
X152394131Y-95169722D02*
X152612222Y-95387813D01*
X151260999Y-111006382D02*
X152047702Y-111793085D01*
X149680729Y-104013681D02*
X151260999Y-105593951D01*
X152394131Y-96280228D02*
X152394131Y-99273557D01*
X149680729Y-101986959D02*
X149680729Y-104013681D01*
X144079639Y-86206701D02*
X146434690Y-86206701D01*
X144026299Y-86153361D02*
X144079639Y-86206701D01*
X151357179Y-113221421D02*
X149696232Y-113221421D01*
X152047702Y-112530898D02*
X151357179Y-113221421D01*
X146434690Y-86206701D02*
X146644581Y-85996810D01*
X151260999Y-105593951D02*
X151260999Y-111006382D01*
X152047702Y-111793085D02*
X152047702Y-112530898D01*
X146915312Y-84300659D02*
X146653659Y-84562312D01*
X152612222Y-96062137D02*
X152394131Y-96280228D01*
X152394131Y-92198340D02*
X152394131Y-95169722D01*
X145293000Y-79440000D02*
X145793000Y-79440000D01*
X146653659Y-84562312D02*
X144026299Y-84562312D01*
X150875674Y-89018582D02*
X150875674Y-90679883D01*
X152394131Y-99273557D02*
X149680729Y-101986959D01*
X152612222Y-95387813D02*
X152612222Y-96062137D01*
X144026299Y-84562312D02*
X144026299Y-86153361D01*
X150903098Y-109050500D02*
X150903098Y-111151390D01*
X148572431Y-112573701D02*
X148256123Y-112890009D01*
X150791361Y-112573701D02*
X148572431Y-112573701D01*
X150297897Y-108445299D02*
X150903098Y-109050500D01*
X144026299Y-103675237D02*
X148796361Y-108445299D01*
X151111410Y-112253652D02*
X150791361Y-112573701D01*
X144026299Y-92656269D02*
X144026299Y-103675237D01*
X143670688Y-83795611D02*
X143670688Y-86300659D01*
X143670688Y-90579341D02*
X143670688Y-92300659D01*
X144026299Y-86656270D02*
X144026299Y-90223731D01*
X143670688Y-86300659D02*
X144026299Y-86656270D01*
X151111410Y-111359702D02*
X151111410Y-112253652D01*
X144081778Y-84206701D02*
X143670688Y-83795611D01*
X146506361Y-80673299D02*
X146559701Y-80726639D01*
X143670688Y-92300659D02*
X144026299Y-92656269D01*
X148796361Y-108445299D02*
X150297897Y-108445299D01*
X144079639Y-80673299D02*
X146506361Y-80673299D01*
X144026299Y-80619959D02*
X144079639Y-80673299D01*
X144026299Y-78206701D02*
X144026299Y-80619959D01*
X144793000Y-77440000D02*
X144026299Y-78206701D01*
X146506361Y-84206701D02*
X144081778Y-84206701D01*
X144026299Y-90223731D02*
X143670688Y-90579341D01*
X146559701Y-84153361D02*
X146506361Y-84206701D01*
X150903098Y-111151390D02*
X151111410Y-111359702D01*
X145293000Y-77440000D02*
X144793000Y-77440000D01*
X146559701Y-80726639D02*
X146559701Y-84153361D01*
X154508335Y-89898399D02*
X151878986Y-89898399D01*
X160089047Y-84317687D02*
X154508335Y-89898399D01*
X152417801Y-89898399D02*
X151878986Y-89898399D01*
X167108487Y-84317687D02*
X160089047Y-84317687D01*
X168777000Y-85986200D02*
X167108487Y-84317687D01*
X168777000Y-86614000D02*
X168777000Y-85986200D01*
D32*
G36*
X175570000Y-77214654D02*
X175570000Y-116406455D01*
X175468759Y-116305213D01*
X175235370Y-116208540D01*
X173644750Y-116208540D01*
X173486000Y-116367290D01*
X173486000Y-118466600D01*
X173506000Y-118466600D01*
X173506000Y-118720600D01*
X173486000Y-118720600D01*
X173486000Y-120819910D01*
X173644750Y-120978660D01*
X175235370Y-120978660D01*
X175468759Y-120881987D01*
X175570000Y-120780745D01*
X175570000Y-125099208D01*
X163050614Y-125187372D01*
X163198847Y-125039138D01*
X163295520Y-124805749D01*
X163295520Y-124457190D01*
X163136770Y-124298440D01*
X161771520Y-124298440D01*
X161771520Y-124318440D01*
X161517520Y-124318440D01*
X161517520Y-124298440D01*
X160152270Y-124298440D01*
X159993520Y-124457190D01*
X159993520Y-124805749D01*
X160090193Y-125039138D01*
X160258092Y-125207038D01*
X140085000Y-125349102D01*
X140085000Y-120056640D01*
X153377080Y-120056640D01*
X153377080Y-123714240D01*
X153421358Y-123949557D01*
X153560430Y-124165681D01*
X153772630Y-124310671D01*
X154024520Y-124361680D01*
X156056520Y-124361680D01*
X156291837Y-124317402D01*
X156507961Y-124178330D01*
X156652951Y-123966130D01*
X156703960Y-123714240D01*
X156703960Y-120056640D01*
X156659682Y-119821323D01*
X156520610Y-119605199D01*
X156308410Y-119460209D01*
X156056520Y-119409200D01*
X154024520Y-119409200D01*
X153789203Y-119453478D01*
X153573079Y-119592550D01*
X153428089Y-119804750D01*
X153377080Y-120056640D01*
X140085000Y-120056640D01*
X140085000Y-117848871D01*
X140498275Y-118125012D01*
X141123767Y-118249430D01*
X141697993Y-118249430D01*
X142323485Y-118125012D01*
X142853752Y-117770699D01*
X143142311Y-117338840D01*
X144077880Y-117338840D01*
X144077880Y-117851820D01*
X144122158Y-118087137D01*
X144261230Y-118303261D01*
X144473430Y-118448251D01*
X144725320Y-118499260D01*
X146725320Y-118499260D01*
X146960637Y-118454982D01*
X147176761Y-118315910D01*
X147220816Y-118251433D01*
X147525441Y-118377925D01*
X147929631Y-118378277D01*
X148229746Y-118254272D01*
X148365622Y-118390147D01*
X148599011Y-118486820D01*
X149439570Y-118486820D01*
X149598320Y-118328070D01*
X149598320Y-117178820D01*
X149852320Y-117178820D01*
X149852320Y-118328070D01*
X150011070Y-118486820D01*
X150851629Y-118486820D01*
X151085018Y-118390147D01*
X151263647Y-118211519D01*
X151360320Y-117978130D01*
X151360320Y-117337570D01*
X151201570Y-117178820D01*
X149852320Y-117178820D01*
X149598320Y-117178820D01*
X149578320Y-117178820D01*
X149578320Y-116924820D01*
X149598320Y-116924820D01*
X149598320Y-115775570D01*
X149852320Y-115775570D01*
X149852320Y-116924820D01*
X151201570Y-116924820D01*
X151360320Y-116766070D01*
X151360320Y-116125510D01*
X151263647Y-115892121D01*
X151085018Y-115713493D01*
X150851629Y-115616820D01*
X150011070Y-115616820D01*
X149852320Y-115775570D01*
X149598320Y-115775570D01*
X149439570Y-115616820D01*
X148599011Y-115616820D01*
X148365622Y-115713493D01*
X148186993Y-115892121D01*
X148090320Y-116125510D01*
X148090320Y-116412265D01*
X148052509Y-116396564D01*
X148016220Y-116214127D01*
X147859299Y-115979277D01*
X147859296Y-115979275D01*
X146301900Y-114421878D01*
X146301900Y-112954440D01*
X146578000Y-112954440D01*
X146735802Y-112924747D01*
X146735802Y-113111289D01*
X146735801Y-113111294D01*
X146765522Y-113260705D01*
X146790906Y-113388319D01*
X146926941Y-113591910D01*
X146947827Y-113623169D01*
X147705656Y-114380998D01*
X147940506Y-114537919D01*
X147986468Y-114547062D01*
X148217531Y-114593024D01*
X148217536Y-114593023D01*
X151212381Y-114593023D01*
X151212386Y-114593024D01*
X151443449Y-114547062D01*
X151489411Y-114537919D01*
X151724261Y-114380998D01*
X151843630Y-114261629D01*
X156357160Y-114261629D01*
X156352360Y-114285760D01*
X156406406Y-114557465D01*
X156560314Y-114787806D01*
X156790655Y-114941714D01*
X156887518Y-114960982D01*
X156906786Y-115057845D01*
X157060694Y-115288186D01*
X157291035Y-115442094D01*
X157562740Y-115496140D01*
X157834445Y-115442094D01*
X158064786Y-115288186D01*
X158065386Y-115287288D01*
X158086686Y-115338837D01*
X158476113Y-115728944D01*
X158565026Y-115765864D01*
X158565026Y-117912941D01*
X158565025Y-117912946D01*
X158607209Y-118125012D01*
X158632393Y-118251621D01*
X158724953Y-118390147D01*
X158824236Y-118538736D01*
X159981080Y-119695579D01*
X159981080Y-120107440D01*
X160025358Y-120342757D01*
X160164430Y-120558881D01*
X160376630Y-120703871D01*
X160564834Y-120741983D01*
X160393203Y-120774278D01*
X160177079Y-120913350D01*
X160032089Y-121125550D01*
X159981080Y-121377440D01*
X159981080Y-122393440D01*
X160025358Y-122628757D01*
X160164430Y-122844881D01*
X160376630Y-122989871D01*
X160567089Y-123028440D01*
X160502210Y-123028440D01*
X160268821Y-123125113D01*
X160090193Y-123303742D01*
X159993520Y-123537131D01*
X159993520Y-123885690D01*
X160152270Y-124044440D01*
X161517520Y-124044440D01*
X161517520Y-124024440D01*
X161771520Y-124024440D01*
X161771520Y-124044440D01*
X163136770Y-124044440D01*
X163295520Y-123885690D01*
X163295520Y-123694000D01*
X164327960Y-123694000D01*
X164643018Y-123824824D01*
X165047208Y-123825176D01*
X165420766Y-123670825D01*
X165706821Y-123385269D01*
X165861824Y-123011982D01*
X165862176Y-122607792D01*
X165707825Y-122234234D01*
X165422269Y-121948179D01*
X165255885Y-121879090D01*
X166274940Y-121879090D01*
X166274940Y-123469709D01*
X166371613Y-123703098D01*
X166550241Y-123881727D01*
X166783630Y-123978400D01*
X168374250Y-123978400D01*
X168533000Y-123819650D01*
X168533000Y-121720340D01*
X168787000Y-121720340D01*
X168787000Y-123819650D01*
X168945750Y-123978400D01*
X170536370Y-123978400D01*
X170769759Y-123881727D01*
X170948387Y-123703098D01*
X171045060Y-123469709D01*
X171045060Y-121879090D01*
X170886310Y-121720340D01*
X168787000Y-121720340D01*
X168533000Y-121720340D01*
X166433690Y-121720340D01*
X166274940Y-121879090D01*
X165255885Y-121879090D01*
X165048982Y-121793176D01*
X164644792Y-121792824D01*
X164327322Y-121924000D01*
X163307960Y-121924000D01*
X163307960Y-121377440D01*
X163263682Y-121142123D01*
X163124610Y-120925999D01*
X162912410Y-120781009D01*
X162724206Y-120742897D01*
X162895837Y-120710602D01*
X163111961Y-120571530D01*
X163256951Y-120359330D01*
X163307960Y-120107440D01*
X163307960Y-119716971D01*
X166274940Y-119716971D01*
X166274940Y-121307590D01*
X166433690Y-121466340D01*
X168533000Y-121466340D01*
X168533000Y-119367030D01*
X168787000Y-119367030D01*
X168787000Y-121466340D01*
X170886310Y-121466340D01*
X171045060Y-121307590D01*
X171045060Y-120641668D01*
X171070613Y-120703358D01*
X171249241Y-120881987D01*
X171482630Y-120978660D01*
X173073250Y-120978660D01*
X173232000Y-120819910D01*
X173232000Y-118720600D01*
X171132690Y-118720600D01*
X170973940Y-118879350D01*
X170973940Y-119545272D01*
X170948387Y-119483582D01*
X170769759Y-119304953D01*
X170536370Y-119208280D01*
X168945750Y-119208280D01*
X168787000Y-119367030D01*
X168533000Y-119367030D01*
X168374250Y-119208280D01*
X166783630Y-119208280D01*
X166550241Y-119304953D01*
X166371613Y-119483582D01*
X166274940Y-119716971D01*
X163307960Y-119716971D01*
X163307960Y-119091440D01*
X163263682Y-118856123D01*
X163124610Y-118639999D01*
X162912410Y-118495009D01*
X162660520Y-118444000D01*
X161232659Y-118444000D01*
X160335026Y-117546366D01*
X160335026Y-115441629D01*
X160339941Y-115436723D01*
X160348993Y-115434922D01*
X160374520Y-115440000D01*
X160406707Y-115440000D01*
X160406712Y-115440001D01*
X160689196Y-115383810D01*
X160745387Y-115372633D01*
X161032502Y-115180790D01*
X164403021Y-111810270D01*
X164997240Y-111810270D01*
X165847140Y-112660169D01*
X165847140Y-115593860D01*
X165914507Y-115932535D01*
X166106350Y-116219650D01*
X166262500Y-116323985D01*
X166262500Y-117343920D01*
X166306778Y-117579237D01*
X166445850Y-117795361D01*
X166658050Y-117940351D01*
X166909940Y-117991360D01*
X170410060Y-117991360D01*
X170645377Y-117947082D01*
X170861501Y-117808010D01*
X170973940Y-117643450D01*
X170973940Y-118307850D01*
X171132690Y-118466600D01*
X173232000Y-118466600D01*
X173232000Y-116367290D01*
X173073250Y-116208540D01*
X171482630Y-116208540D01*
X171249241Y-116305213D01*
X171070613Y-116483842D01*
X171057500Y-116515500D01*
X171057500Y-113843800D01*
X171013222Y-113608483D01*
X171006155Y-113597500D01*
X171503460Y-113597500D01*
X171818518Y-113728324D01*
X172222708Y-113728676D01*
X172596266Y-113574325D01*
X172882321Y-113288769D01*
X173037324Y-112915482D01*
X173037676Y-112511292D01*
X172883325Y-112137734D01*
X172597769Y-111851679D01*
X172224482Y-111696676D01*
X171820292Y-111696324D01*
X171502822Y-111827500D01*
X171133779Y-111827500D01*
X169971080Y-110664800D01*
X170524674Y-110664800D01*
X170641385Y-110839470D01*
X171127566Y-111164326D01*
X171701055Y-111278400D01*
X172070545Y-111278400D01*
X172644034Y-111164326D01*
X173130215Y-110839470D01*
X173455071Y-110353289D01*
X173569145Y-109779800D01*
X173455071Y-109206311D01*
X173130215Y-108720130D01*
X172815434Y-108509800D01*
X173130215Y-108299470D01*
X173455071Y-107813289D01*
X173569145Y-107239800D01*
X173455071Y-106666311D01*
X173130215Y-106180130D01*
X173115887Y-106170557D01*
X173137117Y-106166562D01*
X173353241Y-106027490D01*
X173498231Y-105815290D01*
X173549240Y-105563400D01*
X173549240Y-103836200D01*
X173504962Y-103600883D01*
X173365890Y-103384759D01*
X173153690Y-103239769D01*
X172901800Y-103188760D01*
X170869800Y-103188760D01*
X170634483Y-103233038D01*
X170418359Y-103372110D01*
X170273369Y-103584310D01*
X170222360Y-103836200D01*
X170222360Y-105563400D01*
X170266638Y-105798717D01*
X170405710Y-106014841D01*
X170617910Y-106159831D01*
X170659239Y-106168200D01*
X170641385Y-106180130D01*
X170316529Y-106666311D01*
X170202455Y-107239800D01*
X170316529Y-107813289D01*
X170641385Y-108299470D01*
X170956166Y-108509800D01*
X170641385Y-108720130D01*
X170524674Y-108894800D01*
X169804010Y-108894800D01*
X169804010Y-108102130D01*
X169759732Y-107866813D01*
X169620660Y-107650689D01*
X169553622Y-107604884D01*
X169694897Y-107463608D01*
X169791570Y-107230219D01*
X169791570Y-105889790D01*
X169632820Y-105731040D01*
X168533000Y-105731040D01*
X168533000Y-105751040D01*
X168279000Y-105751040D01*
X168279000Y-105731040D01*
X167179180Y-105731040D01*
X167020430Y-105889790D01*
X167020430Y-107230219D01*
X167117103Y-107463608D01*
X167257257Y-107603763D01*
X167203989Y-107638040D01*
X167058999Y-107850240D01*
X167007990Y-108102130D01*
X167007990Y-111101870D01*
X167052268Y-111337187D01*
X167097304Y-111407175D01*
X165915270Y-110225140D01*
X165915270Y-108163090D01*
X165870992Y-107927773D01*
X165731920Y-107711649D01*
X165664882Y-107665844D01*
X165806157Y-107524568D01*
X165902830Y-107291179D01*
X165902830Y-105950750D01*
X165744080Y-105792000D01*
X164644260Y-105792000D01*
X164644260Y-105812000D01*
X164390260Y-105812000D01*
X164390260Y-105792000D01*
X163290440Y-105792000D01*
X163131690Y-105950750D01*
X163131690Y-107291179D01*
X163228363Y-107524568D01*
X163368517Y-107664723D01*
X163315249Y-107699000D01*
X163170259Y-107911200D01*
X163119250Y-108163090D01*
X163119250Y-110590883D01*
X161639700Y-112070432D01*
X161639700Y-105422805D01*
X161639701Y-105422800D01*
X161584597Y-105145776D01*
X161487076Y-104999826D01*
X161427675Y-104910925D01*
X161427672Y-104910923D01*
X161389578Y-104872829D01*
X161389576Y-104872826D01*
X161389573Y-104872824D01*
X161385440Y-104868691D01*
X161385440Y-104038821D01*
X163131690Y-104038821D01*
X163131690Y-105379250D01*
X163290440Y-105538000D01*
X164390260Y-105538000D01*
X164390260Y-103688880D01*
X164644260Y-103688880D01*
X164644260Y-105538000D01*
X165744080Y-105538000D01*
X165902830Y-105379250D01*
X165902830Y-104038821D01*
X165877580Y-103977861D01*
X167020430Y-103977861D01*
X167020430Y-105318290D01*
X167179180Y-105477040D01*
X168279000Y-105477040D01*
X168279000Y-103627920D01*
X168533000Y-103627920D01*
X168533000Y-105477040D01*
X169632820Y-105477040D01*
X169791570Y-105318290D01*
X169791570Y-103977861D01*
X169694897Y-103744472D01*
X169516269Y-103565843D01*
X169282880Y-103469170D01*
X168691750Y-103469170D01*
X168533000Y-103627920D01*
X168279000Y-103627920D01*
X168120250Y-103469170D01*
X167529120Y-103469170D01*
X167295731Y-103565843D01*
X167117103Y-103744472D01*
X167020430Y-103977861D01*
X165877580Y-103977861D01*
X165806157Y-103805432D01*
X165627529Y-103626803D01*
X165394140Y-103530130D01*
X164803010Y-103530130D01*
X164644260Y-103688880D01*
X164390260Y-103688880D01*
X164231510Y-103530130D01*
X163640380Y-103530130D01*
X163406991Y-103626803D01*
X163228363Y-103805432D01*
X163131690Y-104038821D01*
X161385440Y-104038821D01*
X161385440Y-103545000D01*
X161341162Y-103309683D01*
X161202090Y-103093559D01*
X160989890Y-102948569D01*
X160738000Y-102897560D01*
X158738000Y-102897560D01*
X158502683Y-102941838D01*
X158286559Y-103080910D01*
X158141569Y-103293110D01*
X158090560Y-103545000D01*
X158090560Y-105245000D01*
X158134838Y-105480317D01*
X158273910Y-105696441D01*
X158486110Y-105841431D01*
X158738000Y-105892440D01*
X160153801Y-105892440D01*
X160153801Y-106834560D01*
X159351310Y-106834560D01*
X157385440Y-104868690D01*
X157385440Y-103545000D01*
X157341162Y-103309683D01*
X157202090Y-103093559D01*
X157103057Y-103025893D01*
X158723139Y-101405810D01*
X158723142Y-101405808D01*
X158880063Y-101170958D01*
X158880064Y-101170957D01*
X158935168Y-100893933D01*
X158935167Y-100893928D01*
X158935167Y-96976293D01*
X159072088Y-96839611D01*
X159227091Y-96466324D01*
X159227443Y-96062134D01*
X159073092Y-95688576D01*
X158787536Y-95402521D01*
X158414249Y-95247518D01*
X158219022Y-95247348D01*
X157089068Y-94117393D01*
X157089068Y-92201348D01*
X157451618Y-92201664D01*
X157564339Y-92155089D01*
X160948560Y-95539310D01*
X160948560Y-96863000D01*
X160992838Y-97098317D01*
X161131910Y-97314441D01*
X161344110Y-97459431D01*
X161596000Y-97510440D01*
X163396730Y-97510440D01*
X163396730Y-99482515D01*
X163396729Y-99482520D01*
X163442691Y-99713583D01*
X163451834Y-99759545D01*
X163558713Y-99919501D01*
X163608755Y-99994395D01*
X163650990Y-100036630D01*
X163650990Y-101260320D01*
X163695268Y-101495637D01*
X163834340Y-101711761D01*
X164046540Y-101856751D01*
X164298430Y-101907760D01*
X166478430Y-101907760D01*
X166713747Y-101863482D01*
X166929871Y-101724410D01*
X167074861Y-101512210D01*
X167125870Y-101260320D01*
X167125870Y-99660320D01*
X167081592Y-99425003D01*
X166942520Y-99208879D01*
X166730320Y-99063889D01*
X166478430Y-99012880D01*
X164844530Y-99012880D01*
X164844530Y-95163000D01*
X164948560Y-95163000D01*
X164948560Y-96863000D01*
X164992838Y-97098317D01*
X165131910Y-97314441D01*
X165344110Y-97459431D01*
X165596000Y-97510440D01*
X167117645Y-97510440D01*
X167130047Y-97518726D01*
X167207976Y-97570797D01*
X167485000Y-97625901D01*
X167485005Y-97625900D01*
X168139560Y-97625900D01*
X168139560Y-97918000D01*
X168183838Y-98153317D01*
X168322910Y-98369441D01*
X168535110Y-98514431D01*
X168787000Y-98565440D01*
X170311000Y-98565440D01*
X170546317Y-98521162D01*
X170762441Y-98382090D01*
X170907431Y-98169890D01*
X170958440Y-97918000D01*
X170958440Y-97187750D01*
X171454000Y-97187750D01*
X171454000Y-98044310D01*
X171550673Y-98277699D01*
X171729302Y-98456327D01*
X171962691Y-98553000D01*
X172565250Y-98553000D01*
X172724000Y-98394250D01*
X172724000Y-97029000D01*
X172978000Y-97029000D01*
X172978000Y-98394250D01*
X173136750Y-98553000D01*
X173739309Y-98553000D01*
X173972698Y-98456327D01*
X174151327Y-98277699D01*
X174248000Y-98044310D01*
X174248000Y-97187750D01*
X174089250Y-97029000D01*
X172978000Y-97029000D01*
X172724000Y-97029000D01*
X171612750Y-97029000D01*
X171454000Y-97187750D01*
X170958440Y-97187750D01*
X170958440Y-95886000D01*
X170934674Y-95759690D01*
X171454000Y-95759690D01*
X171454000Y-96616250D01*
X171612750Y-96775000D01*
X172724000Y-96775000D01*
X172724000Y-95409750D01*
X172978000Y-95409750D01*
X172978000Y-96775000D01*
X174089250Y-96775000D01*
X174248000Y-96616250D01*
X174248000Y-95759690D01*
X174151327Y-95526301D01*
X173972698Y-95347673D01*
X173739309Y-95251000D01*
X173136750Y-95251000D01*
X172978000Y-95409750D01*
X172724000Y-95409750D01*
X172565250Y-95251000D01*
X171962691Y-95251000D01*
X171729302Y-95347673D01*
X171550673Y-95526301D01*
X171454000Y-95759690D01*
X170934674Y-95759690D01*
X170914162Y-95650683D01*
X170775090Y-95434559D01*
X170562890Y-95289569D01*
X170311000Y-95238560D01*
X168787000Y-95238560D01*
X168551683Y-95282838D01*
X168335559Y-95421910D01*
X168243440Y-95556731D01*
X168243440Y-95163000D01*
X168199162Y-94927683D01*
X168060090Y-94711559D01*
X167847890Y-94566569D01*
X167596000Y-94515560D01*
X165596000Y-94515560D01*
X165360683Y-94559838D01*
X165144559Y-94698910D01*
X164999569Y-94911110D01*
X164948560Y-95163000D01*
X164844530Y-95163000D01*
X164844530Y-93067230D01*
X164789426Y-92790205D01*
X164632505Y-92555355D01*
X164632502Y-92555353D01*
X164418198Y-92341048D01*
X164418198Y-92318952D01*
X164584952Y-92152198D01*
X164861048Y-92152198D01*
X165401623Y-92692773D01*
X165636473Y-92849694D01*
X165913498Y-92904798D01*
X166474702Y-92904798D01*
X166751727Y-92849694D01*
X166986577Y-92692773D01*
X167143498Y-92457923D01*
X167153764Y-92406313D01*
X168097323Y-93349872D01*
X168097325Y-93349875D01*
X168139560Y-93378095D01*
X168139560Y-93854000D01*
X168183838Y-94089317D01*
X168322910Y-94305441D01*
X168535110Y-94450431D01*
X168787000Y-94501440D01*
X170311000Y-94501440D01*
X170546317Y-94457162D01*
X170762441Y-94318090D01*
X170907431Y-94105890D01*
X170958440Y-93854000D01*
X170958440Y-93123750D01*
X171454000Y-93123750D01*
X171454000Y-93980310D01*
X171550673Y-94213699D01*
X171729302Y-94392327D01*
X171962691Y-94489000D01*
X172565250Y-94489000D01*
X172724000Y-94330250D01*
X172724000Y-92965000D01*
X172978000Y-92965000D01*
X172978000Y-94330250D01*
X173136750Y-94489000D01*
X173739309Y-94489000D01*
X173972698Y-94392327D01*
X174151327Y-94213699D01*
X174248000Y-93980310D01*
X174248000Y-93123750D01*
X174089250Y-92965000D01*
X172978000Y-92965000D01*
X172724000Y-92965000D01*
X171612750Y-92965000D01*
X171454000Y-93123750D01*
X170958440Y-93123750D01*
X170958440Y-91822000D01*
X170934674Y-91695690D01*
X171454000Y-91695690D01*
X171454000Y-92552250D01*
X171612750Y-92711000D01*
X172724000Y-92711000D01*
X172724000Y-91345750D01*
X172978000Y-91345750D01*
X172978000Y-92711000D01*
X174089250Y-92711000D01*
X174248000Y-92552250D01*
X174248000Y-91695690D01*
X174151327Y-91462301D01*
X173972698Y-91283673D01*
X173739309Y-91187000D01*
X173136750Y-91187000D01*
X172978000Y-91345750D01*
X172724000Y-91345750D01*
X172565250Y-91187000D01*
X171962691Y-91187000D01*
X171729302Y-91283673D01*
X171550673Y-91462301D01*
X171454000Y-91695690D01*
X170934674Y-91695690D01*
X170914162Y-91586683D01*
X170775090Y-91370559D01*
X170562890Y-91225569D01*
X170311000Y-91174560D01*
X168787000Y-91174560D01*
X168551683Y-91218838D01*
X168335559Y-91357910D01*
X168261398Y-91466448D01*
X167958218Y-91163268D01*
X169281138Y-89840347D01*
X169323399Y-89942627D01*
X169608955Y-90228682D01*
X169982242Y-90383685D01*
X170386432Y-90384037D01*
X170759990Y-90229686D01*
X171046045Y-89944130D01*
X171201048Y-89570843D01*
X171201218Y-89375617D01*
X172909449Y-87667385D01*
X173127000Y-87711440D01*
X174627000Y-87711440D01*
X174862317Y-87667162D01*
X175078441Y-87528090D01*
X175223431Y-87315890D01*
X175274440Y-87064000D01*
X175274440Y-86164000D01*
X175230162Y-85928683D01*
X175091090Y-85712559D01*
X174878890Y-85567569D01*
X174627000Y-85516560D01*
X173127000Y-85516560D01*
X172891683Y-85560838D01*
X172675559Y-85699910D01*
X172530569Y-85912110D01*
X172502243Y-86051990D01*
X172427210Y-86102125D01*
X172427208Y-86102128D01*
X170517601Y-88011734D01*
X170517601Y-83239627D01*
X170893228Y-82864000D01*
X172479560Y-82864000D01*
X172479560Y-83764000D01*
X172523838Y-83999317D01*
X172662910Y-84215441D01*
X172875110Y-84360431D01*
X173127000Y-84411440D01*
X174627000Y-84411440D01*
X174862317Y-84367162D01*
X175078441Y-84228090D01*
X175223431Y-84015890D01*
X175274440Y-83764000D01*
X175274440Y-82864000D01*
X175230162Y-82628683D01*
X175091090Y-82412559D01*
X174878890Y-82267569D01*
X174627000Y-82216560D01*
X173127000Y-82216560D01*
X172891683Y-82260838D01*
X172675559Y-82399910D01*
X172530569Y-82612110D01*
X172479560Y-82864000D01*
X170893228Y-82864000D01*
X173629576Y-80127652D01*
X173786498Y-79892801D01*
X173841602Y-79615777D01*
X173841601Y-79615772D01*
X173841601Y-78628228D01*
X173841602Y-78628223D01*
X173786498Y-78351199D01*
X173729070Y-78265252D01*
X173629576Y-78116348D01*
X173629573Y-78116346D01*
X173094652Y-77581424D01*
X173029521Y-77537905D01*
X172859802Y-77424503D01*
X172813840Y-77415360D01*
X172582777Y-77369398D01*
X172582772Y-77369399D01*
X171595223Y-77369399D01*
X171318198Y-77424503D01*
X171083348Y-77581424D01*
X171083346Y-77581427D01*
X170533718Y-78131055D01*
X170341370Y-77938371D01*
X169828100Y-77725243D01*
X169272339Y-77724758D01*
X169203819Y-77753070D01*
X169032174Y-77581424D01*
X168967043Y-77537905D01*
X168797324Y-77424503D01*
X168751362Y-77415360D01*
X168520299Y-77369398D01*
X168520294Y-77369399D01*
X163139706Y-77369399D01*
X163139701Y-77369398D01*
X162940440Y-77409034D01*
X162940440Y-77124442D01*
X175570000Y-77214654D01*
X175570000Y-77214654D01*
G37*
X175570000Y-77214654D02*
X175570000Y-116406455D01*
X175468759Y-116305213D01*
X175235370Y-116208540D01*
X173644750Y-116208540D01*
X173486000Y-116367290D01*
X173486000Y-118466600D01*
X173506000Y-118466600D01*
X173506000Y-118720600D01*
X173486000Y-118720600D01*
X173486000Y-120819910D01*
X173644750Y-120978660D01*
X175235370Y-120978660D01*
X175468759Y-120881987D01*
X175570000Y-120780745D01*
X175570000Y-125099208D01*
X163050614Y-125187372D01*
X163198847Y-125039138D01*
X163295520Y-124805749D01*
X163295520Y-124457190D01*
X163136770Y-124298440D01*
X161771520Y-124298440D01*
X161771520Y-124318440D01*
X161517520Y-124318440D01*
X161517520Y-124298440D01*
X160152270Y-124298440D01*
X159993520Y-124457190D01*
X159993520Y-124805749D01*
X160090193Y-125039138D01*
X160258092Y-125207038D01*
X140085000Y-125349102D01*
X140085000Y-120056640D01*
X153377080Y-120056640D01*
X153377080Y-123714240D01*
X153421358Y-123949557D01*
X153560430Y-124165681D01*
X153772630Y-124310671D01*
X154024520Y-124361680D01*
X156056520Y-124361680D01*
X156291837Y-124317402D01*
X156507961Y-124178330D01*
X156652951Y-123966130D01*
X156703960Y-123714240D01*
X156703960Y-120056640D01*
X156659682Y-119821323D01*
X156520610Y-119605199D01*
X156308410Y-119460209D01*
X156056520Y-119409200D01*
X154024520Y-119409200D01*
X153789203Y-119453478D01*
X153573079Y-119592550D01*
X153428089Y-119804750D01*
X153377080Y-120056640D01*
X140085000Y-120056640D01*
X140085000Y-117848871D01*
X140498275Y-118125012D01*
X141123767Y-118249430D01*
X141697993Y-118249430D01*
X142323485Y-118125012D01*
X142853752Y-117770699D01*
X143142311Y-117338840D01*
X144077880Y-117338840D01*
X144077880Y-117851820D01*
X144122158Y-118087137D01*
X144261230Y-118303261D01*
X144473430Y-118448251D01*
X144725320Y-118499260D01*
X146725320Y-118499260D01*
X146960637Y-118454982D01*
X147176761Y-118315910D01*
X147220816Y-118251433D01*
X147525441Y-118377925D01*
X147929631Y-118378277D01*
X148229746Y-118254272D01*
X148365622Y-118390147D01*
X148599011Y-118486820D01*
X149439570Y-118486820D01*
X149598320Y-118328070D01*
X149598320Y-117178820D01*
X149852320Y-117178820D01*
X149852320Y-118328070D01*
X150011070Y-118486820D01*
X150851629Y-118486820D01*
X151085018Y-118390147D01*
X151263647Y-118211519D01*
X151360320Y-117978130D01*
X151360320Y-117337570D01*
X151201570Y-117178820D01*
X149852320Y-117178820D01*
X149598320Y-117178820D01*
X149578320Y-117178820D01*
X149578320Y-116924820D01*
X149598320Y-116924820D01*
X149598320Y-115775570D01*
X149852320Y-115775570D01*
X149852320Y-116924820D01*
X151201570Y-116924820D01*
X151360320Y-116766070D01*
X151360320Y-116125510D01*
X151263647Y-115892121D01*
X151085018Y-115713493D01*
X150851629Y-115616820D01*
X150011070Y-115616820D01*
X149852320Y-115775570D01*
X149598320Y-115775570D01*
X149439570Y-115616820D01*
X148599011Y-115616820D01*
X148365622Y-115713493D01*
X148186993Y-115892121D01*
X148090320Y-116125510D01*
X148090320Y-116412265D01*
X148052509Y-116396564D01*
X148016220Y-116214127D01*
X147859299Y-115979277D01*
X147859296Y-115979275D01*
X146301900Y-114421878D01*
X146301900Y-112954440D01*
X146578000Y-112954440D01*
X146735802Y-112924747D01*
X146735802Y-113111289D01*
X146735801Y-113111294D01*
X146765522Y-113260705D01*
X146790906Y-113388319D01*
X146926941Y-113591910D01*
X146947827Y-113623169D01*
X147705656Y-114380998D01*
X147940506Y-114537919D01*
X147986468Y-114547062D01*
X148217531Y-114593024D01*
X148217536Y-114593023D01*
X151212381Y-114593023D01*
X151212386Y-114593024D01*
X151443449Y-114547062D01*
X151489411Y-114537919D01*
X151724261Y-114380998D01*
X151843630Y-114261629D01*
X156357160Y-114261629D01*
X156352360Y-114285760D01*
X156406406Y-114557465D01*
X156560314Y-114787806D01*
X156790655Y-114941714D01*
X156887518Y-114960982D01*
X156906786Y-115057845D01*
X157060694Y-115288186D01*
X157291035Y-115442094D01*
X157562740Y-115496140D01*
X157834445Y-115442094D01*
X158064786Y-115288186D01*
X158065386Y-115287288D01*
X158086686Y-115338837D01*
X158476113Y-115728944D01*
X158565026Y-115765864D01*
X158565026Y-117912941D01*
X158565025Y-117912946D01*
X158607209Y-118125012D01*
X158632393Y-118251621D01*
X158724953Y-118390147D01*
X158824236Y-118538736D01*
X159981080Y-119695579D01*
X159981080Y-120107440D01*
X160025358Y-120342757D01*
X160164430Y-120558881D01*
X160376630Y-120703871D01*
X160564834Y-120741983D01*
X160393203Y-120774278D01*
X160177079Y-120913350D01*
X160032089Y-121125550D01*
X159981080Y-121377440D01*
X159981080Y-122393440D01*
X160025358Y-122628757D01*
X160164430Y-122844881D01*
X160376630Y-122989871D01*
X160567089Y-123028440D01*
X160502210Y-123028440D01*
X160268821Y-123125113D01*
X160090193Y-123303742D01*
X159993520Y-123537131D01*
X159993520Y-123885690D01*
X160152270Y-124044440D01*
X161517520Y-124044440D01*
X161517520Y-124024440D01*
X161771520Y-124024440D01*
X161771520Y-124044440D01*
X163136770Y-124044440D01*
X163295520Y-123885690D01*
X163295520Y-123694000D01*
X164327960Y-123694000D01*
X164643018Y-123824824D01*
X165047208Y-123825176D01*
X165420766Y-123670825D01*
X165706821Y-123385269D01*
X165861824Y-123011982D01*
X165862176Y-122607792D01*
X165707825Y-122234234D01*
X165422269Y-121948179D01*
X165255885Y-121879090D01*
X166274940Y-121879090D01*
X166274940Y-123469709D01*
X166371613Y-123703098D01*
X166550241Y-123881727D01*
X166783630Y-123978400D01*
X168374250Y-123978400D01*
X168533000Y-123819650D01*
X168533000Y-121720340D01*
X168787000Y-121720340D01*
X168787000Y-123819650D01*
X168945750Y-123978400D01*
X170536370Y-123978400D01*
X170769759Y-123881727D01*
X170948387Y-123703098D01*
X171045060Y-123469709D01*
X171045060Y-121879090D01*
X170886310Y-121720340D01*
X168787000Y-121720340D01*
X168533000Y-121720340D01*
X166433690Y-121720340D01*
X166274940Y-121879090D01*
X165255885Y-121879090D01*
X165048982Y-121793176D01*
X164644792Y-121792824D01*
X164327322Y-121924000D01*
X163307960Y-121924000D01*
X163307960Y-121377440D01*
X163263682Y-121142123D01*
X163124610Y-120925999D01*
X162912410Y-120781009D01*
X162724206Y-120742897D01*
X162895837Y-120710602D01*
X163111961Y-120571530D01*
X163256951Y-120359330D01*
X163307960Y-120107440D01*
X163307960Y-119716971D01*
X166274940Y-119716971D01*
X166274940Y-121307590D01*
X166433690Y-121466340D01*
X168533000Y-121466340D01*
X168533000Y-119367030D01*
X168787000Y-119367030D01*
X168787000Y-121466340D01*
X170886310Y-121466340D01*
X171045060Y-121307590D01*
X171045060Y-120641668D01*
X171070613Y-120703358D01*
X171249241Y-120881987D01*
X171482630Y-120978660D01*
X173073250Y-120978660D01*
X173232000Y-120819910D01*
X173232000Y-118720600D01*
X171132690Y-118720600D01*
X170973940Y-118879350D01*
X170973940Y-119545272D01*
X170948387Y-119483582D01*
X170769759Y-119304953D01*
X170536370Y-119208280D01*
X168945750Y-119208280D01*
X168787000Y-119367030D01*
X168533000Y-119367030D01*
X168374250Y-119208280D01*
X166783630Y-119208280D01*
X166550241Y-119304953D01*
X166371613Y-119483582D01*
X166274940Y-119716971D01*
X163307960Y-119716971D01*
X163307960Y-119091440D01*
X163263682Y-118856123D01*
X163124610Y-118639999D01*
X162912410Y-118495009D01*
X162660520Y-118444000D01*
X161232659Y-118444000D01*
X160335026Y-117546366D01*
X160335026Y-115441629D01*
X160339941Y-115436723D01*
X160348993Y-115434922D01*
X160374520Y-115440000D01*
X160406707Y-115440000D01*
X160406712Y-115440001D01*
X160689196Y-115383810D01*
X160745387Y-115372633D01*
X161032502Y-115180790D01*
X164403021Y-111810270D01*
X164997240Y-111810270D01*
X165847140Y-112660169D01*
X165847140Y-115593860D01*
X165914507Y-115932535D01*
X166106350Y-116219650D01*
X166262500Y-116323985D01*
X166262500Y-117343920D01*
X166306778Y-117579237D01*
X166445850Y-117795361D01*
X166658050Y-117940351D01*
X166909940Y-117991360D01*
X170410060Y-117991360D01*
X170645377Y-117947082D01*
X170861501Y-117808010D01*
X170973940Y-117643450D01*
X170973940Y-118307850D01*
X171132690Y-118466600D01*
X173232000Y-118466600D01*
X173232000Y-116367290D01*
X173073250Y-116208540D01*
X171482630Y-116208540D01*
X171249241Y-116305213D01*
X171070613Y-116483842D01*
X171057500Y-116515500D01*
X171057500Y-113843800D01*
X171013222Y-113608483D01*
X171006155Y-113597500D01*
X171503460Y-113597500D01*
X171818518Y-113728324D01*
X172222708Y-113728676D01*
X172596266Y-113574325D01*
X172882321Y-113288769D01*
X173037324Y-112915482D01*
X173037676Y-112511292D01*
X172883325Y-112137734D01*
X172597769Y-111851679D01*
X172224482Y-111696676D01*
X171820292Y-111696324D01*
X171502822Y-111827500D01*
X171133779Y-111827500D01*
X169971080Y-110664800D01*
X170524674Y-110664800D01*
X170641385Y-110839470D01*
X171127566Y-111164326D01*
X171701055Y-111278400D01*
X172070545Y-111278400D01*
X172644034Y-111164326D01*
X173130215Y-110839470D01*
X173455071Y-110353289D01*
X173569145Y-109779800D01*
X173455071Y-109206311D01*
X173130215Y-108720130D01*
X172815434Y-108509800D01*
X173130215Y-108299470D01*
X173455071Y-107813289D01*
X173569145Y-107239800D01*
X173455071Y-106666311D01*
X173130215Y-106180130D01*
X173115887Y-106170557D01*
X173137117Y-106166562D01*
X173353241Y-106027490D01*
X173498231Y-105815290D01*
X173549240Y-105563400D01*
X173549240Y-103836200D01*
X173504962Y-103600883D01*
X173365890Y-103384759D01*
X173153690Y-103239769D01*
X172901800Y-103188760D01*
X170869800Y-103188760D01*
X170634483Y-103233038D01*
X170418359Y-103372110D01*
X170273369Y-103584310D01*
X170222360Y-103836200D01*
X170222360Y-105563400D01*
X170266638Y-105798717D01*
X170405710Y-106014841D01*
X170617910Y-106159831D01*
X170659239Y-106168200D01*
X170641385Y-106180130D01*
X170316529Y-106666311D01*
X170202455Y-107239800D01*
X170316529Y-107813289D01*
X170641385Y-108299470D01*
X170956166Y-108509800D01*
X170641385Y-108720130D01*
X170524674Y-108894800D01*
X169804010Y-108894800D01*
X169804010Y-108102130D01*
X169759732Y-107866813D01*
X169620660Y-107650689D01*
X169553622Y-107604884D01*
X169694897Y-107463608D01*
X169791570Y-107230219D01*
X169791570Y-105889790D01*
X169632820Y-105731040D01*
X168533000Y-105731040D01*
X168533000Y-105751040D01*
X168279000Y-105751040D01*
X168279000Y-105731040D01*
X167179180Y-105731040D01*
X167020430Y-105889790D01*
X167020430Y-107230219D01*
X167117103Y-107463608D01*
X167257257Y-107603763D01*
X167203989Y-107638040D01*
X167058999Y-107850240D01*
X167007990Y-108102130D01*
X167007990Y-111101870D01*
X167052268Y-111337187D01*
X167097304Y-111407175D01*
X165915270Y-110225140D01*
X165915270Y-108163090D01*
X165870992Y-107927773D01*
X165731920Y-107711649D01*
X165664882Y-107665844D01*
X165806157Y-107524568D01*
X165902830Y-107291179D01*
X165902830Y-105950750D01*
X165744080Y-105792000D01*
X164644260Y-105792000D01*
X164644260Y-105812000D01*
X164390260Y-105812000D01*
X164390260Y-105792000D01*
X163290440Y-105792000D01*
X163131690Y-105950750D01*
X163131690Y-107291179D01*
X163228363Y-107524568D01*
X163368517Y-107664723D01*
X163315249Y-107699000D01*
X163170259Y-107911200D01*
X163119250Y-108163090D01*
X163119250Y-110590883D01*
X161639700Y-112070432D01*
X161639700Y-105422805D01*
X161639701Y-105422800D01*
X161584597Y-105145776D01*
X161487076Y-104999826D01*
X161427675Y-104910925D01*
X161427672Y-104910923D01*
X161389578Y-104872829D01*
X161389576Y-104872826D01*
X161389573Y-104872824D01*
X161385440Y-104868691D01*
X161385440Y-104038821D01*
X163131690Y-104038821D01*
X163131690Y-105379250D01*
X163290440Y-105538000D01*
X164390260Y-105538000D01*
X164390260Y-103688880D01*
X164644260Y-103688880D01*
X164644260Y-105538000D01*
X165744080Y-105538000D01*
X165902830Y-105379250D01*
X165902830Y-104038821D01*
X165877580Y-103977861D01*
X167020430Y-103977861D01*
X167020430Y-105318290D01*
X167179180Y-105477040D01*
X168279000Y-105477040D01*
X168279000Y-103627920D01*
X168533000Y-103627920D01*
X168533000Y-105477040D01*
X169632820Y-105477040D01*
X169791570Y-105318290D01*
X169791570Y-103977861D01*
X169694897Y-103744472D01*
X169516269Y-103565843D01*
X169282880Y-103469170D01*
X168691750Y-103469170D01*
X168533000Y-103627920D01*
X168279000Y-103627920D01*
X168120250Y-103469170D01*
X167529120Y-103469170D01*
X167295731Y-103565843D01*
X167117103Y-103744472D01*
X167020430Y-103977861D01*
X165877580Y-103977861D01*
X165806157Y-103805432D01*
X165627529Y-103626803D01*
X165394140Y-103530130D01*
X164803010Y-103530130D01*
X164644260Y-103688880D01*
X164390260Y-103688880D01*
X164231510Y-103530130D01*
X163640380Y-103530130D01*
X163406991Y-103626803D01*
X163228363Y-103805432D01*
X163131690Y-104038821D01*
X161385440Y-104038821D01*
X161385440Y-103545000D01*
X161341162Y-103309683D01*
X161202090Y-103093559D01*
X160989890Y-102948569D01*
X160738000Y-102897560D01*
X158738000Y-102897560D01*
X158502683Y-102941838D01*
X158286559Y-103080910D01*
X158141569Y-103293110D01*
X158090560Y-103545000D01*
X158090560Y-105245000D01*
X158134838Y-105480317D01*
X158273910Y-105696441D01*
X158486110Y-105841431D01*
X158738000Y-105892440D01*
X160153801Y-105892440D01*
X160153801Y-106834560D01*
X159351310Y-106834560D01*
X157385440Y-104868690D01*
X157385440Y-103545000D01*
X157341162Y-103309683D01*
X157202090Y-103093559D01*
X157103057Y-103025893D01*
X158723139Y-101405810D01*
X158723142Y-101405808D01*
X158880063Y-101170958D01*
X158880064Y-101170957D01*
X158935168Y-100893933D01*
X158935167Y-100893928D01*
X158935167Y-96976293D01*
X159072088Y-96839611D01*
X159227091Y-96466324D01*
X159227443Y-96062134D01*
X159073092Y-95688576D01*
X158787536Y-95402521D01*
X158414249Y-95247518D01*
X158219022Y-95247348D01*
X157089068Y-94117393D01*
X157089068Y-92201348D01*
X157451618Y-92201664D01*
X157564339Y-92155089D01*
X160948560Y-95539310D01*
X160948560Y-96863000D01*
X160992838Y-97098317D01*
X161131910Y-97314441D01*
X161344110Y-97459431D01*
X161596000Y-97510440D01*
X163396730Y-97510440D01*
X163396730Y-99482515D01*
X163396729Y-99482520D01*
X163442691Y-99713583D01*
X163451834Y-99759545D01*
X163558713Y-99919501D01*
X163608755Y-99994395D01*
X163650990Y-100036630D01*
X163650990Y-101260320D01*
X163695268Y-101495637D01*
X163834340Y-101711761D01*
X164046540Y-101856751D01*
X164298430Y-101907760D01*
X166478430Y-101907760D01*
X166713747Y-101863482D01*
X166929871Y-101724410D01*
X167074861Y-101512210D01*
X167125870Y-101260320D01*
X167125870Y-99660320D01*
X167081592Y-99425003D01*
X166942520Y-99208879D01*
X166730320Y-99063889D01*
X166478430Y-99012880D01*
X164844530Y-99012880D01*
X164844530Y-95163000D01*
X164948560Y-95163000D01*
X164948560Y-96863000D01*
X164992838Y-97098317D01*
X165131910Y-97314441D01*
X165344110Y-97459431D01*
X165596000Y-97510440D01*
X167117645Y-97510440D01*
X167130047Y-97518726D01*
X167207976Y-97570797D01*
X167485000Y-97625901D01*
X167485005Y-97625900D01*
X168139560Y-97625900D01*
X168139560Y-97918000D01*
X168183838Y-98153317D01*
X168322910Y-98369441D01*
X168535110Y-98514431D01*
X168787000Y-98565440D01*
X170311000Y-98565440D01*
X170546317Y-98521162D01*
X170762441Y-98382090D01*
X170907431Y-98169890D01*
X170958440Y-97918000D01*
X170958440Y-97187750D01*
X171454000Y-97187750D01*
X171454000Y-98044310D01*
X171550673Y-98277699D01*
X171729302Y-98456327D01*
X171962691Y-98553000D01*
X172565250Y-98553000D01*
X172724000Y-98394250D01*
X172724000Y-97029000D01*
X172978000Y-97029000D01*
X172978000Y-98394250D01*
X173136750Y-98553000D01*
X173739309Y-98553000D01*
X173972698Y-98456327D01*
X174151327Y-98277699D01*
X174248000Y-98044310D01*
X174248000Y-97187750D01*
X174089250Y-97029000D01*
X172978000Y-97029000D01*
X172724000Y-97029000D01*
X171612750Y-97029000D01*
X171454000Y-97187750D01*
X170958440Y-97187750D01*
X170958440Y-95886000D01*
X170934674Y-95759690D01*
X171454000Y-95759690D01*
X171454000Y-96616250D01*
X171612750Y-96775000D01*
X172724000Y-96775000D01*
X172724000Y-95409750D01*
X172978000Y-95409750D01*
X172978000Y-96775000D01*
X174089250Y-96775000D01*
X174248000Y-96616250D01*
X174248000Y-95759690D01*
X174151327Y-95526301D01*
X173972698Y-95347673D01*
X173739309Y-95251000D01*
X173136750Y-95251000D01*
X172978000Y-95409750D01*
X172724000Y-95409750D01*
X172565250Y-95251000D01*
X171962691Y-95251000D01*
X171729302Y-95347673D01*
X171550673Y-95526301D01*
X171454000Y-95759690D01*
X170934674Y-95759690D01*
X170914162Y-95650683D01*
X170775090Y-95434559D01*
X170562890Y-95289569D01*
X170311000Y-95238560D01*
X168787000Y-95238560D01*
X168551683Y-95282838D01*
X168335559Y-95421910D01*
X168243440Y-95556731D01*
X168243440Y-95163000D01*
X168199162Y-94927683D01*
X168060090Y-94711559D01*
X167847890Y-94566569D01*
X167596000Y-94515560D01*
X165596000Y-94515560D01*
X165360683Y-94559838D01*
X165144559Y-94698910D01*
X164999569Y-94911110D01*
X164948560Y-95163000D01*
X164844530Y-95163000D01*
X164844530Y-93067230D01*
X164789426Y-92790205D01*
X164632505Y-92555355D01*
X164632502Y-92555353D01*
X164418198Y-92341048D01*
X164418198Y-92318952D01*
X164584952Y-92152198D01*
X164861048Y-92152198D01*
X165401623Y-92692773D01*
X165636473Y-92849694D01*
X165913498Y-92904798D01*
X166474702Y-92904798D01*
X166751727Y-92849694D01*
X166986577Y-92692773D01*
X167143498Y-92457923D01*
X167153764Y-92406313D01*
X168097323Y-93349872D01*
X168097325Y-93349875D01*
X168139560Y-93378095D01*
X168139560Y-93854000D01*
X168183838Y-94089317D01*
X168322910Y-94305441D01*
X168535110Y-94450431D01*
X168787000Y-94501440D01*
X170311000Y-94501440D01*
X170546317Y-94457162D01*
X170762441Y-94318090D01*
X170907431Y-94105890D01*
X170958440Y-93854000D01*
X170958440Y-93123750D01*
X171454000Y-93123750D01*
X171454000Y-93980310D01*
X171550673Y-94213699D01*
X171729302Y-94392327D01*
X171962691Y-94489000D01*
X172565250Y-94489000D01*
X172724000Y-94330250D01*
X172724000Y-92965000D01*
X172978000Y-92965000D01*
X172978000Y-94330250D01*
X173136750Y-94489000D01*
X173739309Y-94489000D01*
X173972698Y-94392327D01*
X174151327Y-94213699D01*
X174248000Y-93980310D01*
X174248000Y-93123750D01*
X174089250Y-92965000D01*
X172978000Y-92965000D01*
X172724000Y-92965000D01*
X171612750Y-92965000D01*
X171454000Y-93123750D01*
X170958440Y-93123750D01*
X170958440Y-91822000D01*
X170934674Y-91695690D01*
X171454000Y-91695690D01*
X171454000Y-92552250D01*
X171612750Y-92711000D01*
X172724000Y-92711000D01*
X172724000Y-91345750D01*
X172978000Y-91345750D01*
X172978000Y-92711000D01*
X174089250Y-92711000D01*
X174248000Y-92552250D01*
X174248000Y-91695690D01*
X174151327Y-91462301D01*
X173972698Y-91283673D01*
X173739309Y-91187000D01*
X173136750Y-91187000D01*
X172978000Y-91345750D01*
X172724000Y-91345750D01*
X172565250Y-91187000D01*
X171962691Y-91187000D01*
X171729302Y-91283673D01*
X171550673Y-91462301D01*
X171454000Y-91695690D01*
X170934674Y-91695690D01*
X170914162Y-91586683D01*
X170775090Y-91370559D01*
X170562890Y-91225569D01*
X170311000Y-91174560D01*
X168787000Y-91174560D01*
X168551683Y-91218838D01*
X168335559Y-91357910D01*
X168261398Y-91466448D01*
X167958218Y-91163268D01*
X169281138Y-89840347D01*
X169323399Y-89942627D01*
X169608955Y-90228682D01*
X169982242Y-90383685D01*
X170386432Y-90384037D01*
X170759990Y-90229686D01*
X171046045Y-89944130D01*
X171201048Y-89570843D01*
X171201218Y-89375617D01*
X172909449Y-87667385D01*
X173127000Y-87711440D01*
X174627000Y-87711440D01*
X174862317Y-87667162D01*
X175078441Y-87528090D01*
X175223431Y-87315890D01*
X175274440Y-87064000D01*
X175274440Y-86164000D01*
X175230162Y-85928683D01*
X175091090Y-85712559D01*
X174878890Y-85567569D01*
X174627000Y-85516560D01*
X173127000Y-85516560D01*
X172891683Y-85560838D01*
X172675559Y-85699910D01*
X172530569Y-85912110D01*
X172502243Y-86051990D01*
X172427210Y-86102125D01*
X172427208Y-86102128D01*
X170517601Y-88011734D01*
X170517601Y-83239627D01*
X170893228Y-82864000D01*
X172479560Y-82864000D01*
X172479560Y-83764000D01*
X172523838Y-83999317D01*
X172662910Y-84215441D01*
X172875110Y-84360431D01*
X173127000Y-84411440D01*
X174627000Y-84411440D01*
X174862317Y-84367162D01*
X175078441Y-84228090D01*
X175223431Y-84015890D01*
X175274440Y-83764000D01*
X175274440Y-82864000D01*
X175230162Y-82628683D01*
X175091090Y-82412559D01*
X174878890Y-82267569D01*
X174627000Y-82216560D01*
X173127000Y-82216560D01*
X172891683Y-82260838D01*
X172675559Y-82399910D01*
X172530569Y-82612110D01*
X172479560Y-82864000D01*
X170893228Y-82864000D01*
X173629576Y-80127652D01*
X173786498Y-79892801D01*
X173841602Y-79615777D01*
X173841601Y-79615772D01*
X173841601Y-78628228D01*
X173841602Y-78628223D01*
X173786498Y-78351199D01*
X173729070Y-78265252D01*
X173629576Y-78116348D01*
X173629573Y-78116346D01*
X173094652Y-77581424D01*
X173029521Y-77537905D01*
X172859802Y-77424503D01*
X172813840Y-77415360D01*
X172582777Y-77369398D01*
X172582772Y-77369399D01*
X171595223Y-77369399D01*
X171318198Y-77424503D01*
X171083348Y-77581424D01*
X171083346Y-77581427D01*
X170533718Y-78131055D01*
X170341370Y-77938371D01*
X169828100Y-77725243D01*
X169272339Y-77724758D01*
X169203819Y-77753070D01*
X169032174Y-77581424D01*
X168967043Y-77537905D01*
X168797324Y-77424503D01*
X168751362Y-77415360D01*
X168520299Y-77369398D01*
X168520294Y-77369399D01*
X163139706Y-77369399D01*
X163139701Y-77369398D01*
X162940440Y-77409034D01*
X162940440Y-77124442D01*
X175570000Y-77214654D01*
G36*
X153963560Y-107858309D02*
X153963560Y-109182000D01*
X154007838Y-109417317D01*
X154146910Y-109633441D01*
X154359110Y-109778431D01*
X154611000Y-109829440D01*
X156611000Y-109829440D01*
X156791449Y-109795486D01*
X157015786Y-110019822D01*
X157015788Y-110019825D01*
X157082136Y-110064157D01*
X157250639Y-110176747D01*
X157527663Y-110231851D01*
X157527668Y-110231850D01*
X160191900Y-110231850D01*
X160191900Y-110950538D01*
X160169377Y-110928015D01*
X160054324Y-111043068D01*
X159986265Y-110802069D01*
X159466966Y-110617233D01*
X158916462Y-110645195D01*
X158537735Y-110802069D01*
X158469675Y-111043070D01*
X159262000Y-111835395D01*
X159276143Y-111821253D01*
X159455748Y-112000858D01*
X159441605Y-112015000D01*
X159455748Y-112029143D01*
X159276143Y-112208748D01*
X159262000Y-112194605D01*
X159247858Y-112208748D01*
X159068253Y-112029143D01*
X159082395Y-112015000D01*
X158290070Y-111222675D01*
X158049069Y-111290735D01*
X157864233Y-111810034D01*
X157892195Y-112360538D01*
X158049069Y-112739265D01*
X158290068Y-112807324D01*
X158283563Y-112813829D01*
X152712552Y-112813829D01*
X152716498Y-112807923D01*
X152740546Y-112687027D01*
X152771603Y-112530898D01*
X152771602Y-112530893D01*
X152771602Y-111793090D01*
X152771603Y-111793085D01*
X152716498Y-111516061D01*
X152716498Y-111516060D01*
X152559577Y-111281210D01*
X151984899Y-110706532D01*
X151984899Y-105879649D01*
X153963560Y-107858309D01*
X153963560Y-107858309D01*
G37*
X153963560Y-107858309D02*
X153963560Y-109182000D01*
X154007838Y-109417317D01*
X154146910Y-109633441D01*
X154359110Y-109778431D01*
X154611000Y-109829440D01*
X156611000Y-109829440D01*
X156791449Y-109795486D01*
X157015786Y-110019822D01*
X157015788Y-110019825D01*
X157082136Y-110064157D01*
X157250639Y-110176747D01*
X157527663Y-110231851D01*
X157527668Y-110231850D01*
X160191900Y-110231850D01*
X160191900Y-110950538D01*
X160169377Y-110928015D01*
X160054324Y-111043068D01*
X159986265Y-110802069D01*
X159466966Y-110617233D01*
X158916462Y-110645195D01*
X158537735Y-110802069D01*
X158469675Y-111043070D01*
X159262000Y-111835395D01*
X159276143Y-111821253D01*
X159455748Y-112000858D01*
X159441605Y-112015000D01*
X159455748Y-112029143D01*
X159276143Y-112208748D01*
X159262000Y-112194605D01*
X159247858Y-112208748D01*
X159068253Y-112029143D01*
X159082395Y-112015000D01*
X158290070Y-111222675D01*
X158049069Y-111290735D01*
X157864233Y-111810034D01*
X157892195Y-112360538D01*
X158049069Y-112739265D01*
X158290068Y-112807324D01*
X158283563Y-112813829D01*
X152712552Y-112813829D01*
X152716498Y-112807923D01*
X152740546Y-112687027D01*
X152771603Y-112530898D01*
X152771602Y-112530893D01*
X152771602Y-111793090D01*
X152771603Y-111793085D01*
X152716498Y-111516061D01*
X152716498Y-111516060D01*
X152559577Y-111281210D01*
X151984899Y-110706532D01*
X151984899Y-105879649D01*
X153963560Y-107858309D01*
G36*
X142465371Y-101560680D02*
X142118320Y-101560680D01*
X141959570Y-101719430D01*
X141959570Y-102868680D01*
X141979570Y-102868680D01*
X141979570Y-103122680D01*
X141959570Y-103122680D01*
X141959570Y-104271930D01*
X142118320Y-104430680D01*
X142661048Y-104430680D01*
X142677396Y-104455146D01*
X145545992Y-107323742D01*
X145545824Y-107517208D01*
X145700175Y-107890766D01*
X145985731Y-108176821D01*
X146359018Y-108331824D01*
X146763208Y-108332176D01*
X147136766Y-108177825D01*
X147321113Y-107993800D01*
X148284484Y-108957171D01*
X148284486Y-108957174D01*
X148519336Y-109114095D01*
X148796361Y-109169199D01*
X149998047Y-109169199D01*
X150179198Y-109350349D01*
X150179198Y-110072000D01*
X149863750Y-110072000D01*
X149705000Y-110230750D01*
X149705000Y-111380000D01*
X149725000Y-111380000D01*
X149725000Y-111634000D01*
X149705000Y-111634000D01*
X149705000Y-111654000D01*
X149451000Y-111654000D01*
X149451000Y-111634000D01*
X149431000Y-111634000D01*
X149431000Y-111380000D01*
X149451000Y-111380000D01*
X149451000Y-110230750D01*
X149292250Y-110072000D01*
X148451691Y-110072000D01*
X148218302Y-110168673D01*
X148039673Y-110347301D01*
X147946662Y-110571850D01*
X147303236Y-109928424D01*
X147253282Y-109895046D01*
X147068386Y-109771503D01*
X147022424Y-109762360D01*
X146791361Y-109716398D01*
X146791356Y-109716399D01*
X142531086Y-109716399D01*
X141199769Y-108385081D01*
X141199769Y-104430680D01*
X141546820Y-104430680D01*
X141705570Y-104271930D01*
X141705570Y-103122680D01*
X141685570Y-103122680D01*
X141685570Y-102868680D01*
X141705570Y-102868680D01*
X141705570Y-101719430D01*
X141546820Y-101560680D01*
X141199769Y-101560680D01*
X141199769Y-99661031D01*
X142217442Y-98643357D01*
X142217445Y-98643355D01*
X142245665Y-98601120D01*
X142465371Y-98601120D01*
X142465371Y-101560680D01*
X142465371Y-101560680D01*
G37*
X142465371Y-101560680D02*
X142118320Y-101560680D01*
X141959570Y-101719430D01*
X141959570Y-102868680D01*
X141979570Y-102868680D01*
X141979570Y-103122680D01*
X141959570Y-103122680D01*
X141959570Y-104271930D01*
X142118320Y-104430680D01*
X142661048Y-104430680D01*
X142677396Y-104455146D01*
X145545992Y-107323742D01*
X145545824Y-107517208D01*
X145700175Y-107890766D01*
X145985731Y-108176821D01*
X146359018Y-108331824D01*
X146763208Y-108332176D01*
X147136766Y-108177825D01*
X147321113Y-107993800D01*
X148284484Y-108957171D01*
X148284486Y-108957174D01*
X148519336Y-109114095D01*
X148796361Y-109169199D01*
X149998047Y-109169199D01*
X150179198Y-109350349D01*
X150179198Y-110072000D01*
X149863750Y-110072000D01*
X149705000Y-110230750D01*
X149705000Y-111380000D01*
X149725000Y-111380000D01*
X149725000Y-111634000D01*
X149705000Y-111634000D01*
X149705000Y-111654000D01*
X149451000Y-111654000D01*
X149451000Y-111634000D01*
X149431000Y-111634000D01*
X149431000Y-111380000D01*
X149451000Y-111380000D01*
X149451000Y-110230750D01*
X149292250Y-110072000D01*
X148451691Y-110072000D01*
X148218302Y-110168673D01*
X148039673Y-110347301D01*
X147946662Y-110571850D01*
X147303236Y-109928424D01*
X147253282Y-109895046D01*
X147068386Y-109771503D01*
X147022424Y-109762360D01*
X146791361Y-109716398D01*
X146791356Y-109716399D01*
X142531086Y-109716399D01*
X141199769Y-108385081D01*
X141199769Y-104430680D01*
X141546820Y-104430680D01*
X141705570Y-104271930D01*
X141705570Y-103122680D01*
X141685570Y-103122680D01*
X141685570Y-102868680D01*
X141705570Y-102868680D01*
X141705570Y-101719430D01*
X141546820Y-101560680D01*
X141199769Y-101560680D01*
X141199769Y-99661031D01*
X142217442Y-98643357D01*
X142217445Y-98643355D01*
X142245665Y-98601120D01*
X142465371Y-98601120D01*
X142465371Y-101560680D01*
G36*
X150151774Y-89318432D02*
X150151774Y-90679878D01*
X150151773Y-90679883D01*
X150194072Y-90892527D01*
X150206878Y-90956908D01*
X150336748Y-91151273D01*
X150363799Y-91191758D01*
X151670231Y-92498189D01*
X151670231Y-95169717D01*
X151670230Y-95169722D01*
X151694070Y-95289569D01*
X151725335Y-95446747D01*
X151850526Y-95634110D01*
X151882256Y-95681597D01*
X151888322Y-95687663D01*
X151888322Y-95723320D01*
X151196180Y-95723320D01*
X151037430Y-95882070D01*
X151037430Y-97031320D01*
X151057430Y-97031320D01*
X151057430Y-97285320D01*
X151037430Y-97285320D01*
X151037430Y-98434570D01*
X151196180Y-98593320D01*
X151670231Y-98593320D01*
X151670231Y-98973707D01*
X149168854Y-101475084D01*
X149011933Y-101709934D01*
X149011933Y-101709935D01*
X148956828Y-101986959D01*
X148956829Y-101986964D01*
X148956829Y-104013676D01*
X148956828Y-104013681D01*
X149002790Y-104244744D01*
X149011933Y-104290706D01*
X149040866Y-104334007D01*
X149168854Y-104525556D01*
X150537099Y-105893800D01*
X150537099Y-107768979D01*
X150528960Y-107767360D01*
X150297897Y-107721398D01*
X150297892Y-107721399D01*
X149096210Y-107721399D01*
X144750199Y-103375387D01*
X144750199Y-92656269D01*
X144730126Y-92555355D01*
X144734034Y-92575000D01*
X145007250Y-92575000D01*
X145166000Y-92416250D01*
X145166000Y-91567000D01*
X145146000Y-91567000D01*
X145146000Y-91313000D01*
X145166000Y-91313000D01*
X145166000Y-91293000D01*
X145420000Y-91293000D01*
X145420000Y-91313000D01*
X145440000Y-91313000D01*
X145440000Y-91567000D01*
X145420000Y-91567000D01*
X145420000Y-92416250D01*
X145578750Y-92575000D01*
X146419309Y-92575000D01*
X146652698Y-92478327D01*
X146831327Y-92299699D01*
X146928000Y-92066310D01*
X146928000Y-91725750D01*
X146769252Y-91567002D01*
X146896252Y-91567002D01*
X148236758Y-92907508D01*
X148236758Y-99233490D01*
X148099837Y-99370172D01*
X147944834Y-99743459D01*
X147944482Y-100147649D01*
X148098833Y-100521207D01*
X148384389Y-100807262D01*
X148757676Y-100962265D01*
X149161866Y-100962617D01*
X149535424Y-100808266D01*
X149821479Y-100522710D01*
X149976482Y-100149423D01*
X149976834Y-99745233D01*
X149822483Y-99371675D01*
X149684558Y-99233509D01*
X149684558Y-98589359D01*
X149694121Y-98593320D01*
X150624680Y-98593320D01*
X150783430Y-98434570D01*
X150783430Y-97285320D01*
X150763430Y-97285320D01*
X150763430Y-97031320D01*
X150783430Y-97031320D01*
X150783430Y-95882070D01*
X150624680Y-95723320D01*
X149694121Y-95723320D01*
X149684558Y-95727281D01*
X149684558Y-92607663D01*
X149684559Y-92607658D01*
X149629455Y-92330634D01*
X149472533Y-92095783D01*
X146940440Y-89563690D01*
X146940440Y-88940000D01*
X146896162Y-88704683D01*
X146757090Y-88488559D01*
X146687289Y-88440866D01*
X146744441Y-88404090D01*
X146873966Y-88214524D01*
X147246067Y-88214848D01*
X147619625Y-88060497D01*
X147905680Y-87774941D01*
X148060683Y-87401654D01*
X148060835Y-87227493D01*
X150151774Y-89318432D01*
X150151774Y-89318432D01*
G37*
X150151774Y-89318432D02*
X150151774Y-90679878D01*
X150151773Y-90679883D01*
X150194072Y-90892527D01*
X150206878Y-90956908D01*
X150336748Y-91151273D01*
X150363799Y-91191758D01*
X151670231Y-92498189D01*
X151670231Y-95169717D01*
X151670230Y-95169722D01*
X151694070Y-95289569D01*
X151725335Y-95446747D01*
X151850526Y-95634110D01*
X151882256Y-95681597D01*
X151888322Y-95687663D01*
X151888322Y-95723320D01*
X151196180Y-95723320D01*
X151037430Y-95882070D01*
X151037430Y-97031320D01*
X151057430Y-97031320D01*
X151057430Y-97285320D01*
X151037430Y-97285320D01*
X151037430Y-98434570D01*
X151196180Y-98593320D01*
X151670231Y-98593320D01*
X151670231Y-98973707D01*
X149168854Y-101475084D01*
X149011933Y-101709934D01*
X149011933Y-101709935D01*
X148956828Y-101986959D01*
X148956829Y-101986964D01*
X148956829Y-104013676D01*
X148956828Y-104013681D01*
X149002790Y-104244744D01*
X149011933Y-104290706D01*
X149040866Y-104334007D01*
X149168854Y-104525556D01*
X150537099Y-105893800D01*
X150537099Y-107768979D01*
X150528960Y-107767360D01*
X150297897Y-107721398D01*
X150297892Y-107721399D01*
X149096210Y-107721399D01*
X144750199Y-103375387D01*
X144750199Y-92656269D01*
X144730126Y-92555355D01*
X144734034Y-92575000D01*
X145007250Y-92575000D01*
X145166000Y-92416250D01*
X145166000Y-91567000D01*
X145146000Y-91567000D01*
X145146000Y-91313000D01*
X145166000Y-91313000D01*
X145166000Y-91293000D01*
X145420000Y-91293000D01*
X145420000Y-91313000D01*
X145440000Y-91313000D01*
X145440000Y-91567000D01*
X145420000Y-91567000D01*
X145420000Y-92416250D01*
X145578750Y-92575000D01*
X146419309Y-92575000D01*
X146652698Y-92478327D01*
X146831327Y-92299699D01*
X146928000Y-92066310D01*
X146928000Y-91725750D01*
X146769252Y-91567002D01*
X146896252Y-91567002D01*
X148236758Y-92907508D01*
X148236758Y-99233490D01*
X148099837Y-99370172D01*
X147944834Y-99743459D01*
X147944482Y-100147649D01*
X148098833Y-100521207D01*
X148384389Y-100807262D01*
X148757676Y-100962265D01*
X149161866Y-100962617D01*
X149535424Y-100808266D01*
X149821479Y-100522710D01*
X149976482Y-100149423D01*
X149976834Y-99745233D01*
X149822483Y-99371675D01*
X149684558Y-99233509D01*
X149684558Y-98589359D01*
X149694121Y-98593320D01*
X150624680Y-98593320D01*
X150783430Y-98434570D01*
X150783430Y-97285320D01*
X150763430Y-97285320D01*
X150763430Y-97031320D01*
X150783430Y-97031320D01*
X150783430Y-95882070D01*
X150624680Y-95723320D01*
X149694121Y-95723320D01*
X149684558Y-95727281D01*
X149684558Y-92607663D01*
X149684559Y-92607658D01*
X149629455Y-92330634D01*
X149472533Y-92095783D01*
X146940440Y-89563690D01*
X146940440Y-88940000D01*
X146896162Y-88704683D01*
X146757090Y-88488559D01*
X146687289Y-88440866D01*
X146744441Y-88404090D01*
X146873966Y-88214524D01*
X147246067Y-88214848D01*
X147619625Y-88060497D01*
X147905680Y-87774941D01*
X148060683Y-87401654D01*
X148060835Y-87227493D01*
X150151774Y-89318432D01*
G36*
X155641268Y-94417238D02*
X155641267Y-94417243D01*
X155669632Y-94559838D01*
X155696372Y-94694268D01*
X155852334Y-94927683D01*
X155853293Y-94929118D01*
X157195259Y-96271084D01*
X157195091Y-96464550D01*
X157349442Y-96838108D01*
X157487367Y-96976274D01*
X157487367Y-99056919D01*
X157399879Y-99020680D01*
X156469320Y-99020680D01*
X156310570Y-99179430D01*
X156310570Y-100328680D01*
X156330570Y-100328680D01*
X156330570Y-100582680D01*
X156310570Y-100582680D01*
X156310570Y-101731930D01*
X156330045Y-101751405D01*
X155226125Y-102855325D01*
X155197905Y-102897560D01*
X155195199Y-102897560D01*
X155195199Y-101890680D01*
X155897820Y-101890680D01*
X156056570Y-101731930D01*
X156056570Y-100582680D01*
X156036570Y-100582680D01*
X156036570Y-100328680D01*
X156056570Y-100328680D01*
X156056570Y-99179430D01*
X155897820Y-99020680D01*
X155195199Y-99020680D01*
X155195199Y-92722695D01*
X155641268Y-92276626D01*
X155641268Y-94417238D01*
X155641268Y-94417238D01*
G37*
X155641268Y-94417238D02*
X155641267Y-94417243D01*
X155669632Y-94559838D01*
X155696372Y-94694268D01*
X155852334Y-94927683D01*
X155853293Y-94929118D01*
X157195259Y-96271084D01*
X157195091Y-96464550D01*
X157349442Y-96838108D01*
X157487367Y-96976274D01*
X157487367Y-99056919D01*
X157399879Y-99020680D01*
X156469320Y-99020680D01*
X156310570Y-99179430D01*
X156310570Y-100328680D01*
X156330570Y-100328680D01*
X156330570Y-100582680D01*
X156310570Y-100582680D01*
X156310570Y-101731930D01*
X156330045Y-101751405D01*
X155226125Y-102855325D01*
X155197905Y-102897560D01*
X155195199Y-102897560D01*
X155195199Y-101890680D01*
X155897820Y-101890680D01*
X156056570Y-101731930D01*
X156056570Y-100582680D01*
X156036570Y-100582680D01*
X156036570Y-100328680D01*
X156056570Y-100328680D01*
X156056570Y-99179430D01*
X155897820Y-99020680D01*
X155195199Y-99020680D01*
X155195199Y-92722695D01*
X155641268Y-92276626D01*
X155641268Y-94417238D01*
G36*
X141355000Y-90044000D02*
X141375000Y-90044000D01*
X141375000Y-90298000D01*
X141355000Y-90298000D01*
X141355000Y-91511924D01*
X141589913Y-91656184D01*
X142142320Y-91462954D01*
X142465371Y-91174320D01*
X142465371Y-95706240D01*
X140615570Y-95706240D01*
X140380253Y-95750518D01*
X140164129Y-95889590D01*
X140085000Y-96005399D01*
X140085000Y-91258637D01*
X140313680Y-91462954D01*
X140866087Y-91656184D01*
X141101000Y-91511924D01*
X141101000Y-90298000D01*
X141081000Y-90298000D01*
X141081000Y-90044000D01*
X141101000Y-90044000D01*
X141101000Y-90024000D01*
X141355000Y-90024000D01*
X141355000Y-90044000D01*
X141355000Y-90044000D01*
G37*
X141355000Y-90044000D02*
X141375000Y-90044000D01*
X141375000Y-90298000D01*
X141355000Y-90298000D01*
X141355000Y-91511924D01*
X141589913Y-91656184D01*
X142142320Y-91462954D01*
X142465371Y-91174320D01*
X142465371Y-95706240D01*
X140615570Y-95706240D01*
X140380253Y-95750518D01*
X140164129Y-95889590D01*
X140085000Y-96005399D01*
X140085000Y-91258637D01*
X140313680Y-91462954D01*
X140866087Y-91656184D01*
X141101000Y-91511924D01*
X141101000Y-90298000D01*
X141081000Y-90298000D01*
X141081000Y-90044000D01*
X141101000Y-90044000D01*
X141101000Y-90024000D01*
X141355000Y-90024000D01*
X141355000Y-90044000D01*
G36*
X167550750Y-83187000D02*
X168650000Y-83187000D01*
X168650000Y-83167000D01*
X168904000Y-83167000D01*
X168904000Y-83187000D01*
X168924000Y-83187000D01*
X168924000Y-83441000D01*
X168904000Y-83441000D01*
X168904000Y-84240250D01*
X169062750Y-84399000D01*
X169069801Y-84399000D01*
X169069801Y-85255252D01*
X168213550Y-84399000D01*
X168491250Y-84399000D01*
X168650000Y-84240250D01*
X168650000Y-83441000D01*
X167550750Y-83441000D01*
X167392000Y-83599750D01*
X167392000Y-83653226D01*
X167385512Y-83648891D01*
X167339550Y-83639748D01*
X167108487Y-83593786D01*
X167108482Y-83593787D01*
X162940440Y-83593787D01*
X162940440Y-83041588D01*
X167405338Y-83041588D01*
X167550750Y-83187000D01*
X167550750Y-83187000D01*
G37*
X167550750Y-83187000D02*
X168650000Y-83187000D01*
X168650000Y-83167000D01*
X168904000Y-83167000D01*
X168904000Y-83187000D01*
X168924000Y-83187000D01*
X168924000Y-83441000D01*
X168904000Y-83441000D01*
X168904000Y-84240250D01*
X169062750Y-84399000D01*
X169069801Y-84399000D01*
X169069801Y-85255252D01*
X168213550Y-84399000D01*
X168491250Y-84399000D01*
X168650000Y-84240250D01*
X168650000Y-83441000D01*
X167550750Y-83441000D01*
X167392000Y-83599750D01*
X167392000Y-83653226D01*
X167385512Y-83648891D01*
X167339550Y-83639748D01*
X167108487Y-83593786D01*
X167108482Y-83593787D01*
X162940440Y-83593787D01*
X162940440Y-83041588D01*
X167405338Y-83041588D01*
X167550750Y-83187000D01*
G36*
X172282748Y-79107858D02*
X172268605Y-79122000D01*
X172282748Y-79136143D01*
X172103143Y-79315748D01*
X172089000Y-79301605D01*
X172074858Y-79315748D01*
X171895253Y-79136143D01*
X171909395Y-79122000D01*
X171895253Y-79107858D01*
X172074858Y-78928253D01*
X172089000Y-78942395D01*
X172103143Y-78928253D01*
X172282748Y-79107858D01*
X172282748Y-79107858D01*
G37*
X172282748Y-79107858D02*
X172268605Y-79122000D01*
X172282748Y-79136143D01*
X172103143Y-79315748D01*
X172089000Y-79301605D01*
X172074858Y-79315748D01*
X171895253Y-79136143D01*
X171909395Y-79122000D01*
X171895253Y-79107858D01*
X172074858Y-78928253D01*
X172089000Y-78942395D01*
X172103143Y-78928253D01*
X172282748Y-79107858D01*
M02*
