G04 #@! TF.FileFunction,Legend,Top*
%FSLAX46Y46*%
G04 Gerber Fmt 4.6, Leading zero omitted, Abs format (unit mm)*
G04 Created by KiCad (PCBNEW (2015-08-30 BZR 6134, Git 4e94d52)-product) date 02-Sep-15 10:21:18 AM*
%MOMM*%
G01*
G04 APERTURE LIST*
%ADD10C,0.100000*%
%ADD11C,0.300000*%
%ADD12C,0.150000*%
%ADD13R,3.900120X3.900120*%
%ADD14R,2.400000X2.000000*%
%ADD15R,1.901140X3.399740*%
%ADD16C,1.901140*%
%ADD17R,1.924000X2.432000*%
%ADD18R,2.432000X2.127200*%
%ADD19O,2.432000X2.127200*%
%ADD20R,2.400000X2.100000*%
%ADD21R,2.100000X2.400000*%
%ADD22C,1.924000*%
%ADD23R,2.580000X2.000000*%
%ADD24R,2.432000X4.057600*%
%ADD25R,2.432000X1.416000*%
%ADD26R,1.900000X1.300000*%
%ADD27O,2.899360X2.398980*%
%ADD28R,2.400000X1.400000*%
G04 APERTURE END LIST*
D10*
D11*
X139868257Y-92291200D02*
X139725400Y-92219771D01*
X139511114Y-92219771D01*
X139296829Y-92291200D01*
X139153971Y-92434057D01*
X139082543Y-92576914D01*
X139011114Y-92862629D01*
X139011114Y-93076914D01*
X139082543Y-93362629D01*
X139153971Y-93505486D01*
X139296829Y-93648343D01*
X139511114Y-93719771D01*
X139653971Y-93719771D01*
X139868257Y-93648343D01*
X139939686Y-93576914D01*
X139939686Y-93076914D01*
X139653971Y-93076914D01*
X175589511Y-111454822D02*
X175589511Y-112311965D01*
X175589511Y-111883393D02*
X174089511Y-111883393D01*
X174303797Y-112026250D01*
X174446654Y-112169108D01*
X174518083Y-112311965D01*
X174232369Y-110883394D02*
X174160940Y-110811965D01*
X174089511Y-110669108D01*
X174089511Y-110311965D01*
X174160940Y-110169108D01*
X174232369Y-110097679D01*
X174375226Y-110026251D01*
X174518083Y-110026251D01*
X174732369Y-110097679D01*
X175589511Y-110954822D01*
X175589511Y-110026251D01*
X174589511Y-109526251D02*
X175589511Y-109169108D01*
X174589511Y-108811966D01*
X174213971Y-105411557D02*
X175428257Y-105411557D01*
X175571114Y-105340129D01*
X175642543Y-105268700D01*
X175713971Y-105125843D01*
X175713971Y-104840129D01*
X175642543Y-104697271D01*
X175571114Y-104625843D01*
X175428257Y-104554414D01*
X174213971Y-104554414D01*
X175642543Y-103911557D02*
X175713971Y-103697271D01*
X175713971Y-103340128D01*
X175642543Y-103197271D01*
X175571114Y-103125842D01*
X175428257Y-103054414D01*
X175285400Y-103054414D01*
X175142543Y-103125842D01*
X175071114Y-103197271D01*
X174999686Y-103340128D01*
X174928257Y-103625842D01*
X174856829Y-103768700D01*
X174785400Y-103840128D01*
X174642543Y-103911557D01*
X174499686Y-103911557D01*
X174356829Y-103840128D01*
X174285400Y-103768700D01*
X174213971Y-103625842D01*
X174213971Y-103268700D01*
X174285400Y-103054414D01*
X174928257Y-101911557D02*
X174999686Y-101697271D01*
X175071114Y-101625843D01*
X175213971Y-101554414D01*
X175428257Y-101554414D01*
X175571114Y-101625843D01*
X175642543Y-101697271D01*
X175713971Y-101840129D01*
X175713971Y-102411557D01*
X174213971Y-102411557D01*
X174213971Y-101911557D01*
X174285400Y-101768700D01*
X174356829Y-101697271D01*
X174499686Y-101625843D01*
X174642543Y-101625843D01*
X174785400Y-101697271D01*
X174856829Y-101768700D01*
X174928257Y-101911557D01*
X174928257Y-102411557D01*
D12*
X164159120Y-125794500D02*
X173160880Y-125794500D01*
X164159120Y-129294620D02*
X173160880Y-129294620D01*
X173160880Y-129294620D02*
X173160880Y-114793760D01*
X173160880Y-114793760D02*
X164159120Y-114793760D01*
X164159120Y-114793760D02*
X164159120Y-129294620D01*
X148578000Y-110482000D02*
X146578000Y-110482000D01*
X146578000Y-112532000D02*
X148578000Y-112532000D01*
X148725320Y-116026820D02*
X146725320Y-116026820D01*
X146725320Y-118076820D02*
X148725320Y-118076820D01*
X165716140Y-110264940D02*
X165716140Y-105063020D01*
X163318380Y-105063020D02*
X163318380Y-110264940D01*
X162218560Y-112263920D02*
X163318380Y-112263920D01*
X162718940Y-112863360D02*
X162718940Y-111664480D01*
X163318380Y-111659400D02*
X165716140Y-111659400D01*
X169604880Y-110203980D02*
X169604880Y-105002060D01*
X167207120Y-105002060D02*
X167207120Y-110203980D01*
X166107300Y-112202960D02*
X167207120Y-112202960D01*
X166607680Y-112802400D02*
X166607680Y-111603520D01*
X167207120Y-111598440D02*
X169604880Y-111598440D01*
X157062360Y-114285760D02*
X158063120Y-114285760D01*
X157562740Y-114786140D02*
X157562740Y-113785380D01*
X162411600Y-113285000D02*
G75*
G03X162411600Y-113285000I-3149600J0D01*
G01*
X173740000Y-93981000D02*
X173994000Y-93981000D01*
X173994000Y-93981000D02*
X173994000Y-91695000D01*
X173994000Y-91695000D02*
X173740000Y-91695000D01*
X173740000Y-93981000D02*
X173740000Y-91695000D01*
X173740000Y-91695000D02*
X172089000Y-91695000D01*
X170311000Y-93981000D02*
X168660000Y-93981000D01*
X168660000Y-93981000D02*
X168660000Y-91695000D01*
X168660000Y-91695000D02*
X170311000Y-91695000D01*
X172089000Y-93981000D02*
X173740000Y-93981000D01*
X173740000Y-98045000D02*
X173994000Y-98045000D01*
X173994000Y-98045000D02*
X173994000Y-95759000D01*
X173994000Y-95759000D02*
X173740000Y-95759000D01*
X173740000Y-98045000D02*
X173740000Y-95759000D01*
X173740000Y-95759000D02*
X172089000Y-95759000D01*
X170311000Y-98045000D02*
X168660000Y-98045000D01*
X168660000Y-98045000D02*
X168660000Y-95759000D01*
X168660000Y-95759000D02*
X170311000Y-95759000D01*
X172089000Y-98045000D02*
X173740000Y-98045000D01*
X170615800Y-105969800D02*
X170615800Y-111049800D01*
X170615800Y-111049800D02*
X173155800Y-111049800D01*
X173155800Y-111049800D02*
X173155800Y-105969800D01*
X173435800Y-103149800D02*
X173435800Y-104699800D01*
X173155800Y-105969800D02*
X170615800Y-105969800D01*
X170335800Y-104699800D02*
X170335800Y-103149800D01*
X170335800Y-103149800D02*
X173435800Y-103149800D01*
X139678000Y-80011000D02*
X139678000Y-78461000D01*
X139678000Y-78461000D02*
X142778000Y-78461000D01*
X142778000Y-78461000D02*
X142778000Y-80011000D01*
X142498000Y-81281000D02*
X142498000Y-91441000D01*
X142498000Y-91441000D02*
X139958000Y-91441000D01*
X139958000Y-91441000D02*
X139958000Y-81281000D01*
X142498000Y-81281000D02*
X139958000Y-81281000D01*
X158611000Y-109407000D02*
X156611000Y-109407000D01*
X156611000Y-107257000D02*
X158611000Y-107257000D01*
X156738000Y-103320000D02*
X158738000Y-103320000D01*
X158738000Y-105470000D02*
X156738000Y-105470000D01*
X166433000Y-87139000D02*
X166433000Y-89139000D01*
X164283000Y-89139000D02*
X164283000Y-87139000D01*
X165596000Y-97088000D02*
X163596000Y-97088000D01*
X163596000Y-94938000D02*
X165596000Y-94938000D01*
X165993000Y-77090000D02*
X165993000Y-78360000D01*
X166780400Y-77839300D02*
X166742300Y-77585300D01*
X166742300Y-77585300D02*
X166564500Y-77305900D01*
X166564500Y-77305900D02*
X166247000Y-77090000D01*
X166247000Y-77090000D02*
X165802500Y-77077300D01*
X165802500Y-77077300D02*
X165446900Y-77280500D01*
X165446900Y-77280500D02*
X165269100Y-77572600D01*
X165269100Y-77572600D02*
X165218300Y-77890100D01*
X165218300Y-77890100D02*
X165319900Y-78296500D01*
X165319900Y-78296500D02*
X165662800Y-78550500D01*
X165662800Y-78550500D02*
X165840600Y-78639400D01*
X174375000Y-80900000D02*
X164723000Y-80900000D01*
X164723000Y-77852000D02*
X164723000Y-76582000D01*
X164723000Y-76582000D02*
X174375000Y-76582000D01*
X174375000Y-76582000D02*
X174375000Y-81662000D01*
X164723000Y-81662000D02*
X164723000Y-79122000D01*
X164723000Y-79122000D02*
X164723000Y-77852000D01*
X159546110Y-99907780D02*
X162046110Y-99907780D01*
X162046110Y-99907780D02*
X162046110Y-101007780D01*
X162046110Y-101007780D02*
X159546110Y-101007780D01*
X159546110Y-101007780D02*
X159546110Y-99907780D01*
X159296110Y-101257780D02*
X162296110Y-101257780D01*
X159296110Y-99657780D02*
X162296110Y-99657780D01*
X162296110Y-99657780D02*
X162296110Y-101257780D01*
X159296110Y-99657780D02*
X159296110Y-101257780D01*
X157796110Y-102207780D02*
X163796110Y-102207780D01*
X157796110Y-98707780D02*
X163796110Y-98707780D01*
X157796110Y-98707780D02*
X157796110Y-102207780D01*
X163796110Y-98707780D02*
X163796110Y-102207780D01*
X147674890Y-103548220D02*
X145174890Y-103548220D01*
X145174890Y-103548220D02*
X145174890Y-102448220D01*
X145174890Y-102448220D02*
X147674890Y-102448220D01*
X147674890Y-102448220D02*
X147674890Y-103548220D01*
X147924890Y-102198220D02*
X144924890Y-102198220D01*
X147924890Y-103798220D02*
X144924890Y-103798220D01*
X144924890Y-103798220D02*
X144924890Y-102198220D01*
X147924890Y-103798220D02*
X147924890Y-102198220D01*
X149424890Y-101248220D02*
X143424890Y-101248220D01*
X149424890Y-104748220D02*
X143424890Y-104748220D01*
X149424890Y-104748220D02*
X149424890Y-101248220D01*
X143424890Y-104748220D02*
X143424890Y-101248220D01*
X145068110Y-96605780D02*
X147568110Y-96605780D01*
X147568110Y-96605780D02*
X147568110Y-97705780D01*
X147568110Y-97705780D02*
X145068110Y-97705780D01*
X145068110Y-97705780D02*
X145068110Y-96605780D01*
X144818110Y-97955780D02*
X147818110Y-97955780D01*
X144818110Y-96355780D02*
X147818110Y-96355780D01*
X147818110Y-96355780D02*
X147818110Y-97955780D01*
X144818110Y-96355780D02*
X144818110Y-97955780D01*
X143318110Y-98905780D02*
X149318110Y-98905780D01*
X143318110Y-95405780D02*
X149318110Y-95405780D01*
X143318110Y-95405780D02*
X143318110Y-98905780D01*
X149318110Y-95405780D02*
X149318110Y-98905780D01*
X159866520Y-125441440D02*
X162914520Y-125441440D01*
X162914520Y-125441440D02*
X162914520Y-118329440D01*
X162914520Y-118329440D02*
X159866520Y-118329440D01*
X156818520Y-125441440D02*
X156056520Y-125441440D01*
X156056520Y-125441440D02*
X153770520Y-123917440D01*
X153770520Y-123917440D02*
X153770520Y-119853440D01*
X153770520Y-119853440D02*
X156056520Y-118329440D01*
X156056520Y-118329440D02*
X156818520Y-118329440D01*
X173827000Y-87464000D02*
X168827000Y-87464000D01*
X168827000Y-87464000D02*
X168827000Y-82464000D01*
X168827000Y-82464000D02*
X173827000Y-82464000D01*
X173827000Y-82464000D02*
X173827000Y-87464000D01*
X142411640Y-118873000D02*
X142010320Y-119073660D01*
X142010320Y-119073660D02*
X141410880Y-119175260D01*
X141410880Y-119175260D02*
X140910500Y-119073660D01*
X140910500Y-119073660D02*
X140212000Y-118674880D01*
X140212000Y-118674880D02*
X139810680Y-118072900D01*
X139810680Y-118072900D02*
X139610020Y-117473460D01*
X139610020Y-117473460D02*
X139610020Y-110874540D01*
X139610020Y-110874540D02*
X139810680Y-110173500D01*
X139810680Y-110173500D02*
X140110400Y-109774720D01*
X140110400Y-109774720D02*
X140610780Y-109373400D01*
X140610780Y-109373400D02*
X141210220Y-109172740D01*
X141210220Y-109172740D02*
X141710600Y-109172740D01*
X141710600Y-109172740D02*
X142210980Y-109373400D01*
X142210980Y-109373400D02*
X142810420Y-109873780D01*
X142810420Y-109873780D02*
X143110140Y-110374160D01*
X143110140Y-110374160D02*
X143211740Y-110874540D01*
X143211740Y-110973600D02*
X143211740Y-117575060D01*
X143211740Y-117575060D02*
X143110140Y-117973840D01*
X143110140Y-117973840D02*
X142810420Y-118474220D01*
X142810420Y-118474220D02*
X142310040Y-118974600D01*
X143740060Y-110983760D02*
X143691800Y-110524020D01*
X143691800Y-110524020D02*
X143580040Y-110125240D01*
X143580040Y-110125240D02*
X143361600Y-109693440D01*
X143361600Y-109693440D02*
X143130460Y-109403880D01*
X143130460Y-109403880D02*
X142779940Y-109073680D01*
X142779940Y-109073680D02*
X142241460Y-108784120D01*
X142241460Y-108784120D02*
X141642020Y-108654580D01*
X141642020Y-108654580D02*
X141131480Y-108654580D01*
X141131480Y-108654580D02*
X140430440Y-108824760D01*
X140430440Y-108824760D02*
X139841160Y-109223540D01*
X139841160Y-109223540D02*
X139470320Y-109683280D01*
X139470320Y-109683280D02*
X139262040Y-110104920D01*
X139262040Y-110104920D02*
X139102020Y-110554500D01*
X139102020Y-110554500D02*
X139071540Y-110993920D01*
X139289980Y-118334520D02*
X139510960Y-118712980D01*
X139510960Y-118712980D02*
X139790360Y-119033020D01*
X139790360Y-119033020D02*
X140120560Y-119284480D01*
X140120560Y-119284480D02*
X140671740Y-119584200D01*
X140671740Y-119584200D02*
X141141640Y-119693420D01*
X141141640Y-119693420D02*
X141601380Y-119713740D01*
X141601380Y-119713740D02*
X142061120Y-119624840D01*
X142061120Y-119624840D02*
X142510700Y-119434340D01*
X142510700Y-119434340D02*
X142980600Y-119073660D01*
X142980600Y-119073660D02*
X143300640Y-118723140D01*
X143300640Y-118723140D02*
X143531780Y-118334520D01*
X143531780Y-118334520D02*
X143671480Y-117905260D01*
X143671480Y-117905260D02*
X143740060Y-117463300D01*
X139081700Y-110973600D02*
X139081700Y-117425200D01*
X139081700Y-117425200D02*
X139119800Y-117844300D01*
X139119800Y-117844300D02*
X139289980Y-118334520D01*
X143740060Y-110973600D02*
X143740060Y-117425200D01*
X145293000Y-93940000D02*
X161293000Y-93940000D01*
X161293000Y-93940000D02*
X161293000Y-72440000D01*
X161293000Y-72440000D02*
X145293000Y-72440000D01*
X145293000Y-72440000D02*
X145293000Y-93940000D01*
X147411334Y-109564143D02*
X147363715Y-109611762D01*
X147220858Y-109659381D01*
X147125620Y-109659381D01*
X146982762Y-109611762D01*
X146887524Y-109516524D01*
X146839905Y-109421286D01*
X146792286Y-109230810D01*
X146792286Y-109087952D01*
X146839905Y-108897476D01*
X146887524Y-108802238D01*
X146982762Y-108707000D01*
X147125620Y-108659381D01*
X147220858Y-108659381D01*
X147363715Y-108707000D01*
X147411334Y-108754619D01*
X148363715Y-109659381D02*
X147792286Y-109659381D01*
X148078000Y-109659381D02*
X148078000Y-108659381D01*
X147982762Y-108802238D01*
X147887524Y-108897476D01*
X147792286Y-108945095D01*
X147558654Y-115108963D02*
X147511035Y-115156582D01*
X147368178Y-115204201D01*
X147272940Y-115204201D01*
X147130082Y-115156582D01*
X147034844Y-115061344D01*
X146987225Y-114966106D01*
X146939606Y-114775630D01*
X146939606Y-114632772D01*
X146987225Y-114442296D01*
X147034844Y-114347058D01*
X147130082Y-114251820D01*
X147272940Y-114204201D01*
X147368178Y-114204201D01*
X147511035Y-114251820D01*
X147558654Y-114299439D01*
X147939606Y-114299439D02*
X147987225Y-114251820D01*
X148082463Y-114204201D01*
X148320559Y-114204201D01*
X148415797Y-114251820D01*
X148463416Y-114299439D01*
X148511035Y-114394677D01*
X148511035Y-114489915D01*
X148463416Y-114632772D01*
X147891987Y-115204201D01*
X148511035Y-115204201D01*
X164874403Y-112830646D02*
X164922022Y-112878265D01*
X164969641Y-113021122D01*
X164969641Y-113116360D01*
X164922022Y-113259218D01*
X164826784Y-113354456D01*
X164731546Y-113402075D01*
X164541070Y-113449694D01*
X164398212Y-113449694D01*
X164207736Y-113402075D01*
X164112498Y-113354456D01*
X164017260Y-113259218D01*
X163969641Y-113116360D01*
X163969641Y-113021122D01*
X164017260Y-112878265D01*
X164064879Y-112830646D01*
X163969641Y-112497313D02*
X163969641Y-111878265D01*
X164350593Y-112211599D01*
X164350593Y-112068741D01*
X164398212Y-111973503D01*
X164445831Y-111925884D01*
X164541070Y-111878265D01*
X164779165Y-111878265D01*
X164874403Y-111925884D01*
X164922022Y-111973503D01*
X164969641Y-112068741D01*
X164969641Y-112354456D01*
X164922022Y-112449694D01*
X164874403Y-112497313D01*
X162787829Y-112644872D02*
X162787829Y-111882967D01*
X163168781Y-112263919D02*
X162406876Y-112263919D01*
X168763143Y-112816666D02*
X168810762Y-112864285D01*
X168858381Y-113007142D01*
X168858381Y-113102380D01*
X168810762Y-113245238D01*
X168715524Y-113340476D01*
X168620286Y-113388095D01*
X168429810Y-113435714D01*
X168286952Y-113435714D01*
X168096476Y-113388095D01*
X168001238Y-113340476D01*
X167906000Y-113245238D01*
X167858381Y-113102380D01*
X167858381Y-113007142D01*
X167906000Y-112864285D01*
X167953619Y-112816666D01*
X168191714Y-111959523D02*
X168858381Y-111959523D01*
X167810762Y-112197619D02*
X168525048Y-112435714D01*
X168525048Y-111816666D01*
X166676569Y-112583912D02*
X166676569Y-111822007D01*
X167057521Y-112202959D02*
X166295616Y-112202959D01*
X174461905Y-93290381D02*
X174461905Y-92290381D01*
X174700000Y-92290381D01*
X174842858Y-92338000D01*
X174938096Y-92433238D01*
X174985715Y-92528476D01*
X175033334Y-92718952D01*
X175033334Y-92861810D01*
X174985715Y-93052286D01*
X174938096Y-93147524D01*
X174842858Y-93242762D01*
X174700000Y-93290381D01*
X174461905Y-93290381D01*
X175985715Y-93290381D02*
X175414286Y-93290381D01*
X175700000Y-93290381D02*
X175700000Y-92290381D01*
X175604762Y-92433238D01*
X175509524Y-92528476D01*
X175414286Y-92576095D01*
X174461905Y-97354381D02*
X174461905Y-96354381D01*
X174700000Y-96354381D01*
X174842858Y-96402000D01*
X174938096Y-96497238D01*
X174985715Y-96592476D01*
X175033334Y-96782952D01*
X175033334Y-96925810D01*
X174985715Y-97116286D01*
X174938096Y-97211524D01*
X174842858Y-97306762D01*
X174700000Y-97354381D01*
X174461905Y-97354381D01*
X175414286Y-96449619D02*
X175461905Y-96402000D01*
X175557143Y-96354381D01*
X175795239Y-96354381D01*
X175890477Y-96402000D01*
X175938096Y-96449619D01*
X175985715Y-96544857D01*
X175985715Y-96640095D01*
X175938096Y-96782952D01*
X175366667Y-97354381D01*
X175985715Y-97354381D01*
X152944334Y-108784381D02*
X152611000Y-108308190D01*
X152372905Y-108784381D02*
X152372905Y-107784381D01*
X152753858Y-107784381D01*
X152849096Y-107832000D01*
X152896715Y-107879619D01*
X152944334Y-107974857D01*
X152944334Y-108117714D01*
X152896715Y-108212952D01*
X152849096Y-108260571D01*
X152753858Y-108308190D01*
X152372905Y-108308190D01*
X153325286Y-107879619D02*
X153372905Y-107832000D01*
X153468143Y-107784381D01*
X153706239Y-107784381D01*
X153801477Y-107832000D01*
X153849096Y-107879619D01*
X153896715Y-107974857D01*
X153896715Y-108070095D01*
X153849096Y-108212952D01*
X153277667Y-108784381D01*
X153896715Y-108784381D01*
X153071334Y-104847381D02*
X152738000Y-104371190D01*
X152499905Y-104847381D02*
X152499905Y-103847381D01*
X152880858Y-103847381D01*
X152976096Y-103895000D01*
X153023715Y-103942619D01*
X153071334Y-104037857D01*
X153071334Y-104180714D01*
X153023715Y-104275952D01*
X152976096Y-104323571D01*
X152880858Y-104371190D01*
X152499905Y-104371190D01*
X153404667Y-103847381D02*
X154023715Y-103847381D01*
X153690381Y-104228333D01*
X153833239Y-104228333D01*
X153928477Y-104275952D01*
X153976096Y-104323571D01*
X154023715Y-104418810D01*
X154023715Y-104656905D01*
X153976096Y-104752143D01*
X153928477Y-104799762D01*
X153833239Y-104847381D01*
X153547524Y-104847381D01*
X153452286Y-104799762D01*
X153404667Y-104752143D01*
X163810381Y-88305666D02*
X163334190Y-88639000D01*
X163810381Y-88877095D02*
X162810381Y-88877095D01*
X162810381Y-88496142D01*
X162858000Y-88400904D01*
X162905619Y-88353285D01*
X163000857Y-88305666D01*
X163143714Y-88305666D01*
X163238952Y-88353285D01*
X163286571Y-88400904D01*
X163334190Y-88496142D01*
X163334190Y-88877095D01*
X163810381Y-87829476D02*
X163810381Y-87639000D01*
X163762762Y-87543761D01*
X163715143Y-87496142D01*
X163572286Y-87400904D01*
X163381810Y-87353285D01*
X163000857Y-87353285D01*
X162905619Y-87400904D01*
X162858000Y-87448523D01*
X162810381Y-87543761D01*
X162810381Y-87734238D01*
X162858000Y-87829476D01*
X162905619Y-87877095D01*
X163000857Y-87924714D01*
X163238952Y-87924714D01*
X163334190Y-87877095D01*
X163381810Y-87829476D01*
X163429429Y-87734238D01*
X163429429Y-87543761D01*
X163381810Y-87448523D01*
X163334190Y-87400904D01*
X163238952Y-87353285D01*
X163953143Y-94165381D02*
X163619809Y-93689190D01*
X163381714Y-94165381D02*
X163381714Y-93165381D01*
X163762667Y-93165381D01*
X163857905Y-93213000D01*
X163905524Y-93260619D01*
X163953143Y-93355857D01*
X163953143Y-93498714D01*
X163905524Y-93593952D01*
X163857905Y-93641571D01*
X163762667Y-93689190D01*
X163381714Y-93689190D01*
X164905524Y-94165381D02*
X164334095Y-94165381D01*
X164619809Y-94165381D02*
X164619809Y-93165381D01*
X164524571Y-93308238D01*
X164429333Y-93403476D01*
X164334095Y-93451095D01*
X165524571Y-93165381D02*
X165619810Y-93165381D01*
X165715048Y-93213000D01*
X165762667Y-93260619D01*
X165810286Y-93355857D01*
X165857905Y-93546333D01*
X165857905Y-93784429D01*
X165810286Y-93974905D01*
X165762667Y-94070143D01*
X165715048Y-94117762D01*
X165619810Y-94165381D01*
X165524571Y-94165381D01*
X165429333Y-94117762D01*
X165381714Y-94070143D01*
X165334095Y-93974905D01*
X165286476Y-93784429D01*
X165286476Y-93546333D01*
X165334095Y-93355857D01*
X165381714Y-93260619D01*
X165429333Y-93213000D01*
X165524571Y-93165381D01*
X155452667Y-98310161D02*
X155452667Y-97310161D01*
X155833620Y-97310161D01*
X155928858Y-97357780D01*
X155976477Y-97405399D01*
X156024096Y-97500637D01*
X156024096Y-97643494D01*
X155976477Y-97738732D01*
X155928858Y-97786351D01*
X155833620Y-97833970D01*
X155452667Y-97833970D01*
X156976477Y-97357780D02*
X156881239Y-97310161D01*
X156738382Y-97310161D01*
X156595524Y-97357780D01*
X156500286Y-97453018D01*
X156452667Y-97548256D01*
X156405048Y-97738732D01*
X156405048Y-97881590D01*
X156452667Y-98072066D01*
X156500286Y-98167304D01*
X156595524Y-98262542D01*
X156738382Y-98310161D01*
X156833620Y-98310161D01*
X156976477Y-98262542D01*
X157024096Y-98214923D01*
X157024096Y-97881590D01*
X156833620Y-97881590D01*
X157452667Y-98310161D02*
X157452667Y-97310161D01*
X157786001Y-98024447D01*
X158119334Y-97310161D01*
X158119334Y-98310161D01*
X145091557Y-106002982D02*
X145234414Y-106050601D01*
X145472510Y-106050601D01*
X145567748Y-106002982D01*
X145615367Y-105955363D01*
X145662986Y-105860125D01*
X145662986Y-105764887D01*
X145615367Y-105669649D01*
X145567748Y-105622030D01*
X145472510Y-105574410D01*
X145282033Y-105526791D01*
X145186795Y-105479172D01*
X145139176Y-105431553D01*
X145091557Y-105336315D01*
X145091557Y-105241077D01*
X145139176Y-105145839D01*
X145186795Y-105098220D01*
X145282033Y-105050601D01*
X145520129Y-105050601D01*
X145662986Y-105098220D01*
X145996319Y-105050601D02*
X146234414Y-106050601D01*
X146424891Y-105336315D01*
X146615367Y-106050601D01*
X146853462Y-105050601D01*
X147758224Y-106050601D02*
X147186795Y-106050601D01*
X147472509Y-106050601D02*
X147472509Y-105050601D01*
X147377271Y-105193458D01*
X147282033Y-105288696D01*
X147186795Y-105336315D01*
X145026667Y-100414762D02*
X145169524Y-100462381D01*
X145407620Y-100462381D01*
X145502858Y-100414762D01*
X145550477Y-100367143D01*
X145598096Y-100271905D01*
X145598096Y-100176667D01*
X145550477Y-100081429D01*
X145502858Y-100033810D01*
X145407620Y-99986190D01*
X145217143Y-99938571D01*
X145121905Y-99890952D01*
X145074286Y-99843333D01*
X145026667Y-99748095D01*
X145026667Y-99652857D01*
X145074286Y-99557619D01*
X145121905Y-99510000D01*
X145217143Y-99462381D01*
X145455239Y-99462381D01*
X145598096Y-99510000D01*
X145931429Y-99462381D02*
X146169524Y-100462381D01*
X146360001Y-99748095D01*
X146550477Y-100462381D01*
X146788572Y-99462381D01*
X147121905Y-99557619D02*
X147169524Y-99510000D01*
X147264762Y-99462381D01*
X147502858Y-99462381D01*
X147598096Y-99510000D01*
X147645715Y-99557619D01*
X147693334Y-99652857D01*
X147693334Y-99748095D01*
X147645715Y-99890952D01*
X147074286Y-100462381D01*
X147693334Y-100462381D01*
X157032901Y-122647345D02*
X157842425Y-122647345D01*
X157937663Y-122599726D01*
X157985282Y-122552107D01*
X158032901Y-122456869D01*
X158032901Y-122266392D01*
X157985282Y-122171154D01*
X157937663Y-122123535D01*
X157842425Y-122075916D01*
X157032901Y-122075916D01*
X157128139Y-121647345D02*
X157080520Y-121599726D01*
X157032901Y-121504488D01*
X157032901Y-121266392D01*
X157080520Y-121171154D01*
X157128139Y-121123535D01*
X157223377Y-121075916D01*
X157318615Y-121075916D01*
X157461472Y-121123535D01*
X158032901Y-121694964D01*
X158032901Y-121075916D01*
X159556901Y-124504487D02*
X159556901Y-125075916D01*
X159556901Y-124790202D02*
X158556901Y-124790202D01*
X158699758Y-124885440D01*
X158794996Y-124980678D01*
X158842615Y-125075916D01*
X159556901Y-123552106D02*
X159556901Y-124123535D01*
X159556901Y-123837821D02*
X158556901Y-123837821D01*
X158699758Y-123933059D01*
X158794996Y-124028297D01*
X158842615Y-124123535D01*
X159556901Y-122599725D02*
X159556901Y-123171154D01*
X159556901Y-122885440D02*
X158556901Y-122885440D01*
X158699758Y-122980678D01*
X158794996Y-123075916D01*
X158842615Y-123171154D01*
X158556901Y-122266392D02*
X158556901Y-121599725D01*
X159556901Y-122028297D01*
X159175949Y-121218773D02*
X159175949Y-120456868D01*
X158556901Y-119504487D02*
X158556901Y-119980678D01*
X159033091Y-120028297D01*
X158985472Y-119980678D01*
X158937853Y-119885440D01*
X158937853Y-119647344D01*
X158985472Y-119552106D01*
X159033091Y-119504487D01*
X159128330Y-119456868D01*
X159366425Y-119456868D01*
X159461663Y-119504487D01*
X159509282Y-119552106D01*
X159556901Y-119647344D01*
X159556901Y-119885440D01*
X159509282Y-119980678D01*
X159461663Y-120028297D01*
X158890234Y-119123535D02*
X159556901Y-118885440D01*
X158890234Y-118647344D01*
X170320638Y-84390981D02*
X170558733Y-85390981D01*
X170749210Y-84676695D01*
X170939686Y-85390981D01*
X171177781Y-84390981D01*
X172082543Y-85390981D02*
X171511114Y-85390981D01*
X171796828Y-85390981D02*
X171796828Y-84390981D01*
X171701590Y-84533838D01*
X171606352Y-84629076D01*
X171511114Y-84676695D01*
X152483476Y-78812381D02*
X152483476Y-77812381D01*
X152816810Y-78526667D01*
X153150143Y-77812381D01*
X153150143Y-78812381D01*
X154150143Y-78812381D02*
X153578714Y-78812381D01*
X153864428Y-78812381D02*
X153864428Y-77812381D01*
X153769190Y-77955238D01*
X153673952Y-78050476D01*
X153578714Y-78098095D01*
%LPC*%
D13*
X168660000Y-115593860D03*
X168660000Y-121593340D03*
X173359000Y-118593600D03*
D14*
X145578000Y-111507000D03*
X149578000Y-111507000D03*
X145725320Y-117051820D03*
X149725320Y-117051820D03*
D15*
X164517260Y-105665000D03*
X164517260Y-109662960D03*
X168406000Y-105604040D03*
X168406000Y-109602000D03*
D16*
X159262000Y-112015000D03*
X159262000Y-114555000D03*
D17*
X172851000Y-92838000D03*
X169549000Y-92838000D03*
X172851000Y-96902000D03*
X169549000Y-96902000D03*
D18*
X171885800Y-104699800D03*
D19*
X171885800Y-107239800D03*
X171885800Y-109779800D03*
D18*
X141228000Y-80011000D03*
D19*
X141228000Y-82551000D03*
X141228000Y-85091000D03*
X141228000Y-87631000D03*
X141228000Y-90171000D03*
D20*
X155611000Y-108332000D03*
X159611000Y-108332000D03*
X159738000Y-104395000D03*
X155738000Y-104395000D03*
D21*
X165358000Y-90139000D03*
X165358000Y-86139000D03*
D20*
X162596000Y-96013000D03*
X166596000Y-96013000D03*
D22*
X169549000Y-79122000D03*
X172089000Y-79122000D03*
X167009000Y-79122000D03*
D23*
X156183570Y-100455680D03*
X165388430Y-100460320D03*
X151037430Y-103000320D03*
X141832570Y-102995680D03*
X141705570Y-97153680D03*
X150910430Y-97158320D03*
D24*
X155040520Y-121885440D03*
D25*
X161644520Y-121885440D03*
X161644520Y-119599440D03*
X161644520Y-124171440D03*
D26*
X173877000Y-86614000D03*
X173877000Y-83314000D03*
X168777000Y-83314000D03*
X168777000Y-86614000D03*
D27*
X141410880Y-111733060D03*
X141410880Y-116614940D03*
D28*
X161293000Y-91440000D03*
X161293000Y-89440000D03*
X161293000Y-87440000D03*
X161293000Y-85440000D03*
X161293000Y-83440000D03*
X161293000Y-81440000D03*
X161293000Y-79440000D03*
X161293000Y-77440000D03*
X145293000Y-91440000D03*
X145293000Y-89440000D03*
X145293000Y-87440000D03*
X145293000Y-85440000D03*
X145293000Y-83440000D03*
X145293000Y-81440000D03*
X145293000Y-79440000D03*
X145293000Y-77440000D03*
M02*
