M48
;DRILL file {KiCad (2015-08-28 BZR 6132, Git 156d5f5)-product} date 30-Aug-15 1:46:41 AM
;FORMAT={-:-/ absolute / metric / decimal}
FMAT,2
METRIC,TZ
T1C0.381
T2C0.500
T3C0.550
T4C0.800
T5C0.813
T6C1.001
T7C1.016
T8C1.199
%
G90
G05
M71
T1
X141.736Y-102.998
X146.054Y-87.25
X146.308Y-117.222
X146.562Y-107.316
X147.578Y-117.222
X148.256Y-112.89
X149.102Y-98.426
X149.696Y-112.977
X150.626Y-119.
X150.91Y-97.158
X152.912Y-116.46
X153.674Y-89.536
X155.198Y-110.872
X155.96Y-100.458
X157.25Y-91.185
X158.754Y-82.932
X159.516Y-108.84
X160.278Y-96.14
X162.564Y-87.504
X164.342Y-92.33
X168.406Y-90.806
X168.66Y-115.594
X168.66Y-121.593
X173.359Y-118.594
T4
X159.262Y-112.015
X159.262Y-114.555
T5
X167.009Y-79.122
X169.549Y-79.122
X172.089Y-79.122
T7
X141.228Y-80.011
X141.228Y-82.551
X141.228Y-85.091
X141.228Y-87.631
X141.228Y-90.171
X171.886Y-104.7
X171.886Y-107.24
X171.886Y-109.78
T8
X141.411Y-111.733
X141.411Y-116.615
T2
X142.382Y-124.745G85X142.382Y-124.095
G05
X149.382Y-124.745G85X149.382Y-124.095
G05
T3
X143.232Y-121.72G85X143.532Y-121.72
G05
X148.232Y-121.72G85X148.532Y-121.72
G05
T6
X167.661Y-115.594G85X169.659Y-115.594
G05
X167.661Y-121.593G85X169.659Y-121.593
G05
X173.359Y-119.593G85X173.359Y-117.594
G05
T0
M30
