G04 #@! TF.FileFunction,Soldermask,Top*
%FSLAX46Y46*%
G04 Gerber Fmt 4.6, Leading zero omitted, Abs format (unit mm)*
G04 Created by KiCad (PCBNEW (2015-08-30 BZR 6134, Git 4e94d52)-product) date 02-Sep-15 10:21:18 AM*
%MOMM*%
G01*
G04 APERTURE LIST*
%ADD10C,0.100000*%
%ADD11R,3.900120X3.900120*%
%ADD12R,2.400000X2.000000*%
%ADD13R,1.901140X3.399740*%
%ADD14C,1.901140*%
%ADD15R,1.924000X2.432000*%
%ADD16R,2.432000X2.127200*%
%ADD17O,2.432000X2.127200*%
%ADD18R,2.400000X2.100000*%
%ADD19R,2.100000X2.400000*%
%ADD20C,1.924000*%
%ADD21R,2.580000X2.000000*%
%ADD22R,2.432000X4.057600*%
%ADD23R,2.432000X1.416000*%
%ADD24R,1.900000X1.300000*%
%ADD25O,2.899360X2.398980*%
%ADD26R,2.400000X1.400000*%
G04 APERTURE END LIST*
D10*
D11*
X168660000Y-115593860D03*
X168660000Y-121593340D03*
X173359000Y-118593600D03*
D12*
X145578000Y-111507000D03*
X149578000Y-111507000D03*
X145725320Y-117051820D03*
X149725320Y-117051820D03*
D13*
X164517260Y-105665000D03*
X164517260Y-109662960D03*
X168406000Y-105604040D03*
X168406000Y-109602000D03*
D14*
X159262000Y-112015000D03*
X159262000Y-114555000D03*
D15*
X172851000Y-92838000D03*
X169549000Y-92838000D03*
X172851000Y-96902000D03*
X169549000Y-96902000D03*
D16*
X171885800Y-104699800D03*
D17*
X171885800Y-107239800D03*
X171885800Y-109779800D03*
D16*
X141228000Y-80011000D03*
D17*
X141228000Y-82551000D03*
X141228000Y-85091000D03*
X141228000Y-87631000D03*
X141228000Y-90171000D03*
D18*
X155611000Y-108332000D03*
X159611000Y-108332000D03*
X159738000Y-104395000D03*
X155738000Y-104395000D03*
D19*
X165358000Y-90139000D03*
X165358000Y-86139000D03*
D18*
X162596000Y-96013000D03*
X166596000Y-96013000D03*
D20*
X169549000Y-79122000D03*
X172089000Y-79122000D03*
X167009000Y-79122000D03*
D21*
X156183570Y-100455680D03*
X165388430Y-100460320D03*
X151037430Y-103000320D03*
X141832570Y-102995680D03*
X141705570Y-97153680D03*
X150910430Y-97158320D03*
D22*
X155040520Y-121885440D03*
D23*
X161644520Y-121885440D03*
X161644520Y-119599440D03*
X161644520Y-124171440D03*
D24*
X173877000Y-86614000D03*
X173877000Y-83314000D03*
X168777000Y-83314000D03*
X168777000Y-86614000D03*
D25*
X141410880Y-111733060D03*
X141410880Y-116614940D03*
D26*
X161293000Y-91440000D03*
X161293000Y-89440000D03*
X161293000Y-87440000D03*
X161293000Y-85440000D03*
X161293000Y-83440000D03*
X161293000Y-81440000D03*
X161293000Y-79440000D03*
X161293000Y-77440000D03*
X145293000Y-91440000D03*
X145293000Y-89440000D03*
X145293000Y-87440000D03*
X145293000Y-85440000D03*
X145293000Y-83440000D03*
X145293000Y-81440000D03*
X145293000Y-79440000D03*
X145293000Y-77440000D03*
M02*
