%FSLAX45Y45*%
G04 Gerber Fmt 4.5, Leading zero omitted, Abs format (unit mm)*
G04 Created by KiCad (PCBNEW (2015-08-30 BZR 6134, Git 4e94d52)-product) date 02-Sep-15 10:21:22 AM*
%MOMM*%
G01*
G04 APERTURE LIST*
%ADD10C,0.127000*%
%ADD11C,0.150000*%
%ADD12C,0.200000*%
%ADD13C,0.300000*%
G04 APERTURE END LIST*
D10*
D11*
X17628000Y-7582000D02*
X13818000Y-7582000D01*
X17628000Y-12662000D02*
X17628000Y-7582000D01*
X16358000Y-12662000D02*
X17628000Y-12662000D01*
X15088000Y-7582000D02*
X17628000Y-7582000D01*
X13818000Y-12662000D02*
X16358000Y-12662000D01*
X13818000Y-12662000D02*
X13818000Y-7582000D01*
X17628000Y-7582000D02*
X17628000Y-12662000D01*
D12*
X14144062Y-10090212D02*
X14182162Y-10128312D01*
X14182162Y-10090212D02*
X14144062Y-10128312D01*
X14469058Y-11530398D02*
X14507158Y-11568498D01*
X14507158Y-11530398D02*
X14469058Y-11568498D01*
X14484350Y-10890250D02*
X14522450Y-10928350D01*
X14522450Y-10890250D02*
X14484350Y-10928350D01*
X14637150Y-10712550D02*
X14675250Y-10750650D01*
X14675250Y-10712550D02*
X14637150Y-10750650D01*
X14655800Y-11271250D02*
X14693900Y-11309350D01*
X14693900Y-11271250D02*
X14655800Y-11309350D01*
X14685436Y-8700817D02*
X14723536Y-8738917D01*
X14723536Y-8700817D02*
X14685436Y-8738917D01*
X14753792Y-11717160D02*
X14791892Y-11755260D01*
X14791892Y-11717160D02*
X14753792Y-11755260D01*
X14806562Y-11269951D02*
X14844662Y-11308051D01*
X14844662Y-11269951D02*
X14806562Y-11308051D01*
X14877016Y-9975594D02*
X14915116Y-10013694D01*
X14915116Y-9975594D02*
X14877016Y-10013694D01*
X14950573Y-11303092D02*
X14988673Y-11341192D01*
X14988673Y-11303092D02*
X14950573Y-11341192D01*
X14979650Y-10890250D02*
X15017750Y-10928350D01*
X15017750Y-10890250D02*
X14979650Y-10928350D01*
X15119618Y-9527182D02*
X15157718Y-9565282D01*
X15157718Y-9527182D02*
X15119618Y-9565282D01*
X15168849Y-8970790D02*
X15206949Y-9008890D01*
X15206949Y-8970790D02*
X15168849Y-9008890D01*
X15233650Y-11791950D02*
X15271750Y-11830050D01*
X15271750Y-11791950D02*
X15233650Y-11830050D01*
X15272150Y-11626950D02*
X15310250Y-11665050D01*
X15310250Y-11626950D02*
X15272150Y-11665050D01*
X15297190Y-11090712D02*
X15335290Y-11128812D01*
X15335290Y-11090712D02*
X15297190Y-11128812D01*
X15593584Y-9843318D02*
X15631684Y-9881418D01*
X15631684Y-9843318D02*
X15593584Y-9881418D01*
X15705991Y-9099499D02*
X15744091Y-9137599D01*
X15744091Y-9099499D02*
X15705991Y-9137599D01*
X15764806Y-10866975D02*
X15802906Y-10905075D01*
X15802906Y-10866975D02*
X15764806Y-10905075D01*
X15802077Y-9607284D02*
X15840177Y-9645384D01*
X15840177Y-9607284D02*
X15802077Y-9645384D01*
X15856350Y-8274150D02*
X15894450Y-8312250D01*
X15894450Y-8274150D02*
X15856350Y-8312250D01*
X16287492Y-8676413D02*
X16325592Y-8714513D01*
X16325592Y-8676413D02*
X16287492Y-8714513D01*
X16415150Y-9213950D02*
X16453250Y-9252050D01*
X16453250Y-9213950D02*
X16415150Y-9252050D01*
X16465550Y-12261850D02*
X16503650Y-12299950D01*
X16503650Y-12261850D02*
X16465550Y-12299950D01*
X16999472Y-8917736D02*
X17037572Y-8955836D01*
X17037572Y-8917736D02*
X16999472Y-8955836D01*
X17183100Y-11252200D02*
X17221200Y-11290300D01*
X17221200Y-11252200D02*
X17183100Y-11290300D01*
X15966205Y-11201500D02*
G75*
G03X15966205Y-11201500I-40005J0D01*
G01*
X15966205Y-11455500D02*
G75*
G03X15966205Y-11455500I-40005J0D01*
G01*
X16700900Y-7871560D02*
X16700900Y-7952840D01*
X16660260Y-7912200D02*
X16741540Y-7912200D01*
X16954900Y-7871560D02*
X16954900Y-7952840D01*
X16914260Y-7912200D02*
X16995540Y-7912200D01*
X17208900Y-7871560D02*
X17208900Y-7952840D01*
X17168260Y-7912200D02*
X17249540Y-7912200D01*
X14158721Y-8037021D02*
X14158721Y-7965179D01*
X14086879Y-7965179D01*
X14086879Y-8037021D01*
X14158721Y-8037021D01*
X14158721Y-8291021D02*
X14158721Y-8219179D01*
X14086879Y-8219179D01*
X14086879Y-8291021D01*
X14158721Y-8291021D01*
X14158721Y-8545021D02*
X14158721Y-8473179D01*
X14086879Y-8473179D01*
X14086879Y-8545021D01*
X14158721Y-8545021D01*
X14158721Y-8799021D02*
X14158721Y-8727179D01*
X14086879Y-8727179D01*
X14086879Y-8799021D01*
X14158721Y-8799021D01*
X14158721Y-9053021D02*
X14158721Y-8981179D01*
X14086879Y-8981179D01*
X14086879Y-9053021D01*
X14158721Y-9053021D01*
X17224501Y-10505901D02*
X17224501Y-10434059D01*
X17152659Y-10434059D01*
X17152659Y-10505901D01*
X17224501Y-10505901D01*
X17224501Y-10759901D02*
X17224501Y-10688059D01*
X17152659Y-10688059D01*
X17152659Y-10759901D01*
X17224501Y-10759901D01*
X17224501Y-11013901D02*
X17224501Y-10942059D01*
X17152659Y-10942059D01*
X17152659Y-11013901D01*
X17224501Y-11013901D01*
X14141088Y-11233250D02*
X14201032Y-11173306D01*
X14141088Y-11113362D01*
X14081144Y-11173306D01*
X14141088Y-11233250D01*
X14141088Y-11721438D02*
X14201032Y-11661494D01*
X14141088Y-11601550D01*
X14081144Y-11661494D01*
X14141088Y-11721438D01*
X16766000Y-11459386D02*
X16966000Y-11659386D01*
X16966000Y-11459386D02*
X16766000Y-11659386D01*
X16966000Y-11559386D02*
G75*
G03X16966000Y-11559386I-100000J0D01*
G01*
X16766000Y-12059334D02*
X16966000Y-12259334D01*
X16966000Y-12059334D02*
X16766000Y-12259334D01*
X16966000Y-12159334D02*
G75*
G03X16966000Y-12159334I-100000J0D01*
G01*
X17235900Y-11759360D02*
X17435900Y-11959360D01*
X17435900Y-11759360D02*
X17235900Y-11959360D01*
X17435900Y-11859360D02*
G75*
G03X17435900Y-11859360I-100000J0D01*
G01*
D13*
X14081928Y-13135214D02*
X14081928Y-12835214D01*
X14153357Y-12835214D01*
X14196214Y-12849500D01*
X14224786Y-12878071D01*
X14239071Y-12906643D01*
X14253357Y-12963786D01*
X14253357Y-13006643D01*
X14239071Y-13063786D01*
X14224786Y-13092357D01*
X14196214Y-13120929D01*
X14153357Y-13135214D01*
X14081928Y-13135214D01*
X14381928Y-13135214D02*
X14381928Y-12935214D01*
X14381928Y-12992357D02*
X14396214Y-12963786D01*
X14410500Y-12949500D01*
X14439071Y-12935214D01*
X14467643Y-12935214D01*
X14567643Y-13135214D02*
X14567643Y-12935214D01*
X14567643Y-12835214D02*
X14553357Y-12849500D01*
X14567643Y-12863786D01*
X14581928Y-12849500D01*
X14567643Y-12835214D01*
X14567643Y-12863786D01*
X14753357Y-13135214D02*
X14724786Y-13120929D01*
X14710500Y-13092357D01*
X14710500Y-12835214D01*
X14910500Y-13135214D02*
X14881928Y-13120929D01*
X14867643Y-13092357D01*
X14867643Y-12835214D01*
X15253357Y-13135214D02*
X15253357Y-12835214D01*
X15353357Y-13049500D01*
X15453357Y-12835214D01*
X15453357Y-13135214D01*
X15724786Y-13135214D02*
X15724786Y-12978071D01*
X15710500Y-12949500D01*
X15681928Y-12935214D01*
X15624786Y-12935214D01*
X15596214Y-12949500D01*
X15724786Y-13120929D02*
X15696214Y-13135214D01*
X15624786Y-13135214D01*
X15596214Y-13120929D01*
X15581928Y-13092357D01*
X15581928Y-13063786D01*
X15596214Y-13035214D01*
X15624786Y-13020929D01*
X15696214Y-13020929D01*
X15724786Y-13006643D01*
X15867643Y-12935214D02*
X15867643Y-13235214D01*
X15867643Y-12949500D02*
X15896214Y-12935214D01*
X15953357Y-12935214D01*
X15981928Y-12949500D01*
X15996214Y-12963786D01*
X16010500Y-12992357D01*
X16010500Y-13078071D01*
X15996214Y-13106643D01*
X15981928Y-13120929D01*
X15953357Y-13135214D01*
X15896214Y-13135214D01*
X15867643Y-13120929D01*
X16139071Y-13106643D02*
X16153357Y-13120929D01*
X16139071Y-13135214D01*
X16124786Y-13120929D01*
X16139071Y-13106643D01*
X16139071Y-13135214D01*
X16139071Y-12949500D02*
X16153357Y-12963786D01*
X16139071Y-12978071D01*
X16124786Y-12963786D01*
X16139071Y-12949500D01*
X16139071Y-12978071D01*
X13772400Y-13610450D02*
X13810500Y-13648550D01*
X13810500Y-13610450D02*
X13772400Y-13648550D01*
X14139071Y-13465214D02*
X14167643Y-13465214D01*
X14196214Y-13479500D01*
X14210500Y-13493786D01*
X14224786Y-13522357D01*
X14239071Y-13579500D01*
X14239071Y-13650929D01*
X14224786Y-13708071D01*
X14210500Y-13736643D01*
X14196214Y-13750929D01*
X14167643Y-13765214D01*
X14139071Y-13765214D01*
X14110500Y-13750929D01*
X14096214Y-13736643D01*
X14081928Y-13708071D01*
X14067643Y-13650929D01*
X14067643Y-13579500D01*
X14081928Y-13522357D01*
X14096214Y-13493786D01*
X14110500Y-13479500D01*
X14139071Y-13465214D01*
X14367643Y-13736643D02*
X14381928Y-13750929D01*
X14367643Y-13765214D01*
X14353357Y-13750929D01*
X14367643Y-13736643D01*
X14367643Y-13765214D01*
X14481928Y-13465214D02*
X14667643Y-13465214D01*
X14567643Y-13579500D01*
X14610500Y-13579500D01*
X14639071Y-13593786D01*
X14653357Y-13608071D01*
X14667643Y-13636643D01*
X14667643Y-13708071D01*
X14653357Y-13736643D01*
X14639071Y-13750929D01*
X14610500Y-13765214D01*
X14524786Y-13765214D01*
X14496214Y-13750929D01*
X14481928Y-13736643D01*
X14839071Y-13593786D02*
X14810500Y-13579500D01*
X14796214Y-13565214D01*
X14781928Y-13536643D01*
X14781928Y-13522357D01*
X14796214Y-13493786D01*
X14810500Y-13479500D01*
X14839071Y-13465214D01*
X14896214Y-13465214D01*
X14924786Y-13479500D01*
X14939071Y-13493786D01*
X14953357Y-13522357D01*
X14953357Y-13536643D01*
X14939071Y-13565214D01*
X14924786Y-13579500D01*
X14896214Y-13593786D01*
X14839071Y-13593786D01*
X14810500Y-13608071D01*
X14796214Y-13622357D01*
X14781928Y-13650929D01*
X14781928Y-13708071D01*
X14796214Y-13736643D01*
X14810500Y-13750929D01*
X14839071Y-13765214D01*
X14896214Y-13765214D01*
X14924786Y-13750929D01*
X14939071Y-13736643D01*
X14953357Y-13708071D01*
X14953357Y-13650929D01*
X14939071Y-13622357D01*
X14924786Y-13608071D01*
X14896214Y-13593786D01*
X15081928Y-13765214D02*
X15081928Y-13565214D01*
X15081928Y-13593786D02*
X15096214Y-13579500D01*
X15124786Y-13565214D01*
X15167643Y-13565214D01*
X15196214Y-13579500D01*
X15210500Y-13608071D01*
X15210500Y-13765214D01*
X15210500Y-13608071D02*
X15224786Y-13579500D01*
X15253357Y-13565214D01*
X15296214Y-13565214D01*
X15324786Y-13579500D01*
X15339071Y-13608071D01*
X15339071Y-13765214D01*
X15481928Y-13765214D02*
X15481928Y-13565214D01*
X15481928Y-13593786D02*
X15496214Y-13579500D01*
X15524786Y-13565214D01*
X15567643Y-13565214D01*
X15596214Y-13579500D01*
X15610500Y-13608071D01*
X15610500Y-13765214D01*
X15610500Y-13608071D02*
X15624786Y-13579500D01*
X15653357Y-13565214D01*
X15696214Y-13565214D01*
X15724786Y-13579500D01*
X15739071Y-13608071D01*
X15739071Y-13765214D01*
X16324786Y-13450929D02*
X16067643Y-13836643D01*
X16710500Y-13465214D02*
X16739071Y-13465214D01*
X16767643Y-13479500D01*
X16781928Y-13493786D01*
X16796214Y-13522357D01*
X16810500Y-13579500D01*
X16810500Y-13650929D01*
X16796214Y-13708071D01*
X16781928Y-13736643D01*
X16767643Y-13750929D01*
X16739071Y-13765214D01*
X16710500Y-13765214D01*
X16681928Y-13750929D01*
X16667643Y-13736643D01*
X16653357Y-13708071D01*
X16639071Y-13650929D01*
X16639071Y-13579500D01*
X16653357Y-13522357D01*
X16667643Y-13493786D01*
X16681928Y-13479500D01*
X16710500Y-13465214D01*
X16939071Y-13736643D02*
X16953357Y-13750929D01*
X16939071Y-13765214D01*
X16924786Y-13750929D01*
X16939071Y-13736643D01*
X16939071Y-13765214D01*
X17139071Y-13465214D02*
X17167643Y-13465214D01*
X17196214Y-13479500D01*
X17210500Y-13493786D01*
X17224786Y-13522357D01*
X17239071Y-13579500D01*
X17239071Y-13650929D01*
X17224786Y-13708071D01*
X17210500Y-13736643D01*
X17196214Y-13750929D01*
X17167643Y-13765214D01*
X17139071Y-13765214D01*
X17110500Y-13750929D01*
X17096214Y-13736643D01*
X17081928Y-13708071D01*
X17067643Y-13650929D01*
X17067643Y-13579500D01*
X17081928Y-13522357D01*
X17096214Y-13493786D01*
X17110500Y-13479500D01*
X17139071Y-13465214D01*
X17524786Y-13765214D02*
X17353357Y-13765214D01*
X17439071Y-13765214D02*
X17439071Y-13465214D01*
X17410500Y-13508071D01*
X17381928Y-13536643D01*
X17353357Y-13550929D01*
X17796214Y-13465214D02*
X17653357Y-13465214D01*
X17639071Y-13608071D01*
X17653357Y-13593786D01*
X17681928Y-13579500D01*
X17753357Y-13579500D01*
X17781928Y-13593786D01*
X17796214Y-13608071D01*
X17810500Y-13636643D01*
X17810500Y-13708071D01*
X17796214Y-13736643D01*
X17781928Y-13750929D01*
X17753357Y-13765214D01*
X17681928Y-13765214D01*
X17653357Y-13750929D01*
X17639071Y-13736643D01*
X17924786Y-13465214D02*
X17924786Y-13522357D01*
X18039071Y-13465214D02*
X18039071Y-13522357D01*
X18481928Y-13879500D02*
X18467643Y-13865214D01*
X18439071Y-13822357D01*
X18424786Y-13793786D01*
X18410500Y-13750929D01*
X18396214Y-13679500D01*
X18396214Y-13622357D01*
X18410500Y-13550929D01*
X18424786Y-13508071D01*
X18439071Y-13479500D01*
X18467643Y-13436643D01*
X18481928Y-13422357D01*
X18581928Y-13493786D02*
X18596214Y-13479500D01*
X18624786Y-13465214D01*
X18696214Y-13465214D01*
X18724786Y-13479500D01*
X18739071Y-13493786D01*
X18753357Y-13522357D01*
X18753357Y-13550929D01*
X18739071Y-13593786D01*
X18567643Y-13765214D01*
X18753357Y-13765214D01*
X19010500Y-13465214D02*
X18953357Y-13465214D01*
X18924786Y-13479500D01*
X18910500Y-13493786D01*
X18881928Y-13536643D01*
X18867643Y-13593786D01*
X18867643Y-13708071D01*
X18881928Y-13736643D01*
X18896214Y-13750929D01*
X18924786Y-13765214D01*
X18981928Y-13765214D01*
X19010500Y-13750929D01*
X19024786Y-13736643D01*
X19039071Y-13708071D01*
X19039071Y-13636643D01*
X19024786Y-13608071D01*
X19010500Y-13593786D01*
X18981928Y-13579500D01*
X18924786Y-13579500D01*
X18896214Y-13593786D01*
X18881928Y-13608071D01*
X18867643Y-13636643D01*
X19396214Y-13765214D02*
X19396214Y-13465214D01*
X19524786Y-13765214D02*
X19524786Y-13608071D01*
X19510500Y-13579500D01*
X19481928Y-13565214D01*
X19439071Y-13565214D01*
X19410500Y-13579500D01*
X19396214Y-13593786D01*
X19710500Y-13765214D02*
X19681928Y-13750929D01*
X19667643Y-13736643D01*
X19653357Y-13708071D01*
X19653357Y-13622357D01*
X19667643Y-13593786D01*
X19681928Y-13579500D01*
X19710500Y-13565214D01*
X19753357Y-13565214D01*
X19781928Y-13579500D01*
X19796214Y-13593786D01*
X19810500Y-13622357D01*
X19810500Y-13708071D01*
X19796214Y-13736643D01*
X19781928Y-13750929D01*
X19753357Y-13765214D01*
X19710500Y-13765214D01*
X19981928Y-13765214D02*
X19953357Y-13750929D01*
X19939071Y-13722357D01*
X19939071Y-13465214D01*
X20210500Y-13750929D02*
X20181929Y-13765214D01*
X20124786Y-13765214D01*
X20096214Y-13750929D01*
X20081929Y-13722357D01*
X20081929Y-13608071D01*
X20096214Y-13579500D01*
X20124786Y-13565214D01*
X20181929Y-13565214D01*
X20210500Y-13579500D01*
X20224786Y-13608071D01*
X20224786Y-13636643D01*
X20081929Y-13665214D01*
X20339071Y-13750929D02*
X20367643Y-13765214D01*
X20424786Y-13765214D01*
X20453357Y-13750929D01*
X20467643Y-13722357D01*
X20467643Y-13708071D01*
X20453357Y-13679500D01*
X20424786Y-13665214D01*
X20381929Y-13665214D01*
X20353357Y-13650929D01*
X20339071Y-13622357D01*
X20339071Y-13608071D01*
X20353357Y-13579500D01*
X20381929Y-13565214D01*
X20424786Y-13565214D01*
X20453357Y-13579500D01*
X20567643Y-13879500D02*
X20581929Y-13865214D01*
X20610500Y-13822357D01*
X20624786Y-13793786D01*
X20639071Y-13750929D01*
X20653357Y-13679500D01*
X20653357Y-13622357D01*
X20639071Y-13550929D01*
X20624786Y-13508071D01*
X20610500Y-13479500D01*
X20581929Y-13436643D01*
X20567643Y-13422357D01*
X13810500Y-14025500D02*
G75*
G03X13810500Y-14025500I-40005J0D01*
G01*
X14139071Y-13861214D02*
X14167643Y-13861214D01*
X14196214Y-13875500D01*
X14210500Y-13889786D01*
X14224786Y-13918357D01*
X14239071Y-13975500D01*
X14239071Y-14046929D01*
X14224786Y-14104071D01*
X14210500Y-14132643D01*
X14196214Y-14146929D01*
X14167643Y-14161214D01*
X14139071Y-14161214D01*
X14110500Y-14146929D01*
X14096214Y-14132643D01*
X14081928Y-14104071D01*
X14067643Y-14046929D01*
X14067643Y-13975500D01*
X14081928Y-13918357D01*
X14096214Y-13889786D01*
X14110500Y-13875500D01*
X14139071Y-13861214D01*
X14367643Y-14132643D02*
X14381928Y-14146929D01*
X14367643Y-14161214D01*
X14353357Y-14146929D01*
X14367643Y-14132643D01*
X14367643Y-14161214D01*
X14553357Y-13989786D02*
X14524786Y-13975500D01*
X14510500Y-13961214D01*
X14496214Y-13932643D01*
X14496214Y-13918357D01*
X14510500Y-13889786D01*
X14524786Y-13875500D01*
X14553357Y-13861214D01*
X14610500Y-13861214D01*
X14639071Y-13875500D01*
X14653357Y-13889786D01*
X14667643Y-13918357D01*
X14667643Y-13932643D01*
X14653357Y-13961214D01*
X14639071Y-13975500D01*
X14610500Y-13989786D01*
X14553357Y-13989786D01*
X14524786Y-14004071D01*
X14510500Y-14018357D01*
X14496214Y-14046929D01*
X14496214Y-14104071D01*
X14510500Y-14132643D01*
X14524786Y-14146929D01*
X14553357Y-14161214D01*
X14610500Y-14161214D01*
X14639071Y-14146929D01*
X14653357Y-14132643D01*
X14667643Y-14104071D01*
X14667643Y-14046929D01*
X14653357Y-14018357D01*
X14639071Y-14004071D01*
X14610500Y-13989786D01*
X14853357Y-13861214D02*
X14881928Y-13861214D01*
X14910500Y-13875500D01*
X14924786Y-13889786D01*
X14939071Y-13918357D01*
X14953357Y-13975500D01*
X14953357Y-14046929D01*
X14939071Y-14104071D01*
X14924786Y-14132643D01*
X14910500Y-14146929D01*
X14881928Y-14161214D01*
X14853357Y-14161214D01*
X14824786Y-14146929D01*
X14810500Y-14132643D01*
X14796214Y-14104071D01*
X14781928Y-14046929D01*
X14781928Y-13975500D01*
X14796214Y-13918357D01*
X14810500Y-13889786D01*
X14824786Y-13875500D01*
X14853357Y-13861214D01*
X15081928Y-14161214D02*
X15081928Y-13961214D01*
X15081928Y-13989786D02*
X15096214Y-13975500D01*
X15124786Y-13961214D01*
X15167643Y-13961214D01*
X15196214Y-13975500D01*
X15210500Y-14004071D01*
X15210500Y-14161214D01*
X15210500Y-14004071D02*
X15224786Y-13975500D01*
X15253357Y-13961214D01*
X15296214Y-13961214D01*
X15324786Y-13975500D01*
X15339071Y-14004071D01*
X15339071Y-14161214D01*
X15481928Y-14161214D02*
X15481928Y-13961214D01*
X15481928Y-13989786D02*
X15496214Y-13975500D01*
X15524786Y-13961214D01*
X15567643Y-13961214D01*
X15596214Y-13975500D01*
X15610500Y-14004071D01*
X15610500Y-14161214D01*
X15610500Y-14004071D02*
X15624786Y-13975500D01*
X15653357Y-13961214D01*
X15696214Y-13961214D01*
X15724786Y-13975500D01*
X15739071Y-14004071D01*
X15739071Y-14161214D01*
X16324786Y-13846929D02*
X16067643Y-14232643D01*
X16710500Y-13861214D02*
X16739071Y-13861214D01*
X16767643Y-13875500D01*
X16781928Y-13889786D01*
X16796214Y-13918357D01*
X16810500Y-13975500D01*
X16810500Y-14046929D01*
X16796214Y-14104071D01*
X16781928Y-14132643D01*
X16767643Y-14146929D01*
X16739071Y-14161214D01*
X16710500Y-14161214D01*
X16681928Y-14146929D01*
X16667643Y-14132643D01*
X16653357Y-14104071D01*
X16639071Y-14046929D01*
X16639071Y-13975500D01*
X16653357Y-13918357D01*
X16667643Y-13889786D01*
X16681928Y-13875500D01*
X16710500Y-13861214D01*
X16939071Y-14132643D02*
X16953357Y-14146929D01*
X16939071Y-14161214D01*
X16924786Y-14146929D01*
X16939071Y-14132643D01*
X16939071Y-14161214D01*
X17139071Y-13861214D02*
X17167643Y-13861214D01*
X17196214Y-13875500D01*
X17210500Y-13889786D01*
X17224786Y-13918357D01*
X17239071Y-13975500D01*
X17239071Y-14046929D01*
X17224786Y-14104071D01*
X17210500Y-14132643D01*
X17196214Y-14146929D01*
X17167643Y-14161214D01*
X17139071Y-14161214D01*
X17110500Y-14146929D01*
X17096214Y-14132643D01*
X17081928Y-14104071D01*
X17067643Y-14046929D01*
X17067643Y-13975500D01*
X17081928Y-13918357D01*
X17096214Y-13889786D01*
X17110500Y-13875500D01*
X17139071Y-13861214D01*
X17339071Y-13861214D02*
X17524786Y-13861214D01*
X17424786Y-13975500D01*
X17467643Y-13975500D01*
X17496214Y-13989786D01*
X17510500Y-14004071D01*
X17524786Y-14032643D01*
X17524786Y-14104071D01*
X17510500Y-14132643D01*
X17496214Y-14146929D01*
X17467643Y-14161214D01*
X17381928Y-14161214D01*
X17353357Y-14146929D01*
X17339071Y-14132643D01*
X17639071Y-13889786D02*
X17653357Y-13875500D01*
X17681928Y-13861214D01*
X17753357Y-13861214D01*
X17781928Y-13875500D01*
X17796214Y-13889786D01*
X17810500Y-13918357D01*
X17810500Y-13946929D01*
X17796214Y-13989786D01*
X17624786Y-14161214D01*
X17810500Y-14161214D01*
X17924786Y-13861214D02*
X17924786Y-13918357D01*
X18039071Y-13861214D02*
X18039071Y-13918357D01*
X18481928Y-14275500D02*
X18467643Y-14261214D01*
X18439071Y-14218357D01*
X18424786Y-14189786D01*
X18410500Y-14146929D01*
X18396214Y-14075500D01*
X18396214Y-14018357D01*
X18410500Y-13946929D01*
X18424786Y-13904071D01*
X18439071Y-13875500D01*
X18467643Y-13832643D01*
X18481928Y-13818357D01*
X18581928Y-13889786D02*
X18596214Y-13875500D01*
X18624786Y-13861214D01*
X18696214Y-13861214D01*
X18724786Y-13875500D01*
X18739071Y-13889786D01*
X18753357Y-13918357D01*
X18753357Y-13946929D01*
X18739071Y-13989786D01*
X18567643Y-14161214D01*
X18753357Y-14161214D01*
X19110500Y-14161214D02*
X19110500Y-13861214D01*
X19239071Y-14161214D02*
X19239071Y-14004071D01*
X19224786Y-13975500D01*
X19196214Y-13961214D01*
X19153357Y-13961214D01*
X19124786Y-13975500D01*
X19110500Y-13989786D01*
X19424786Y-14161214D02*
X19396214Y-14146929D01*
X19381928Y-14132643D01*
X19367643Y-14104071D01*
X19367643Y-14018357D01*
X19381928Y-13989786D01*
X19396214Y-13975500D01*
X19424786Y-13961214D01*
X19467643Y-13961214D01*
X19496214Y-13975500D01*
X19510500Y-13989786D01*
X19524786Y-14018357D01*
X19524786Y-14104071D01*
X19510500Y-14132643D01*
X19496214Y-14146929D01*
X19467643Y-14161214D01*
X19424786Y-14161214D01*
X19696214Y-14161214D02*
X19667643Y-14146929D01*
X19653357Y-14118357D01*
X19653357Y-13861214D01*
X19924786Y-14146929D02*
X19896214Y-14161214D01*
X19839071Y-14161214D01*
X19810500Y-14146929D01*
X19796214Y-14118357D01*
X19796214Y-14004071D01*
X19810500Y-13975500D01*
X19839071Y-13961214D01*
X19896214Y-13961214D01*
X19924786Y-13975500D01*
X19939071Y-14004071D01*
X19939071Y-14032643D01*
X19796214Y-14061214D01*
X20053357Y-14146929D02*
X20081929Y-14161214D01*
X20139071Y-14161214D01*
X20167643Y-14146929D01*
X20181929Y-14118357D01*
X20181929Y-14104071D01*
X20167643Y-14075500D01*
X20139071Y-14061214D01*
X20096214Y-14061214D01*
X20067643Y-14046929D01*
X20053357Y-14018357D01*
X20053357Y-14004071D01*
X20067643Y-13975500D01*
X20096214Y-13961214D01*
X20139071Y-13961214D01*
X20167643Y-13975500D01*
X20281928Y-14275500D02*
X20296214Y-14261214D01*
X20324786Y-14218357D01*
X20339071Y-14189786D01*
X20353357Y-14146929D01*
X20367643Y-14075500D01*
X20367643Y-14018357D01*
X20353357Y-13946929D01*
X20339071Y-13904071D01*
X20324786Y-13875500D01*
X20296214Y-13832643D01*
X20281928Y-13818357D01*
X13769860Y-14380860D02*
X13769860Y-14462140D01*
X13729220Y-14421500D02*
X13810500Y-14421500D01*
X14139071Y-14257214D02*
X14167643Y-14257214D01*
X14196214Y-14271500D01*
X14210500Y-14285786D01*
X14224786Y-14314357D01*
X14239071Y-14371500D01*
X14239071Y-14442929D01*
X14224786Y-14500071D01*
X14210500Y-14528643D01*
X14196214Y-14542929D01*
X14167643Y-14557214D01*
X14139071Y-14557214D01*
X14110500Y-14542929D01*
X14096214Y-14528643D01*
X14081928Y-14500071D01*
X14067643Y-14442929D01*
X14067643Y-14371500D01*
X14081928Y-14314357D01*
X14096214Y-14285786D01*
X14110500Y-14271500D01*
X14139071Y-14257214D01*
X14367643Y-14528643D02*
X14381928Y-14542929D01*
X14367643Y-14557214D01*
X14353357Y-14542929D01*
X14367643Y-14528643D01*
X14367643Y-14557214D01*
X14553357Y-14385786D02*
X14524786Y-14371500D01*
X14510500Y-14357214D01*
X14496214Y-14328643D01*
X14496214Y-14314357D01*
X14510500Y-14285786D01*
X14524786Y-14271500D01*
X14553357Y-14257214D01*
X14610500Y-14257214D01*
X14639071Y-14271500D01*
X14653357Y-14285786D01*
X14667643Y-14314357D01*
X14667643Y-14328643D01*
X14653357Y-14357214D01*
X14639071Y-14371500D01*
X14610500Y-14385786D01*
X14553357Y-14385786D01*
X14524786Y-14400071D01*
X14510500Y-14414357D01*
X14496214Y-14442929D01*
X14496214Y-14500071D01*
X14510500Y-14528643D01*
X14524786Y-14542929D01*
X14553357Y-14557214D01*
X14610500Y-14557214D01*
X14639071Y-14542929D01*
X14653357Y-14528643D01*
X14667643Y-14500071D01*
X14667643Y-14442929D01*
X14653357Y-14414357D01*
X14639071Y-14400071D01*
X14610500Y-14385786D01*
X14953357Y-14557214D02*
X14781928Y-14557214D01*
X14867643Y-14557214D02*
X14867643Y-14257214D01*
X14839071Y-14300071D01*
X14810500Y-14328643D01*
X14781928Y-14342929D01*
X15081928Y-14557214D02*
X15081928Y-14357214D01*
X15081928Y-14385786D02*
X15096214Y-14371500D01*
X15124786Y-14357214D01*
X15167643Y-14357214D01*
X15196214Y-14371500D01*
X15210500Y-14400071D01*
X15210500Y-14557214D01*
X15210500Y-14400071D02*
X15224786Y-14371500D01*
X15253357Y-14357214D01*
X15296214Y-14357214D01*
X15324786Y-14371500D01*
X15339071Y-14400071D01*
X15339071Y-14557214D01*
X15481928Y-14557214D02*
X15481928Y-14357214D01*
X15481928Y-14385786D02*
X15496214Y-14371500D01*
X15524786Y-14357214D01*
X15567643Y-14357214D01*
X15596214Y-14371500D01*
X15610500Y-14400071D01*
X15610500Y-14557214D01*
X15610500Y-14400071D02*
X15624786Y-14371500D01*
X15653357Y-14357214D01*
X15696214Y-14357214D01*
X15724786Y-14371500D01*
X15739071Y-14400071D01*
X15739071Y-14557214D01*
X16324786Y-14242929D02*
X16067643Y-14628643D01*
X16710500Y-14257214D02*
X16739071Y-14257214D01*
X16767643Y-14271500D01*
X16781928Y-14285786D01*
X16796214Y-14314357D01*
X16810500Y-14371500D01*
X16810500Y-14442929D01*
X16796214Y-14500071D01*
X16781928Y-14528643D01*
X16767643Y-14542929D01*
X16739071Y-14557214D01*
X16710500Y-14557214D01*
X16681928Y-14542929D01*
X16667643Y-14528643D01*
X16653357Y-14500071D01*
X16639071Y-14442929D01*
X16639071Y-14371500D01*
X16653357Y-14314357D01*
X16667643Y-14285786D01*
X16681928Y-14271500D01*
X16710500Y-14257214D01*
X16939071Y-14528643D02*
X16953357Y-14542929D01*
X16939071Y-14557214D01*
X16924786Y-14542929D01*
X16939071Y-14528643D01*
X16939071Y-14557214D01*
X17139071Y-14257214D02*
X17167643Y-14257214D01*
X17196214Y-14271500D01*
X17210500Y-14285786D01*
X17224786Y-14314357D01*
X17239071Y-14371500D01*
X17239071Y-14442929D01*
X17224786Y-14500071D01*
X17210500Y-14528643D01*
X17196214Y-14542929D01*
X17167643Y-14557214D01*
X17139071Y-14557214D01*
X17110500Y-14542929D01*
X17096214Y-14528643D01*
X17081928Y-14500071D01*
X17067643Y-14442929D01*
X17067643Y-14371500D01*
X17081928Y-14314357D01*
X17096214Y-14285786D01*
X17110500Y-14271500D01*
X17139071Y-14257214D01*
X17339071Y-14257214D02*
X17524786Y-14257214D01*
X17424786Y-14371500D01*
X17467643Y-14371500D01*
X17496214Y-14385786D01*
X17510500Y-14400071D01*
X17524786Y-14428643D01*
X17524786Y-14500071D01*
X17510500Y-14528643D01*
X17496214Y-14542929D01*
X17467643Y-14557214D01*
X17381928Y-14557214D01*
X17353357Y-14542929D01*
X17339071Y-14528643D01*
X17639071Y-14285786D02*
X17653357Y-14271500D01*
X17681928Y-14257214D01*
X17753357Y-14257214D01*
X17781928Y-14271500D01*
X17796214Y-14285786D01*
X17810500Y-14314357D01*
X17810500Y-14342929D01*
X17796214Y-14385786D01*
X17624786Y-14557214D01*
X17810500Y-14557214D01*
X17924786Y-14257214D02*
X17924786Y-14314357D01*
X18039071Y-14257214D02*
X18039071Y-14314357D01*
X18481928Y-14671500D02*
X18467643Y-14657214D01*
X18439071Y-14614357D01*
X18424786Y-14585786D01*
X18410500Y-14542929D01*
X18396214Y-14471500D01*
X18396214Y-14414357D01*
X18410500Y-14342929D01*
X18424786Y-14300071D01*
X18439071Y-14271500D01*
X18467643Y-14228643D01*
X18481928Y-14214357D01*
X18567643Y-14257214D02*
X18753357Y-14257214D01*
X18653357Y-14371500D01*
X18696214Y-14371500D01*
X18724786Y-14385786D01*
X18739071Y-14400071D01*
X18753357Y-14428643D01*
X18753357Y-14500071D01*
X18739071Y-14528643D01*
X18724786Y-14542929D01*
X18696214Y-14557214D01*
X18610500Y-14557214D01*
X18581928Y-14542929D01*
X18567643Y-14528643D01*
X19110500Y-14557214D02*
X19110500Y-14257214D01*
X19239071Y-14557214D02*
X19239071Y-14400071D01*
X19224786Y-14371500D01*
X19196214Y-14357214D01*
X19153357Y-14357214D01*
X19124786Y-14371500D01*
X19110500Y-14385786D01*
X19424786Y-14557214D02*
X19396214Y-14542929D01*
X19381928Y-14528643D01*
X19367643Y-14500071D01*
X19367643Y-14414357D01*
X19381928Y-14385786D01*
X19396214Y-14371500D01*
X19424786Y-14357214D01*
X19467643Y-14357214D01*
X19496214Y-14371500D01*
X19510500Y-14385786D01*
X19524786Y-14414357D01*
X19524786Y-14500071D01*
X19510500Y-14528643D01*
X19496214Y-14542929D01*
X19467643Y-14557214D01*
X19424786Y-14557214D01*
X19696214Y-14557214D02*
X19667643Y-14542929D01*
X19653357Y-14514357D01*
X19653357Y-14257214D01*
X19924786Y-14542929D02*
X19896214Y-14557214D01*
X19839071Y-14557214D01*
X19810500Y-14542929D01*
X19796214Y-14514357D01*
X19796214Y-14400071D01*
X19810500Y-14371500D01*
X19839071Y-14357214D01*
X19896214Y-14357214D01*
X19924786Y-14371500D01*
X19939071Y-14400071D01*
X19939071Y-14428643D01*
X19796214Y-14457214D01*
X20053357Y-14542929D02*
X20081929Y-14557214D01*
X20139071Y-14557214D01*
X20167643Y-14542929D01*
X20181929Y-14514357D01*
X20181929Y-14500071D01*
X20167643Y-14471500D01*
X20139071Y-14457214D01*
X20096214Y-14457214D01*
X20067643Y-14442929D01*
X20053357Y-14414357D01*
X20053357Y-14400071D01*
X20067643Y-14371500D01*
X20096214Y-14357214D01*
X20139071Y-14357214D01*
X20167643Y-14371500D01*
X20281928Y-14671500D02*
X20296214Y-14657214D01*
X20324786Y-14614357D01*
X20339071Y-14585786D01*
X20353357Y-14542929D01*
X20367643Y-14471500D01*
X20367643Y-14414357D01*
X20353357Y-14342929D01*
X20339071Y-14300071D01*
X20324786Y-14271500D01*
X20296214Y-14228643D01*
X20281928Y-14214357D01*
X13795621Y-14853421D02*
X13795621Y-14781579D01*
X13723778Y-14781579D01*
X13723778Y-14853421D01*
X13795621Y-14853421D01*
X14239071Y-14953214D02*
X14067643Y-14953214D01*
X14153357Y-14953214D02*
X14153357Y-14653214D01*
X14124786Y-14696071D01*
X14096214Y-14724643D01*
X14067643Y-14738929D01*
X14367643Y-14924643D02*
X14381928Y-14938929D01*
X14367643Y-14953214D01*
X14353357Y-14938929D01*
X14367643Y-14924643D01*
X14367643Y-14953214D01*
X14567643Y-14653214D02*
X14596214Y-14653214D01*
X14624786Y-14667500D01*
X14639071Y-14681786D01*
X14653357Y-14710357D01*
X14667643Y-14767500D01*
X14667643Y-14838929D01*
X14653357Y-14896071D01*
X14639071Y-14924643D01*
X14624786Y-14938929D01*
X14596214Y-14953214D01*
X14567643Y-14953214D01*
X14539071Y-14938929D01*
X14524786Y-14924643D01*
X14510500Y-14896071D01*
X14496214Y-14838929D01*
X14496214Y-14767500D01*
X14510500Y-14710357D01*
X14524786Y-14681786D01*
X14539071Y-14667500D01*
X14567643Y-14653214D01*
X14781928Y-14681786D02*
X14796214Y-14667500D01*
X14824786Y-14653214D01*
X14896214Y-14653214D01*
X14924786Y-14667500D01*
X14939071Y-14681786D01*
X14953357Y-14710357D01*
X14953357Y-14738929D01*
X14939071Y-14781786D01*
X14767643Y-14953214D01*
X14953357Y-14953214D01*
X15081928Y-14953214D02*
X15081928Y-14753214D01*
X15081928Y-14781786D02*
X15096214Y-14767500D01*
X15124786Y-14753214D01*
X15167643Y-14753214D01*
X15196214Y-14767500D01*
X15210500Y-14796071D01*
X15210500Y-14953214D01*
X15210500Y-14796071D02*
X15224786Y-14767500D01*
X15253357Y-14753214D01*
X15296214Y-14753214D01*
X15324786Y-14767500D01*
X15339071Y-14796071D01*
X15339071Y-14953214D01*
X15481928Y-14953214D02*
X15481928Y-14753214D01*
X15481928Y-14781786D02*
X15496214Y-14767500D01*
X15524786Y-14753214D01*
X15567643Y-14753214D01*
X15596214Y-14767500D01*
X15610500Y-14796071D01*
X15610500Y-14953214D01*
X15610500Y-14796071D02*
X15624786Y-14767500D01*
X15653357Y-14753214D01*
X15696214Y-14753214D01*
X15724786Y-14767500D01*
X15739071Y-14796071D01*
X15739071Y-14953214D01*
X16324786Y-14638929D02*
X16067643Y-15024643D01*
X16710500Y-14653214D02*
X16739071Y-14653214D01*
X16767643Y-14667500D01*
X16781928Y-14681786D01*
X16796214Y-14710357D01*
X16810500Y-14767500D01*
X16810500Y-14838929D01*
X16796214Y-14896071D01*
X16781928Y-14924643D01*
X16767643Y-14938929D01*
X16739071Y-14953214D01*
X16710500Y-14953214D01*
X16681928Y-14938929D01*
X16667643Y-14924643D01*
X16653357Y-14896071D01*
X16639071Y-14838929D01*
X16639071Y-14767500D01*
X16653357Y-14710357D01*
X16667643Y-14681786D01*
X16681928Y-14667500D01*
X16710500Y-14653214D01*
X16939071Y-14924643D02*
X16953357Y-14938929D01*
X16939071Y-14953214D01*
X16924786Y-14938929D01*
X16939071Y-14924643D01*
X16939071Y-14953214D01*
X17139071Y-14653214D02*
X17167643Y-14653214D01*
X17196214Y-14667500D01*
X17210500Y-14681786D01*
X17224786Y-14710357D01*
X17239071Y-14767500D01*
X17239071Y-14838929D01*
X17224786Y-14896071D01*
X17210500Y-14924643D01*
X17196214Y-14938929D01*
X17167643Y-14953214D01*
X17139071Y-14953214D01*
X17110500Y-14938929D01*
X17096214Y-14924643D01*
X17081928Y-14896071D01*
X17067643Y-14838929D01*
X17067643Y-14767500D01*
X17081928Y-14710357D01*
X17096214Y-14681786D01*
X17110500Y-14667500D01*
X17139071Y-14653214D01*
X17496214Y-14753214D02*
X17496214Y-14953214D01*
X17424786Y-14638929D02*
X17353357Y-14853214D01*
X17539071Y-14853214D01*
X17710500Y-14653214D02*
X17739071Y-14653214D01*
X17767643Y-14667500D01*
X17781928Y-14681786D01*
X17796214Y-14710357D01*
X17810500Y-14767500D01*
X17810500Y-14838929D01*
X17796214Y-14896071D01*
X17781928Y-14924643D01*
X17767643Y-14938929D01*
X17739071Y-14953214D01*
X17710500Y-14953214D01*
X17681928Y-14938929D01*
X17667643Y-14924643D01*
X17653357Y-14896071D01*
X17639071Y-14838929D01*
X17639071Y-14767500D01*
X17653357Y-14710357D01*
X17667643Y-14681786D01*
X17681928Y-14667500D01*
X17710500Y-14653214D01*
X17924786Y-14653214D02*
X17924786Y-14710357D01*
X18039071Y-14653214D02*
X18039071Y-14710357D01*
X18481928Y-15067500D02*
X18467643Y-15053214D01*
X18439071Y-15010357D01*
X18424786Y-14981786D01*
X18410500Y-14938929D01*
X18396214Y-14867500D01*
X18396214Y-14810357D01*
X18410500Y-14738929D01*
X18424786Y-14696071D01*
X18439071Y-14667500D01*
X18467643Y-14624643D01*
X18481928Y-14610357D01*
X18639071Y-14781786D02*
X18610500Y-14767500D01*
X18596214Y-14753214D01*
X18581928Y-14724643D01*
X18581928Y-14710357D01*
X18596214Y-14681786D01*
X18610500Y-14667500D01*
X18639071Y-14653214D01*
X18696214Y-14653214D01*
X18724786Y-14667500D01*
X18739071Y-14681786D01*
X18753357Y-14710357D01*
X18753357Y-14724643D01*
X18739071Y-14753214D01*
X18724786Y-14767500D01*
X18696214Y-14781786D01*
X18639071Y-14781786D01*
X18610500Y-14796071D01*
X18596214Y-14810357D01*
X18581928Y-14838929D01*
X18581928Y-14896071D01*
X18596214Y-14924643D01*
X18610500Y-14938929D01*
X18639071Y-14953214D01*
X18696214Y-14953214D01*
X18724786Y-14938929D01*
X18739071Y-14924643D01*
X18753357Y-14896071D01*
X18753357Y-14838929D01*
X18739071Y-14810357D01*
X18724786Y-14796071D01*
X18696214Y-14781786D01*
X19110500Y-14953214D02*
X19110500Y-14653214D01*
X19239071Y-14953214D02*
X19239071Y-14796071D01*
X19224786Y-14767500D01*
X19196214Y-14753214D01*
X19153357Y-14753214D01*
X19124786Y-14767500D01*
X19110500Y-14781786D01*
X19424786Y-14953214D02*
X19396214Y-14938929D01*
X19381928Y-14924643D01*
X19367643Y-14896071D01*
X19367643Y-14810357D01*
X19381928Y-14781786D01*
X19396214Y-14767500D01*
X19424786Y-14753214D01*
X19467643Y-14753214D01*
X19496214Y-14767500D01*
X19510500Y-14781786D01*
X19524786Y-14810357D01*
X19524786Y-14896071D01*
X19510500Y-14924643D01*
X19496214Y-14938929D01*
X19467643Y-14953214D01*
X19424786Y-14953214D01*
X19696214Y-14953214D02*
X19667643Y-14938929D01*
X19653357Y-14910357D01*
X19653357Y-14653214D01*
X19924786Y-14938929D02*
X19896214Y-14953214D01*
X19839071Y-14953214D01*
X19810500Y-14938929D01*
X19796214Y-14910357D01*
X19796214Y-14796071D01*
X19810500Y-14767500D01*
X19839071Y-14753214D01*
X19896214Y-14753214D01*
X19924786Y-14767500D01*
X19939071Y-14796071D01*
X19939071Y-14824643D01*
X19796214Y-14853214D01*
X20053357Y-14938929D02*
X20081929Y-14953214D01*
X20139071Y-14953214D01*
X20167643Y-14938929D01*
X20181929Y-14910357D01*
X20181929Y-14896071D01*
X20167643Y-14867500D01*
X20139071Y-14853214D01*
X20096214Y-14853214D01*
X20067643Y-14838929D01*
X20053357Y-14810357D01*
X20053357Y-14796071D01*
X20067643Y-14767500D01*
X20096214Y-14753214D01*
X20139071Y-14753214D01*
X20167643Y-14767500D01*
X20281928Y-15067500D02*
X20296214Y-15053214D01*
X20324786Y-15010357D01*
X20339071Y-14981786D01*
X20353357Y-14938929D01*
X20367643Y-14867500D01*
X20367643Y-14810357D01*
X20353357Y-14738929D01*
X20339071Y-14696071D01*
X20324786Y-14667500D01*
X20296214Y-14624643D01*
X20281928Y-14610357D01*
X13750556Y-15273444D02*
X13810500Y-15213500D01*
X13750556Y-15153556D01*
X13690612Y-15213500D01*
X13750556Y-15273444D01*
X14239071Y-15349214D02*
X14067643Y-15349214D01*
X14153357Y-15349214D02*
X14153357Y-15049214D01*
X14124786Y-15092071D01*
X14096214Y-15120643D01*
X14067643Y-15134929D01*
X14367643Y-15320643D02*
X14381928Y-15334929D01*
X14367643Y-15349214D01*
X14353357Y-15334929D01*
X14367643Y-15320643D01*
X14367643Y-15349214D01*
X14496214Y-15077786D02*
X14510500Y-15063500D01*
X14539071Y-15049214D01*
X14610500Y-15049214D01*
X14639071Y-15063500D01*
X14653357Y-15077786D01*
X14667643Y-15106357D01*
X14667643Y-15134929D01*
X14653357Y-15177786D01*
X14481928Y-15349214D01*
X14667643Y-15349214D01*
X14853357Y-15049214D02*
X14881928Y-15049214D01*
X14910500Y-15063500D01*
X14924786Y-15077786D01*
X14939071Y-15106357D01*
X14953357Y-15163500D01*
X14953357Y-15234929D01*
X14939071Y-15292071D01*
X14924786Y-15320643D01*
X14910500Y-15334929D01*
X14881928Y-15349214D01*
X14853357Y-15349214D01*
X14824786Y-15334929D01*
X14810500Y-15320643D01*
X14796214Y-15292071D01*
X14781928Y-15234929D01*
X14781928Y-15163500D01*
X14796214Y-15106357D01*
X14810500Y-15077786D01*
X14824786Y-15063500D01*
X14853357Y-15049214D01*
X15081928Y-15349214D02*
X15081928Y-15149214D01*
X15081928Y-15177786D02*
X15096214Y-15163500D01*
X15124786Y-15149214D01*
X15167643Y-15149214D01*
X15196214Y-15163500D01*
X15210500Y-15192071D01*
X15210500Y-15349214D01*
X15210500Y-15192071D02*
X15224786Y-15163500D01*
X15253357Y-15149214D01*
X15296214Y-15149214D01*
X15324786Y-15163500D01*
X15339071Y-15192071D01*
X15339071Y-15349214D01*
X15481928Y-15349214D02*
X15481928Y-15149214D01*
X15481928Y-15177786D02*
X15496214Y-15163500D01*
X15524786Y-15149214D01*
X15567643Y-15149214D01*
X15596214Y-15163500D01*
X15610500Y-15192071D01*
X15610500Y-15349214D01*
X15610500Y-15192071D02*
X15624786Y-15163500D01*
X15653357Y-15149214D01*
X15696214Y-15149214D01*
X15724786Y-15163500D01*
X15739071Y-15192071D01*
X15739071Y-15349214D01*
X16324786Y-15034929D02*
X16067643Y-15420643D01*
X16710500Y-15049214D02*
X16739071Y-15049214D01*
X16767643Y-15063500D01*
X16781928Y-15077786D01*
X16796214Y-15106357D01*
X16810500Y-15163500D01*
X16810500Y-15234929D01*
X16796214Y-15292071D01*
X16781928Y-15320643D01*
X16767643Y-15334929D01*
X16739071Y-15349214D01*
X16710500Y-15349214D01*
X16681928Y-15334929D01*
X16667643Y-15320643D01*
X16653357Y-15292071D01*
X16639071Y-15234929D01*
X16639071Y-15163500D01*
X16653357Y-15106357D01*
X16667643Y-15077786D01*
X16681928Y-15063500D01*
X16710500Y-15049214D01*
X16939071Y-15320643D02*
X16953357Y-15334929D01*
X16939071Y-15349214D01*
X16924786Y-15334929D01*
X16939071Y-15320643D01*
X16939071Y-15349214D01*
X17139071Y-15049214D02*
X17167643Y-15049214D01*
X17196214Y-15063500D01*
X17210500Y-15077786D01*
X17224786Y-15106357D01*
X17239071Y-15163500D01*
X17239071Y-15234929D01*
X17224786Y-15292071D01*
X17210500Y-15320643D01*
X17196214Y-15334929D01*
X17167643Y-15349214D01*
X17139071Y-15349214D01*
X17110500Y-15334929D01*
X17096214Y-15320643D01*
X17081928Y-15292071D01*
X17067643Y-15234929D01*
X17067643Y-15163500D01*
X17081928Y-15106357D01*
X17096214Y-15077786D01*
X17110500Y-15063500D01*
X17139071Y-15049214D01*
X17496214Y-15149214D02*
X17496214Y-15349214D01*
X17424786Y-15034929D02*
X17353357Y-15249214D01*
X17539071Y-15249214D01*
X17624786Y-15049214D02*
X17824786Y-15049214D01*
X17696214Y-15349214D01*
X17924786Y-15049214D02*
X17924786Y-15106357D01*
X18039071Y-15049214D02*
X18039071Y-15106357D01*
X18481928Y-15463500D02*
X18467643Y-15449214D01*
X18439071Y-15406357D01*
X18424786Y-15377786D01*
X18410500Y-15334929D01*
X18396214Y-15263500D01*
X18396214Y-15206357D01*
X18410500Y-15134929D01*
X18424786Y-15092071D01*
X18439071Y-15063500D01*
X18467643Y-15020643D01*
X18481928Y-15006357D01*
X18581928Y-15077786D02*
X18596214Y-15063500D01*
X18624786Y-15049214D01*
X18696214Y-15049214D01*
X18724786Y-15063500D01*
X18739071Y-15077786D01*
X18753357Y-15106357D01*
X18753357Y-15134929D01*
X18739071Y-15177786D01*
X18567643Y-15349214D01*
X18753357Y-15349214D01*
X19110500Y-15349214D02*
X19110500Y-15049214D01*
X19239071Y-15349214D02*
X19239071Y-15192071D01*
X19224786Y-15163500D01*
X19196214Y-15149214D01*
X19153357Y-15149214D01*
X19124786Y-15163500D01*
X19110500Y-15177786D01*
X19424786Y-15349214D02*
X19396214Y-15334929D01*
X19381928Y-15320643D01*
X19367643Y-15292071D01*
X19367643Y-15206357D01*
X19381928Y-15177786D01*
X19396214Y-15163500D01*
X19424786Y-15149214D01*
X19467643Y-15149214D01*
X19496214Y-15163500D01*
X19510500Y-15177786D01*
X19524786Y-15206357D01*
X19524786Y-15292071D01*
X19510500Y-15320643D01*
X19496214Y-15334929D01*
X19467643Y-15349214D01*
X19424786Y-15349214D01*
X19696214Y-15349214D02*
X19667643Y-15334929D01*
X19653357Y-15306357D01*
X19653357Y-15049214D01*
X19924786Y-15334929D02*
X19896214Y-15349214D01*
X19839071Y-15349214D01*
X19810500Y-15334929D01*
X19796214Y-15306357D01*
X19796214Y-15192071D01*
X19810500Y-15163500D01*
X19839071Y-15149214D01*
X19896214Y-15149214D01*
X19924786Y-15163500D01*
X19939071Y-15192071D01*
X19939071Y-15220643D01*
X19796214Y-15249214D01*
X20053357Y-15334929D02*
X20081929Y-15349214D01*
X20139071Y-15349214D01*
X20167643Y-15334929D01*
X20181929Y-15306357D01*
X20181929Y-15292071D01*
X20167643Y-15263500D01*
X20139071Y-15249214D01*
X20096214Y-15249214D01*
X20067643Y-15234929D01*
X20053357Y-15206357D01*
X20053357Y-15192071D01*
X20067643Y-15163500D01*
X20096214Y-15149214D01*
X20139071Y-15149214D01*
X20167643Y-15163500D01*
X20281928Y-15463500D02*
X20296214Y-15449214D01*
X20324786Y-15406357D01*
X20339071Y-15377786D01*
X20353357Y-15334929D01*
X20367643Y-15263500D01*
X20367643Y-15206357D01*
X20353357Y-15134929D01*
X20339071Y-15092071D01*
X20324786Y-15063500D01*
X20296214Y-15020643D01*
X20281928Y-15006357D01*
X13610500Y-15509500D02*
X13810500Y-15709500D01*
X13810500Y-15509500D02*
X13610500Y-15709500D01*
X13810500Y-15609500D02*
G75*
G03X13810500Y-15609500I-100000J0D01*
G01*
X14067643Y-15473786D02*
X14081928Y-15459500D01*
X14110500Y-15445214D01*
X14181928Y-15445214D01*
X14210500Y-15459500D01*
X14224786Y-15473786D01*
X14239071Y-15502357D01*
X14239071Y-15530929D01*
X14224786Y-15573786D01*
X14053357Y-15745214D01*
X14239071Y-15745214D01*
X14367643Y-15716643D02*
X14381928Y-15730929D01*
X14367643Y-15745214D01*
X14353357Y-15730929D01*
X14367643Y-15716643D01*
X14367643Y-15745214D01*
X14567643Y-15445214D02*
X14596214Y-15445214D01*
X14624786Y-15459500D01*
X14639071Y-15473786D01*
X14653357Y-15502357D01*
X14667643Y-15559500D01*
X14667643Y-15630929D01*
X14653357Y-15688071D01*
X14639071Y-15716643D01*
X14624786Y-15730929D01*
X14596214Y-15745214D01*
X14567643Y-15745214D01*
X14539071Y-15730929D01*
X14524786Y-15716643D01*
X14510500Y-15688071D01*
X14496214Y-15630929D01*
X14496214Y-15559500D01*
X14510500Y-15502357D01*
X14524786Y-15473786D01*
X14539071Y-15459500D01*
X14567643Y-15445214D01*
X14853357Y-15445214D02*
X14881928Y-15445214D01*
X14910500Y-15459500D01*
X14924786Y-15473786D01*
X14939071Y-15502357D01*
X14953357Y-15559500D01*
X14953357Y-15630929D01*
X14939071Y-15688071D01*
X14924786Y-15716643D01*
X14910500Y-15730929D01*
X14881928Y-15745214D01*
X14853357Y-15745214D01*
X14824786Y-15730929D01*
X14810500Y-15716643D01*
X14796214Y-15688071D01*
X14781928Y-15630929D01*
X14781928Y-15559500D01*
X14796214Y-15502357D01*
X14810500Y-15473786D01*
X14824786Y-15459500D01*
X14853357Y-15445214D01*
X15081928Y-15745214D02*
X15081928Y-15545214D01*
X15081928Y-15573786D02*
X15096214Y-15559500D01*
X15124786Y-15545214D01*
X15167643Y-15545214D01*
X15196214Y-15559500D01*
X15210500Y-15588071D01*
X15210500Y-15745214D01*
X15210500Y-15588071D02*
X15224786Y-15559500D01*
X15253357Y-15545214D01*
X15296214Y-15545214D01*
X15324786Y-15559500D01*
X15339071Y-15588071D01*
X15339071Y-15745214D01*
X15481928Y-15745214D02*
X15481928Y-15545214D01*
X15481928Y-15573786D02*
X15496214Y-15559500D01*
X15524786Y-15545214D01*
X15567643Y-15545214D01*
X15596214Y-15559500D01*
X15610500Y-15588071D01*
X15610500Y-15745214D01*
X15610500Y-15588071D02*
X15624786Y-15559500D01*
X15653357Y-15545214D01*
X15696214Y-15545214D01*
X15724786Y-15559500D01*
X15739071Y-15588071D01*
X15739071Y-15745214D01*
X16324786Y-15430929D02*
X16067643Y-15816643D01*
X16710500Y-15445214D02*
X16739071Y-15445214D01*
X16767643Y-15459500D01*
X16781928Y-15473786D01*
X16796214Y-15502357D01*
X16810500Y-15559500D01*
X16810500Y-15630929D01*
X16796214Y-15688071D01*
X16781928Y-15716643D01*
X16767643Y-15730929D01*
X16739071Y-15745214D01*
X16710500Y-15745214D01*
X16681928Y-15730929D01*
X16667643Y-15716643D01*
X16653357Y-15688071D01*
X16639071Y-15630929D01*
X16639071Y-15559500D01*
X16653357Y-15502357D01*
X16667643Y-15473786D01*
X16681928Y-15459500D01*
X16710500Y-15445214D01*
X16939071Y-15716643D02*
X16953357Y-15730929D01*
X16939071Y-15745214D01*
X16924786Y-15730929D01*
X16939071Y-15716643D01*
X16939071Y-15745214D01*
X17139071Y-15445214D02*
X17167643Y-15445214D01*
X17196214Y-15459500D01*
X17210500Y-15473786D01*
X17224786Y-15502357D01*
X17239071Y-15559500D01*
X17239071Y-15630929D01*
X17224786Y-15688071D01*
X17210500Y-15716643D01*
X17196214Y-15730929D01*
X17167643Y-15745214D01*
X17139071Y-15745214D01*
X17110500Y-15730929D01*
X17096214Y-15716643D01*
X17081928Y-15688071D01*
X17067643Y-15630929D01*
X17067643Y-15559500D01*
X17081928Y-15502357D01*
X17096214Y-15473786D01*
X17110500Y-15459500D01*
X17139071Y-15445214D01*
X17339071Y-15445214D02*
X17539071Y-15445214D01*
X17410500Y-15745214D01*
X17667643Y-15745214D02*
X17724786Y-15745214D01*
X17753357Y-15730929D01*
X17767643Y-15716643D01*
X17796214Y-15673786D01*
X17810500Y-15616643D01*
X17810500Y-15502357D01*
X17796214Y-15473786D01*
X17781928Y-15459500D01*
X17753357Y-15445214D01*
X17696214Y-15445214D01*
X17667643Y-15459500D01*
X17653357Y-15473786D01*
X17639071Y-15502357D01*
X17639071Y-15573786D01*
X17653357Y-15602357D01*
X17667643Y-15616643D01*
X17696214Y-15630929D01*
X17753357Y-15630929D01*
X17781928Y-15616643D01*
X17796214Y-15602357D01*
X17810500Y-15573786D01*
X17924786Y-15445214D02*
X17924786Y-15502357D01*
X18039071Y-15445214D02*
X18039071Y-15502357D01*
X18481928Y-15859500D02*
X18467643Y-15845214D01*
X18439071Y-15802357D01*
X18424786Y-15773786D01*
X18410500Y-15730929D01*
X18396214Y-15659500D01*
X18396214Y-15602357D01*
X18410500Y-15530929D01*
X18424786Y-15488071D01*
X18439071Y-15459500D01*
X18467643Y-15416643D01*
X18481928Y-15402357D01*
X18567643Y-15445214D02*
X18753357Y-15445214D01*
X18653357Y-15559500D01*
X18696214Y-15559500D01*
X18724786Y-15573786D01*
X18739071Y-15588071D01*
X18753357Y-15616643D01*
X18753357Y-15688071D01*
X18739071Y-15716643D01*
X18724786Y-15730929D01*
X18696214Y-15745214D01*
X18610500Y-15745214D01*
X18581928Y-15730929D01*
X18567643Y-15716643D01*
X19110500Y-15745214D02*
X19110500Y-15445214D01*
X19239071Y-15745214D02*
X19239071Y-15588071D01*
X19224786Y-15559500D01*
X19196214Y-15545214D01*
X19153357Y-15545214D01*
X19124786Y-15559500D01*
X19110500Y-15573786D01*
X19424786Y-15745214D02*
X19396214Y-15730929D01*
X19381928Y-15716643D01*
X19367643Y-15688071D01*
X19367643Y-15602357D01*
X19381928Y-15573786D01*
X19396214Y-15559500D01*
X19424786Y-15545214D01*
X19467643Y-15545214D01*
X19496214Y-15559500D01*
X19510500Y-15573786D01*
X19524786Y-15602357D01*
X19524786Y-15688071D01*
X19510500Y-15716643D01*
X19496214Y-15730929D01*
X19467643Y-15745214D01*
X19424786Y-15745214D01*
X19696214Y-15745214D02*
X19667643Y-15730929D01*
X19653357Y-15702357D01*
X19653357Y-15445214D01*
X19924786Y-15730929D02*
X19896214Y-15745214D01*
X19839071Y-15745214D01*
X19810500Y-15730929D01*
X19796214Y-15702357D01*
X19796214Y-15588071D01*
X19810500Y-15559500D01*
X19839071Y-15545214D01*
X19896214Y-15545214D01*
X19924786Y-15559500D01*
X19939071Y-15588071D01*
X19939071Y-15616643D01*
X19796214Y-15645214D01*
X20053357Y-15730929D02*
X20081929Y-15745214D01*
X20139071Y-15745214D01*
X20167643Y-15730929D01*
X20181929Y-15702357D01*
X20181929Y-15688071D01*
X20167643Y-15659500D01*
X20139071Y-15645214D01*
X20096214Y-15645214D01*
X20067643Y-15630929D01*
X20053357Y-15602357D01*
X20053357Y-15588071D01*
X20067643Y-15559500D01*
X20096214Y-15545214D01*
X20139071Y-15545214D01*
X20167643Y-15559500D01*
X20281928Y-15859500D02*
X20296214Y-15845214D01*
X20324786Y-15802357D01*
X20339071Y-15773786D01*
X20353357Y-15730929D01*
X20367643Y-15659500D01*
X20367643Y-15602357D01*
X20353357Y-15530929D01*
X20339071Y-15488071D01*
X20324786Y-15459500D01*
X20296214Y-15416643D01*
X20281928Y-15402357D01*
M02*
