G04 #@! TF.FileFunction,Legend,Bot*
%FSLAX46Y46*%
G04 Gerber Fmt 4.6, Leading zero omitted, Abs format (unit mm)*
G04 Created by KiCad (PCBNEW (2015-08-30 BZR 6134, Git 4e94d52)-product) date 03-Sep-15 10:47:18 PM*
%MOMM*%
G01*
G04 APERTURE LIST*
%ADD10C,0.100000*%
%ADD11C,0.250000*%
%ADD12C,0.150000*%
%ADD13R,2.400000X2.100000*%
%ADD14R,1.200100X1.200100*%
%ADD15R,2.400000X2.000000*%
%ADD16R,0.506400X1.370000*%
%ADD17R,1.901140X3.399740*%
%ADD18R,2.432000X2.127200*%
%ADD19O,2.432000X2.127200*%
%ADD20R,2.100000X2.400000*%
%ADD21C,1.924000*%
%ADD22R,2.432000X4.057600*%
%ADD23R,2.432000X1.416000*%
%ADD24O,2.899360X2.398980*%
%ADD25R,0.530000X1.460000*%
%ADD26R,1.875000X2.500000*%
%ADD27R,2.775000X2.300000*%
%ADD28R,1.550000X2.300000*%
%ADD29C,1.901140*%
G04 APERTURE END LIST*
D10*
D11*
X173714457Y-102736067D02*
X173714457Y-102402733D01*
X173033505Y-102259876D02*
X173033505Y-102736067D01*
X174333505Y-102736067D01*
X174333505Y-102259876D01*
X173095410Y-101878924D02*
X173033505Y-101736067D01*
X173033505Y-101497971D01*
X173095410Y-101402733D01*
X173157314Y-101355114D01*
X173281124Y-101307495D01*
X173404933Y-101307495D01*
X173528743Y-101355114D01*
X173590648Y-101402733D01*
X173652552Y-101497971D01*
X173714457Y-101688448D01*
X173776362Y-101783686D01*
X173838267Y-101831305D01*
X173962076Y-101878924D01*
X174085886Y-101878924D01*
X174209695Y-101831305D01*
X174271600Y-101783686D01*
X174333505Y-101688448D01*
X174333505Y-101450352D01*
X174271600Y-101307495D01*
X173033505Y-100878924D02*
X174333505Y-100878924D01*
X174333505Y-100497971D01*
X174271600Y-100402733D01*
X174209695Y-100355114D01*
X174085886Y-100307495D01*
X173900171Y-100307495D01*
X173776362Y-100355114D01*
X173714457Y-100402733D01*
X173652552Y-100497971D01*
X173652552Y-100878924D01*
X173776362Y-99736067D02*
X173838267Y-99831305D01*
X173900171Y-99878924D01*
X174023981Y-99926543D01*
X174085886Y-99926543D01*
X174209695Y-99878924D01*
X174271600Y-99831305D01*
X174333505Y-99736067D01*
X174333505Y-99545590D01*
X174271600Y-99450352D01*
X174209695Y-99402733D01*
X174085886Y-99355114D01*
X174023981Y-99355114D01*
X173900171Y-99402733D01*
X173838267Y-99450352D01*
X173776362Y-99545590D01*
X173776362Y-99736067D01*
X173714457Y-99831305D01*
X173652552Y-99878924D01*
X173528743Y-99926543D01*
X173281124Y-99926543D01*
X173157314Y-99878924D01*
X173095410Y-99831305D01*
X173033505Y-99736067D01*
X173033505Y-99545590D01*
X173095410Y-99450352D01*
X173157314Y-99402733D01*
X173281124Y-99355114D01*
X173528743Y-99355114D01*
X173652552Y-99402733D01*
X173714457Y-99450352D01*
X173776362Y-99545590D01*
X174209695Y-98974162D02*
X174271600Y-98926543D01*
X174333505Y-98831305D01*
X174333505Y-98593209D01*
X174271600Y-98497971D01*
X174209695Y-98450352D01*
X174085886Y-98402733D01*
X173962076Y-98402733D01*
X173776362Y-98450352D01*
X173033505Y-99021781D01*
X173033505Y-98402733D01*
X174209695Y-98021781D02*
X174271600Y-97974162D01*
X174333505Y-97878924D01*
X174333505Y-97640828D01*
X174271600Y-97545590D01*
X174209695Y-97497971D01*
X174085886Y-97450352D01*
X173962076Y-97450352D01*
X173776362Y-97497971D01*
X173033505Y-98069400D01*
X173033505Y-97450352D01*
X174333505Y-96593209D02*
X174333505Y-96783686D01*
X174271600Y-96878924D01*
X174209695Y-96926543D01*
X174023981Y-97021781D01*
X173776362Y-97069400D01*
X173281124Y-97069400D01*
X173157314Y-97021781D01*
X173095410Y-96974162D01*
X173033505Y-96878924D01*
X173033505Y-96688447D01*
X173095410Y-96593209D01*
X173157314Y-96545590D01*
X173281124Y-96497971D01*
X173590648Y-96497971D01*
X173714457Y-96545590D01*
X173776362Y-96593209D01*
X173838267Y-96688447D01*
X173838267Y-96878924D01*
X173776362Y-96974162D01*
X173714457Y-97021781D01*
X173590648Y-97069400D01*
X173528743Y-96069400D02*
X173528743Y-95307495D01*
X174333505Y-94640829D02*
X174333505Y-94545590D01*
X174271600Y-94450352D01*
X174209695Y-94402733D01*
X174085886Y-94355114D01*
X173838267Y-94307495D01*
X173528743Y-94307495D01*
X173281124Y-94355114D01*
X173157314Y-94402733D01*
X173095410Y-94450352D01*
X173033505Y-94545590D01*
X173033505Y-94640829D01*
X173095410Y-94736067D01*
X173157314Y-94783686D01*
X173281124Y-94831305D01*
X173528743Y-94878924D01*
X173838267Y-94878924D01*
X174085886Y-94831305D01*
X174209695Y-94783686D01*
X174271600Y-94736067D01*
X174333505Y-94640829D01*
X174333505Y-93974162D02*
X174333505Y-93307495D01*
X173033505Y-93736067D01*
X170963505Y-102045591D02*
X172263505Y-102045591D01*
X172263505Y-101807496D01*
X172201600Y-101664638D01*
X172077790Y-101569400D01*
X171953981Y-101521781D01*
X171706362Y-101474162D01*
X171520648Y-101474162D01*
X171273029Y-101521781D01*
X171149219Y-101569400D01*
X171025410Y-101664638D01*
X170963505Y-101807496D01*
X170963505Y-102045591D01*
X171025410Y-100664638D02*
X170963505Y-100759876D01*
X170963505Y-100950353D01*
X171025410Y-101045591D01*
X171149219Y-101093210D01*
X171644457Y-101093210D01*
X171768267Y-101045591D01*
X171830171Y-100950353D01*
X171830171Y-100759876D01*
X171768267Y-100664638D01*
X171644457Y-100617019D01*
X171520648Y-100617019D01*
X171396838Y-101093210D01*
X170963505Y-100188448D02*
X171830171Y-100188448D01*
X171706362Y-100188448D02*
X171768267Y-100140829D01*
X171830171Y-100045591D01*
X171830171Y-99902733D01*
X171768267Y-99807495D01*
X171644457Y-99759876D01*
X170963505Y-99759876D01*
X171644457Y-99759876D02*
X171768267Y-99712257D01*
X171830171Y-99617019D01*
X171830171Y-99474162D01*
X171768267Y-99378924D01*
X171644457Y-99331305D01*
X170963505Y-99331305D01*
X170963505Y-98712258D02*
X171025410Y-98807496D01*
X171087314Y-98855115D01*
X171211124Y-98902734D01*
X171582552Y-98902734D01*
X171706362Y-98855115D01*
X171768267Y-98807496D01*
X171830171Y-98712258D01*
X171830171Y-98569400D01*
X171768267Y-98474162D01*
X171706362Y-98426543D01*
X171582552Y-98378924D01*
X171211124Y-98378924D01*
X171087314Y-98426543D01*
X171025410Y-98474162D01*
X170963505Y-98569400D01*
X170963505Y-98712258D01*
X171644457Y-97617019D02*
X171582552Y-97474162D01*
X171520648Y-97426543D01*
X171396838Y-97378924D01*
X171211124Y-97378924D01*
X171087314Y-97426543D01*
X171025410Y-97474162D01*
X170963505Y-97569400D01*
X170963505Y-97950353D01*
X172263505Y-97950353D01*
X172263505Y-97617019D01*
X172201600Y-97521781D01*
X172139695Y-97474162D01*
X172015886Y-97426543D01*
X171892076Y-97426543D01*
X171768267Y-97474162D01*
X171706362Y-97521781D01*
X171644457Y-97617019D01*
X171644457Y-97950353D01*
X170963505Y-96807496D02*
X171025410Y-96902734D01*
X171087314Y-96950353D01*
X171211124Y-96997972D01*
X171582552Y-96997972D01*
X171706362Y-96950353D01*
X171768267Y-96902734D01*
X171830171Y-96807496D01*
X171830171Y-96664638D01*
X171768267Y-96569400D01*
X171706362Y-96521781D01*
X171582552Y-96474162D01*
X171211124Y-96474162D01*
X171087314Y-96521781D01*
X171025410Y-96569400D01*
X170963505Y-96664638D01*
X170963505Y-96807496D01*
X170963505Y-95617019D02*
X171644457Y-95617019D01*
X171768267Y-95664638D01*
X171830171Y-95759876D01*
X171830171Y-95950353D01*
X171768267Y-96045591D01*
X171025410Y-95617019D02*
X170963505Y-95712257D01*
X170963505Y-95950353D01*
X171025410Y-96045591D01*
X171149219Y-96093210D01*
X171273029Y-96093210D01*
X171396838Y-96045591D01*
X171458743Y-95950353D01*
X171458743Y-95712257D01*
X171520648Y-95617019D01*
X170963505Y-95140829D02*
X171830171Y-95140829D01*
X171582552Y-95140829D02*
X171706362Y-95093210D01*
X171768267Y-95045591D01*
X171830171Y-94950353D01*
X171830171Y-94855114D01*
X170963505Y-94093209D02*
X172263505Y-94093209D01*
X171025410Y-94093209D02*
X170963505Y-94188447D01*
X170963505Y-94378924D01*
X171025410Y-94474162D01*
X171087314Y-94521781D01*
X171211124Y-94569400D01*
X171582552Y-94569400D01*
X171706362Y-94521781D01*
X171768267Y-94474162D01*
X171830171Y-94378924D01*
X171830171Y-94188447D01*
X171768267Y-94093209D01*
X170193505Y-99355114D02*
X168893505Y-99021781D01*
X170193505Y-98688447D01*
X170193505Y-98164638D02*
X170193505Y-98069399D01*
X170131600Y-97974161D01*
X170069695Y-97926542D01*
X169945886Y-97878923D01*
X169698267Y-97831304D01*
X169388743Y-97831304D01*
X169141124Y-97878923D01*
X169017314Y-97926542D01*
X168955410Y-97974161D01*
X168893505Y-98069399D01*
X168893505Y-98164638D01*
X168955410Y-98259876D01*
X169017314Y-98307495D01*
X169141124Y-98355114D01*
X169388743Y-98402733D01*
X169698267Y-98402733D01*
X169945886Y-98355114D01*
X170069695Y-98307495D01*
X170131600Y-98259876D01*
X170193505Y-98164638D01*
X168893505Y-96878923D02*
X168893505Y-97450352D01*
X168893505Y-97164638D02*
X170193505Y-97164638D01*
X170007790Y-97259876D01*
X169883981Y-97355114D01*
X169822076Y-97450352D01*
X175013005Y-90631258D02*
X173713005Y-90297925D01*
X175013005Y-89964591D01*
X174579671Y-89726496D02*
X173713005Y-89488401D01*
X174579671Y-89250305D02*
X173713005Y-89488401D01*
X173403481Y-89583639D01*
X173341576Y-89631258D01*
X173279671Y-89726496D01*
X173774910Y-88916972D02*
X173713005Y-88821734D01*
X173713005Y-88631258D01*
X173774910Y-88536019D01*
X173898719Y-88488400D01*
X173960624Y-88488400D01*
X174084433Y-88536019D01*
X174146338Y-88631258D01*
X174146338Y-88774115D01*
X174208243Y-88869353D01*
X174332052Y-88916972D01*
X174393957Y-88916972D01*
X174517767Y-88869353D01*
X174579671Y-88774115D01*
X174579671Y-88631258D01*
X174517767Y-88536019D01*
X173713005Y-87631257D02*
X174393957Y-87631257D01*
X174517767Y-87678876D01*
X174579671Y-87774114D01*
X174579671Y-87964591D01*
X174517767Y-88059829D01*
X173774910Y-87631257D02*
X173713005Y-87726495D01*
X173713005Y-87964591D01*
X173774910Y-88059829D01*
X173898719Y-88107448D01*
X174022529Y-88107448D01*
X174146338Y-88059829D01*
X174208243Y-87964591D01*
X174208243Y-87726495D01*
X174270148Y-87631257D01*
X173713005Y-87155067D02*
X175013005Y-87155067D01*
X174208243Y-87059829D02*
X173713005Y-86774114D01*
X174579671Y-86774114D02*
X174084433Y-87155067D01*
X173713005Y-86345543D02*
X175013005Y-86345543D01*
X173713005Y-85916971D02*
X174393957Y-85916971D01*
X174517767Y-85964590D01*
X174579671Y-86059828D01*
X174579671Y-86202686D01*
X174517767Y-86297924D01*
X174455862Y-86345543D01*
X173713005Y-84678876D02*
X175013005Y-84678876D01*
X175013005Y-84297923D01*
X174951100Y-84202685D01*
X174889195Y-84155066D01*
X174765386Y-84107447D01*
X174579671Y-84107447D01*
X174455862Y-84155066D01*
X174393957Y-84202685D01*
X174332052Y-84297923D01*
X174332052Y-84678876D01*
X173713005Y-82916971D02*
X175013005Y-82916971D01*
X175013005Y-82536018D01*
X174951100Y-82440780D01*
X174889195Y-82393161D01*
X174765386Y-82345542D01*
X174579671Y-82345542D01*
X174455862Y-82393161D01*
X174393957Y-82440780D01*
X174332052Y-82536018D01*
X174332052Y-82916971D01*
X173713005Y-81916971D02*
X174579671Y-81916971D01*
X175013005Y-81916971D02*
X174951100Y-81964590D01*
X174889195Y-81916971D01*
X174951100Y-81869352D01*
X175013005Y-81916971D01*
X174889195Y-81916971D01*
X173713005Y-81297924D02*
X173774910Y-81393162D01*
X173898719Y-81440781D01*
X175013005Y-81440781D01*
X173713005Y-80774114D02*
X173774910Y-80869352D01*
X173898719Y-80916971D01*
X175013005Y-80916971D01*
X173713005Y-79964589D02*
X174393957Y-79964589D01*
X174517767Y-80012208D01*
X174579671Y-80107446D01*
X174579671Y-80297923D01*
X174517767Y-80393161D01*
X173774910Y-79964589D02*
X173713005Y-80059827D01*
X173713005Y-80297923D01*
X173774910Y-80393161D01*
X173898719Y-80440780D01*
X174022529Y-80440780D01*
X174146338Y-80393161D01*
X174208243Y-80297923D01*
X174208243Y-80059827D01*
X174270148Y-79964589D01*
X173713005Y-79488399D02*
X174579671Y-79488399D01*
X175013005Y-79488399D02*
X174951100Y-79536018D01*
X174889195Y-79488399D01*
X174951100Y-79440780D01*
X175013005Y-79488399D01*
X174889195Y-79488399D01*
X172943005Y-87416972D02*
X172943005Y-87321733D01*
X172881100Y-87226495D01*
X172819195Y-87178876D01*
X172695386Y-87131257D01*
X172447767Y-87083638D01*
X172138243Y-87083638D01*
X171890624Y-87131257D01*
X171766814Y-87178876D01*
X171704910Y-87226495D01*
X171643005Y-87321733D01*
X171643005Y-87416972D01*
X171704910Y-87512210D01*
X171766814Y-87559829D01*
X171890624Y-87607448D01*
X172138243Y-87655067D01*
X172447767Y-87655067D01*
X172695386Y-87607448D01*
X172819195Y-87559829D01*
X172881100Y-87512210D01*
X172943005Y-87416972D01*
X171643005Y-86607448D02*
X171643005Y-86416972D01*
X171704910Y-86321733D01*
X171766814Y-86274114D01*
X171952529Y-86178876D01*
X172200148Y-86131257D01*
X172695386Y-86131257D01*
X172819195Y-86178876D01*
X172881100Y-86226495D01*
X172943005Y-86321733D01*
X172943005Y-86512210D01*
X172881100Y-86607448D01*
X172819195Y-86655067D01*
X172695386Y-86702686D01*
X172385862Y-86702686D01*
X172262052Y-86655067D01*
X172200148Y-86607448D01*
X172138243Y-86512210D01*
X172138243Y-86321733D01*
X172200148Y-86226495D01*
X172262052Y-86178876D01*
X172385862Y-86131257D01*
X172819195Y-85750305D02*
X172881100Y-85702686D01*
X172943005Y-85607448D01*
X172943005Y-85369352D01*
X172881100Y-85274114D01*
X172819195Y-85226495D01*
X172695386Y-85178876D01*
X172571576Y-85178876D01*
X172385862Y-85226495D01*
X171643005Y-85797924D01*
X171643005Y-85178876D01*
X172943005Y-84559829D02*
X172943005Y-84464590D01*
X172881100Y-84369352D01*
X172819195Y-84321733D01*
X172695386Y-84274114D01*
X172447767Y-84226495D01*
X172138243Y-84226495D01*
X171890624Y-84274114D01*
X171766814Y-84321733D01*
X171704910Y-84369352D01*
X171643005Y-84464590D01*
X171643005Y-84559829D01*
X171704910Y-84655067D01*
X171766814Y-84702686D01*
X171890624Y-84750305D01*
X172138243Y-84797924D01*
X172447767Y-84797924D01*
X172695386Y-84750305D01*
X172819195Y-84702686D01*
X172881100Y-84655067D01*
X172943005Y-84559829D01*
X171643005Y-83274114D02*
X171643005Y-83845543D01*
X171643005Y-83559829D02*
X172943005Y-83559829D01*
X172757290Y-83655067D01*
X172633481Y-83750305D01*
X172571576Y-83845543D01*
X172943005Y-82369352D02*
X172943005Y-82845543D01*
X172323957Y-82893162D01*
X172385862Y-82845543D01*
X172447767Y-82750305D01*
X172447767Y-82512209D01*
X172385862Y-82416971D01*
X172323957Y-82369352D01*
X172200148Y-82321733D01*
X171890624Y-82321733D01*
X171766814Y-82369352D01*
X171704910Y-82416971D01*
X171643005Y-82512209D01*
X171643005Y-82750305D01*
X171704910Y-82845543D01*
X171766814Y-82893162D01*
D12*
X145816000Y-94929000D02*
X147816000Y-94929000D01*
X147816000Y-92779000D02*
X145816000Y-92779000D01*
X155213240Y-81505840D02*
X155213240Y-81554100D01*
X154512200Y-84304820D02*
X155213240Y-84304820D01*
X155213240Y-84304820D02*
X155213240Y-84055900D01*
X155213240Y-81505840D02*
X155213240Y-81305180D01*
X155213240Y-81305180D02*
X154512200Y-81305180D01*
X165247000Y-89781000D02*
X167247000Y-89781000D01*
X167247000Y-91831000D02*
X165247000Y-91831000D01*
X144865280Y-111446040D02*
X152485280Y-111446040D01*
X152485280Y-115002040D02*
X144865280Y-115002040D01*
X144865280Y-111446040D02*
X144865280Y-115002040D01*
X152485280Y-115002040D02*
X152485280Y-111446040D01*
X152336490Y-114494040D02*
G75*
G03X152336490Y-114494040I-359210J0D01*
G01*
X152485280Y-112589040D02*
X151723280Y-112589040D01*
X151723280Y-112589040D02*
X151723280Y-113859040D01*
X151723280Y-113859040D02*
X152485280Y-113859040D01*
X162116960Y-115489720D02*
X162116960Y-110287800D01*
X164514720Y-110287800D02*
X164514720Y-115489720D01*
X165614540Y-117488700D02*
X164514720Y-117488700D01*
X165114160Y-118088140D02*
X165114160Y-116889260D01*
X164514720Y-116884180D02*
X162116960Y-116884180D01*
X153872120Y-115504960D02*
X153872120Y-110303040D01*
X156269880Y-110303040D02*
X156269880Y-115504960D01*
X157369700Y-117503940D02*
X156269880Y-117503940D01*
X156869320Y-118103380D02*
X156869320Y-116904500D01*
X156269880Y-116899420D02*
X153872120Y-116899420D01*
X149619400Y-108493400D02*
X147619400Y-108493400D01*
X147619400Y-106443400D02*
X149619400Y-106443400D01*
X149675280Y-119892920D02*
X147675280Y-119892920D01*
X147675280Y-117842920D02*
X149675280Y-117842920D01*
X155213240Y-87474840D02*
X155213240Y-87523100D01*
X154512200Y-90273820D02*
X155213240Y-90273820D01*
X155213240Y-90273820D02*
X155213240Y-90024900D01*
X155213240Y-87474840D02*
X155213240Y-87274180D01*
X155213240Y-87274180D02*
X154512200Y-87274180D01*
X145943000Y-98993000D02*
X147943000Y-98993000D01*
X147943000Y-96843000D02*
X145943000Y-96843000D01*
X159203000Y-93235000D02*
X159203000Y-95235000D01*
X161353000Y-95235000D02*
X161353000Y-93235000D01*
X145943000Y-81340000D02*
X147943000Y-81340000D01*
X147943000Y-79190000D02*
X145943000Y-79190000D01*
X145943000Y-86039000D02*
X147943000Y-86039000D01*
X147943000Y-83889000D02*
X145943000Y-83889000D01*
X145943000Y-90484000D02*
X147943000Y-90484000D01*
X147943000Y-88334000D02*
X145943000Y-88334000D01*
X159330000Y-84345000D02*
X159330000Y-86345000D01*
X161480000Y-86345000D02*
X161480000Y-84345000D01*
X156846460Y-125385560D02*
X153798460Y-125385560D01*
X153798460Y-125385560D02*
X153798460Y-118273560D01*
X153798460Y-118273560D02*
X156846460Y-118273560D01*
X159894460Y-125385560D02*
X160656460Y-125385560D01*
X160656460Y-125385560D02*
X162942460Y-123861560D01*
X162942460Y-123861560D02*
X162942460Y-119797560D01*
X162942460Y-119797560D02*
X160656460Y-118273560D01*
X160656460Y-118273560D02*
X159894460Y-118273560D01*
X141250000Y-126420000D02*
X141250000Y-121420000D01*
X141250000Y-121420000D02*
X148750000Y-121420000D01*
X148750000Y-121420000D02*
X148750000Y-126420000D01*
X141250000Y-126420000D02*
X148750000Y-126420000D01*
X152131220Y-103289860D02*
X151770540Y-104760520D01*
X151770540Y-104760520D02*
X151491140Y-103698800D01*
X151491140Y-103698800D02*
X151181260Y-104770680D01*
X151181260Y-104770680D02*
X150840900Y-103320340D01*
X153551080Y-103980740D02*
X152761140Y-103970580D01*
X152761140Y-103970580D02*
X152750980Y-103980740D01*
X152750980Y-103980740D02*
X152750980Y-103970580D01*
X152710340Y-103259380D02*
X152710340Y-104801160D01*
X153599340Y-103249220D02*
X153599340Y-104818940D01*
X153599340Y-104818940D02*
X153589180Y-104808780D01*
X154150520Y-103350820D02*
X154501040Y-103269540D01*
X154501040Y-103269540D02*
X154821080Y-103259380D01*
X154821080Y-103259380D02*
X155059840Y-103460040D01*
X155059840Y-103460040D02*
X155090320Y-103729280D01*
X155090320Y-103729280D02*
X154849020Y-103970580D01*
X154849020Y-103970580D02*
X154460400Y-104100120D01*
X154460400Y-104100120D02*
X154280060Y-104260140D01*
X154280060Y-104260140D02*
X154239420Y-104559860D01*
X154239420Y-104559860D02*
X154470560Y-104780840D01*
X154470560Y-104780840D02*
X154790600Y-104808780D01*
X154790600Y-104808780D02*
X155141120Y-104699560D01*
X156179980Y-103249220D02*
X156428900Y-103269540D01*
X156428900Y-103269540D02*
X156670200Y-103510840D01*
X156670200Y-103510840D02*
X156759100Y-104001060D01*
X156759100Y-104001060D02*
X156731160Y-104349040D01*
X156731160Y-104349040D02*
X156530500Y-104669080D01*
X156530500Y-104669080D02*
X156279040Y-104791000D01*
X156279040Y-104791000D02*
X155969160Y-104719880D01*
X155969160Y-104719880D02*
X155750720Y-104539540D01*
X155750720Y-104539540D02*
X155679600Y-104079800D01*
X155679600Y-104079800D02*
X155730400Y-103670860D01*
X155730400Y-103670860D02*
X155839620Y-103388920D01*
X155839620Y-103388920D02*
X156200300Y-103259380D01*
X155580540Y-101529640D02*
X155839620Y-102090980D01*
X155839620Y-102090980D02*
X155301140Y-102609140D01*
X155301140Y-102609140D02*
X154780440Y-102339900D01*
X154780440Y-102339900D02*
X154501040Y-102499920D01*
X153060860Y-102479600D02*
X152730660Y-102289100D01*
X152730660Y-102289100D02*
X152291240Y-102619300D01*
X152291240Y-102619300D02*
X151818800Y-102129080D01*
X151818800Y-102129080D02*
X152100740Y-101649020D01*
X152100740Y-101649020D02*
X151910240Y-101179120D01*
X151910240Y-101179120D02*
X151300640Y-100991160D01*
X151300640Y-100991160D02*
X151300640Y-100310440D01*
X151300640Y-100310440D02*
X151859440Y-100170740D01*
X151859440Y-100170740D02*
X152060100Y-99599240D01*
X152060100Y-99599240D02*
X151790860Y-99129340D01*
X151790860Y-99129340D02*
X152260760Y-98618800D01*
X152260760Y-98618800D02*
X152778920Y-98880420D01*
X152778920Y-98880420D02*
X153248820Y-98679760D01*
X153248820Y-98679760D02*
X153419000Y-98138740D01*
X153419000Y-98138740D02*
X154109880Y-98120960D01*
X154109880Y-98120960D02*
X154320700Y-98669600D01*
X154320700Y-98669600D02*
X154739800Y-98839780D01*
X154739800Y-98839780D02*
X155290980Y-98570540D01*
X155290980Y-98570540D02*
X155809140Y-99098860D01*
X155809140Y-99098860D02*
X155560220Y-99639880D01*
X155560220Y-99639880D02*
X155730400Y-100119940D01*
X155730400Y-100119940D02*
X156279040Y-100219000D01*
X156279040Y-100219000D02*
X156289200Y-100920040D01*
X156289200Y-100920040D02*
X155730400Y-101120700D01*
X155730400Y-101120700D02*
X155590700Y-101519480D01*
X153449480Y-101499160D02*
X153149760Y-101349300D01*
X153149760Y-101349300D02*
X152949100Y-101151180D01*
X152949100Y-101151180D02*
X152799240Y-100749860D01*
X152799240Y-100749860D02*
X152799240Y-100351080D01*
X152799240Y-100351080D02*
X152949100Y-100000560D01*
X152949100Y-100000560D02*
X153401220Y-99650040D01*
X153401220Y-99650040D02*
X153850800Y-99599240D01*
X153850800Y-99599240D02*
X154249580Y-99700840D01*
X154249580Y-99700840D02*
X154650900Y-100048820D01*
X154650900Y-100048820D02*
X154800760Y-100500940D01*
X154800760Y-100500940D02*
X154749960Y-100998780D01*
X154749960Y-100998780D02*
X154501040Y-101301040D01*
X154501040Y-101301040D02*
X154150520Y-101499160D01*
X154150520Y-101499160D02*
X154501040Y-102499920D01*
X153449480Y-101499160D02*
X153050700Y-102499920D01*
X146982666Y-92006381D02*
X147316000Y-91530190D01*
X147554095Y-92006381D02*
X147554095Y-91006381D01*
X147173142Y-91006381D01*
X147077904Y-91054000D01*
X147030285Y-91101619D01*
X146982666Y-91196857D01*
X146982666Y-91339714D01*
X147030285Y-91434952D01*
X147077904Y-91482571D01*
X147173142Y-91530190D01*
X147554095Y-91530190D01*
X146125523Y-91006381D02*
X146316000Y-91006381D01*
X146411238Y-91054000D01*
X146458857Y-91101619D01*
X146554095Y-91244476D01*
X146601714Y-91434952D01*
X146601714Y-91815905D01*
X146554095Y-91911143D01*
X146506476Y-91958762D01*
X146411238Y-92006381D01*
X146220761Y-92006381D01*
X146125523Y-91958762D01*
X146077904Y-91911143D01*
X146030285Y-91815905D01*
X146030285Y-91577810D01*
X146077904Y-91482571D01*
X146125523Y-91434952D01*
X146220761Y-91387333D01*
X146411238Y-91387333D01*
X146506476Y-91434952D01*
X146554095Y-91482571D01*
X146601714Y-91577810D01*
X157360619Y-82709762D02*
X157313000Y-82614524D01*
X157217762Y-82519286D01*
X157074905Y-82376429D01*
X157027286Y-82281190D01*
X157027286Y-82185952D01*
X157265381Y-82233571D02*
X157217762Y-82138333D01*
X157122524Y-82043095D01*
X156932048Y-81995476D01*
X156598714Y-81995476D01*
X156408238Y-82043095D01*
X156313000Y-82138333D01*
X156265381Y-82233571D01*
X156265381Y-82424048D01*
X156313000Y-82519286D01*
X156408238Y-82614524D01*
X156598714Y-82662143D01*
X156932048Y-82662143D01*
X157122524Y-82614524D01*
X157217762Y-82519286D01*
X157265381Y-82424048D01*
X157265381Y-82233571D01*
X157265381Y-83614524D02*
X157265381Y-83043095D01*
X157265381Y-83328809D02*
X156265381Y-83328809D01*
X156408238Y-83233571D01*
X156503476Y-83138333D01*
X156551095Y-83043095D01*
X166889857Y-88863143D02*
X166937476Y-88910762D01*
X167080333Y-88958381D01*
X167175571Y-88958381D01*
X167318429Y-88910762D01*
X167413667Y-88815524D01*
X167461286Y-88720286D01*
X167508905Y-88529810D01*
X167508905Y-88386952D01*
X167461286Y-88196476D01*
X167413667Y-88101238D01*
X167318429Y-88006000D01*
X167175571Y-87958381D01*
X167080333Y-87958381D01*
X166937476Y-88006000D01*
X166889857Y-88053619D01*
X165937476Y-88958381D02*
X166508905Y-88958381D01*
X166223191Y-88958381D02*
X166223191Y-87958381D01*
X166318429Y-88101238D01*
X166413667Y-88196476D01*
X166508905Y-88244095D01*
X165318429Y-87958381D02*
X165223190Y-87958381D01*
X165127952Y-88006000D01*
X165080333Y-88053619D01*
X165032714Y-88148857D01*
X164985095Y-88339333D01*
X164985095Y-88577429D01*
X165032714Y-88767905D01*
X165080333Y-88863143D01*
X165127952Y-88910762D01*
X165223190Y-88958381D01*
X165318429Y-88958381D01*
X165413667Y-88910762D01*
X165461286Y-88863143D01*
X165508905Y-88767905D01*
X165556524Y-88577429D01*
X165556524Y-88339333D01*
X165508905Y-88148857D01*
X165461286Y-88053619D01*
X165413667Y-88006000D01*
X165318429Y-87958381D01*
X163672983Y-107722094D02*
X163720602Y-107674475D01*
X163768221Y-107531618D01*
X163768221Y-107436380D01*
X163720602Y-107293522D01*
X163625364Y-107198284D01*
X163530126Y-107150665D01*
X163339650Y-107103046D01*
X163196792Y-107103046D01*
X163006316Y-107150665D01*
X162911078Y-107198284D01*
X162815840Y-107293522D01*
X162768221Y-107436380D01*
X162768221Y-107531618D01*
X162815840Y-107674475D01*
X162863459Y-107722094D01*
X162768221Y-108626856D02*
X162768221Y-108150665D01*
X163244411Y-108103046D01*
X163196792Y-108150665D01*
X163149173Y-108245903D01*
X163149173Y-108483999D01*
X163196792Y-108579237D01*
X163244411Y-108626856D01*
X163339650Y-108674475D01*
X163577745Y-108674475D01*
X163672983Y-108626856D01*
X163720602Y-108579237D01*
X163768221Y-108483999D01*
X163768221Y-108245903D01*
X163720602Y-108150665D01*
X163672983Y-108103046D01*
X155428143Y-107737334D02*
X155475762Y-107689715D01*
X155523381Y-107546858D01*
X155523381Y-107451620D01*
X155475762Y-107308762D01*
X155380524Y-107213524D01*
X155285286Y-107165905D01*
X155094810Y-107118286D01*
X154951952Y-107118286D01*
X154761476Y-107165905D01*
X154666238Y-107213524D01*
X154571000Y-107308762D01*
X154523381Y-107451620D01*
X154523381Y-107546858D01*
X154571000Y-107689715D01*
X154618619Y-107737334D01*
X154523381Y-108594477D02*
X154523381Y-108404000D01*
X154571000Y-108308762D01*
X154618619Y-108261143D01*
X154761476Y-108165905D01*
X154951952Y-108118286D01*
X155332905Y-108118286D01*
X155428143Y-108165905D01*
X155475762Y-108213524D01*
X155523381Y-108308762D01*
X155523381Y-108499239D01*
X155475762Y-108594477D01*
X155428143Y-108642096D01*
X155332905Y-108689715D01*
X155094810Y-108689715D01*
X154999571Y-108642096D01*
X154951952Y-108594477D01*
X154904333Y-108499239D01*
X154904333Y-108308762D01*
X154951952Y-108213524D01*
X154999571Y-108165905D01*
X155094810Y-108118286D01*
X144315666Y-107749343D02*
X144363285Y-107796962D01*
X144506142Y-107844581D01*
X144601380Y-107844581D01*
X144744238Y-107796962D01*
X144839476Y-107701724D01*
X144887095Y-107606486D01*
X144934714Y-107416010D01*
X144934714Y-107273152D01*
X144887095Y-107082676D01*
X144839476Y-106987438D01*
X144744238Y-106892200D01*
X144601380Y-106844581D01*
X144506142Y-106844581D01*
X144363285Y-106892200D01*
X144315666Y-106939819D01*
X143982333Y-106844581D02*
X143315666Y-106844581D01*
X143744238Y-107844581D01*
X150841946Y-121525063D02*
X150889565Y-121572682D01*
X151032422Y-121620301D01*
X151127660Y-121620301D01*
X151270518Y-121572682D01*
X151365756Y-121477444D01*
X151413375Y-121382206D01*
X151460994Y-121191730D01*
X151460994Y-121048872D01*
X151413375Y-120858396D01*
X151365756Y-120763158D01*
X151270518Y-120667920D01*
X151127660Y-120620301D01*
X151032422Y-120620301D01*
X150889565Y-120667920D01*
X150841946Y-120715539D01*
X150270518Y-121048872D02*
X150365756Y-121001253D01*
X150413375Y-120953634D01*
X150460994Y-120858396D01*
X150460994Y-120810777D01*
X150413375Y-120715539D01*
X150365756Y-120667920D01*
X150270518Y-120620301D01*
X150080041Y-120620301D01*
X149984803Y-120667920D01*
X149937184Y-120715539D01*
X149889565Y-120810777D01*
X149889565Y-120858396D01*
X149937184Y-120953634D01*
X149984803Y-121001253D01*
X150080041Y-121048872D01*
X150270518Y-121048872D01*
X150365756Y-121096491D01*
X150413375Y-121144110D01*
X150460994Y-121239349D01*
X150460994Y-121429825D01*
X150413375Y-121525063D01*
X150365756Y-121572682D01*
X150270518Y-121620301D01*
X150080041Y-121620301D01*
X149984803Y-121572682D01*
X149937184Y-121525063D01*
X149889565Y-121429825D01*
X149889565Y-121239349D01*
X149937184Y-121144110D01*
X149984803Y-121096491D01*
X150080041Y-121048872D01*
X157360619Y-88678762D02*
X157313000Y-88583524D01*
X157217762Y-88488286D01*
X157074905Y-88345429D01*
X157027286Y-88250190D01*
X157027286Y-88154952D01*
X157265381Y-88202571D02*
X157217762Y-88107333D01*
X157122524Y-88012095D01*
X156932048Y-87964476D01*
X156598714Y-87964476D01*
X156408238Y-88012095D01*
X156313000Y-88107333D01*
X156265381Y-88202571D01*
X156265381Y-88393048D01*
X156313000Y-88488286D01*
X156408238Y-88583524D01*
X156598714Y-88631143D01*
X156932048Y-88631143D01*
X157122524Y-88583524D01*
X157217762Y-88488286D01*
X157265381Y-88393048D01*
X157265381Y-88202571D01*
X156360619Y-89012095D02*
X156313000Y-89059714D01*
X156265381Y-89154952D01*
X156265381Y-89393048D01*
X156313000Y-89488286D01*
X156360619Y-89535905D01*
X156455857Y-89583524D01*
X156551095Y-89583524D01*
X156693952Y-89535905D01*
X157265381Y-88964476D01*
X157265381Y-89583524D01*
X147109666Y-96070381D02*
X147443000Y-95594190D01*
X147681095Y-96070381D02*
X147681095Y-95070381D01*
X147300142Y-95070381D01*
X147204904Y-95118000D01*
X147157285Y-95165619D01*
X147109666Y-95260857D01*
X147109666Y-95403714D01*
X147157285Y-95498952D01*
X147204904Y-95546571D01*
X147300142Y-95594190D01*
X147681095Y-95594190D01*
X146157285Y-96070381D02*
X146728714Y-96070381D01*
X146443000Y-96070381D02*
X146443000Y-95070381D01*
X146538238Y-95213238D01*
X146633476Y-95308476D01*
X146728714Y-95356095D01*
X163030381Y-94068334D02*
X162554190Y-93735000D01*
X163030381Y-93496905D02*
X162030381Y-93496905D01*
X162030381Y-93877858D01*
X162078000Y-93973096D01*
X162125619Y-94020715D01*
X162220857Y-94068334D01*
X162363714Y-94068334D01*
X162458952Y-94020715D01*
X162506571Y-93973096D01*
X162554190Y-93877858D01*
X162554190Y-93496905D01*
X162363714Y-94925477D02*
X163030381Y-94925477D01*
X161982762Y-94687381D02*
X162697048Y-94449286D01*
X162697048Y-95068334D01*
X147109666Y-78417381D02*
X147443000Y-77941190D01*
X147681095Y-78417381D02*
X147681095Y-77417381D01*
X147300142Y-77417381D01*
X147204904Y-77465000D01*
X147157285Y-77512619D01*
X147109666Y-77607857D01*
X147109666Y-77750714D01*
X147157285Y-77845952D01*
X147204904Y-77893571D01*
X147300142Y-77941190D01*
X147681095Y-77941190D01*
X146204904Y-77417381D02*
X146681095Y-77417381D01*
X146728714Y-77893571D01*
X146681095Y-77845952D01*
X146585857Y-77798333D01*
X146347761Y-77798333D01*
X146252523Y-77845952D01*
X146204904Y-77893571D01*
X146157285Y-77988810D01*
X146157285Y-78226905D01*
X146204904Y-78322143D01*
X146252523Y-78369762D01*
X146347761Y-78417381D01*
X146585857Y-78417381D01*
X146681095Y-78369762D01*
X146728714Y-78322143D01*
X147109666Y-83116381D02*
X147443000Y-82640190D01*
X147681095Y-83116381D02*
X147681095Y-82116381D01*
X147300142Y-82116381D01*
X147204904Y-82164000D01*
X147157285Y-82211619D01*
X147109666Y-82306857D01*
X147109666Y-82449714D01*
X147157285Y-82544952D01*
X147204904Y-82592571D01*
X147300142Y-82640190D01*
X147681095Y-82640190D01*
X146776333Y-82116381D02*
X146109666Y-82116381D01*
X146538238Y-83116381D01*
X147109666Y-87561381D02*
X147443000Y-87085190D01*
X147681095Y-87561381D02*
X147681095Y-86561381D01*
X147300142Y-86561381D01*
X147204904Y-86609000D01*
X147157285Y-86656619D01*
X147109666Y-86751857D01*
X147109666Y-86894714D01*
X147157285Y-86989952D01*
X147204904Y-87037571D01*
X147300142Y-87085190D01*
X147681095Y-87085190D01*
X146538238Y-86989952D02*
X146633476Y-86942333D01*
X146681095Y-86894714D01*
X146728714Y-86799476D01*
X146728714Y-86751857D01*
X146681095Y-86656619D01*
X146633476Y-86609000D01*
X146538238Y-86561381D01*
X146347761Y-86561381D01*
X146252523Y-86609000D01*
X146204904Y-86656619D01*
X146157285Y-86751857D01*
X146157285Y-86799476D01*
X146204904Y-86894714D01*
X146252523Y-86942333D01*
X146347761Y-86989952D01*
X146538238Y-86989952D01*
X146633476Y-87037571D01*
X146681095Y-87085190D01*
X146728714Y-87180429D01*
X146728714Y-87370905D01*
X146681095Y-87466143D01*
X146633476Y-87513762D01*
X146538238Y-87561381D01*
X146347761Y-87561381D01*
X146252523Y-87513762D01*
X146204904Y-87466143D01*
X146157285Y-87370905D01*
X146157285Y-87180429D01*
X146204904Y-87085190D01*
X146252523Y-87037571D01*
X146347761Y-86989952D01*
X163157381Y-84702143D02*
X162681190Y-84368809D01*
X163157381Y-84130714D02*
X162157381Y-84130714D01*
X162157381Y-84511667D01*
X162205000Y-84606905D01*
X162252619Y-84654524D01*
X162347857Y-84702143D01*
X162490714Y-84702143D01*
X162585952Y-84654524D01*
X162633571Y-84606905D01*
X162681190Y-84511667D01*
X162681190Y-84130714D01*
X163157381Y-85654524D02*
X163157381Y-85083095D01*
X163157381Y-85368809D02*
X162157381Y-85368809D01*
X162300238Y-85273571D01*
X162395476Y-85178333D01*
X162443095Y-85083095D01*
X163157381Y-86606905D02*
X163157381Y-86035476D01*
X163157381Y-86321190D02*
X162157381Y-86321190D01*
X162300238Y-86225952D01*
X162395476Y-86130714D01*
X162443095Y-86035476D01*
X158584841Y-121067655D02*
X159394365Y-121067655D01*
X159489603Y-121115274D01*
X159537222Y-121162893D01*
X159584841Y-121258131D01*
X159584841Y-121448608D01*
X159537222Y-121543846D01*
X159489603Y-121591465D01*
X159394365Y-121639084D01*
X158584841Y-121639084D01*
X158584841Y-122020036D02*
X158584841Y-122639084D01*
X158965793Y-122305750D01*
X158965793Y-122448608D01*
X159013412Y-122543846D01*
X159061031Y-122591465D01*
X159156270Y-122639084D01*
X159394365Y-122639084D01*
X159489603Y-122591465D01*
X159537222Y-122543846D01*
X159584841Y-122448608D01*
X159584841Y-122162893D01*
X159537222Y-122067655D01*
X159489603Y-122020036D01*
X158060841Y-118734322D02*
X158060841Y-118162893D01*
X158060841Y-118448607D02*
X157060841Y-118448607D01*
X157203698Y-118353369D01*
X157298936Y-118258131D01*
X157346555Y-118162893D01*
X158060841Y-119686703D02*
X158060841Y-119115274D01*
X158060841Y-119400988D02*
X157060841Y-119400988D01*
X157203698Y-119305750D01*
X157298936Y-119210512D01*
X157346555Y-119115274D01*
X158060841Y-120639084D02*
X158060841Y-120067655D01*
X158060841Y-120353369D02*
X157060841Y-120353369D01*
X157203698Y-120258131D01*
X157298936Y-120162893D01*
X157346555Y-120067655D01*
X157060841Y-120972417D02*
X157060841Y-121639084D01*
X158060841Y-121210512D01*
X157679889Y-122020036D02*
X157679889Y-122781941D01*
X157060841Y-123162893D02*
X157060841Y-123781941D01*
X157441793Y-123448607D01*
X157441793Y-123591465D01*
X157489412Y-123686703D01*
X157537031Y-123734322D01*
X157632270Y-123781941D01*
X157870365Y-123781941D01*
X157965603Y-123734322D01*
X158013222Y-123686703D01*
X158060841Y-123591465D01*
X158060841Y-123305750D01*
X158013222Y-123210512D01*
X157965603Y-123162893D01*
X157394174Y-124115274D02*
X158060841Y-124353369D01*
X157394174Y-124591465D01*
X157060841Y-124877179D02*
X157060841Y-125496227D01*
X157441793Y-125162893D01*
X157441793Y-125305751D01*
X157489412Y-125400989D01*
X157537031Y-125448608D01*
X157632270Y-125496227D01*
X157870365Y-125496227D01*
X157965603Y-125448608D01*
X158013222Y-125400989D01*
X158060841Y-125305751D01*
X158060841Y-125020036D01*
X158013222Y-124924798D01*
X157965603Y-124877179D01*
X145988095Y-120872381D02*
X145988095Y-119872381D01*
X145607142Y-119872381D01*
X145511904Y-119920000D01*
X145464285Y-119967619D01*
X145416666Y-120062857D01*
X145416666Y-120205714D01*
X145464285Y-120300952D01*
X145511904Y-120348571D01*
X145607142Y-120396190D01*
X145988095Y-120396190D01*
X144464285Y-120872381D02*
X145035714Y-120872381D01*
X144750000Y-120872381D02*
X144750000Y-119872381D01*
X144845238Y-120015238D01*
X144940476Y-120110476D01*
X145035714Y-120158095D01*
%LPC*%
D11*
X169798703Y-121594880D02*
G75*
G03X169798703Y-121594880I-1130003J0D01*
G01*
X174490083Y-118597680D02*
G75*
G03X174490083Y-118597680I-1130003J0D01*
G01*
X169796163Y-115592860D02*
G75*
G03X169796163Y-115592860I-1130003J0D01*
G01*
D13*
X148816000Y-93854000D03*
X144816000Y-93854000D03*
D14*
X153562240Y-83755000D03*
X153562240Y-81855000D03*
X155561220Y-82805000D03*
D15*
X168247000Y-90806000D03*
X164247000Y-90806000D03*
D16*
X151596280Y-115891040D03*
X150961280Y-115891040D03*
X150300880Y-115891040D03*
X149640480Y-115891040D03*
X149005480Y-115891040D03*
X148345080Y-115891040D03*
X147684680Y-115891040D03*
X147049680Y-115891040D03*
X146389280Y-115891040D03*
X145754280Y-115891040D03*
X145754280Y-110557040D03*
X146389280Y-110557040D03*
X147049680Y-110557040D03*
X147684680Y-110557040D03*
X148345080Y-110557040D03*
X149005480Y-110557040D03*
X149640480Y-110557040D03*
X150300880Y-110557040D03*
X150961280Y-110557040D03*
X151596280Y-110557040D03*
D17*
X163315840Y-110889780D03*
X163315840Y-114887740D03*
X155071000Y-110905020D03*
X155071000Y-114902980D03*
D15*
X146619400Y-107468400D03*
X150619400Y-107468400D03*
X146675280Y-118867920D03*
X150675280Y-118867920D03*
D18*
X171885800Y-104699800D03*
D19*
X171885800Y-107239800D03*
X171885800Y-109779800D03*
D18*
X141228000Y-80011000D03*
D19*
X141228000Y-82551000D03*
X141228000Y-85091000D03*
X141228000Y-87631000D03*
X141228000Y-90171000D03*
D14*
X153562240Y-89724000D03*
X153562240Y-87824000D03*
X155561220Y-88774000D03*
D13*
X148943000Y-97918000D03*
X144943000Y-97918000D03*
D20*
X160278000Y-96235000D03*
X160278000Y-92235000D03*
D13*
X148943000Y-80265000D03*
X144943000Y-80265000D03*
X148943000Y-84964000D03*
X144943000Y-84964000D03*
X148943000Y-89409000D03*
X144943000Y-89409000D03*
D20*
X160405000Y-87345000D03*
X160405000Y-83345000D03*
D21*
X169549000Y-79122000D03*
X172089000Y-79122000D03*
X167009000Y-79122000D03*
D22*
X161672460Y-121829560D03*
D23*
X155068460Y-121829560D03*
X155068460Y-119543560D03*
X155068460Y-124115560D03*
D24*
X141410880Y-111733060D03*
X141410880Y-116614940D03*
D25*
X145000000Y-122170000D03*
X145650000Y-122170000D03*
X146300000Y-122170000D03*
X144350000Y-122170000D03*
X143700000Y-122170000D03*
D26*
X142225000Y-122530000D03*
X147775000Y-122530000D03*
D27*
X141775000Y-125160000D03*
D28*
X144162500Y-125160000D03*
D27*
X148225000Y-125160000D03*
D28*
X145837500Y-125160000D03*
D29*
X159262000Y-112015000D03*
X159262000Y-114555000D03*
M02*
