G04 #@! TF.FileFunction,Copper,L1,Top,Signal*
%FSLAX46Y46*%
G04 Gerber Fmt 4.6, Leading zero omitted, Abs format (unit mm)*
G04 Created by KiCad (PCBNEW (2015-08-28 BZR 6132, Git 156d5f5)-product) date 30-Aug-15 1:46:12 AM*
%MOMM*%
G01*
G04 APERTURE LIST*
%ADD10C,0.100000*%
%ADD11C,0.150000*%
%ADD12R,2.000000X1.600000*%
%ADD13R,1.501140X2.999740*%
%ADD14C,1.501140*%
%ADD15R,3.500120X3.500120*%
%ADD16R,1.524000X2.032000*%
%ADD17R,2.032000X1.727200*%
%ADD18O,2.032000X1.727200*%
%ADD19R,2.000000X1.000000*%
%ADD20O,1.250000X0.950000*%
%ADD21O,1.000000X1.550000*%
%ADD22R,2.000000X1.700000*%
%ADD23R,1.700000X2.000000*%
%ADD24C,1.524000*%
%ADD25R,2.180000X1.600000*%
%ADD26R,2.032000X3.657600*%
%ADD27R,2.032000X1.016000*%
%ADD28R,1.500000X0.900000*%
%ADD29O,2.499360X1.998980*%
%ADD30C,0.762000*%
%ADD31C,0.177800*%
%ADD32C,0.254000*%
G04 APERTURE END LIST*
D10*
D11*
X157562740Y-114285760D02*
X157562740Y-113785380D01*
X157562740Y-114285760D02*
X157062360Y-114285760D01*
X157562740Y-114786140D02*
X157562740Y-114285760D01*
X157562740Y-114285760D02*
X157961520Y-114285760D01*
X157961520Y-114285760D02*
X158063120Y-114285760D01*
D12*
X145578000Y-111507000D03*
X149578000Y-111507000D03*
X145725320Y-117051820D03*
X149725320Y-117051820D03*
D13*
X164517260Y-105665000D03*
X164517260Y-109662960D03*
X168406000Y-105604040D03*
X168406000Y-109602000D03*
D14*
X159262000Y-112015000D03*
X159262000Y-114555000D03*
D15*
X168660000Y-115593860D03*
X168660000Y-121593340D03*
X173359000Y-118593600D03*
D16*
X172851000Y-92838000D03*
X169549000Y-92838000D03*
X172851000Y-96902000D03*
X169549000Y-96902000D03*
D17*
X171885800Y-104699800D03*
D18*
X171885800Y-107239800D03*
X171885800Y-109779800D03*
D19*
X161293000Y-91440000D03*
X161293000Y-89440000D03*
X161293000Y-87440000D03*
X161293000Y-85440000D03*
X161293000Y-83440000D03*
X161293000Y-81440000D03*
X161293000Y-79440000D03*
X161293000Y-77440000D03*
X145293000Y-91440000D03*
X145293000Y-89440000D03*
X145293000Y-87440000D03*
X145293000Y-85440000D03*
X145293000Y-83440000D03*
X145293000Y-81440000D03*
X145293000Y-79440000D03*
X145293000Y-77440000D03*
D20*
X148382180Y-121719900D03*
X143382180Y-121719900D03*
D21*
X149382180Y-124419900D03*
X142382180Y-124419900D03*
D17*
X141228000Y-80011000D03*
D18*
X141228000Y-82551000D03*
X141228000Y-85091000D03*
X141228000Y-87631000D03*
X141228000Y-90171000D03*
D22*
X155611000Y-108332000D03*
X159611000Y-108332000D03*
X159738000Y-104395000D03*
X155738000Y-104395000D03*
D23*
X165358000Y-90139000D03*
X165358000Y-86139000D03*
D22*
X162596000Y-96013000D03*
X166596000Y-96013000D03*
D24*
X169549000Y-79122000D03*
X172089000Y-79122000D03*
X167009000Y-79122000D03*
D25*
X156183570Y-100455680D03*
X165388430Y-100460320D03*
X151037430Y-103000320D03*
X141832570Y-102995680D03*
X141705570Y-97153680D03*
X150910430Y-97158320D03*
D26*
X155040520Y-121885440D03*
D27*
X161644520Y-121885440D03*
X161644520Y-119599440D03*
X161644520Y-124171440D03*
D28*
X173877000Y-86614000D03*
X173877000Y-83314000D03*
X168777000Y-83314000D03*
X168777000Y-86614000D03*
D29*
X141410880Y-111733060D03*
X141410880Y-116614940D03*
D30*
X147578000Y-117222000D03*
X173359000Y-118593600D03*
X168660000Y-121593340D03*
X150626000Y-119000000D03*
X158754000Y-82932000D03*
X155198000Y-110872000D03*
X164342000Y-92330000D03*
X155960000Y-100458000D03*
X150910430Y-97158320D03*
X152912000Y-116460000D03*
X141736000Y-102998000D03*
X146308000Y-117222000D03*
X168660000Y-115593860D03*
X168406000Y-90806000D03*
X159516000Y-108840000D03*
X160278000Y-96140000D03*
X146562000Y-107316000D03*
X157250410Y-91185488D03*
X162564000Y-87504000D03*
X149102000Y-98426000D03*
X146054000Y-87250000D03*
X149696232Y-112976606D03*
X148256123Y-112890009D03*
X153674000Y-89536000D03*
D31*
X145578000Y-111507000D02*
X145578000Y-114624438D01*
X145578000Y-114624438D02*
X147578000Y-116624438D01*
X147578000Y-116624438D02*
X147578000Y-117222000D01*
X141410880Y-111733060D02*
X145351940Y-111733060D01*
X145351940Y-111733060D02*
X145578000Y-111507000D01*
X149725320Y-117051820D02*
X149725320Y-118099320D01*
X149725320Y-118099320D02*
X150626000Y-119000000D01*
X168777000Y-83314000D02*
X163147062Y-83314000D01*
X163147062Y-83314000D02*
X162506361Y-82673299D01*
X162506361Y-82673299D02*
X159012701Y-82673299D01*
X159012701Y-82673299D02*
X158754000Y-82932000D01*
X159262000Y-112015000D02*
X156341000Y-112015000D01*
X156341000Y-112015000D02*
X155198000Y-110872000D01*
X172851000Y-96902000D02*
X171911200Y-96902000D01*
X171911200Y-96902000D02*
X169129901Y-94120701D01*
X169129901Y-94120701D02*
X166132701Y-94120701D01*
X166132701Y-94120701D02*
X164342000Y-92330000D01*
X172851000Y-92838000D02*
X172851000Y-96902000D01*
X149725320Y-117051820D02*
X152320180Y-117051820D01*
X152320180Y-117051820D02*
X152912000Y-116460000D01*
X168777000Y-83314000D02*
X168777000Y-82434000D01*
X168777000Y-82434000D02*
X172089000Y-79122000D01*
X141410880Y-116614940D02*
X145288440Y-116614940D01*
X145288440Y-116614940D02*
X145725320Y-117051820D01*
X164517260Y-113378980D02*
X166732140Y-115593860D01*
X164517260Y-109662960D02*
X164517260Y-113378980D01*
X166732140Y-115593860D02*
X168660000Y-115593860D01*
X164517260Y-109662960D02*
X164517260Y-110412260D01*
X164517260Y-110412260D02*
X160374520Y-114555000D01*
X160374520Y-114555000D02*
X160323466Y-114555000D01*
X160323466Y-114555000D02*
X159262000Y-114555000D01*
X159262000Y-114555000D02*
X159262000Y-117724920D01*
X159262000Y-117724920D02*
X161136520Y-119599440D01*
X161136520Y-119599440D02*
X161644520Y-119599440D01*
X171885800Y-109779800D02*
X168266300Y-109779800D01*
X168266300Y-109779800D02*
X168149460Y-109662960D01*
X168149460Y-110412260D02*
X168149460Y-109662960D01*
X170676761Y-112939561D02*
X168149460Y-110412260D01*
X170676761Y-117557281D02*
X170676761Y-112939561D01*
X170623421Y-117610621D02*
X170676761Y-117557281D01*
X166427339Y-117610621D02*
X170623421Y-117610621D01*
X161644520Y-121885440D02*
X162152520Y-121885440D01*
X162152520Y-121885440D02*
X166427339Y-117610621D01*
X170312800Y-90806000D02*
X168406000Y-90806000D01*
X173877000Y-86614000D02*
X173877000Y-87241800D01*
X173877000Y-87241800D02*
X170312800Y-90806000D01*
X161293000Y-81440000D02*
X160793000Y-81440000D01*
X160793000Y-81440000D02*
X156026299Y-76673299D01*
X156026299Y-76673299D02*
X142206039Y-76673299D01*
X142206039Y-76673299D02*
X139945290Y-78934048D01*
X139945290Y-78934048D02*
X139945290Y-86500690D01*
X139945290Y-86500690D02*
X141075600Y-87631000D01*
X141075600Y-87631000D02*
X141228000Y-87631000D01*
X156365168Y-92227168D02*
X156365168Y-91112130D01*
X158463522Y-91440000D02*
X160115200Y-91440000D01*
X160278000Y-96140000D02*
X156365168Y-92227168D01*
X157561308Y-90537786D02*
X158463522Y-91440000D01*
X160115200Y-91440000D02*
X161293000Y-91440000D01*
X156365168Y-91112130D02*
X156939512Y-90537786D01*
X156939512Y-90537786D02*
X157561308Y-90537786D01*
X155738000Y-104395000D02*
X155888000Y-104395000D01*
X155888000Y-104395000D02*
X159611000Y-108118000D01*
X159611000Y-108118000D02*
X159611000Y-108332000D01*
X155738000Y-103271312D02*
X160278000Y-98731312D01*
X155738000Y-104395000D02*
X155738000Y-103271312D01*
X160278000Y-98731312D02*
X160278000Y-96140000D01*
X141228000Y-87631000D02*
X141380400Y-87631000D01*
X141380400Y-87631000D02*
X143189271Y-89439871D01*
X143189271Y-89439871D02*
X143189271Y-103943271D01*
X143189271Y-103943271D02*
X146562000Y-107316000D01*
X166385800Y-88333829D02*
X166385800Y-87316800D01*
X166385800Y-87316800D02*
X165358000Y-86289000D01*
X165358000Y-86289000D02*
X165358000Y-86139000D01*
X169549000Y-92838000D02*
X168609200Y-92838000D01*
X166830312Y-88778341D02*
X166385800Y-88333829D01*
X166830312Y-91059112D02*
X166830312Y-88778341D01*
X168609200Y-92838000D02*
X166830312Y-91059112D01*
X169549000Y-96902000D02*
X167485000Y-96902000D01*
X167485000Y-96902000D02*
X166596000Y-96013000D01*
X161293000Y-89440000D02*
X164659000Y-89440000D01*
X164659000Y-89440000D02*
X165358000Y-90139000D01*
X162596000Y-96013000D02*
X162446000Y-96013000D01*
X162446000Y-96013000D02*
X157618488Y-91185488D01*
X157618488Y-91185488D02*
X157250410Y-91185488D01*
X162564000Y-87504000D02*
X161357000Y-87504000D01*
X161357000Y-87504000D02*
X161293000Y-87440000D01*
X160877701Y-105384701D02*
X160877701Y-109395361D01*
X160877701Y-109395361D02*
X160785361Y-109487701D01*
X160785361Y-109487701D02*
X158436639Y-109487701D01*
X159888000Y-104395000D02*
X160877701Y-105384701D01*
X154524639Y-105511701D02*
X154471299Y-105458361D01*
X156501793Y-105511701D02*
X154524639Y-105511701D01*
X158344299Y-107354207D02*
X156501793Y-105511701D01*
X158344299Y-109395361D02*
X158344299Y-107354207D01*
X154471299Y-92422845D02*
X156711969Y-90182175D01*
X157708606Y-90182175D02*
X158199730Y-90673299D01*
X158199730Y-88533270D02*
X161293000Y-85440000D01*
X158199730Y-90673299D02*
X158199730Y-88533270D01*
X158436639Y-109487701D02*
X158344299Y-109395361D01*
X154471299Y-105458361D02*
X154471299Y-92422845D01*
X156711969Y-90182175D02*
X157708606Y-90182175D01*
X159898271Y-113537729D02*
X150093709Y-113537729D01*
X140475869Y-108684931D02*
X140475869Y-99361181D01*
X146791361Y-110440299D02*
X142231237Y-110440299D01*
X146844701Y-112520361D02*
X146844701Y-110493639D01*
X147948648Y-113624308D02*
X146844701Y-112520361D01*
X160915800Y-105422800D02*
X160915800Y-112520200D01*
X146844701Y-110493639D02*
X146791361Y-110440299D01*
X150007130Y-113624308D02*
X147948648Y-113624308D01*
X160915800Y-112520200D02*
X159898271Y-113537729D01*
X159888000Y-104395000D02*
X160915800Y-105422800D01*
X141705570Y-98131480D02*
X141705570Y-97153680D01*
X150093709Y-113537729D02*
X150007130Y-113624308D01*
X142231237Y-110440299D02*
X140475869Y-108684931D01*
X140475869Y-99361181D02*
X141705570Y-98131480D01*
X159738000Y-104395000D02*
X159888000Y-104395000D01*
X151037430Y-102022520D02*
X151037430Y-103000320D01*
X153026299Y-89225103D02*
X153026299Y-100033651D01*
X159975498Y-83579702D02*
X158671700Y-83579702D01*
X158671700Y-83579702D02*
X153026299Y-89225103D01*
X160115200Y-83440000D02*
X159975498Y-83579702D01*
X161293000Y-83440000D02*
X160115200Y-83440000D01*
X153026299Y-100033651D02*
X151037430Y-102022520D01*
X155611000Y-108332000D02*
X155461000Y-108332000D01*
X155461000Y-108332000D02*
X151037430Y-103908430D01*
X151037430Y-103908430D02*
X151037430Y-103000320D01*
X161293000Y-79440000D02*
X161793000Y-79440000D01*
X161793000Y-79440000D02*
X163139701Y-78093299D01*
X163139701Y-78093299D02*
X168520299Y-78093299D01*
X168520299Y-78093299D02*
X168787001Y-78360001D01*
X168787001Y-78360001D02*
X169549000Y-79122000D01*
X145293000Y-89459938D02*
X144026299Y-90726639D01*
X145293000Y-89440000D02*
X145293000Y-89459938D01*
X144026299Y-90726639D02*
X144026299Y-92153361D01*
X144026299Y-92153361D02*
X149102000Y-97229062D01*
X149102000Y-97229062D02*
X149102000Y-98426000D01*
X146054000Y-87250000D02*
X145483000Y-87250000D01*
X145483000Y-87250000D02*
X145293000Y-87440000D01*
X167185922Y-85636860D02*
X167185922Y-90911814D01*
X170798701Y-78889821D02*
X170798701Y-79782391D01*
X164120630Y-93067230D02*
X163694298Y-92640898D01*
X163694298Y-92640898D02*
X163694298Y-92019102D01*
X163694298Y-92019102D02*
X164285102Y-91428298D01*
X170798701Y-79782391D02*
X167983793Y-82597299D01*
X164285102Y-91428298D02*
X165160898Y-91428298D01*
X171595223Y-78093299D02*
X170798701Y-78889821D01*
X165388430Y-100460320D02*
X165098430Y-100460320D01*
X165098430Y-100460320D02*
X164120630Y-99482520D01*
X166474702Y-92180898D02*
X166474702Y-88925639D01*
X165913498Y-92180898D02*
X166474702Y-92180898D01*
X164120630Y-99482520D02*
X164120630Y-93067230D01*
X165160898Y-91428298D02*
X165913498Y-92180898D01*
X164241299Y-87352361D02*
X164241299Y-84925639D01*
X173117701Y-78628223D02*
X172582777Y-78093299D01*
X166474702Y-88925639D02*
X164954764Y-87405701D01*
X164954764Y-87405701D02*
X164294639Y-87405701D01*
X167185922Y-90911814D02*
X169793701Y-88304035D01*
X164294639Y-87405701D02*
X164241299Y-87352361D01*
X164241299Y-84925639D02*
X164294639Y-84872299D01*
X166421361Y-84872299D02*
X167185922Y-85636860D01*
X167983793Y-82597299D02*
X162933269Y-82597299D01*
X169793701Y-82939777D02*
X173117701Y-79615777D01*
X172582777Y-78093299D02*
X171595223Y-78093299D01*
X162933269Y-82597299D02*
X162861972Y-82526001D01*
X162861972Y-82526001D02*
X162653659Y-82317688D01*
X162653659Y-82317688D02*
X159352288Y-82317688D01*
X159352288Y-82317688D02*
X159064898Y-82030298D01*
X159064898Y-82030298D02*
X158443102Y-82030298D01*
X158443102Y-82030298D02*
X157876101Y-82597299D01*
X149313501Y-82597299D02*
X146470800Y-85440000D01*
X146470800Y-85440000D02*
X145293000Y-85440000D01*
X169793701Y-88304035D02*
X169793701Y-82939777D01*
X173117701Y-79615777D02*
X173117701Y-78628223D01*
X157876101Y-82597299D02*
X149313501Y-82597299D01*
X164294639Y-84872299D02*
X166421361Y-84872299D01*
X142421800Y-82551000D02*
X143310800Y-83440000D01*
X141228000Y-82551000D02*
X142421800Y-82551000D01*
X143310800Y-83440000D02*
X144115200Y-83440000D01*
X144115200Y-83440000D02*
X145293000Y-83440000D01*
X141228000Y-80011000D02*
X142421800Y-80011000D01*
X142421800Y-80011000D02*
X143850800Y-81440000D01*
X143850800Y-81440000D02*
X144115200Y-81440000D01*
X144115200Y-81440000D02*
X145293000Y-81440000D01*
X149680729Y-104013681D02*
X151260999Y-105593951D01*
X149680729Y-101986959D02*
X149680729Y-104013681D01*
X150235047Y-112976606D02*
X149696232Y-112976606D01*
X150430701Y-112976606D02*
X150235047Y-112976606D01*
X151260999Y-112146308D02*
X150430701Y-112976606D01*
X151260999Y-105593951D02*
X151260999Y-112146308D01*
X144026299Y-86153361D02*
X144079639Y-86206701D01*
X152394131Y-90537039D02*
X152394131Y-99273557D01*
X148063793Y-86206701D02*
X152394131Y-90537039D01*
X144079639Y-86206701D02*
X148063793Y-86206701D01*
X144026299Y-84562312D02*
X144026299Y-86153361D01*
X152394131Y-99273557D02*
X149680729Y-101986959D01*
X146653659Y-84562312D02*
X144026299Y-84562312D01*
X146915312Y-80562312D02*
X146915312Y-84300659D01*
X146915312Y-84300659D02*
X146653659Y-84562312D01*
X145293000Y-79440000D02*
X145793000Y-79440000D01*
X145793000Y-79440000D02*
X146915312Y-80562312D01*
X148256123Y-112351194D02*
X148256123Y-112890009D01*
X148256123Y-107905061D02*
X148256123Y-112351194D01*
X144026299Y-92656269D02*
X144026299Y-103675237D01*
X143670688Y-90579341D02*
X143670688Y-92300659D01*
X144026299Y-90223731D02*
X143670688Y-90579341D01*
X144026299Y-86656270D02*
X144026299Y-90223731D01*
X143670688Y-86300659D02*
X144026299Y-86656270D01*
X143670688Y-83795611D02*
X143670688Y-86300659D01*
X144081778Y-84206701D02*
X143670688Y-83795611D01*
X146559701Y-80726639D02*
X146559701Y-84153361D01*
X146559701Y-84153361D02*
X146506361Y-84206701D01*
X144026299Y-103675237D02*
X148256123Y-107905061D01*
X143670688Y-92300659D02*
X144026299Y-92656269D01*
X144793000Y-77440000D02*
X144026299Y-78206701D01*
X146506361Y-80673299D02*
X146559701Y-80726639D01*
X144026299Y-78206701D02*
X144026299Y-80619959D01*
X144026299Y-80619959D02*
X144079639Y-80673299D01*
X146506361Y-84206701D02*
X144081778Y-84206701D01*
X145293000Y-77440000D02*
X144793000Y-77440000D01*
X144079639Y-80673299D02*
X146506361Y-80673299D01*
X158892312Y-84317688D02*
X154054999Y-89155001D01*
X168777000Y-85986200D02*
X167108488Y-84317688D01*
X154054999Y-89155001D02*
X153674000Y-89536000D01*
X168777000Y-86614000D02*
X168777000Y-85986200D01*
X167108488Y-84317688D02*
X158892312Y-84317688D01*
D32*
G36*
X175570000Y-77214654D02*
X175570000Y-116406455D01*
X175468759Y-116305213D01*
X175235370Y-116208540D01*
X173644750Y-116208540D01*
X173486000Y-116367290D01*
X173486000Y-118466600D01*
X173506000Y-118466600D01*
X173506000Y-118720600D01*
X173486000Y-118720600D01*
X173486000Y-120819910D01*
X173644750Y-120978660D01*
X175235370Y-120978660D01*
X175468759Y-120881987D01*
X175570000Y-120780745D01*
X175570000Y-125099208D01*
X163050614Y-125187372D01*
X163198847Y-125039138D01*
X163295520Y-124805749D01*
X163295520Y-124457190D01*
X163136770Y-124298440D01*
X161771520Y-124298440D01*
X161771520Y-124318440D01*
X161517520Y-124318440D01*
X161517520Y-124298440D01*
X160152270Y-124298440D01*
X159993520Y-124457190D01*
X159993520Y-124805749D01*
X160090193Y-125039138D01*
X160258092Y-125207038D01*
X150356730Y-125276766D01*
X150382182Y-125246578D01*
X150517180Y-124821900D01*
X150517180Y-124546900D01*
X149509180Y-124546900D01*
X149509180Y-124566900D01*
X149255180Y-124566900D01*
X149255180Y-124546900D01*
X148247180Y-124546900D01*
X148247180Y-124821900D01*
X148382178Y-125246578D01*
X148419134Y-125290411D01*
X143314920Y-125326356D01*
X143382182Y-125246578D01*
X143517180Y-124821900D01*
X143517180Y-124546900D01*
X142509180Y-124546900D01*
X142509180Y-124566900D01*
X142255180Y-124566900D01*
X142255180Y-124546900D01*
X141247180Y-124546900D01*
X141247180Y-124821900D01*
X141382178Y-125246578D01*
X141460450Y-125339416D01*
X140085000Y-125349102D01*
X140085000Y-124017900D01*
X141247180Y-124017900D01*
X141247180Y-124292900D01*
X142255180Y-124292900D01*
X142255180Y-123176946D01*
X142509180Y-123176946D01*
X142509180Y-124292900D01*
X143517180Y-124292900D01*
X143517180Y-124017900D01*
X148247180Y-124017900D01*
X148247180Y-124292900D01*
X149255180Y-124292900D01*
X149255180Y-123176946D01*
X149509180Y-123176946D01*
X149509180Y-124292900D01*
X150517180Y-124292900D01*
X150517180Y-124017900D01*
X150382182Y-123593222D01*
X150094943Y-123252532D01*
X149684054Y-123050781D01*
X149509180Y-123176946D01*
X149255180Y-123176946D01*
X149080306Y-123050781D01*
X148669417Y-123252532D01*
X148382178Y-123593222D01*
X148247180Y-124017900D01*
X143517180Y-124017900D01*
X143382182Y-123593222D01*
X143094943Y-123252532D01*
X142684054Y-123050781D01*
X142509180Y-123176946D01*
X142255180Y-123176946D01*
X142080306Y-123050781D01*
X141669417Y-123252532D01*
X141382178Y-123593222D01*
X141247180Y-124017900D01*
X140085000Y-124017900D01*
X140085000Y-122017838D01*
X142162912Y-122017838D01*
X142346628Y-122391721D01*
X142671131Y-122679468D01*
X143081049Y-122821129D01*
X143255180Y-122672463D01*
X143255180Y-121846900D01*
X143509180Y-121846900D01*
X143509180Y-122672463D01*
X143683311Y-122821129D01*
X144093229Y-122679468D01*
X144417732Y-122391721D01*
X144601448Y-122017838D01*
X147162912Y-122017838D01*
X147346628Y-122391721D01*
X147671131Y-122679468D01*
X148081049Y-122821129D01*
X148255180Y-122672463D01*
X148255180Y-121846900D01*
X148509180Y-121846900D01*
X148509180Y-122672463D01*
X148683311Y-122821129D01*
X149093229Y-122679468D01*
X149417732Y-122391721D01*
X149601448Y-122017838D01*
X149474914Y-121846900D01*
X148509180Y-121846900D01*
X148255180Y-121846900D01*
X147289446Y-121846900D01*
X147162912Y-122017838D01*
X144601448Y-122017838D01*
X144474914Y-121846900D01*
X143509180Y-121846900D01*
X143255180Y-121846900D01*
X142289446Y-121846900D01*
X142162912Y-122017838D01*
X140085000Y-122017838D01*
X140085000Y-121421962D01*
X142162912Y-121421962D01*
X142289446Y-121592900D01*
X143255180Y-121592900D01*
X143255180Y-120767337D01*
X143509180Y-120767337D01*
X143509180Y-121592900D01*
X144474914Y-121592900D01*
X144601448Y-121421962D01*
X147162912Y-121421962D01*
X147289446Y-121592900D01*
X148255180Y-121592900D01*
X148255180Y-120767337D01*
X148509180Y-120767337D01*
X148509180Y-121592900D01*
X149474914Y-121592900D01*
X149601448Y-121421962D01*
X149417732Y-121048079D01*
X149093229Y-120760332D01*
X148683311Y-120618671D01*
X148509180Y-120767337D01*
X148255180Y-120767337D01*
X148081049Y-120618671D01*
X147671131Y-120760332D01*
X147346628Y-121048079D01*
X147162912Y-121421962D01*
X144601448Y-121421962D01*
X144417732Y-121048079D01*
X144093229Y-120760332D01*
X143683311Y-120618671D01*
X143509180Y-120767337D01*
X143255180Y-120767337D01*
X143081049Y-120618671D01*
X142671131Y-120760332D01*
X142346628Y-121048079D01*
X142162912Y-121421962D01*
X140085000Y-121421962D01*
X140085000Y-120056640D01*
X153377080Y-120056640D01*
X153377080Y-123714240D01*
X153421358Y-123949557D01*
X153560430Y-124165681D01*
X153772630Y-124310671D01*
X154024520Y-124361680D01*
X156056520Y-124361680D01*
X156291837Y-124317402D01*
X156507961Y-124178330D01*
X156652951Y-123966130D01*
X156703960Y-123714240D01*
X156703960Y-120056640D01*
X156659682Y-119821323D01*
X156520610Y-119605199D01*
X156308410Y-119460209D01*
X156056520Y-119409200D01*
X154024520Y-119409200D01*
X153789203Y-119453478D01*
X153573079Y-119592550D01*
X153428089Y-119804750D01*
X153377080Y-120056640D01*
X140085000Y-120056640D01*
X140085000Y-117848871D01*
X140498275Y-118125012D01*
X141123767Y-118249430D01*
X141697993Y-118249430D01*
X142323485Y-118125012D01*
X142853752Y-117770699D01*
X143142311Y-117338840D01*
X144077880Y-117338840D01*
X144077880Y-117851820D01*
X144122158Y-118087137D01*
X144261230Y-118303261D01*
X144473430Y-118448251D01*
X144725320Y-118499260D01*
X146725320Y-118499260D01*
X146960637Y-118454982D01*
X147176761Y-118315910D01*
X147262140Y-118190953D01*
X147375018Y-118237824D01*
X147779208Y-118238176D01*
X148136828Y-118090410D01*
X148186993Y-118211519D01*
X148365622Y-118390147D01*
X148599011Y-118486820D01*
X149439570Y-118486820D01*
X149598320Y-118328070D01*
X149598320Y-117178820D01*
X149852320Y-117178820D01*
X149852320Y-118328070D01*
X150011070Y-118486820D01*
X150851629Y-118486820D01*
X151085018Y-118390147D01*
X151263647Y-118211519D01*
X151360320Y-117978130D01*
X151360320Y-117337570D01*
X151201570Y-117178820D01*
X149852320Y-117178820D01*
X149598320Y-117178820D01*
X149578320Y-117178820D01*
X149578320Y-116924820D01*
X149598320Y-116924820D01*
X149598320Y-115775570D01*
X149852320Y-115775570D01*
X149852320Y-116924820D01*
X151201570Y-116924820D01*
X151360320Y-116766070D01*
X151360320Y-116125510D01*
X151263647Y-115892121D01*
X151085018Y-115713493D01*
X150851629Y-115616820D01*
X150011070Y-115616820D01*
X149852320Y-115775570D01*
X149598320Y-115775570D01*
X149439570Y-115616820D01*
X148599011Y-115616820D01*
X148365622Y-115713493D01*
X148186993Y-115892121D01*
X148093460Y-116117929D01*
X148089875Y-116112563D01*
X146301900Y-114324588D01*
X146301900Y-112985952D01*
X146302554Y-112986930D01*
X146332826Y-113032236D01*
X147436771Y-114136180D01*
X147436773Y-114136183D01*
X147542048Y-114206525D01*
X147671624Y-114293105D01*
X147948648Y-114348209D01*
X147948653Y-114348208D01*
X150007125Y-114348208D01*
X150007130Y-114348209D01*
X150238193Y-114302247D01*
X150284155Y-114293104D01*
X150331261Y-114261629D01*
X156357160Y-114261629D01*
X156352360Y-114285760D01*
X156406406Y-114557465D01*
X156560314Y-114787806D01*
X156790655Y-114941714D01*
X156887518Y-114960982D01*
X156906786Y-115057845D01*
X157060694Y-115288186D01*
X157291035Y-115442094D01*
X157562740Y-115496140D01*
X157834445Y-115442094D01*
X158064786Y-115288186D01*
X158065386Y-115287288D01*
X158086686Y-115338837D01*
X158476113Y-115728944D01*
X158538100Y-115754683D01*
X158538100Y-117724915D01*
X158538099Y-117724920D01*
X158559858Y-117834305D01*
X158593204Y-118001945D01*
X158750125Y-118236795D01*
X159981080Y-119467749D01*
X159981080Y-120107440D01*
X160025358Y-120342757D01*
X160164430Y-120558881D01*
X160376630Y-120703871D01*
X160564834Y-120741983D01*
X160393203Y-120774278D01*
X160177079Y-120913350D01*
X160032089Y-121125550D01*
X159981080Y-121377440D01*
X159981080Y-122393440D01*
X160025358Y-122628757D01*
X160164430Y-122844881D01*
X160376630Y-122989871D01*
X160567089Y-123028440D01*
X160502210Y-123028440D01*
X160268821Y-123125113D01*
X160090193Y-123303742D01*
X159993520Y-123537131D01*
X159993520Y-123885690D01*
X160152270Y-124044440D01*
X161517520Y-124044440D01*
X161517520Y-124024440D01*
X161771520Y-124024440D01*
X161771520Y-124044440D01*
X163136770Y-124044440D01*
X163295520Y-123885690D01*
X163295520Y-123537131D01*
X163198847Y-123303742D01*
X163020219Y-123125113D01*
X162786830Y-123028440D01*
X162726633Y-123028440D01*
X162895837Y-122996602D01*
X163111961Y-122857530D01*
X163256951Y-122645330D01*
X163307960Y-122393440D01*
X163307960Y-121879090D01*
X166274940Y-121879090D01*
X166274940Y-123469709D01*
X166371613Y-123703098D01*
X166550241Y-123881727D01*
X166783630Y-123978400D01*
X168374250Y-123978400D01*
X168533000Y-123819650D01*
X168533000Y-121720340D01*
X168787000Y-121720340D01*
X168787000Y-123819650D01*
X168945750Y-123978400D01*
X170536370Y-123978400D01*
X170769759Y-123881727D01*
X170948387Y-123703098D01*
X171045060Y-123469709D01*
X171045060Y-121879090D01*
X170886310Y-121720340D01*
X168787000Y-121720340D01*
X168533000Y-121720340D01*
X166433690Y-121720340D01*
X166274940Y-121879090D01*
X163307960Y-121879090D01*
X163307960Y-121753750D01*
X165344739Y-119716971D01*
X166274940Y-119716971D01*
X166274940Y-121307590D01*
X166433690Y-121466340D01*
X168533000Y-121466340D01*
X168533000Y-119367030D01*
X168787000Y-119367030D01*
X168787000Y-121466340D01*
X170886310Y-121466340D01*
X171045060Y-121307590D01*
X171045060Y-120641668D01*
X171070613Y-120703358D01*
X171249241Y-120881987D01*
X171482630Y-120978660D01*
X173073250Y-120978660D01*
X173232000Y-120819910D01*
X173232000Y-118720600D01*
X171132690Y-118720600D01*
X170973940Y-118879350D01*
X170973940Y-119545272D01*
X170948387Y-119483582D01*
X170769759Y-119304953D01*
X170536370Y-119208280D01*
X168945750Y-119208280D01*
X168787000Y-119367030D01*
X168533000Y-119367030D01*
X168374250Y-119208280D01*
X166783630Y-119208280D01*
X166550241Y-119304953D01*
X166371613Y-119483582D01*
X166274940Y-119716971D01*
X165344739Y-119716971D01*
X166727189Y-118334521D01*
X170623416Y-118334521D01*
X170623421Y-118334522D01*
X170854484Y-118288560D01*
X170900446Y-118279417D01*
X170973940Y-118230310D01*
X170973940Y-118307850D01*
X171132690Y-118466600D01*
X173232000Y-118466600D01*
X173232000Y-116367290D01*
X173073250Y-116208540D01*
X171482630Y-116208540D01*
X171400661Y-116242493D01*
X171400661Y-112939561D01*
X171345557Y-112662536D01*
X171188636Y-112427686D01*
X171188633Y-112427684D01*
X169804010Y-111043060D01*
X169804010Y-110503700D01*
X170417030Y-110503700D01*
X170641385Y-110839470D01*
X171127566Y-111164326D01*
X171701055Y-111278400D01*
X172070545Y-111278400D01*
X172644034Y-111164326D01*
X173130215Y-110839470D01*
X173455071Y-110353289D01*
X173569145Y-109779800D01*
X173455071Y-109206311D01*
X173130215Y-108720130D01*
X172815434Y-108509800D01*
X173130215Y-108299470D01*
X173455071Y-107813289D01*
X173569145Y-107239800D01*
X173455071Y-106666311D01*
X173130215Y-106180130D01*
X173115887Y-106170557D01*
X173137117Y-106166562D01*
X173353241Y-106027490D01*
X173498231Y-105815290D01*
X173549240Y-105563400D01*
X173549240Y-103836200D01*
X173504962Y-103600883D01*
X173365890Y-103384759D01*
X173153690Y-103239769D01*
X172901800Y-103188760D01*
X170869800Y-103188760D01*
X170634483Y-103233038D01*
X170418359Y-103372110D01*
X170273369Y-103584310D01*
X170222360Y-103836200D01*
X170222360Y-105563400D01*
X170266638Y-105798717D01*
X170405710Y-106014841D01*
X170617910Y-106159831D01*
X170659239Y-106168200D01*
X170641385Y-106180130D01*
X170316529Y-106666311D01*
X170202455Y-107239800D01*
X170316529Y-107813289D01*
X170641385Y-108299470D01*
X170956166Y-108509800D01*
X170641385Y-108720130D01*
X170417030Y-109055900D01*
X169804010Y-109055900D01*
X169804010Y-108102130D01*
X169759732Y-107866813D01*
X169620660Y-107650689D01*
X169553622Y-107604884D01*
X169694897Y-107463608D01*
X169791570Y-107230219D01*
X169791570Y-105889790D01*
X169632820Y-105731040D01*
X168533000Y-105731040D01*
X168533000Y-105751040D01*
X168279000Y-105751040D01*
X168279000Y-105731040D01*
X167179180Y-105731040D01*
X167020430Y-105889790D01*
X167020430Y-107230219D01*
X167117103Y-107463608D01*
X167257257Y-107603763D01*
X167203989Y-107638040D01*
X167058999Y-107850240D01*
X167007990Y-108102130D01*
X167007990Y-111101870D01*
X167052268Y-111337187D01*
X167191340Y-111553311D01*
X167403540Y-111698301D01*
X167655430Y-111749310D01*
X168462760Y-111749310D01*
X169909811Y-113196360D01*
X166909940Y-113196360D01*
X166674623Y-113240638D01*
X166458499Y-113379710D01*
X166313509Y-113591910D01*
X166262500Y-113843800D01*
X166262500Y-114100471D01*
X165241160Y-113079130D01*
X165241160Y-111810270D01*
X165267830Y-111810270D01*
X165503147Y-111765992D01*
X165719271Y-111626920D01*
X165864261Y-111414720D01*
X165915270Y-111162830D01*
X165915270Y-108163090D01*
X165870992Y-107927773D01*
X165731920Y-107711649D01*
X165664882Y-107665844D01*
X165806157Y-107524568D01*
X165902830Y-107291179D01*
X165902830Y-105950750D01*
X165744080Y-105792000D01*
X164644260Y-105792000D01*
X164644260Y-105812000D01*
X164390260Y-105812000D01*
X164390260Y-105792000D01*
X163290440Y-105792000D01*
X163131690Y-105950750D01*
X163131690Y-107291179D01*
X163228363Y-107524568D01*
X163368517Y-107664723D01*
X163315249Y-107699000D01*
X163170259Y-107911200D01*
X163119250Y-108163090D01*
X163119250Y-110786520D01*
X161639700Y-112266070D01*
X161639700Y-105422805D01*
X161639701Y-105422800D01*
X161584597Y-105145776D01*
X161487076Y-104999826D01*
X161427675Y-104910925D01*
X161427672Y-104910923D01*
X161389578Y-104872829D01*
X161389576Y-104872826D01*
X161389573Y-104872824D01*
X161385440Y-104868691D01*
X161385440Y-104038821D01*
X163131690Y-104038821D01*
X163131690Y-105379250D01*
X163290440Y-105538000D01*
X164390260Y-105538000D01*
X164390260Y-103688880D01*
X164644260Y-103688880D01*
X164644260Y-105538000D01*
X165744080Y-105538000D01*
X165902830Y-105379250D01*
X165902830Y-104038821D01*
X165877580Y-103977861D01*
X167020430Y-103977861D01*
X167020430Y-105318290D01*
X167179180Y-105477040D01*
X168279000Y-105477040D01*
X168279000Y-103627920D01*
X168533000Y-103627920D01*
X168533000Y-105477040D01*
X169632820Y-105477040D01*
X169791570Y-105318290D01*
X169791570Y-103977861D01*
X169694897Y-103744472D01*
X169516269Y-103565843D01*
X169282880Y-103469170D01*
X168691750Y-103469170D01*
X168533000Y-103627920D01*
X168279000Y-103627920D01*
X168120250Y-103469170D01*
X167529120Y-103469170D01*
X167295731Y-103565843D01*
X167117103Y-103744472D01*
X167020430Y-103977861D01*
X165877580Y-103977861D01*
X165806157Y-103805432D01*
X165627529Y-103626803D01*
X165394140Y-103530130D01*
X164803010Y-103530130D01*
X164644260Y-103688880D01*
X164390260Y-103688880D01*
X164231510Y-103530130D01*
X163640380Y-103530130D01*
X163406991Y-103626803D01*
X163228363Y-103805432D01*
X163131690Y-104038821D01*
X161385440Y-104038821D01*
X161385440Y-103545000D01*
X161341162Y-103309683D01*
X161202090Y-103093559D01*
X160989890Y-102948569D01*
X160738000Y-102897560D01*
X158738000Y-102897560D01*
X158502683Y-102941838D01*
X158286559Y-103080910D01*
X158141569Y-103293110D01*
X158090560Y-103545000D01*
X158090560Y-105245000D01*
X158134838Y-105480317D01*
X158273910Y-105696441D01*
X158486110Y-105841431D01*
X158738000Y-105892440D01*
X160153801Y-105892440D01*
X160153801Y-106834560D01*
X159351310Y-106834560D01*
X157385440Y-104868690D01*
X157385440Y-103545000D01*
X157341162Y-103309683D01*
X157202090Y-103093559D01*
X157046092Y-102986970D01*
X160789872Y-99243189D01*
X160789875Y-99243187D01*
X160938549Y-99020680D01*
X160946797Y-99008336D01*
X161001901Y-98731312D01*
X161001900Y-98731307D01*
X161001900Y-97112400D01*
X161131910Y-97314441D01*
X161344110Y-97459431D01*
X161596000Y-97510440D01*
X163396730Y-97510440D01*
X163396730Y-99482515D01*
X163396729Y-99482520D01*
X163410268Y-99550581D01*
X163451834Y-99759545D01*
X163573982Y-99942353D01*
X163608755Y-99994395D01*
X163650990Y-100036630D01*
X163650990Y-101260320D01*
X163695268Y-101495637D01*
X163834340Y-101711761D01*
X164046540Y-101856751D01*
X164298430Y-101907760D01*
X166478430Y-101907760D01*
X166713747Y-101863482D01*
X166929871Y-101724410D01*
X167074861Y-101512210D01*
X167125870Y-101260320D01*
X167125870Y-99660320D01*
X167081592Y-99425003D01*
X166942520Y-99208879D01*
X166730320Y-99063889D01*
X166478430Y-99012880D01*
X164844530Y-99012880D01*
X164844530Y-95163000D01*
X164948560Y-95163000D01*
X164948560Y-96863000D01*
X164992838Y-97098317D01*
X165131910Y-97314441D01*
X165344110Y-97459431D01*
X165596000Y-97510440D01*
X167117645Y-97510440D01*
X167130047Y-97518726D01*
X167207976Y-97570797D01*
X167485000Y-97625901D01*
X167485005Y-97625900D01*
X168139560Y-97625900D01*
X168139560Y-97918000D01*
X168183838Y-98153317D01*
X168322910Y-98369441D01*
X168535110Y-98514431D01*
X168787000Y-98565440D01*
X170311000Y-98565440D01*
X170546317Y-98521162D01*
X170762441Y-98382090D01*
X170907431Y-98169890D01*
X170958440Y-97918000D01*
X170958440Y-97187750D01*
X171454000Y-97187750D01*
X171454000Y-98044310D01*
X171550673Y-98277699D01*
X171729302Y-98456327D01*
X171962691Y-98553000D01*
X172565250Y-98553000D01*
X172724000Y-98394250D01*
X172724000Y-97029000D01*
X172978000Y-97029000D01*
X172978000Y-98394250D01*
X173136750Y-98553000D01*
X173739309Y-98553000D01*
X173972698Y-98456327D01*
X174151327Y-98277699D01*
X174248000Y-98044310D01*
X174248000Y-97187750D01*
X174089250Y-97029000D01*
X172978000Y-97029000D01*
X172724000Y-97029000D01*
X171612750Y-97029000D01*
X171454000Y-97187750D01*
X170958440Y-97187750D01*
X170958440Y-95886000D01*
X170934674Y-95759690D01*
X171454000Y-95759690D01*
X171454000Y-96616250D01*
X171612750Y-96775000D01*
X172724000Y-96775000D01*
X172724000Y-95409750D01*
X172978000Y-95409750D01*
X172978000Y-96775000D01*
X174089250Y-96775000D01*
X174248000Y-96616250D01*
X174248000Y-95759690D01*
X174151327Y-95526301D01*
X173972698Y-95347673D01*
X173739309Y-95251000D01*
X173136750Y-95251000D01*
X172978000Y-95409750D01*
X172724000Y-95409750D01*
X172565250Y-95251000D01*
X171962691Y-95251000D01*
X171729302Y-95347673D01*
X171550673Y-95526301D01*
X171454000Y-95759690D01*
X170934674Y-95759690D01*
X170914162Y-95650683D01*
X170775090Y-95434559D01*
X170562890Y-95289569D01*
X170311000Y-95238560D01*
X168787000Y-95238560D01*
X168551683Y-95282838D01*
X168335559Y-95421910D01*
X168243440Y-95556731D01*
X168243440Y-95163000D01*
X168199162Y-94927683D01*
X168060090Y-94711559D01*
X167847890Y-94566569D01*
X167596000Y-94515560D01*
X165596000Y-94515560D01*
X165360683Y-94559838D01*
X165144559Y-94698910D01*
X164999569Y-94911110D01*
X164948560Y-95163000D01*
X164844530Y-95163000D01*
X164844530Y-93067230D01*
X164789426Y-92790205D01*
X164632505Y-92555355D01*
X164632502Y-92555353D01*
X164418198Y-92341048D01*
X164418198Y-92318952D01*
X164584952Y-92152198D01*
X164861048Y-92152198D01*
X165401623Y-92692773D01*
X165636473Y-92849694D01*
X165913498Y-92904798D01*
X166474702Y-92904798D01*
X166751727Y-92849694D01*
X166986577Y-92692773D01*
X167143498Y-92457923D01*
X167153764Y-92406313D01*
X168097323Y-93349872D01*
X168097325Y-93349875D01*
X168139560Y-93378095D01*
X168139560Y-93854000D01*
X168183838Y-94089317D01*
X168322910Y-94305441D01*
X168535110Y-94450431D01*
X168787000Y-94501440D01*
X170311000Y-94501440D01*
X170546317Y-94457162D01*
X170762441Y-94318090D01*
X170907431Y-94105890D01*
X170958440Y-93854000D01*
X170958440Y-93123750D01*
X171454000Y-93123750D01*
X171454000Y-93980310D01*
X171550673Y-94213699D01*
X171729302Y-94392327D01*
X171962691Y-94489000D01*
X172565250Y-94489000D01*
X172724000Y-94330250D01*
X172724000Y-92965000D01*
X172978000Y-92965000D01*
X172978000Y-94330250D01*
X173136750Y-94489000D01*
X173739309Y-94489000D01*
X173972698Y-94392327D01*
X174151327Y-94213699D01*
X174248000Y-93980310D01*
X174248000Y-93123750D01*
X174089250Y-92965000D01*
X172978000Y-92965000D01*
X172724000Y-92965000D01*
X171612750Y-92965000D01*
X171454000Y-93123750D01*
X170958440Y-93123750D01*
X170958440Y-91822000D01*
X170934674Y-91695690D01*
X171454000Y-91695690D01*
X171454000Y-92552250D01*
X171612750Y-92711000D01*
X172724000Y-92711000D01*
X172724000Y-91345750D01*
X172978000Y-91345750D01*
X172978000Y-92711000D01*
X174089250Y-92711000D01*
X174248000Y-92552250D01*
X174248000Y-91695690D01*
X174151327Y-91462301D01*
X173972698Y-91283673D01*
X173739309Y-91187000D01*
X173136750Y-91187000D01*
X172978000Y-91345750D01*
X172724000Y-91345750D01*
X172565250Y-91187000D01*
X171962691Y-91187000D01*
X171729302Y-91283673D01*
X171550673Y-91462301D01*
X171454000Y-91695690D01*
X170934674Y-91695690D01*
X170914162Y-91586683D01*
X170775090Y-91370559D01*
X170760622Y-91360674D01*
X170824675Y-91317875D01*
X174388875Y-87753675D01*
X174417095Y-87711440D01*
X174627000Y-87711440D01*
X174862317Y-87667162D01*
X175078441Y-87528090D01*
X175223431Y-87315890D01*
X175274440Y-87064000D01*
X175274440Y-86164000D01*
X175230162Y-85928683D01*
X175091090Y-85712559D01*
X174878890Y-85567569D01*
X174627000Y-85516560D01*
X173127000Y-85516560D01*
X172891683Y-85560838D01*
X172675559Y-85699910D01*
X172530569Y-85912110D01*
X172479560Y-86164000D01*
X172479560Y-87064000D01*
X172523838Y-87299317D01*
X172630295Y-87464755D01*
X170012950Y-90082100D01*
X169118951Y-90082100D01*
X169079203Y-90042282D01*
X170305573Y-88815912D01*
X170305576Y-88815910D01*
X170462497Y-88581060D01*
X170517601Y-88304035D01*
X170517601Y-83239627D01*
X170893228Y-82864000D01*
X172479560Y-82864000D01*
X172479560Y-83764000D01*
X172523838Y-83999317D01*
X172662910Y-84215441D01*
X172875110Y-84360431D01*
X173127000Y-84411440D01*
X174627000Y-84411440D01*
X174862317Y-84367162D01*
X175078441Y-84228090D01*
X175223431Y-84015890D01*
X175274440Y-83764000D01*
X175274440Y-82864000D01*
X175230162Y-82628683D01*
X175091090Y-82412559D01*
X174878890Y-82267569D01*
X174627000Y-82216560D01*
X173127000Y-82216560D01*
X172891683Y-82260838D01*
X172675559Y-82399910D01*
X172530569Y-82612110D01*
X172479560Y-82864000D01*
X170893228Y-82864000D01*
X173629576Y-80127652D01*
X173786498Y-79892801D01*
X173841602Y-79615777D01*
X173841601Y-79615772D01*
X173841601Y-78628228D01*
X173841602Y-78628223D01*
X173786498Y-78351199D01*
X173729070Y-78265252D01*
X173629576Y-78116348D01*
X173629573Y-78116346D01*
X173094652Y-77581424D01*
X173029521Y-77537905D01*
X172859802Y-77424503D01*
X172813840Y-77415360D01*
X172582777Y-77369398D01*
X172582772Y-77369399D01*
X171595223Y-77369399D01*
X171318198Y-77424503D01*
X171083348Y-77581424D01*
X171083346Y-77581427D01*
X170533718Y-78131055D01*
X170341370Y-77938371D01*
X169828100Y-77725243D01*
X169272339Y-77724758D01*
X169203819Y-77753070D01*
X169032174Y-77581424D01*
X168967043Y-77537905D01*
X168797324Y-77424503D01*
X168751362Y-77415360D01*
X168520299Y-77369398D01*
X168520294Y-77369399D01*
X163139706Y-77369399D01*
X163139701Y-77369398D01*
X162940440Y-77409034D01*
X162940440Y-77124442D01*
X175570000Y-77214654D01*
X175570000Y-77214654D01*
G37*
X175570000Y-77214654D02*
X175570000Y-116406455D01*
X175468759Y-116305213D01*
X175235370Y-116208540D01*
X173644750Y-116208540D01*
X173486000Y-116367290D01*
X173486000Y-118466600D01*
X173506000Y-118466600D01*
X173506000Y-118720600D01*
X173486000Y-118720600D01*
X173486000Y-120819910D01*
X173644750Y-120978660D01*
X175235370Y-120978660D01*
X175468759Y-120881987D01*
X175570000Y-120780745D01*
X175570000Y-125099208D01*
X163050614Y-125187372D01*
X163198847Y-125039138D01*
X163295520Y-124805749D01*
X163295520Y-124457190D01*
X163136770Y-124298440D01*
X161771520Y-124298440D01*
X161771520Y-124318440D01*
X161517520Y-124318440D01*
X161517520Y-124298440D01*
X160152270Y-124298440D01*
X159993520Y-124457190D01*
X159993520Y-124805749D01*
X160090193Y-125039138D01*
X160258092Y-125207038D01*
X150356730Y-125276766D01*
X150382182Y-125246578D01*
X150517180Y-124821900D01*
X150517180Y-124546900D01*
X149509180Y-124546900D01*
X149509180Y-124566900D01*
X149255180Y-124566900D01*
X149255180Y-124546900D01*
X148247180Y-124546900D01*
X148247180Y-124821900D01*
X148382178Y-125246578D01*
X148419134Y-125290411D01*
X143314920Y-125326356D01*
X143382182Y-125246578D01*
X143517180Y-124821900D01*
X143517180Y-124546900D01*
X142509180Y-124546900D01*
X142509180Y-124566900D01*
X142255180Y-124566900D01*
X142255180Y-124546900D01*
X141247180Y-124546900D01*
X141247180Y-124821900D01*
X141382178Y-125246578D01*
X141460450Y-125339416D01*
X140085000Y-125349102D01*
X140085000Y-124017900D01*
X141247180Y-124017900D01*
X141247180Y-124292900D01*
X142255180Y-124292900D01*
X142255180Y-123176946D01*
X142509180Y-123176946D01*
X142509180Y-124292900D01*
X143517180Y-124292900D01*
X143517180Y-124017900D01*
X148247180Y-124017900D01*
X148247180Y-124292900D01*
X149255180Y-124292900D01*
X149255180Y-123176946D01*
X149509180Y-123176946D01*
X149509180Y-124292900D01*
X150517180Y-124292900D01*
X150517180Y-124017900D01*
X150382182Y-123593222D01*
X150094943Y-123252532D01*
X149684054Y-123050781D01*
X149509180Y-123176946D01*
X149255180Y-123176946D01*
X149080306Y-123050781D01*
X148669417Y-123252532D01*
X148382178Y-123593222D01*
X148247180Y-124017900D01*
X143517180Y-124017900D01*
X143382182Y-123593222D01*
X143094943Y-123252532D01*
X142684054Y-123050781D01*
X142509180Y-123176946D01*
X142255180Y-123176946D01*
X142080306Y-123050781D01*
X141669417Y-123252532D01*
X141382178Y-123593222D01*
X141247180Y-124017900D01*
X140085000Y-124017900D01*
X140085000Y-122017838D01*
X142162912Y-122017838D01*
X142346628Y-122391721D01*
X142671131Y-122679468D01*
X143081049Y-122821129D01*
X143255180Y-122672463D01*
X143255180Y-121846900D01*
X143509180Y-121846900D01*
X143509180Y-122672463D01*
X143683311Y-122821129D01*
X144093229Y-122679468D01*
X144417732Y-122391721D01*
X144601448Y-122017838D01*
X147162912Y-122017838D01*
X147346628Y-122391721D01*
X147671131Y-122679468D01*
X148081049Y-122821129D01*
X148255180Y-122672463D01*
X148255180Y-121846900D01*
X148509180Y-121846900D01*
X148509180Y-122672463D01*
X148683311Y-122821129D01*
X149093229Y-122679468D01*
X149417732Y-122391721D01*
X149601448Y-122017838D01*
X149474914Y-121846900D01*
X148509180Y-121846900D01*
X148255180Y-121846900D01*
X147289446Y-121846900D01*
X147162912Y-122017838D01*
X144601448Y-122017838D01*
X144474914Y-121846900D01*
X143509180Y-121846900D01*
X143255180Y-121846900D01*
X142289446Y-121846900D01*
X142162912Y-122017838D01*
X140085000Y-122017838D01*
X140085000Y-121421962D01*
X142162912Y-121421962D01*
X142289446Y-121592900D01*
X143255180Y-121592900D01*
X143255180Y-120767337D01*
X143509180Y-120767337D01*
X143509180Y-121592900D01*
X144474914Y-121592900D01*
X144601448Y-121421962D01*
X147162912Y-121421962D01*
X147289446Y-121592900D01*
X148255180Y-121592900D01*
X148255180Y-120767337D01*
X148509180Y-120767337D01*
X148509180Y-121592900D01*
X149474914Y-121592900D01*
X149601448Y-121421962D01*
X149417732Y-121048079D01*
X149093229Y-120760332D01*
X148683311Y-120618671D01*
X148509180Y-120767337D01*
X148255180Y-120767337D01*
X148081049Y-120618671D01*
X147671131Y-120760332D01*
X147346628Y-121048079D01*
X147162912Y-121421962D01*
X144601448Y-121421962D01*
X144417732Y-121048079D01*
X144093229Y-120760332D01*
X143683311Y-120618671D01*
X143509180Y-120767337D01*
X143255180Y-120767337D01*
X143081049Y-120618671D01*
X142671131Y-120760332D01*
X142346628Y-121048079D01*
X142162912Y-121421962D01*
X140085000Y-121421962D01*
X140085000Y-120056640D01*
X153377080Y-120056640D01*
X153377080Y-123714240D01*
X153421358Y-123949557D01*
X153560430Y-124165681D01*
X153772630Y-124310671D01*
X154024520Y-124361680D01*
X156056520Y-124361680D01*
X156291837Y-124317402D01*
X156507961Y-124178330D01*
X156652951Y-123966130D01*
X156703960Y-123714240D01*
X156703960Y-120056640D01*
X156659682Y-119821323D01*
X156520610Y-119605199D01*
X156308410Y-119460209D01*
X156056520Y-119409200D01*
X154024520Y-119409200D01*
X153789203Y-119453478D01*
X153573079Y-119592550D01*
X153428089Y-119804750D01*
X153377080Y-120056640D01*
X140085000Y-120056640D01*
X140085000Y-117848871D01*
X140498275Y-118125012D01*
X141123767Y-118249430D01*
X141697993Y-118249430D01*
X142323485Y-118125012D01*
X142853752Y-117770699D01*
X143142311Y-117338840D01*
X144077880Y-117338840D01*
X144077880Y-117851820D01*
X144122158Y-118087137D01*
X144261230Y-118303261D01*
X144473430Y-118448251D01*
X144725320Y-118499260D01*
X146725320Y-118499260D01*
X146960637Y-118454982D01*
X147176761Y-118315910D01*
X147262140Y-118190953D01*
X147375018Y-118237824D01*
X147779208Y-118238176D01*
X148136828Y-118090410D01*
X148186993Y-118211519D01*
X148365622Y-118390147D01*
X148599011Y-118486820D01*
X149439570Y-118486820D01*
X149598320Y-118328070D01*
X149598320Y-117178820D01*
X149852320Y-117178820D01*
X149852320Y-118328070D01*
X150011070Y-118486820D01*
X150851629Y-118486820D01*
X151085018Y-118390147D01*
X151263647Y-118211519D01*
X151360320Y-117978130D01*
X151360320Y-117337570D01*
X151201570Y-117178820D01*
X149852320Y-117178820D01*
X149598320Y-117178820D01*
X149578320Y-117178820D01*
X149578320Y-116924820D01*
X149598320Y-116924820D01*
X149598320Y-115775570D01*
X149852320Y-115775570D01*
X149852320Y-116924820D01*
X151201570Y-116924820D01*
X151360320Y-116766070D01*
X151360320Y-116125510D01*
X151263647Y-115892121D01*
X151085018Y-115713493D01*
X150851629Y-115616820D01*
X150011070Y-115616820D01*
X149852320Y-115775570D01*
X149598320Y-115775570D01*
X149439570Y-115616820D01*
X148599011Y-115616820D01*
X148365622Y-115713493D01*
X148186993Y-115892121D01*
X148093460Y-116117929D01*
X148089875Y-116112563D01*
X146301900Y-114324588D01*
X146301900Y-112985952D01*
X146302554Y-112986930D01*
X146332826Y-113032236D01*
X147436771Y-114136180D01*
X147436773Y-114136183D01*
X147542048Y-114206525D01*
X147671624Y-114293105D01*
X147948648Y-114348209D01*
X147948653Y-114348208D01*
X150007125Y-114348208D01*
X150007130Y-114348209D01*
X150238193Y-114302247D01*
X150284155Y-114293104D01*
X150331261Y-114261629D01*
X156357160Y-114261629D01*
X156352360Y-114285760D01*
X156406406Y-114557465D01*
X156560314Y-114787806D01*
X156790655Y-114941714D01*
X156887518Y-114960982D01*
X156906786Y-115057845D01*
X157060694Y-115288186D01*
X157291035Y-115442094D01*
X157562740Y-115496140D01*
X157834445Y-115442094D01*
X158064786Y-115288186D01*
X158065386Y-115287288D01*
X158086686Y-115338837D01*
X158476113Y-115728944D01*
X158538100Y-115754683D01*
X158538100Y-117724915D01*
X158538099Y-117724920D01*
X158559858Y-117834305D01*
X158593204Y-118001945D01*
X158750125Y-118236795D01*
X159981080Y-119467749D01*
X159981080Y-120107440D01*
X160025358Y-120342757D01*
X160164430Y-120558881D01*
X160376630Y-120703871D01*
X160564834Y-120741983D01*
X160393203Y-120774278D01*
X160177079Y-120913350D01*
X160032089Y-121125550D01*
X159981080Y-121377440D01*
X159981080Y-122393440D01*
X160025358Y-122628757D01*
X160164430Y-122844881D01*
X160376630Y-122989871D01*
X160567089Y-123028440D01*
X160502210Y-123028440D01*
X160268821Y-123125113D01*
X160090193Y-123303742D01*
X159993520Y-123537131D01*
X159993520Y-123885690D01*
X160152270Y-124044440D01*
X161517520Y-124044440D01*
X161517520Y-124024440D01*
X161771520Y-124024440D01*
X161771520Y-124044440D01*
X163136770Y-124044440D01*
X163295520Y-123885690D01*
X163295520Y-123537131D01*
X163198847Y-123303742D01*
X163020219Y-123125113D01*
X162786830Y-123028440D01*
X162726633Y-123028440D01*
X162895837Y-122996602D01*
X163111961Y-122857530D01*
X163256951Y-122645330D01*
X163307960Y-122393440D01*
X163307960Y-121879090D01*
X166274940Y-121879090D01*
X166274940Y-123469709D01*
X166371613Y-123703098D01*
X166550241Y-123881727D01*
X166783630Y-123978400D01*
X168374250Y-123978400D01*
X168533000Y-123819650D01*
X168533000Y-121720340D01*
X168787000Y-121720340D01*
X168787000Y-123819650D01*
X168945750Y-123978400D01*
X170536370Y-123978400D01*
X170769759Y-123881727D01*
X170948387Y-123703098D01*
X171045060Y-123469709D01*
X171045060Y-121879090D01*
X170886310Y-121720340D01*
X168787000Y-121720340D01*
X168533000Y-121720340D01*
X166433690Y-121720340D01*
X166274940Y-121879090D01*
X163307960Y-121879090D01*
X163307960Y-121753750D01*
X165344739Y-119716971D01*
X166274940Y-119716971D01*
X166274940Y-121307590D01*
X166433690Y-121466340D01*
X168533000Y-121466340D01*
X168533000Y-119367030D01*
X168787000Y-119367030D01*
X168787000Y-121466340D01*
X170886310Y-121466340D01*
X171045060Y-121307590D01*
X171045060Y-120641668D01*
X171070613Y-120703358D01*
X171249241Y-120881987D01*
X171482630Y-120978660D01*
X173073250Y-120978660D01*
X173232000Y-120819910D01*
X173232000Y-118720600D01*
X171132690Y-118720600D01*
X170973940Y-118879350D01*
X170973940Y-119545272D01*
X170948387Y-119483582D01*
X170769759Y-119304953D01*
X170536370Y-119208280D01*
X168945750Y-119208280D01*
X168787000Y-119367030D01*
X168533000Y-119367030D01*
X168374250Y-119208280D01*
X166783630Y-119208280D01*
X166550241Y-119304953D01*
X166371613Y-119483582D01*
X166274940Y-119716971D01*
X165344739Y-119716971D01*
X166727189Y-118334521D01*
X170623416Y-118334521D01*
X170623421Y-118334522D01*
X170854484Y-118288560D01*
X170900446Y-118279417D01*
X170973940Y-118230310D01*
X170973940Y-118307850D01*
X171132690Y-118466600D01*
X173232000Y-118466600D01*
X173232000Y-116367290D01*
X173073250Y-116208540D01*
X171482630Y-116208540D01*
X171400661Y-116242493D01*
X171400661Y-112939561D01*
X171345557Y-112662536D01*
X171188636Y-112427686D01*
X171188633Y-112427684D01*
X169804010Y-111043060D01*
X169804010Y-110503700D01*
X170417030Y-110503700D01*
X170641385Y-110839470D01*
X171127566Y-111164326D01*
X171701055Y-111278400D01*
X172070545Y-111278400D01*
X172644034Y-111164326D01*
X173130215Y-110839470D01*
X173455071Y-110353289D01*
X173569145Y-109779800D01*
X173455071Y-109206311D01*
X173130215Y-108720130D01*
X172815434Y-108509800D01*
X173130215Y-108299470D01*
X173455071Y-107813289D01*
X173569145Y-107239800D01*
X173455071Y-106666311D01*
X173130215Y-106180130D01*
X173115887Y-106170557D01*
X173137117Y-106166562D01*
X173353241Y-106027490D01*
X173498231Y-105815290D01*
X173549240Y-105563400D01*
X173549240Y-103836200D01*
X173504962Y-103600883D01*
X173365890Y-103384759D01*
X173153690Y-103239769D01*
X172901800Y-103188760D01*
X170869800Y-103188760D01*
X170634483Y-103233038D01*
X170418359Y-103372110D01*
X170273369Y-103584310D01*
X170222360Y-103836200D01*
X170222360Y-105563400D01*
X170266638Y-105798717D01*
X170405710Y-106014841D01*
X170617910Y-106159831D01*
X170659239Y-106168200D01*
X170641385Y-106180130D01*
X170316529Y-106666311D01*
X170202455Y-107239800D01*
X170316529Y-107813289D01*
X170641385Y-108299470D01*
X170956166Y-108509800D01*
X170641385Y-108720130D01*
X170417030Y-109055900D01*
X169804010Y-109055900D01*
X169804010Y-108102130D01*
X169759732Y-107866813D01*
X169620660Y-107650689D01*
X169553622Y-107604884D01*
X169694897Y-107463608D01*
X169791570Y-107230219D01*
X169791570Y-105889790D01*
X169632820Y-105731040D01*
X168533000Y-105731040D01*
X168533000Y-105751040D01*
X168279000Y-105751040D01*
X168279000Y-105731040D01*
X167179180Y-105731040D01*
X167020430Y-105889790D01*
X167020430Y-107230219D01*
X167117103Y-107463608D01*
X167257257Y-107603763D01*
X167203989Y-107638040D01*
X167058999Y-107850240D01*
X167007990Y-108102130D01*
X167007990Y-111101870D01*
X167052268Y-111337187D01*
X167191340Y-111553311D01*
X167403540Y-111698301D01*
X167655430Y-111749310D01*
X168462760Y-111749310D01*
X169909811Y-113196360D01*
X166909940Y-113196360D01*
X166674623Y-113240638D01*
X166458499Y-113379710D01*
X166313509Y-113591910D01*
X166262500Y-113843800D01*
X166262500Y-114100471D01*
X165241160Y-113079130D01*
X165241160Y-111810270D01*
X165267830Y-111810270D01*
X165503147Y-111765992D01*
X165719271Y-111626920D01*
X165864261Y-111414720D01*
X165915270Y-111162830D01*
X165915270Y-108163090D01*
X165870992Y-107927773D01*
X165731920Y-107711649D01*
X165664882Y-107665844D01*
X165806157Y-107524568D01*
X165902830Y-107291179D01*
X165902830Y-105950750D01*
X165744080Y-105792000D01*
X164644260Y-105792000D01*
X164644260Y-105812000D01*
X164390260Y-105812000D01*
X164390260Y-105792000D01*
X163290440Y-105792000D01*
X163131690Y-105950750D01*
X163131690Y-107291179D01*
X163228363Y-107524568D01*
X163368517Y-107664723D01*
X163315249Y-107699000D01*
X163170259Y-107911200D01*
X163119250Y-108163090D01*
X163119250Y-110786520D01*
X161639700Y-112266070D01*
X161639700Y-105422805D01*
X161639701Y-105422800D01*
X161584597Y-105145776D01*
X161487076Y-104999826D01*
X161427675Y-104910925D01*
X161427672Y-104910923D01*
X161389578Y-104872829D01*
X161389576Y-104872826D01*
X161389573Y-104872824D01*
X161385440Y-104868691D01*
X161385440Y-104038821D01*
X163131690Y-104038821D01*
X163131690Y-105379250D01*
X163290440Y-105538000D01*
X164390260Y-105538000D01*
X164390260Y-103688880D01*
X164644260Y-103688880D01*
X164644260Y-105538000D01*
X165744080Y-105538000D01*
X165902830Y-105379250D01*
X165902830Y-104038821D01*
X165877580Y-103977861D01*
X167020430Y-103977861D01*
X167020430Y-105318290D01*
X167179180Y-105477040D01*
X168279000Y-105477040D01*
X168279000Y-103627920D01*
X168533000Y-103627920D01*
X168533000Y-105477040D01*
X169632820Y-105477040D01*
X169791570Y-105318290D01*
X169791570Y-103977861D01*
X169694897Y-103744472D01*
X169516269Y-103565843D01*
X169282880Y-103469170D01*
X168691750Y-103469170D01*
X168533000Y-103627920D01*
X168279000Y-103627920D01*
X168120250Y-103469170D01*
X167529120Y-103469170D01*
X167295731Y-103565843D01*
X167117103Y-103744472D01*
X167020430Y-103977861D01*
X165877580Y-103977861D01*
X165806157Y-103805432D01*
X165627529Y-103626803D01*
X165394140Y-103530130D01*
X164803010Y-103530130D01*
X164644260Y-103688880D01*
X164390260Y-103688880D01*
X164231510Y-103530130D01*
X163640380Y-103530130D01*
X163406991Y-103626803D01*
X163228363Y-103805432D01*
X163131690Y-104038821D01*
X161385440Y-104038821D01*
X161385440Y-103545000D01*
X161341162Y-103309683D01*
X161202090Y-103093559D01*
X160989890Y-102948569D01*
X160738000Y-102897560D01*
X158738000Y-102897560D01*
X158502683Y-102941838D01*
X158286559Y-103080910D01*
X158141569Y-103293110D01*
X158090560Y-103545000D01*
X158090560Y-105245000D01*
X158134838Y-105480317D01*
X158273910Y-105696441D01*
X158486110Y-105841431D01*
X158738000Y-105892440D01*
X160153801Y-105892440D01*
X160153801Y-106834560D01*
X159351310Y-106834560D01*
X157385440Y-104868690D01*
X157385440Y-103545000D01*
X157341162Y-103309683D01*
X157202090Y-103093559D01*
X157046092Y-102986970D01*
X160789872Y-99243189D01*
X160789875Y-99243187D01*
X160938549Y-99020680D01*
X160946797Y-99008336D01*
X161001901Y-98731312D01*
X161001900Y-98731307D01*
X161001900Y-97112400D01*
X161131910Y-97314441D01*
X161344110Y-97459431D01*
X161596000Y-97510440D01*
X163396730Y-97510440D01*
X163396730Y-99482515D01*
X163396729Y-99482520D01*
X163410268Y-99550581D01*
X163451834Y-99759545D01*
X163573982Y-99942353D01*
X163608755Y-99994395D01*
X163650990Y-100036630D01*
X163650990Y-101260320D01*
X163695268Y-101495637D01*
X163834340Y-101711761D01*
X164046540Y-101856751D01*
X164298430Y-101907760D01*
X166478430Y-101907760D01*
X166713747Y-101863482D01*
X166929871Y-101724410D01*
X167074861Y-101512210D01*
X167125870Y-101260320D01*
X167125870Y-99660320D01*
X167081592Y-99425003D01*
X166942520Y-99208879D01*
X166730320Y-99063889D01*
X166478430Y-99012880D01*
X164844530Y-99012880D01*
X164844530Y-95163000D01*
X164948560Y-95163000D01*
X164948560Y-96863000D01*
X164992838Y-97098317D01*
X165131910Y-97314441D01*
X165344110Y-97459431D01*
X165596000Y-97510440D01*
X167117645Y-97510440D01*
X167130047Y-97518726D01*
X167207976Y-97570797D01*
X167485000Y-97625901D01*
X167485005Y-97625900D01*
X168139560Y-97625900D01*
X168139560Y-97918000D01*
X168183838Y-98153317D01*
X168322910Y-98369441D01*
X168535110Y-98514431D01*
X168787000Y-98565440D01*
X170311000Y-98565440D01*
X170546317Y-98521162D01*
X170762441Y-98382090D01*
X170907431Y-98169890D01*
X170958440Y-97918000D01*
X170958440Y-97187750D01*
X171454000Y-97187750D01*
X171454000Y-98044310D01*
X171550673Y-98277699D01*
X171729302Y-98456327D01*
X171962691Y-98553000D01*
X172565250Y-98553000D01*
X172724000Y-98394250D01*
X172724000Y-97029000D01*
X172978000Y-97029000D01*
X172978000Y-98394250D01*
X173136750Y-98553000D01*
X173739309Y-98553000D01*
X173972698Y-98456327D01*
X174151327Y-98277699D01*
X174248000Y-98044310D01*
X174248000Y-97187750D01*
X174089250Y-97029000D01*
X172978000Y-97029000D01*
X172724000Y-97029000D01*
X171612750Y-97029000D01*
X171454000Y-97187750D01*
X170958440Y-97187750D01*
X170958440Y-95886000D01*
X170934674Y-95759690D01*
X171454000Y-95759690D01*
X171454000Y-96616250D01*
X171612750Y-96775000D01*
X172724000Y-96775000D01*
X172724000Y-95409750D01*
X172978000Y-95409750D01*
X172978000Y-96775000D01*
X174089250Y-96775000D01*
X174248000Y-96616250D01*
X174248000Y-95759690D01*
X174151327Y-95526301D01*
X173972698Y-95347673D01*
X173739309Y-95251000D01*
X173136750Y-95251000D01*
X172978000Y-95409750D01*
X172724000Y-95409750D01*
X172565250Y-95251000D01*
X171962691Y-95251000D01*
X171729302Y-95347673D01*
X171550673Y-95526301D01*
X171454000Y-95759690D01*
X170934674Y-95759690D01*
X170914162Y-95650683D01*
X170775090Y-95434559D01*
X170562890Y-95289569D01*
X170311000Y-95238560D01*
X168787000Y-95238560D01*
X168551683Y-95282838D01*
X168335559Y-95421910D01*
X168243440Y-95556731D01*
X168243440Y-95163000D01*
X168199162Y-94927683D01*
X168060090Y-94711559D01*
X167847890Y-94566569D01*
X167596000Y-94515560D01*
X165596000Y-94515560D01*
X165360683Y-94559838D01*
X165144559Y-94698910D01*
X164999569Y-94911110D01*
X164948560Y-95163000D01*
X164844530Y-95163000D01*
X164844530Y-93067230D01*
X164789426Y-92790205D01*
X164632505Y-92555355D01*
X164632502Y-92555353D01*
X164418198Y-92341048D01*
X164418198Y-92318952D01*
X164584952Y-92152198D01*
X164861048Y-92152198D01*
X165401623Y-92692773D01*
X165636473Y-92849694D01*
X165913498Y-92904798D01*
X166474702Y-92904798D01*
X166751727Y-92849694D01*
X166986577Y-92692773D01*
X167143498Y-92457923D01*
X167153764Y-92406313D01*
X168097323Y-93349872D01*
X168097325Y-93349875D01*
X168139560Y-93378095D01*
X168139560Y-93854000D01*
X168183838Y-94089317D01*
X168322910Y-94305441D01*
X168535110Y-94450431D01*
X168787000Y-94501440D01*
X170311000Y-94501440D01*
X170546317Y-94457162D01*
X170762441Y-94318090D01*
X170907431Y-94105890D01*
X170958440Y-93854000D01*
X170958440Y-93123750D01*
X171454000Y-93123750D01*
X171454000Y-93980310D01*
X171550673Y-94213699D01*
X171729302Y-94392327D01*
X171962691Y-94489000D01*
X172565250Y-94489000D01*
X172724000Y-94330250D01*
X172724000Y-92965000D01*
X172978000Y-92965000D01*
X172978000Y-94330250D01*
X173136750Y-94489000D01*
X173739309Y-94489000D01*
X173972698Y-94392327D01*
X174151327Y-94213699D01*
X174248000Y-93980310D01*
X174248000Y-93123750D01*
X174089250Y-92965000D01*
X172978000Y-92965000D01*
X172724000Y-92965000D01*
X171612750Y-92965000D01*
X171454000Y-93123750D01*
X170958440Y-93123750D01*
X170958440Y-91822000D01*
X170934674Y-91695690D01*
X171454000Y-91695690D01*
X171454000Y-92552250D01*
X171612750Y-92711000D01*
X172724000Y-92711000D01*
X172724000Y-91345750D01*
X172978000Y-91345750D01*
X172978000Y-92711000D01*
X174089250Y-92711000D01*
X174248000Y-92552250D01*
X174248000Y-91695690D01*
X174151327Y-91462301D01*
X173972698Y-91283673D01*
X173739309Y-91187000D01*
X173136750Y-91187000D01*
X172978000Y-91345750D01*
X172724000Y-91345750D01*
X172565250Y-91187000D01*
X171962691Y-91187000D01*
X171729302Y-91283673D01*
X171550673Y-91462301D01*
X171454000Y-91695690D01*
X170934674Y-91695690D01*
X170914162Y-91586683D01*
X170775090Y-91370559D01*
X170760622Y-91360674D01*
X170824675Y-91317875D01*
X174388875Y-87753675D01*
X174417095Y-87711440D01*
X174627000Y-87711440D01*
X174862317Y-87667162D01*
X175078441Y-87528090D01*
X175223431Y-87315890D01*
X175274440Y-87064000D01*
X175274440Y-86164000D01*
X175230162Y-85928683D01*
X175091090Y-85712559D01*
X174878890Y-85567569D01*
X174627000Y-85516560D01*
X173127000Y-85516560D01*
X172891683Y-85560838D01*
X172675559Y-85699910D01*
X172530569Y-85912110D01*
X172479560Y-86164000D01*
X172479560Y-87064000D01*
X172523838Y-87299317D01*
X172630295Y-87464755D01*
X170012950Y-90082100D01*
X169118951Y-90082100D01*
X169079203Y-90042282D01*
X170305573Y-88815912D01*
X170305576Y-88815910D01*
X170462497Y-88581060D01*
X170517601Y-88304035D01*
X170517601Y-83239627D01*
X170893228Y-82864000D01*
X172479560Y-82864000D01*
X172479560Y-83764000D01*
X172523838Y-83999317D01*
X172662910Y-84215441D01*
X172875110Y-84360431D01*
X173127000Y-84411440D01*
X174627000Y-84411440D01*
X174862317Y-84367162D01*
X175078441Y-84228090D01*
X175223431Y-84015890D01*
X175274440Y-83764000D01*
X175274440Y-82864000D01*
X175230162Y-82628683D01*
X175091090Y-82412559D01*
X174878890Y-82267569D01*
X174627000Y-82216560D01*
X173127000Y-82216560D01*
X172891683Y-82260838D01*
X172675559Y-82399910D01*
X172530569Y-82612110D01*
X172479560Y-82864000D01*
X170893228Y-82864000D01*
X173629576Y-80127652D01*
X173786498Y-79892801D01*
X173841602Y-79615777D01*
X173841601Y-79615772D01*
X173841601Y-78628228D01*
X173841602Y-78628223D01*
X173786498Y-78351199D01*
X173729070Y-78265252D01*
X173629576Y-78116348D01*
X173629573Y-78116346D01*
X173094652Y-77581424D01*
X173029521Y-77537905D01*
X172859802Y-77424503D01*
X172813840Y-77415360D01*
X172582777Y-77369398D01*
X172582772Y-77369399D01*
X171595223Y-77369399D01*
X171318198Y-77424503D01*
X171083348Y-77581424D01*
X171083346Y-77581427D01*
X170533718Y-78131055D01*
X170341370Y-77938371D01*
X169828100Y-77725243D01*
X169272339Y-77724758D01*
X169203819Y-77753070D01*
X169032174Y-77581424D01*
X168967043Y-77537905D01*
X168797324Y-77424503D01*
X168751362Y-77415360D01*
X168520299Y-77369398D01*
X168520294Y-77369399D01*
X163139706Y-77369399D01*
X163139701Y-77369398D01*
X162940440Y-77409034D01*
X162940440Y-77124442D01*
X175570000Y-77214654D01*
G36*
X153963560Y-107858309D02*
X153963560Y-109182000D01*
X154007838Y-109417317D01*
X154146910Y-109633441D01*
X154359110Y-109778431D01*
X154611000Y-109829440D01*
X156611000Y-109829440D01*
X156846317Y-109785162D01*
X157062441Y-109646090D01*
X157207431Y-109433890D01*
X157258440Y-109182000D01*
X157258440Y-107482000D01*
X157214426Y-107248084D01*
X157620399Y-107654057D01*
X157620399Y-109395356D01*
X157620398Y-109395361D01*
X157641765Y-109502775D01*
X157675503Y-109672386D01*
X157750857Y-109785162D01*
X157832424Y-109907236D01*
X157924762Y-109999573D01*
X157924764Y-109999576D01*
X158159614Y-110156497D01*
X158436639Y-110211601D01*
X160191900Y-110211601D01*
X160191900Y-110950538D01*
X160169377Y-110928015D01*
X160054324Y-111043068D01*
X159986265Y-110802069D01*
X159466966Y-110617233D01*
X158916462Y-110645195D01*
X158537735Y-110802069D01*
X158469675Y-111043070D01*
X159262000Y-111835395D01*
X159276143Y-111821253D01*
X159455748Y-112000858D01*
X159441605Y-112015000D01*
X159455748Y-112029143D01*
X159276143Y-112208748D01*
X159262000Y-112194605D01*
X159247858Y-112208748D01*
X159068253Y-112029143D01*
X159082395Y-112015000D01*
X158290070Y-111222675D01*
X158049069Y-111290735D01*
X157864233Y-111810034D01*
X157892195Y-112360538D01*
X158049069Y-112739265D01*
X158290068Y-112807324D01*
X158283563Y-112813829D01*
X151617227Y-112813829D01*
X151772871Y-112658185D01*
X151772874Y-112658183D01*
X151923129Y-112433310D01*
X151929796Y-112423332D01*
X151984900Y-112146308D01*
X151984899Y-112146303D01*
X151984899Y-105879649D01*
X153963560Y-107858309D01*
X153963560Y-107858309D01*
G37*
X153963560Y-107858309D02*
X153963560Y-109182000D01*
X154007838Y-109417317D01*
X154146910Y-109633441D01*
X154359110Y-109778431D01*
X154611000Y-109829440D01*
X156611000Y-109829440D01*
X156846317Y-109785162D01*
X157062441Y-109646090D01*
X157207431Y-109433890D01*
X157258440Y-109182000D01*
X157258440Y-107482000D01*
X157214426Y-107248084D01*
X157620399Y-107654057D01*
X157620399Y-109395356D01*
X157620398Y-109395361D01*
X157641765Y-109502775D01*
X157675503Y-109672386D01*
X157750857Y-109785162D01*
X157832424Y-109907236D01*
X157924762Y-109999573D01*
X157924764Y-109999576D01*
X158159614Y-110156497D01*
X158436639Y-110211601D01*
X160191900Y-110211601D01*
X160191900Y-110950538D01*
X160169377Y-110928015D01*
X160054324Y-111043068D01*
X159986265Y-110802069D01*
X159466966Y-110617233D01*
X158916462Y-110645195D01*
X158537735Y-110802069D01*
X158469675Y-111043070D01*
X159262000Y-111835395D01*
X159276143Y-111821253D01*
X159455748Y-112000858D01*
X159441605Y-112015000D01*
X159455748Y-112029143D01*
X159276143Y-112208748D01*
X159262000Y-112194605D01*
X159247858Y-112208748D01*
X159068253Y-112029143D01*
X159082395Y-112015000D01*
X158290070Y-111222675D01*
X158049069Y-111290735D01*
X157864233Y-111810034D01*
X157892195Y-112360538D01*
X158049069Y-112739265D01*
X158290068Y-112807324D01*
X158283563Y-112813829D01*
X151617227Y-112813829D01*
X151772871Y-112658185D01*
X151772874Y-112658183D01*
X151923129Y-112433310D01*
X151929796Y-112423332D01*
X151984900Y-112146308D01*
X151984899Y-112146303D01*
X151984899Y-105879649D01*
X153963560Y-107858309D01*
G36*
X151670231Y-90836888D02*
X151670231Y-95723320D01*
X151196180Y-95723320D01*
X151037430Y-95882070D01*
X151037430Y-97031320D01*
X151057430Y-97031320D01*
X151057430Y-97285320D01*
X151037430Y-97285320D01*
X151037430Y-98434570D01*
X151196180Y-98593320D01*
X151670231Y-98593320D01*
X151670231Y-98973707D01*
X149168854Y-101475084D01*
X149011933Y-101709934D01*
X149011933Y-101709935D01*
X148956828Y-101986959D01*
X148956829Y-101986964D01*
X148956829Y-104013676D01*
X148956828Y-104013681D01*
X149002790Y-104244744D01*
X149011933Y-104290706D01*
X149040866Y-104334007D01*
X149168854Y-104525556D01*
X150537099Y-105893800D01*
X150537099Y-110072000D01*
X149863750Y-110072000D01*
X149705000Y-110230750D01*
X149705000Y-111380000D01*
X149725000Y-111380000D01*
X149725000Y-111634000D01*
X149705000Y-111634000D01*
X149705000Y-111654000D01*
X149451000Y-111654000D01*
X149451000Y-111634000D01*
X149431000Y-111634000D01*
X149431000Y-111380000D01*
X149451000Y-111380000D01*
X149451000Y-110230750D01*
X149292250Y-110072000D01*
X148980023Y-110072000D01*
X148980023Y-107905061D01*
X148924919Y-107628036D01*
X148767998Y-107393186D01*
X148767995Y-107393184D01*
X144750199Y-103375387D01*
X144750199Y-93901011D01*
X148378100Y-97528911D01*
X148378100Y-97713049D01*
X148241179Y-97849731D01*
X148086176Y-98223018D01*
X148085824Y-98627208D01*
X148240175Y-99000766D01*
X148525731Y-99286821D01*
X148899018Y-99441824D01*
X149303208Y-99442176D01*
X149676766Y-99287825D01*
X149962821Y-99002269D01*
X150117824Y-98628982D01*
X150117855Y-98593320D01*
X150624680Y-98593320D01*
X150783430Y-98434570D01*
X150783430Y-97285320D01*
X150763430Y-97285320D01*
X150763430Y-97031320D01*
X150783430Y-97031320D01*
X150783430Y-95882070D01*
X150624680Y-95723320D01*
X149694121Y-95723320D01*
X149460732Y-95819993D01*
X149282103Y-95998621D01*
X149185430Y-96232010D01*
X149185430Y-96288743D01*
X145420002Y-92523314D01*
X145420002Y-92416252D01*
X145578750Y-92575000D01*
X146419309Y-92575000D01*
X146652698Y-92478327D01*
X146831327Y-92299699D01*
X146928000Y-92066310D01*
X146928000Y-91725750D01*
X146769250Y-91567000D01*
X145420000Y-91567000D01*
X145420000Y-91587000D01*
X145166000Y-91587000D01*
X145166000Y-91567000D01*
X145146000Y-91567000D01*
X145146000Y-91313000D01*
X145166000Y-91313000D01*
X145166000Y-91293000D01*
X145420000Y-91293000D01*
X145420000Y-91313000D01*
X146769250Y-91313000D01*
X146928000Y-91154250D01*
X146928000Y-90813690D01*
X146831327Y-90580301D01*
X146690089Y-90439064D01*
X146744441Y-90404090D01*
X146889431Y-90191890D01*
X146940440Y-89940000D01*
X146940440Y-88940000D01*
X146896162Y-88704683D01*
X146757090Y-88488559D01*
X146687289Y-88440866D01*
X146744441Y-88404090D01*
X146889431Y-88191890D01*
X146940440Y-87940000D01*
X146940440Y-87764572D01*
X147069824Y-87452982D01*
X147070176Y-87048792D01*
X147021340Y-86930601D01*
X147763943Y-86930601D01*
X151670231Y-90836888D01*
X151670231Y-90836888D01*
G37*
X151670231Y-90836888D02*
X151670231Y-95723320D01*
X151196180Y-95723320D01*
X151037430Y-95882070D01*
X151037430Y-97031320D01*
X151057430Y-97031320D01*
X151057430Y-97285320D01*
X151037430Y-97285320D01*
X151037430Y-98434570D01*
X151196180Y-98593320D01*
X151670231Y-98593320D01*
X151670231Y-98973707D01*
X149168854Y-101475084D01*
X149011933Y-101709934D01*
X149011933Y-101709935D01*
X148956828Y-101986959D01*
X148956829Y-101986964D01*
X148956829Y-104013676D01*
X148956828Y-104013681D01*
X149002790Y-104244744D01*
X149011933Y-104290706D01*
X149040866Y-104334007D01*
X149168854Y-104525556D01*
X150537099Y-105893800D01*
X150537099Y-110072000D01*
X149863750Y-110072000D01*
X149705000Y-110230750D01*
X149705000Y-111380000D01*
X149725000Y-111380000D01*
X149725000Y-111634000D01*
X149705000Y-111634000D01*
X149705000Y-111654000D01*
X149451000Y-111654000D01*
X149451000Y-111634000D01*
X149431000Y-111634000D01*
X149431000Y-111380000D01*
X149451000Y-111380000D01*
X149451000Y-110230750D01*
X149292250Y-110072000D01*
X148980023Y-110072000D01*
X148980023Y-107905061D01*
X148924919Y-107628036D01*
X148767998Y-107393186D01*
X148767995Y-107393184D01*
X144750199Y-103375387D01*
X144750199Y-93901011D01*
X148378100Y-97528911D01*
X148378100Y-97713049D01*
X148241179Y-97849731D01*
X148086176Y-98223018D01*
X148085824Y-98627208D01*
X148240175Y-99000766D01*
X148525731Y-99286821D01*
X148899018Y-99441824D01*
X149303208Y-99442176D01*
X149676766Y-99287825D01*
X149962821Y-99002269D01*
X150117824Y-98628982D01*
X150117855Y-98593320D01*
X150624680Y-98593320D01*
X150783430Y-98434570D01*
X150783430Y-97285320D01*
X150763430Y-97285320D01*
X150763430Y-97031320D01*
X150783430Y-97031320D01*
X150783430Y-95882070D01*
X150624680Y-95723320D01*
X149694121Y-95723320D01*
X149460732Y-95819993D01*
X149282103Y-95998621D01*
X149185430Y-96232010D01*
X149185430Y-96288743D01*
X145420002Y-92523314D01*
X145420002Y-92416252D01*
X145578750Y-92575000D01*
X146419309Y-92575000D01*
X146652698Y-92478327D01*
X146831327Y-92299699D01*
X146928000Y-92066310D01*
X146928000Y-91725750D01*
X146769250Y-91567000D01*
X145420000Y-91567000D01*
X145420000Y-91587000D01*
X145166000Y-91587000D01*
X145166000Y-91567000D01*
X145146000Y-91567000D01*
X145146000Y-91313000D01*
X145166000Y-91313000D01*
X145166000Y-91293000D01*
X145420000Y-91293000D01*
X145420000Y-91313000D01*
X146769250Y-91313000D01*
X146928000Y-91154250D01*
X146928000Y-90813690D01*
X146831327Y-90580301D01*
X146690089Y-90439064D01*
X146744441Y-90404090D01*
X146889431Y-90191890D01*
X146940440Y-89940000D01*
X146940440Y-88940000D01*
X146896162Y-88704683D01*
X146757090Y-88488559D01*
X146687289Y-88440866D01*
X146744441Y-88404090D01*
X146889431Y-88191890D01*
X146940440Y-87940000D01*
X146940440Y-87764572D01*
X147069824Y-87452982D01*
X147070176Y-87048792D01*
X147021340Y-86930601D01*
X147763943Y-86930601D01*
X151670231Y-90836888D01*
G36*
X142465371Y-101560680D02*
X142118320Y-101560680D01*
X141959570Y-101719430D01*
X141959570Y-102868680D01*
X141979570Y-102868680D01*
X141979570Y-103122680D01*
X141959570Y-103122680D01*
X141959570Y-104271930D01*
X142118320Y-104430680D01*
X142661048Y-104430680D01*
X142677396Y-104455146D01*
X145545992Y-107323742D01*
X145545824Y-107517208D01*
X145700175Y-107890766D01*
X145985731Y-108176821D01*
X146359018Y-108331824D01*
X146763208Y-108332176D01*
X147136766Y-108177825D01*
X147321113Y-107993800D01*
X147532223Y-108204910D01*
X147532223Y-110310755D01*
X147513497Y-110216614D01*
X147356576Y-109981764D01*
X147356573Y-109981762D01*
X147303236Y-109928424D01*
X147261272Y-109900385D01*
X147068386Y-109771503D01*
X147022424Y-109762360D01*
X146791361Y-109716398D01*
X146791356Y-109716399D01*
X142531086Y-109716399D01*
X141199769Y-108385081D01*
X141199769Y-104430680D01*
X141546820Y-104430680D01*
X141705570Y-104271930D01*
X141705570Y-103122680D01*
X141685570Y-103122680D01*
X141685570Y-102868680D01*
X141705570Y-102868680D01*
X141705570Y-101719430D01*
X141546820Y-101560680D01*
X141199769Y-101560680D01*
X141199769Y-99661031D01*
X142217442Y-98643357D01*
X142217445Y-98643355D01*
X142245665Y-98601120D01*
X142465371Y-98601120D01*
X142465371Y-101560680D01*
X142465371Y-101560680D01*
G37*
X142465371Y-101560680D02*
X142118320Y-101560680D01*
X141959570Y-101719430D01*
X141959570Y-102868680D01*
X141979570Y-102868680D01*
X141979570Y-103122680D01*
X141959570Y-103122680D01*
X141959570Y-104271930D01*
X142118320Y-104430680D01*
X142661048Y-104430680D01*
X142677396Y-104455146D01*
X145545992Y-107323742D01*
X145545824Y-107517208D01*
X145700175Y-107890766D01*
X145985731Y-108176821D01*
X146359018Y-108331824D01*
X146763208Y-108332176D01*
X147136766Y-108177825D01*
X147321113Y-107993800D01*
X147532223Y-108204910D01*
X147532223Y-110310755D01*
X147513497Y-110216614D01*
X147356576Y-109981764D01*
X147356573Y-109981762D01*
X147303236Y-109928424D01*
X147261272Y-109900385D01*
X147068386Y-109771503D01*
X147022424Y-109762360D01*
X146791361Y-109716398D01*
X146791356Y-109716399D01*
X142531086Y-109716399D01*
X141199769Y-108385081D01*
X141199769Y-104430680D01*
X141546820Y-104430680D01*
X141705570Y-104271930D01*
X141705570Y-103122680D01*
X141685570Y-103122680D01*
X141685570Y-102868680D01*
X141705570Y-102868680D01*
X141705570Y-101719430D01*
X141546820Y-101560680D01*
X141199769Y-101560680D01*
X141199769Y-99661031D01*
X142217442Y-98643357D01*
X142217445Y-98643355D01*
X142245665Y-98601120D01*
X142465371Y-98601120D01*
X142465371Y-101560680D01*
G36*
X155681691Y-92430386D02*
X155696372Y-92504193D01*
X155803977Y-92665236D01*
X155853293Y-92739043D01*
X159261992Y-96147742D01*
X159261824Y-96341208D01*
X159416175Y-96714766D01*
X159554100Y-96852932D01*
X159554100Y-98431463D01*
X157908570Y-100076993D01*
X157908570Y-99529370D01*
X157811897Y-99295981D01*
X157633268Y-99117353D01*
X157399879Y-99020680D01*
X156469320Y-99020680D01*
X156310570Y-99179430D01*
X156310570Y-100328680D01*
X156330570Y-100328680D01*
X156330570Y-100582680D01*
X156310570Y-100582680D01*
X156310570Y-100602680D01*
X156056570Y-100602680D01*
X156056570Y-100582680D01*
X156036570Y-100582680D01*
X156036570Y-100328680D01*
X156056570Y-100328680D01*
X156056570Y-99179430D01*
X155897820Y-99020680D01*
X155195199Y-99020680D01*
X155195199Y-92722695D01*
X155649473Y-92268421D01*
X155681691Y-92430386D01*
X155681691Y-92430386D01*
G37*
X155681691Y-92430386D02*
X155696372Y-92504193D01*
X155803977Y-92665236D01*
X155853293Y-92739043D01*
X159261992Y-96147742D01*
X159261824Y-96341208D01*
X159416175Y-96714766D01*
X159554100Y-96852932D01*
X159554100Y-98431463D01*
X157908570Y-100076993D01*
X157908570Y-99529370D01*
X157811897Y-99295981D01*
X157633268Y-99117353D01*
X157399879Y-99020680D01*
X156469320Y-99020680D01*
X156310570Y-99179430D01*
X156310570Y-100328680D01*
X156330570Y-100328680D01*
X156330570Y-100582680D01*
X156310570Y-100582680D01*
X156310570Y-100602680D01*
X156056570Y-100602680D01*
X156056570Y-100582680D01*
X156036570Y-100582680D01*
X156036570Y-100328680D01*
X156056570Y-100328680D01*
X156056570Y-99179430D01*
X155897820Y-99020680D01*
X155195199Y-99020680D01*
X155195199Y-92722695D01*
X155649473Y-92268421D01*
X155681691Y-92430386D01*
G36*
X141355000Y-90044000D02*
X141375000Y-90044000D01*
X141375000Y-90298000D01*
X141355000Y-90298000D01*
X141355000Y-91511924D01*
X141589913Y-91656184D01*
X142142320Y-91462954D01*
X142465371Y-91174320D01*
X142465371Y-95706240D01*
X140615570Y-95706240D01*
X140380253Y-95750518D01*
X140164129Y-95889590D01*
X140085000Y-96005399D01*
X140085000Y-91258637D01*
X140313680Y-91462954D01*
X140866087Y-91656184D01*
X141101000Y-91511924D01*
X141101000Y-90298000D01*
X141081000Y-90298000D01*
X141081000Y-90044000D01*
X141101000Y-90044000D01*
X141101000Y-90024000D01*
X141355000Y-90024000D01*
X141355000Y-90044000D01*
X141355000Y-90044000D01*
G37*
X141355000Y-90044000D02*
X141375000Y-90044000D01*
X141375000Y-90298000D01*
X141355000Y-90298000D01*
X141355000Y-91511924D01*
X141589913Y-91656184D01*
X142142320Y-91462954D01*
X142465371Y-91174320D01*
X142465371Y-95706240D01*
X140615570Y-95706240D01*
X140380253Y-95750518D01*
X140164129Y-95889590D01*
X140085000Y-96005399D01*
X140085000Y-91258637D01*
X140313680Y-91462954D01*
X140866087Y-91656184D01*
X141101000Y-91511924D01*
X141101000Y-90298000D01*
X141081000Y-90298000D01*
X141081000Y-90044000D01*
X141101000Y-90044000D01*
X141101000Y-90024000D01*
X141355000Y-90024000D01*
X141355000Y-90044000D01*
G36*
X168904000Y-83187000D02*
X168924000Y-83187000D01*
X168924000Y-83441000D01*
X168904000Y-83441000D01*
X168904000Y-84240250D01*
X169062750Y-84399000D01*
X169069801Y-84399000D01*
X169069801Y-85255252D01*
X168213550Y-84399000D01*
X168491250Y-84399000D01*
X168650000Y-84240250D01*
X168650000Y-83441000D01*
X168630000Y-83441000D01*
X168630000Y-83187000D01*
X168650000Y-83187000D01*
X168650000Y-83167000D01*
X168904000Y-83167000D01*
X168904000Y-83187000D01*
X168904000Y-83187000D01*
G37*
X168904000Y-83187000D02*
X168924000Y-83187000D01*
X168924000Y-83441000D01*
X168904000Y-83441000D01*
X168904000Y-84240250D01*
X169062750Y-84399000D01*
X169069801Y-84399000D01*
X169069801Y-85255252D01*
X168213550Y-84399000D01*
X168491250Y-84399000D01*
X168650000Y-84240250D01*
X168650000Y-83441000D01*
X168630000Y-83441000D01*
X168630000Y-83187000D01*
X168650000Y-83187000D01*
X168650000Y-83167000D01*
X168904000Y-83167000D01*
X168904000Y-83187000D01*
G36*
X172282748Y-79107858D02*
X172268605Y-79122000D01*
X172282748Y-79136143D01*
X172103143Y-79315748D01*
X172089000Y-79301605D01*
X172074858Y-79315748D01*
X171895253Y-79136143D01*
X171909395Y-79122000D01*
X171895253Y-79107858D01*
X172074858Y-78928253D01*
X172089000Y-78942395D01*
X172103143Y-78928253D01*
X172282748Y-79107858D01*
X172282748Y-79107858D01*
G37*
X172282748Y-79107858D02*
X172268605Y-79122000D01*
X172282748Y-79136143D01*
X172103143Y-79315748D01*
X172089000Y-79301605D01*
X172074858Y-79315748D01*
X171895253Y-79136143D01*
X171909395Y-79122000D01*
X171895253Y-79107858D01*
X172074858Y-78928253D01*
X172089000Y-78942395D01*
X172103143Y-78928253D01*
X172282748Y-79107858D01*
M02*
