M48
;DRILL file {KiCad (2015-08-30 BZR 6134, Git 4e94d52)-product} date 03-Sep-15 10:47:21 PM
;FORMAT={-:-/ absolute / metric / decimal}
FMAT,2
METRIC,TZ
T1C0.381
T2C0.800
T3C0.813
T4C1.016
T5C1.199
T6C2.000
%
G90
G05
M71
T1
X141.631Y-101.093
X144.881Y-115.494
X146.097Y-87.199
X146.562Y-107.316
X147.1Y-85.2
X147.728Y-117.362
X148.256Y-112.89
X148.961Y-99.946
X149.696Y-113.221
X149.987Y-109.093
X150.Y-91.1
X150.6Y-111.9
X150.91Y-97.158
X151.361Y-95.488
X151.879Y-89.898
X152.527Y-118.11
X152.912Y-116.46
X153.162Y-111.098
X153.475Y-91.35
X154.139Y-100.427
X156.372Y-89.848
X157.3Y-99.098
X157.839Y-108.86
X158.1Y-93.25
X158.144Y-95.305
X158.754Y-83.245
X159.Y-102.1
X164.342Y-92.33
X164.846Y-122.809
X170.185Y-89.368
X172.022Y-112.712
T2
X159.262Y-112.015
X159.262Y-114.555
T3
X167.009Y-79.122
X169.549Y-79.122
X172.089Y-79.122
T4
X141.228Y-80.011
X141.228Y-82.551
X141.228Y-85.091
X141.228Y-87.631
X141.228Y-90.171
X171.886Y-104.7
X171.886Y-107.24
X171.886Y-109.78
T5
X141.411Y-111.733
X141.411Y-116.615
T6
X168.66Y-115.594
X168.66Y-121.593
X173.359Y-118.594
T0
M30
