%FSLAX45Y45*%
G04 Gerber Fmt 4.5, Leading zero omitted, Abs format (unit mm)*
G04 Created by KiCad (PCBNEW (2015-08-28 BZR 6132, Git 156d5f5)-product) date 30-Aug-15 1:46:39 AM*
%MOMM*%
G01*
G04 APERTURE LIST*
%ADD10C,0.127000*%
%ADD11C,0.150000*%
%ADD12C,0.200000*%
%ADD13C,0.300000*%
G04 APERTURE END LIST*
D10*
D11*
X17628000Y-7582000D02*
X13818000Y-7582000D01*
X17628000Y-12662000D02*
X17628000Y-7582000D01*
X16358000Y-12662000D02*
X17628000Y-12662000D01*
X15088000Y-7582000D02*
X17628000Y-7582000D01*
X13818000Y-12662000D02*
X16358000Y-12662000D01*
X13818000Y-12662000D02*
X13818000Y-7582000D01*
X17628000Y-7582000D02*
X17628000Y-12662000D01*
D12*
X14154550Y-10280750D02*
X14192650Y-10318850D01*
X14192650Y-10280750D02*
X14154550Y-10318850D01*
X14586350Y-8705950D02*
X14624450Y-8744050D01*
X14624450Y-8705950D02*
X14586350Y-8744050D01*
X14611750Y-11703150D02*
X14649850Y-11741250D01*
X14649850Y-11703150D02*
X14611750Y-11741250D01*
X14637150Y-10712550D02*
X14675250Y-10750650D01*
X14675250Y-10712550D02*
X14637150Y-10750650D01*
X14738750Y-11703150D02*
X14776850Y-11741250D01*
X14776850Y-11703150D02*
X14738750Y-11741250D01*
X14806562Y-11269951D02*
X14844662Y-11308051D01*
X14844662Y-11269951D02*
X14806562Y-11308051D01*
X14891150Y-9823550D02*
X14929250Y-9861650D01*
X14929250Y-9823550D02*
X14891150Y-9861650D01*
X14950573Y-11278611D02*
X14988673Y-11316711D01*
X14988673Y-11278611D02*
X14950573Y-11316711D01*
X15043550Y-11880950D02*
X15081650Y-11919050D01*
X15081650Y-11880950D02*
X15043550Y-11919050D01*
X15071993Y-9696782D02*
X15110093Y-9734882D01*
X15110093Y-9696782D02*
X15071993Y-9734882D01*
X15272150Y-11626950D02*
X15310250Y-11665050D01*
X15310250Y-11626950D02*
X15272150Y-11665050D01*
X15348350Y-8934550D02*
X15386450Y-8972650D01*
X15386450Y-8934550D02*
X15348350Y-8972650D01*
X15500750Y-11068150D02*
X15538850Y-11106250D01*
X15538850Y-11068150D02*
X15500750Y-11106250D01*
X15576950Y-10026750D02*
X15615050Y-10064850D01*
X15615050Y-10026750D02*
X15576950Y-10064850D01*
X15705991Y-9099499D02*
X15744091Y-9137599D01*
X15744091Y-9099499D02*
X15705991Y-9137599D01*
X15856350Y-8274150D02*
X15894450Y-8312250D01*
X15894450Y-8274150D02*
X15856350Y-8312250D01*
X15932550Y-10864950D02*
X15970650Y-10903050D01*
X15970650Y-10864950D02*
X15932550Y-10903050D01*
X16008750Y-9594950D02*
X16046850Y-9633050D01*
X16046850Y-9594950D02*
X16008750Y-9633050D01*
X16237350Y-8731350D02*
X16275450Y-8769450D01*
X16275450Y-8731350D02*
X16237350Y-8769450D01*
X16415150Y-9213950D02*
X16453250Y-9252050D01*
X16453250Y-9213950D02*
X16415150Y-9252050D01*
X16821550Y-9061550D02*
X16859650Y-9099650D01*
X16859650Y-9061550D02*
X16821550Y-9099650D01*
X16846950Y-11540336D02*
X16885050Y-11578436D01*
X16885050Y-11540336D02*
X16846950Y-11578436D01*
X16846950Y-12140284D02*
X16885050Y-12178384D01*
X16885050Y-12140284D02*
X16846950Y-12178384D01*
X17316850Y-11840310D02*
X17354950Y-11878410D01*
X17354950Y-11840310D02*
X17316850Y-11878410D01*
X14263218Y-12441990D02*
G75*
G03X14263218Y-12441990I-25000J0D01*
G01*
X14253218Y-12474490D02*
X14253218Y-12409490D01*
X14223218Y-12474490D02*
X14223218Y-12409490D01*
X14253218Y-12409490D02*
G75*
G03X14223218Y-12409490I-15000J0D01*
G01*
X14223218Y-12474490D02*
G75*
G03X14253218Y-12474490I15000J0D01*
G01*
X14963218Y-12441990D02*
G75*
G03X14963218Y-12441990I-25000J0D01*
G01*
X14953218Y-12474490D02*
X14953218Y-12409490D01*
X14923218Y-12474490D02*
X14923218Y-12409490D01*
X14953218Y-12409490D02*
G75*
G03X14923218Y-12409490I-15000J0D01*
G01*
X14923218Y-12474490D02*
G75*
G03X14953218Y-12474490I15000J0D01*
G01*
X14338218Y-12144490D02*
X14338218Y-12199490D01*
X14310718Y-12171990D02*
X14365718Y-12171990D01*
X14323218Y-12189490D02*
X14353218Y-12189490D01*
X14323218Y-12154490D02*
X14353218Y-12154490D01*
X14353218Y-12189490D02*
G75*
G03X14353218Y-12154490I0J17500D01*
G01*
X14323218Y-12154490D02*
G75*
G03X14323218Y-12189490I0J-17500D01*
G01*
X14838218Y-12144490D02*
X14838218Y-12199490D01*
X14810718Y-12171990D02*
X14865718Y-12171990D01*
X14823218Y-12189490D02*
X14853218Y-12189490D01*
X14823218Y-12154490D02*
X14853218Y-12154490D01*
X14853218Y-12189490D02*
G75*
G03X14853218Y-12154490I0J17500D01*
G01*
X14823218Y-12154490D02*
G75*
G03X14823218Y-12189490I0J-17500D01*
G01*
X15954488Y-11229788D02*
X15954488Y-11173212D01*
X15897912Y-11173212D01*
X15897912Y-11229788D01*
X15954488Y-11229788D01*
X15954488Y-11483788D02*
X15954488Y-11427212D01*
X15897912Y-11427212D01*
X15897912Y-11483788D01*
X15954488Y-11483788D01*
X16700900Y-7952840D02*
X16741540Y-7912200D01*
X16700900Y-7871560D01*
X16660260Y-7912200D01*
X16700900Y-7952840D01*
X16954900Y-7952840D02*
X16995540Y-7912200D01*
X16954900Y-7871560D01*
X16914260Y-7912200D01*
X16954900Y-7952840D01*
X17208900Y-7952840D02*
X17249540Y-7912200D01*
X17208900Y-7871560D01*
X17168260Y-7912200D01*
X17208900Y-7952840D01*
X16815962Y-11509348D02*
X16916038Y-11609424D01*
X16916038Y-11509348D02*
X16815962Y-11609424D01*
X16916038Y-11559386D02*
G75*
G03X16916038Y-11559386I-50038J0D01*
G01*
X16766051Y-11599424D02*
X16965949Y-11599424D01*
X16766051Y-11519348D02*
X16965949Y-11519348D01*
X16965949Y-11599424D02*
G75*
G03X16965949Y-11519348I0J40038D01*
G01*
X16766051Y-11519348D02*
G75*
G03X16766051Y-11599424I0J-40038D01*
G01*
X16815962Y-12109296D02*
X16916038Y-12209372D01*
X16916038Y-12109296D02*
X16815962Y-12209372D01*
X16916038Y-12159334D02*
G75*
G03X16916038Y-12159334I-50038J0D01*
G01*
X16766051Y-12199372D02*
X16965949Y-12199372D01*
X16766051Y-12119296D02*
X16965949Y-12119296D01*
X16965949Y-12199372D02*
G75*
G03X16965949Y-12119296I0J40038D01*
G01*
X16766051Y-12119296D02*
G75*
G03X16766051Y-12199372I0J-40038D01*
G01*
X17285862Y-11809322D02*
X17385938Y-11909398D01*
X17385938Y-11809322D02*
X17285862Y-11909398D01*
X17385938Y-11859360D02*
G75*
G03X17385938Y-11859360I-50038J0D01*
G01*
X17375938Y-11959309D02*
X17375938Y-11759411D01*
X17295862Y-11959309D02*
X17295862Y-11759411D01*
X17375938Y-11759411D02*
G75*
G03X17295862Y-11759411I-40038J0D01*
G01*
X17295862Y-11959309D02*
G75*
G03X17375938Y-11959309I40038J0D01*
G01*
X14072000Y-7950300D02*
X14173600Y-8051900D01*
X14173600Y-7950300D02*
X14072000Y-8051900D01*
X14122800Y-7950300D02*
X14122800Y-8051900D01*
X14072000Y-8001100D02*
X14173600Y-8001100D01*
X14072000Y-8204300D02*
X14173600Y-8305900D01*
X14173600Y-8204300D02*
X14072000Y-8305900D01*
X14122800Y-8204300D02*
X14122800Y-8305900D01*
X14072000Y-8255100D02*
X14173600Y-8255100D01*
X14072000Y-8458300D02*
X14173600Y-8559900D01*
X14173600Y-8458300D02*
X14072000Y-8559900D01*
X14122800Y-8458300D02*
X14122800Y-8559900D01*
X14072000Y-8509100D02*
X14173600Y-8509100D01*
X14072000Y-8712300D02*
X14173600Y-8813900D01*
X14173600Y-8712300D02*
X14072000Y-8813900D01*
X14122800Y-8712300D02*
X14122800Y-8813900D01*
X14072000Y-8763100D02*
X14173600Y-8763100D01*
X14072000Y-8966300D02*
X14173600Y-9067900D01*
X14173600Y-8966300D02*
X14072000Y-9067900D01*
X14122800Y-8966300D02*
X14122800Y-9067900D01*
X14072000Y-9017100D02*
X14173600Y-9017100D01*
X17137780Y-10419180D02*
X17239380Y-10520780D01*
X17239380Y-10419180D02*
X17137780Y-10520780D01*
X17188580Y-10419180D02*
X17188580Y-10520780D01*
X17137780Y-10469980D02*
X17239380Y-10469980D01*
X17137780Y-10673180D02*
X17239380Y-10774780D01*
X17239380Y-10673180D02*
X17137780Y-10774780D01*
X17188580Y-10673180D02*
X17188580Y-10774780D01*
X17137780Y-10723980D02*
X17239380Y-10723980D01*
X17137780Y-10927180D02*
X17239380Y-11028780D01*
X17239380Y-10927180D02*
X17137780Y-11028780D01*
X17188580Y-10927180D02*
X17188580Y-11028780D01*
X17137780Y-10977980D02*
X17239380Y-10977980D01*
X14081144Y-11113362D02*
X14201032Y-11233250D01*
X14201032Y-11113362D02*
X14081144Y-11233250D01*
X14183475Y-11215693D02*
X14183475Y-11130919D01*
X14098701Y-11130919D01*
X14098701Y-11215693D01*
X14183475Y-11215693D01*
X14081144Y-11601550D02*
X14201032Y-11721438D01*
X14201032Y-11601550D02*
X14081144Y-11721438D01*
X14183475Y-11703881D02*
X14183475Y-11619107D01*
X14098701Y-11619107D01*
X14098701Y-11703881D01*
X14183475Y-11703881D01*
D13*
X14081928Y-13135214D02*
X14081928Y-12835214D01*
X14153357Y-12835214D01*
X14196214Y-12849500D01*
X14224786Y-12878071D01*
X14239071Y-12906643D01*
X14253357Y-12963786D01*
X14253357Y-13006643D01*
X14239071Y-13063786D01*
X14224786Y-13092357D01*
X14196214Y-13120929D01*
X14153357Y-13135214D01*
X14081928Y-13135214D01*
X14381928Y-13135214D02*
X14381928Y-12935214D01*
X14381928Y-12992357D02*
X14396214Y-12963786D01*
X14410500Y-12949500D01*
X14439071Y-12935214D01*
X14467643Y-12935214D01*
X14567643Y-13135214D02*
X14567643Y-12935214D01*
X14567643Y-12835214D02*
X14553357Y-12849500D01*
X14567643Y-12863786D01*
X14581928Y-12849500D01*
X14567643Y-12835214D01*
X14567643Y-12863786D01*
X14753357Y-13135214D02*
X14724786Y-13120929D01*
X14710500Y-13092357D01*
X14710500Y-12835214D01*
X14910500Y-13135214D02*
X14881928Y-13120929D01*
X14867643Y-13092357D01*
X14867643Y-12835214D01*
X15253357Y-13135214D02*
X15253357Y-12835214D01*
X15353357Y-13049500D01*
X15453357Y-12835214D01*
X15453357Y-13135214D01*
X15724786Y-13135214D02*
X15724786Y-12978071D01*
X15710500Y-12949500D01*
X15681928Y-12935214D01*
X15624786Y-12935214D01*
X15596214Y-12949500D01*
X15724786Y-13120929D02*
X15696214Y-13135214D01*
X15624786Y-13135214D01*
X15596214Y-13120929D01*
X15581928Y-13092357D01*
X15581928Y-13063786D01*
X15596214Y-13035214D01*
X15624786Y-13020929D01*
X15696214Y-13020929D01*
X15724786Y-13006643D01*
X15867643Y-12935214D02*
X15867643Y-13235214D01*
X15867643Y-12949500D02*
X15896214Y-12935214D01*
X15953357Y-12935214D01*
X15981928Y-12949500D01*
X15996214Y-12963786D01*
X16010500Y-12992357D01*
X16010500Y-13078071D01*
X15996214Y-13106643D01*
X15981928Y-13120929D01*
X15953357Y-13135214D01*
X15896214Y-13135214D01*
X15867643Y-13120929D01*
X16139071Y-13106643D02*
X16153357Y-13120929D01*
X16139071Y-13135214D01*
X16124786Y-13120929D01*
X16139071Y-13106643D01*
X16139071Y-13135214D01*
X16139071Y-12949500D02*
X16153357Y-12963786D01*
X16139071Y-12978071D01*
X16124786Y-12963786D01*
X16139071Y-12949500D01*
X16139071Y-12978071D01*
X13772400Y-13610450D02*
X13810500Y-13648550D01*
X13810500Y-13610450D02*
X13772400Y-13648550D01*
X14139071Y-13465214D02*
X14167643Y-13465214D01*
X14196214Y-13479500D01*
X14210500Y-13493786D01*
X14224786Y-13522357D01*
X14239071Y-13579500D01*
X14239071Y-13650929D01*
X14224786Y-13708071D01*
X14210500Y-13736643D01*
X14196214Y-13750929D01*
X14167643Y-13765214D01*
X14139071Y-13765214D01*
X14110500Y-13750929D01*
X14096214Y-13736643D01*
X14081928Y-13708071D01*
X14067643Y-13650929D01*
X14067643Y-13579500D01*
X14081928Y-13522357D01*
X14096214Y-13493786D01*
X14110500Y-13479500D01*
X14139071Y-13465214D01*
X14367643Y-13736643D02*
X14381928Y-13750929D01*
X14367643Y-13765214D01*
X14353357Y-13750929D01*
X14367643Y-13736643D01*
X14367643Y-13765214D01*
X14481928Y-13465214D02*
X14667643Y-13465214D01*
X14567643Y-13579500D01*
X14610500Y-13579500D01*
X14639071Y-13593786D01*
X14653357Y-13608071D01*
X14667643Y-13636643D01*
X14667643Y-13708071D01*
X14653357Y-13736643D01*
X14639071Y-13750929D01*
X14610500Y-13765214D01*
X14524786Y-13765214D01*
X14496214Y-13750929D01*
X14481928Y-13736643D01*
X14839071Y-13593786D02*
X14810500Y-13579500D01*
X14796214Y-13565214D01*
X14781928Y-13536643D01*
X14781928Y-13522357D01*
X14796214Y-13493786D01*
X14810500Y-13479500D01*
X14839071Y-13465214D01*
X14896214Y-13465214D01*
X14924786Y-13479500D01*
X14939071Y-13493786D01*
X14953357Y-13522357D01*
X14953357Y-13536643D01*
X14939071Y-13565214D01*
X14924786Y-13579500D01*
X14896214Y-13593786D01*
X14839071Y-13593786D01*
X14810500Y-13608071D01*
X14796214Y-13622357D01*
X14781928Y-13650929D01*
X14781928Y-13708071D01*
X14796214Y-13736643D01*
X14810500Y-13750929D01*
X14839071Y-13765214D01*
X14896214Y-13765214D01*
X14924786Y-13750929D01*
X14939071Y-13736643D01*
X14953357Y-13708071D01*
X14953357Y-13650929D01*
X14939071Y-13622357D01*
X14924786Y-13608071D01*
X14896214Y-13593786D01*
X15081928Y-13765214D02*
X15081928Y-13565214D01*
X15081928Y-13593786D02*
X15096214Y-13579500D01*
X15124786Y-13565214D01*
X15167643Y-13565214D01*
X15196214Y-13579500D01*
X15210500Y-13608071D01*
X15210500Y-13765214D01*
X15210500Y-13608071D02*
X15224786Y-13579500D01*
X15253357Y-13565214D01*
X15296214Y-13565214D01*
X15324786Y-13579500D01*
X15339071Y-13608071D01*
X15339071Y-13765214D01*
X15481928Y-13765214D02*
X15481928Y-13565214D01*
X15481928Y-13593786D02*
X15496214Y-13579500D01*
X15524786Y-13565214D01*
X15567643Y-13565214D01*
X15596214Y-13579500D01*
X15610500Y-13608071D01*
X15610500Y-13765214D01*
X15610500Y-13608071D02*
X15624786Y-13579500D01*
X15653357Y-13565214D01*
X15696214Y-13565214D01*
X15724786Y-13579500D01*
X15739071Y-13608071D01*
X15739071Y-13765214D01*
X16324786Y-13450929D02*
X16067643Y-13836643D01*
X16710500Y-13465214D02*
X16739071Y-13465214D01*
X16767643Y-13479500D01*
X16781928Y-13493786D01*
X16796214Y-13522357D01*
X16810500Y-13579500D01*
X16810500Y-13650929D01*
X16796214Y-13708071D01*
X16781928Y-13736643D01*
X16767643Y-13750929D01*
X16739071Y-13765214D01*
X16710500Y-13765214D01*
X16681928Y-13750929D01*
X16667643Y-13736643D01*
X16653357Y-13708071D01*
X16639071Y-13650929D01*
X16639071Y-13579500D01*
X16653357Y-13522357D01*
X16667643Y-13493786D01*
X16681928Y-13479500D01*
X16710500Y-13465214D01*
X16939071Y-13736643D02*
X16953357Y-13750929D01*
X16939071Y-13765214D01*
X16924786Y-13750929D01*
X16939071Y-13736643D01*
X16939071Y-13765214D01*
X17139071Y-13465214D02*
X17167643Y-13465214D01*
X17196214Y-13479500D01*
X17210500Y-13493786D01*
X17224786Y-13522357D01*
X17239071Y-13579500D01*
X17239071Y-13650929D01*
X17224786Y-13708071D01*
X17210500Y-13736643D01*
X17196214Y-13750929D01*
X17167643Y-13765214D01*
X17139071Y-13765214D01*
X17110500Y-13750929D01*
X17096214Y-13736643D01*
X17081928Y-13708071D01*
X17067643Y-13650929D01*
X17067643Y-13579500D01*
X17081928Y-13522357D01*
X17096214Y-13493786D01*
X17110500Y-13479500D01*
X17139071Y-13465214D01*
X17524786Y-13765214D02*
X17353357Y-13765214D01*
X17439071Y-13765214D02*
X17439071Y-13465214D01*
X17410500Y-13508071D01*
X17381928Y-13536643D01*
X17353357Y-13550929D01*
X17796214Y-13465214D02*
X17653357Y-13465214D01*
X17639071Y-13608071D01*
X17653357Y-13593786D01*
X17681928Y-13579500D01*
X17753357Y-13579500D01*
X17781928Y-13593786D01*
X17796214Y-13608071D01*
X17810500Y-13636643D01*
X17810500Y-13708071D01*
X17796214Y-13736643D01*
X17781928Y-13750929D01*
X17753357Y-13765214D01*
X17681928Y-13765214D01*
X17653357Y-13750929D01*
X17639071Y-13736643D01*
X17924786Y-13465214D02*
X17924786Y-13522357D01*
X18039071Y-13465214D02*
X18039071Y-13522357D01*
X18481928Y-13879500D02*
X18467643Y-13865214D01*
X18439071Y-13822357D01*
X18424786Y-13793786D01*
X18410500Y-13750929D01*
X18396214Y-13679500D01*
X18396214Y-13622357D01*
X18410500Y-13550929D01*
X18424786Y-13508071D01*
X18439071Y-13479500D01*
X18467643Y-13436643D01*
X18481928Y-13422357D01*
X18581928Y-13493786D02*
X18596214Y-13479500D01*
X18624786Y-13465214D01*
X18696214Y-13465214D01*
X18724786Y-13479500D01*
X18739071Y-13493786D01*
X18753357Y-13522357D01*
X18753357Y-13550929D01*
X18739071Y-13593786D01*
X18567643Y-13765214D01*
X18753357Y-13765214D01*
X19010500Y-13565214D02*
X19010500Y-13765214D01*
X18939071Y-13450929D02*
X18867643Y-13665214D01*
X19053357Y-13665214D01*
X19396214Y-13765214D02*
X19396214Y-13465214D01*
X19524786Y-13765214D02*
X19524786Y-13608071D01*
X19510500Y-13579500D01*
X19481928Y-13565214D01*
X19439071Y-13565214D01*
X19410500Y-13579500D01*
X19396214Y-13593786D01*
X19710500Y-13765214D02*
X19681928Y-13750929D01*
X19667643Y-13736643D01*
X19653357Y-13708071D01*
X19653357Y-13622357D01*
X19667643Y-13593786D01*
X19681928Y-13579500D01*
X19710500Y-13565214D01*
X19753357Y-13565214D01*
X19781928Y-13579500D01*
X19796214Y-13593786D01*
X19810500Y-13622357D01*
X19810500Y-13708071D01*
X19796214Y-13736643D01*
X19781928Y-13750929D01*
X19753357Y-13765214D01*
X19710500Y-13765214D01*
X19981928Y-13765214D02*
X19953357Y-13750929D01*
X19939071Y-13722357D01*
X19939071Y-13465214D01*
X20210500Y-13750929D02*
X20181929Y-13765214D01*
X20124786Y-13765214D01*
X20096214Y-13750929D01*
X20081929Y-13722357D01*
X20081929Y-13608071D01*
X20096214Y-13579500D01*
X20124786Y-13565214D01*
X20181929Y-13565214D01*
X20210500Y-13579500D01*
X20224786Y-13608071D01*
X20224786Y-13636643D01*
X20081929Y-13665214D01*
X20339071Y-13750929D02*
X20367643Y-13765214D01*
X20424786Y-13765214D01*
X20453357Y-13750929D01*
X20467643Y-13722357D01*
X20467643Y-13708071D01*
X20453357Y-13679500D01*
X20424786Y-13665214D01*
X20381929Y-13665214D01*
X20353357Y-13650929D01*
X20339071Y-13622357D01*
X20339071Y-13608071D01*
X20353357Y-13579500D01*
X20381929Y-13565214D01*
X20424786Y-13565214D01*
X20453357Y-13579500D01*
X20567643Y-13879500D02*
X20581929Y-13865214D01*
X20610500Y-13822357D01*
X20624786Y-13793786D01*
X20639071Y-13750929D01*
X20653357Y-13679500D01*
X20653357Y-13622357D01*
X20639071Y-13550929D01*
X20624786Y-13508071D01*
X20610500Y-13479500D01*
X20581929Y-13436643D01*
X20567643Y-13422357D01*
X13810500Y-14025500D02*
G75*
G03X13810500Y-14025500I-25000J0D01*
G01*
X14139071Y-13861214D02*
X14167643Y-13861214D01*
X14196214Y-13875500D01*
X14210500Y-13889786D01*
X14224786Y-13918357D01*
X14239071Y-13975500D01*
X14239071Y-14046929D01*
X14224786Y-14104071D01*
X14210500Y-14132643D01*
X14196214Y-14146929D01*
X14167643Y-14161214D01*
X14139071Y-14161214D01*
X14110500Y-14146929D01*
X14096214Y-14132643D01*
X14081928Y-14104071D01*
X14067643Y-14046929D01*
X14067643Y-13975500D01*
X14081928Y-13918357D01*
X14096214Y-13889786D01*
X14110500Y-13875500D01*
X14139071Y-13861214D01*
X14367643Y-14132643D02*
X14381928Y-14146929D01*
X14367643Y-14161214D01*
X14353357Y-14146929D01*
X14367643Y-14132643D01*
X14367643Y-14161214D01*
X14653357Y-13861214D02*
X14510500Y-13861214D01*
X14496214Y-14004071D01*
X14510500Y-13989786D01*
X14539071Y-13975500D01*
X14610500Y-13975500D01*
X14639071Y-13989786D01*
X14653357Y-14004071D01*
X14667643Y-14032643D01*
X14667643Y-14104071D01*
X14653357Y-14132643D01*
X14639071Y-14146929D01*
X14610500Y-14161214D01*
X14539071Y-14161214D01*
X14510500Y-14146929D01*
X14496214Y-14132643D01*
X14853357Y-13861214D02*
X14881928Y-13861214D01*
X14910500Y-13875500D01*
X14924786Y-13889786D01*
X14939071Y-13918357D01*
X14953357Y-13975500D01*
X14953357Y-14046929D01*
X14939071Y-14104071D01*
X14924786Y-14132643D01*
X14910500Y-14146929D01*
X14881928Y-14161214D01*
X14853357Y-14161214D01*
X14824786Y-14146929D01*
X14810500Y-14132643D01*
X14796214Y-14104071D01*
X14781928Y-14046929D01*
X14781928Y-13975500D01*
X14796214Y-13918357D01*
X14810500Y-13889786D01*
X14824786Y-13875500D01*
X14853357Y-13861214D01*
X15081928Y-14161214D02*
X15081928Y-13961214D01*
X15081928Y-13989786D02*
X15096214Y-13975500D01*
X15124786Y-13961214D01*
X15167643Y-13961214D01*
X15196214Y-13975500D01*
X15210500Y-14004071D01*
X15210500Y-14161214D01*
X15210500Y-14004071D02*
X15224786Y-13975500D01*
X15253357Y-13961214D01*
X15296214Y-13961214D01*
X15324786Y-13975500D01*
X15339071Y-14004071D01*
X15339071Y-14161214D01*
X15481928Y-14161214D02*
X15481928Y-13961214D01*
X15481928Y-13989786D02*
X15496214Y-13975500D01*
X15524786Y-13961214D01*
X15567643Y-13961214D01*
X15596214Y-13975500D01*
X15610500Y-14004071D01*
X15610500Y-14161214D01*
X15610500Y-14004071D02*
X15624786Y-13975500D01*
X15653357Y-13961214D01*
X15696214Y-13961214D01*
X15724786Y-13975500D01*
X15739071Y-14004071D01*
X15739071Y-14161214D01*
X16324786Y-13846929D02*
X16067643Y-14232643D01*
X16710500Y-13861214D02*
X16739071Y-13861214D01*
X16767643Y-13875500D01*
X16781928Y-13889786D01*
X16796214Y-13918357D01*
X16810500Y-13975500D01*
X16810500Y-14046929D01*
X16796214Y-14104071D01*
X16781928Y-14132643D01*
X16767643Y-14146929D01*
X16739071Y-14161214D01*
X16710500Y-14161214D01*
X16681928Y-14146929D01*
X16667643Y-14132643D01*
X16653357Y-14104071D01*
X16639071Y-14046929D01*
X16639071Y-13975500D01*
X16653357Y-13918357D01*
X16667643Y-13889786D01*
X16681928Y-13875500D01*
X16710500Y-13861214D01*
X16939071Y-14132643D02*
X16953357Y-14146929D01*
X16939071Y-14161214D01*
X16924786Y-14146929D01*
X16939071Y-14132643D01*
X16939071Y-14161214D01*
X17139071Y-13861214D02*
X17167643Y-13861214D01*
X17196214Y-13875500D01*
X17210500Y-13889786D01*
X17224786Y-13918357D01*
X17239071Y-13975500D01*
X17239071Y-14046929D01*
X17224786Y-14104071D01*
X17210500Y-14132643D01*
X17196214Y-14146929D01*
X17167643Y-14161214D01*
X17139071Y-14161214D01*
X17110500Y-14146929D01*
X17096214Y-14132643D01*
X17081928Y-14104071D01*
X17067643Y-14046929D01*
X17067643Y-13975500D01*
X17081928Y-13918357D01*
X17096214Y-13889786D01*
X17110500Y-13875500D01*
X17139071Y-13861214D01*
X17353357Y-13889786D02*
X17367643Y-13875500D01*
X17396214Y-13861214D01*
X17467643Y-13861214D01*
X17496214Y-13875500D01*
X17510500Y-13889786D01*
X17524786Y-13918357D01*
X17524786Y-13946929D01*
X17510500Y-13989786D01*
X17339071Y-14161214D01*
X17524786Y-14161214D01*
X17710500Y-13861214D02*
X17739071Y-13861214D01*
X17767643Y-13875500D01*
X17781928Y-13889786D01*
X17796214Y-13918357D01*
X17810500Y-13975500D01*
X17810500Y-14046929D01*
X17796214Y-14104071D01*
X17781928Y-14132643D01*
X17767643Y-14146929D01*
X17739071Y-14161214D01*
X17710500Y-14161214D01*
X17681928Y-14146929D01*
X17667643Y-14132643D01*
X17653357Y-14104071D01*
X17639071Y-14046929D01*
X17639071Y-13975500D01*
X17653357Y-13918357D01*
X17667643Y-13889786D01*
X17681928Y-13875500D01*
X17710500Y-13861214D01*
X17924786Y-13861214D02*
X17924786Y-13918357D01*
X18039071Y-13861214D02*
X18039071Y-13918357D01*
X18481928Y-14275500D02*
X18467643Y-14261214D01*
X18439071Y-14218357D01*
X18424786Y-14189786D01*
X18410500Y-14146929D01*
X18396214Y-14075500D01*
X18396214Y-14018357D01*
X18410500Y-13946929D01*
X18424786Y-13904071D01*
X18439071Y-13875500D01*
X18467643Y-13832643D01*
X18481928Y-13818357D01*
X18653357Y-13861214D02*
X18681928Y-13861214D01*
X18710500Y-13875500D01*
X18724786Y-13889786D01*
X18739071Y-13918357D01*
X18753357Y-13975500D01*
X18753357Y-14046929D01*
X18739071Y-14104071D01*
X18724786Y-14132643D01*
X18710500Y-14146929D01*
X18681928Y-14161214D01*
X18653357Y-14161214D01*
X18624786Y-14146929D01*
X18610500Y-14132643D01*
X18596214Y-14104071D01*
X18581928Y-14046929D01*
X18581928Y-13975500D01*
X18596214Y-13918357D01*
X18610500Y-13889786D01*
X18624786Y-13875500D01*
X18653357Y-13861214D01*
X19110500Y-14161214D02*
X19110500Y-13861214D01*
X19239071Y-14161214D02*
X19239071Y-14004071D01*
X19224786Y-13975500D01*
X19196214Y-13961214D01*
X19153357Y-13961214D01*
X19124786Y-13975500D01*
X19110500Y-13989786D01*
X19424786Y-14161214D02*
X19396214Y-14146929D01*
X19381928Y-14132643D01*
X19367643Y-14104071D01*
X19367643Y-14018357D01*
X19381928Y-13989786D01*
X19396214Y-13975500D01*
X19424786Y-13961214D01*
X19467643Y-13961214D01*
X19496214Y-13975500D01*
X19510500Y-13989786D01*
X19524786Y-14018357D01*
X19524786Y-14104071D01*
X19510500Y-14132643D01*
X19496214Y-14146929D01*
X19467643Y-14161214D01*
X19424786Y-14161214D01*
X19696214Y-14161214D02*
X19667643Y-14146929D01*
X19653357Y-14118357D01*
X19653357Y-13861214D01*
X19924786Y-14146929D02*
X19896214Y-14161214D01*
X19839071Y-14161214D01*
X19810500Y-14146929D01*
X19796214Y-14118357D01*
X19796214Y-14004071D01*
X19810500Y-13975500D01*
X19839071Y-13961214D01*
X19896214Y-13961214D01*
X19924786Y-13975500D01*
X19939071Y-14004071D01*
X19939071Y-14032643D01*
X19796214Y-14061214D01*
X20053357Y-14146929D02*
X20081929Y-14161214D01*
X20139071Y-14161214D01*
X20167643Y-14146929D01*
X20181929Y-14118357D01*
X20181929Y-14104071D01*
X20167643Y-14075500D01*
X20139071Y-14061214D01*
X20096214Y-14061214D01*
X20067643Y-14046929D01*
X20053357Y-14018357D01*
X20053357Y-14004071D01*
X20067643Y-13975500D01*
X20096214Y-13961214D01*
X20139071Y-13961214D01*
X20167643Y-13975500D01*
X20539071Y-14046929D02*
X20767643Y-14046929D01*
X20653357Y-14161214D02*
X20653357Y-13932643D01*
X21124786Y-13889786D02*
X21139071Y-13875500D01*
X21167643Y-13861214D01*
X21239071Y-13861214D01*
X21267643Y-13875500D01*
X21281928Y-13889786D01*
X21296214Y-13918357D01*
X21296214Y-13946929D01*
X21281928Y-13989786D01*
X21110500Y-14161214D01*
X21296214Y-14161214D01*
X21639071Y-14146929D02*
X21667643Y-14161214D01*
X21724786Y-14161214D01*
X21753357Y-14146929D01*
X21767643Y-14118357D01*
X21767643Y-14104071D01*
X21753357Y-14075500D01*
X21724786Y-14061214D01*
X21681928Y-14061214D01*
X21653357Y-14046929D01*
X21639071Y-14018357D01*
X21639071Y-14004071D01*
X21653357Y-13975500D01*
X21681928Y-13961214D01*
X21724786Y-13961214D01*
X21753357Y-13975500D01*
X21939071Y-14161214D02*
X21910500Y-14146929D01*
X21896214Y-14118357D01*
X21896214Y-13861214D01*
X22096214Y-14161214D02*
X22067643Y-14146929D01*
X22053357Y-14132643D01*
X22039071Y-14104071D01*
X22039071Y-14018357D01*
X22053357Y-13989786D01*
X22067643Y-13975500D01*
X22096214Y-13961214D01*
X22139071Y-13961214D01*
X22167643Y-13975500D01*
X22181928Y-13989786D01*
X22196214Y-14018357D01*
X22196214Y-14104071D01*
X22181928Y-14132643D01*
X22167643Y-14146929D01*
X22139071Y-14161214D01*
X22096214Y-14161214D01*
X22281928Y-13961214D02*
X22396214Y-13961214D01*
X22324786Y-13861214D02*
X22324786Y-14118357D01*
X22339071Y-14146929D01*
X22367643Y-14161214D01*
X22396214Y-14161214D01*
X22481928Y-14146929D02*
X22510500Y-14161214D01*
X22567643Y-14161214D01*
X22596214Y-14146929D01*
X22610500Y-14118357D01*
X22610500Y-14104071D01*
X22596214Y-14075500D01*
X22567643Y-14061214D01*
X22524786Y-14061214D01*
X22496214Y-14046929D01*
X22481928Y-14018357D01*
X22481928Y-14004071D01*
X22496214Y-13975500D01*
X22524786Y-13961214D01*
X22567643Y-13961214D01*
X22596214Y-13975500D01*
X22710500Y-14275500D02*
X22724786Y-14261214D01*
X22753357Y-14218357D01*
X22767643Y-14189786D01*
X22781928Y-14146929D01*
X22796214Y-14075500D01*
X22796214Y-14018357D01*
X22781928Y-13946929D01*
X22767643Y-13904071D01*
X22753357Y-13875500D01*
X22724786Y-13832643D01*
X22710500Y-13818357D01*
X13783000Y-14394000D02*
X13783000Y-14449000D01*
X13755500Y-14421500D02*
X13810500Y-14421500D01*
X14139071Y-14257214D02*
X14167643Y-14257214D01*
X14196214Y-14271500D01*
X14210500Y-14285786D01*
X14224786Y-14314357D01*
X14239071Y-14371500D01*
X14239071Y-14442929D01*
X14224786Y-14500071D01*
X14210500Y-14528643D01*
X14196214Y-14542929D01*
X14167643Y-14557214D01*
X14139071Y-14557214D01*
X14110500Y-14542929D01*
X14096214Y-14528643D01*
X14081928Y-14500071D01*
X14067643Y-14442929D01*
X14067643Y-14371500D01*
X14081928Y-14314357D01*
X14096214Y-14285786D01*
X14110500Y-14271500D01*
X14139071Y-14257214D01*
X14367643Y-14528643D02*
X14381928Y-14542929D01*
X14367643Y-14557214D01*
X14353357Y-14542929D01*
X14367643Y-14528643D01*
X14367643Y-14557214D01*
X14653357Y-14257214D02*
X14510500Y-14257214D01*
X14496214Y-14400071D01*
X14510500Y-14385786D01*
X14539071Y-14371500D01*
X14610500Y-14371500D01*
X14639071Y-14385786D01*
X14653357Y-14400071D01*
X14667643Y-14428643D01*
X14667643Y-14500071D01*
X14653357Y-14528643D01*
X14639071Y-14542929D01*
X14610500Y-14557214D01*
X14539071Y-14557214D01*
X14510500Y-14542929D01*
X14496214Y-14528643D01*
X14939071Y-14257214D02*
X14796214Y-14257214D01*
X14781928Y-14400071D01*
X14796214Y-14385786D01*
X14824786Y-14371500D01*
X14896214Y-14371500D01*
X14924786Y-14385786D01*
X14939071Y-14400071D01*
X14953357Y-14428643D01*
X14953357Y-14500071D01*
X14939071Y-14528643D01*
X14924786Y-14542929D01*
X14896214Y-14557214D01*
X14824786Y-14557214D01*
X14796214Y-14542929D01*
X14781928Y-14528643D01*
X15081928Y-14557214D02*
X15081928Y-14357214D01*
X15081928Y-14385786D02*
X15096214Y-14371500D01*
X15124786Y-14357214D01*
X15167643Y-14357214D01*
X15196214Y-14371500D01*
X15210500Y-14400071D01*
X15210500Y-14557214D01*
X15210500Y-14400071D02*
X15224786Y-14371500D01*
X15253357Y-14357214D01*
X15296214Y-14357214D01*
X15324786Y-14371500D01*
X15339071Y-14400071D01*
X15339071Y-14557214D01*
X15481928Y-14557214D02*
X15481928Y-14357214D01*
X15481928Y-14385786D02*
X15496214Y-14371500D01*
X15524786Y-14357214D01*
X15567643Y-14357214D01*
X15596214Y-14371500D01*
X15610500Y-14400071D01*
X15610500Y-14557214D01*
X15610500Y-14400071D02*
X15624786Y-14371500D01*
X15653357Y-14357214D01*
X15696214Y-14357214D01*
X15724786Y-14371500D01*
X15739071Y-14400071D01*
X15739071Y-14557214D01*
X16324786Y-14242929D02*
X16067643Y-14628643D01*
X16710500Y-14257214D02*
X16739071Y-14257214D01*
X16767643Y-14271500D01*
X16781928Y-14285786D01*
X16796214Y-14314357D01*
X16810500Y-14371500D01*
X16810500Y-14442929D01*
X16796214Y-14500071D01*
X16781928Y-14528643D01*
X16767643Y-14542929D01*
X16739071Y-14557214D01*
X16710500Y-14557214D01*
X16681928Y-14542929D01*
X16667643Y-14528643D01*
X16653357Y-14500071D01*
X16639071Y-14442929D01*
X16639071Y-14371500D01*
X16653357Y-14314357D01*
X16667643Y-14285786D01*
X16681928Y-14271500D01*
X16710500Y-14257214D01*
X16939071Y-14528643D02*
X16953357Y-14542929D01*
X16939071Y-14557214D01*
X16924786Y-14542929D01*
X16939071Y-14528643D01*
X16939071Y-14557214D01*
X17139071Y-14257214D02*
X17167643Y-14257214D01*
X17196214Y-14271500D01*
X17210500Y-14285786D01*
X17224786Y-14314357D01*
X17239071Y-14371500D01*
X17239071Y-14442929D01*
X17224786Y-14500071D01*
X17210500Y-14528643D01*
X17196214Y-14542929D01*
X17167643Y-14557214D01*
X17139071Y-14557214D01*
X17110500Y-14542929D01*
X17096214Y-14528643D01*
X17081928Y-14500071D01*
X17067643Y-14442929D01*
X17067643Y-14371500D01*
X17081928Y-14314357D01*
X17096214Y-14285786D01*
X17110500Y-14271500D01*
X17139071Y-14257214D01*
X17353357Y-14285786D02*
X17367643Y-14271500D01*
X17396214Y-14257214D01*
X17467643Y-14257214D01*
X17496214Y-14271500D01*
X17510500Y-14285786D01*
X17524786Y-14314357D01*
X17524786Y-14342929D01*
X17510500Y-14385786D01*
X17339071Y-14557214D01*
X17524786Y-14557214D01*
X17639071Y-14285786D02*
X17653357Y-14271500D01*
X17681928Y-14257214D01*
X17753357Y-14257214D01*
X17781928Y-14271500D01*
X17796214Y-14285786D01*
X17810500Y-14314357D01*
X17810500Y-14342929D01*
X17796214Y-14385786D01*
X17624786Y-14557214D01*
X17810500Y-14557214D01*
X17924786Y-14257214D02*
X17924786Y-14314357D01*
X18039071Y-14257214D02*
X18039071Y-14314357D01*
X18481928Y-14671500D02*
X18467643Y-14657214D01*
X18439071Y-14614357D01*
X18424786Y-14585786D01*
X18410500Y-14542929D01*
X18396214Y-14471500D01*
X18396214Y-14414357D01*
X18410500Y-14342929D01*
X18424786Y-14300071D01*
X18439071Y-14271500D01*
X18467643Y-14228643D01*
X18481928Y-14214357D01*
X18653357Y-14257214D02*
X18681928Y-14257214D01*
X18710500Y-14271500D01*
X18724786Y-14285786D01*
X18739071Y-14314357D01*
X18753357Y-14371500D01*
X18753357Y-14442929D01*
X18739071Y-14500071D01*
X18724786Y-14528643D01*
X18710500Y-14542929D01*
X18681928Y-14557214D01*
X18653357Y-14557214D01*
X18624786Y-14542929D01*
X18610500Y-14528643D01*
X18596214Y-14500071D01*
X18581928Y-14442929D01*
X18581928Y-14371500D01*
X18596214Y-14314357D01*
X18610500Y-14285786D01*
X18624786Y-14271500D01*
X18653357Y-14257214D01*
X19110500Y-14557214D02*
X19110500Y-14257214D01*
X19239071Y-14557214D02*
X19239071Y-14400071D01*
X19224786Y-14371500D01*
X19196214Y-14357214D01*
X19153357Y-14357214D01*
X19124786Y-14371500D01*
X19110500Y-14385786D01*
X19424786Y-14557214D02*
X19396214Y-14542929D01*
X19381928Y-14528643D01*
X19367643Y-14500071D01*
X19367643Y-14414357D01*
X19381928Y-14385786D01*
X19396214Y-14371500D01*
X19424786Y-14357214D01*
X19467643Y-14357214D01*
X19496214Y-14371500D01*
X19510500Y-14385786D01*
X19524786Y-14414357D01*
X19524786Y-14500071D01*
X19510500Y-14528643D01*
X19496214Y-14542929D01*
X19467643Y-14557214D01*
X19424786Y-14557214D01*
X19696214Y-14557214D02*
X19667643Y-14542929D01*
X19653357Y-14514357D01*
X19653357Y-14257214D01*
X19924786Y-14542929D02*
X19896214Y-14557214D01*
X19839071Y-14557214D01*
X19810500Y-14542929D01*
X19796214Y-14514357D01*
X19796214Y-14400071D01*
X19810500Y-14371500D01*
X19839071Y-14357214D01*
X19896214Y-14357214D01*
X19924786Y-14371500D01*
X19939071Y-14400071D01*
X19939071Y-14428643D01*
X19796214Y-14457214D01*
X20053357Y-14542929D02*
X20081929Y-14557214D01*
X20139071Y-14557214D01*
X20167643Y-14542929D01*
X20181929Y-14514357D01*
X20181929Y-14500071D01*
X20167643Y-14471500D01*
X20139071Y-14457214D01*
X20096214Y-14457214D01*
X20067643Y-14442929D01*
X20053357Y-14414357D01*
X20053357Y-14400071D01*
X20067643Y-14371500D01*
X20096214Y-14357214D01*
X20139071Y-14357214D01*
X20167643Y-14371500D01*
X20539071Y-14442929D02*
X20767643Y-14442929D01*
X20653357Y-14557214D02*
X20653357Y-14328643D01*
X21124786Y-14285786D02*
X21139071Y-14271500D01*
X21167643Y-14257214D01*
X21239071Y-14257214D01*
X21267643Y-14271500D01*
X21281928Y-14285786D01*
X21296214Y-14314357D01*
X21296214Y-14342929D01*
X21281928Y-14385786D01*
X21110500Y-14557214D01*
X21296214Y-14557214D01*
X21639071Y-14542929D02*
X21667643Y-14557214D01*
X21724786Y-14557214D01*
X21753357Y-14542929D01*
X21767643Y-14514357D01*
X21767643Y-14500071D01*
X21753357Y-14471500D01*
X21724786Y-14457214D01*
X21681928Y-14457214D01*
X21653357Y-14442929D01*
X21639071Y-14414357D01*
X21639071Y-14400071D01*
X21653357Y-14371500D01*
X21681928Y-14357214D01*
X21724786Y-14357214D01*
X21753357Y-14371500D01*
X21939071Y-14557214D02*
X21910500Y-14542929D01*
X21896214Y-14514357D01*
X21896214Y-14257214D01*
X22096214Y-14557214D02*
X22067643Y-14542929D01*
X22053357Y-14528643D01*
X22039071Y-14500071D01*
X22039071Y-14414357D01*
X22053357Y-14385786D01*
X22067643Y-14371500D01*
X22096214Y-14357214D01*
X22139071Y-14357214D01*
X22167643Y-14371500D01*
X22181928Y-14385786D01*
X22196214Y-14414357D01*
X22196214Y-14500071D01*
X22181928Y-14528643D01*
X22167643Y-14542929D01*
X22139071Y-14557214D01*
X22096214Y-14557214D01*
X22281928Y-14357214D02*
X22396214Y-14357214D01*
X22324786Y-14257214D02*
X22324786Y-14514357D01*
X22339071Y-14542929D01*
X22367643Y-14557214D01*
X22396214Y-14557214D01*
X22481928Y-14542929D02*
X22510500Y-14557214D01*
X22567643Y-14557214D01*
X22596214Y-14542929D01*
X22610500Y-14514357D01*
X22610500Y-14500071D01*
X22596214Y-14471500D01*
X22567643Y-14457214D01*
X22524786Y-14457214D01*
X22496214Y-14442929D01*
X22481928Y-14414357D01*
X22481928Y-14400071D01*
X22496214Y-14371500D01*
X22524786Y-14357214D01*
X22567643Y-14357214D01*
X22596214Y-14371500D01*
X22710500Y-14671500D02*
X22724786Y-14657214D01*
X22753357Y-14614357D01*
X22767643Y-14585786D01*
X22781928Y-14542929D01*
X22796214Y-14471500D01*
X22796214Y-14414357D01*
X22781928Y-14342929D01*
X22767643Y-14300071D01*
X22753357Y-14271500D01*
X22724786Y-14228643D01*
X22710500Y-14214357D01*
X13798783Y-14845788D02*
X13798783Y-14789212D01*
X13742207Y-14789212D01*
X13742207Y-14845788D01*
X13798783Y-14845788D01*
X14139071Y-14653214D02*
X14167643Y-14653214D01*
X14196214Y-14667500D01*
X14210500Y-14681786D01*
X14224786Y-14710357D01*
X14239071Y-14767500D01*
X14239071Y-14838929D01*
X14224786Y-14896071D01*
X14210500Y-14924643D01*
X14196214Y-14938929D01*
X14167643Y-14953214D01*
X14139071Y-14953214D01*
X14110500Y-14938929D01*
X14096214Y-14924643D01*
X14081928Y-14896071D01*
X14067643Y-14838929D01*
X14067643Y-14767500D01*
X14081928Y-14710357D01*
X14096214Y-14681786D01*
X14110500Y-14667500D01*
X14139071Y-14653214D01*
X14367643Y-14924643D02*
X14381928Y-14938929D01*
X14367643Y-14953214D01*
X14353357Y-14938929D01*
X14367643Y-14924643D01*
X14367643Y-14953214D01*
X14553357Y-14781786D02*
X14524786Y-14767500D01*
X14510500Y-14753214D01*
X14496214Y-14724643D01*
X14496214Y-14710357D01*
X14510500Y-14681786D01*
X14524786Y-14667500D01*
X14553357Y-14653214D01*
X14610500Y-14653214D01*
X14639071Y-14667500D01*
X14653357Y-14681786D01*
X14667643Y-14710357D01*
X14667643Y-14724643D01*
X14653357Y-14753214D01*
X14639071Y-14767500D01*
X14610500Y-14781786D01*
X14553357Y-14781786D01*
X14524786Y-14796071D01*
X14510500Y-14810357D01*
X14496214Y-14838929D01*
X14496214Y-14896071D01*
X14510500Y-14924643D01*
X14524786Y-14938929D01*
X14553357Y-14953214D01*
X14610500Y-14953214D01*
X14639071Y-14938929D01*
X14653357Y-14924643D01*
X14667643Y-14896071D01*
X14667643Y-14838929D01*
X14653357Y-14810357D01*
X14639071Y-14796071D01*
X14610500Y-14781786D01*
X14853357Y-14653214D02*
X14881928Y-14653214D01*
X14910500Y-14667500D01*
X14924786Y-14681786D01*
X14939071Y-14710357D01*
X14953357Y-14767500D01*
X14953357Y-14838929D01*
X14939071Y-14896071D01*
X14924786Y-14924643D01*
X14910500Y-14938929D01*
X14881928Y-14953214D01*
X14853357Y-14953214D01*
X14824786Y-14938929D01*
X14810500Y-14924643D01*
X14796214Y-14896071D01*
X14781928Y-14838929D01*
X14781928Y-14767500D01*
X14796214Y-14710357D01*
X14810500Y-14681786D01*
X14824786Y-14667500D01*
X14853357Y-14653214D01*
X15081928Y-14953214D02*
X15081928Y-14753214D01*
X15081928Y-14781786D02*
X15096214Y-14767500D01*
X15124786Y-14753214D01*
X15167643Y-14753214D01*
X15196214Y-14767500D01*
X15210500Y-14796071D01*
X15210500Y-14953214D01*
X15210500Y-14796071D02*
X15224786Y-14767500D01*
X15253357Y-14753214D01*
X15296214Y-14753214D01*
X15324786Y-14767500D01*
X15339071Y-14796071D01*
X15339071Y-14953214D01*
X15481928Y-14953214D02*
X15481928Y-14753214D01*
X15481928Y-14781786D02*
X15496214Y-14767500D01*
X15524786Y-14753214D01*
X15567643Y-14753214D01*
X15596214Y-14767500D01*
X15610500Y-14796071D01*
X15610500Y-14953214D01*
X15610500Y-14796071D02*
X15624786Y-14767500D01*
X15653357Y-14753214D01*
X15696214Y-14753214D01*
X15724786Y-14767500D01*
X15739071Y-14796071D01*
X15739071Y-14953214D01*
X16324786Y-14638929D02*
X16067643Y-15024643D01*
X16710500Y-14653214D02*
X16739071Y-14653214D01*
X16767643Y-14667500D01*
X16781928Y-14681786D01*
X16796214Y-14710357D01*
X16810500Y-14767500D01*
X16810500Y-14838929D01*
X16796214Y-14896071D01*
X16781928Y-14924643D01*
X16767643Y-14938929D01*
X16739071Y-14953214D01*
X16710500Y-14953214D01*
X16681928Y-14938929D01*
X16667643Y-14924643D01*
X16653357Y-14896071D01*
X16639071Y-14838929D01*
X16639071Y-14767500D01*
X16653357Y-14710357D01*
X16667643Y-14681786D01*
X16681928Y-14667500D01*
X16710500Y-14653214D01*
X16939071Y-14924643D02*
X16953357Y-14938929D01*
X16939071Y-14953214D01*
X16924786Y-14938929D01*
X16939071Y-14924643D01*
X16939071Y-14953214D01*
X17139071Y-14653214D02*
X17167643Y-14653214D01*
X17196214Y-14667500D01*
X17210500Y-14681786D01*
X17224786Y-14710357D01*
X17239071Y-14767500D01*
X17239071Y-14838929D01*
X17224786Y-14896071D01*
X17210500Y-14924643D01*
X17196214Y-14938929D01*
X17167643Y-14953214D01*
X17139071Y-14953214D01*
X17110500Y-14938929D01*
X17096214Y-14924643D01*
X17081928Y-14896071D01*
X17067643Y-14838929D01*
X17067643Y-14767500D01*
X17081928Y-14710357D01*
X17096214Y-14681786D01*
X17110500Y-14667500D01*
X17139071Y-14653214D01*
X17339071Y-14653214D02*
X17524786Y-14653214D01*
X17424786Y-14767500D01*
X17467643Y-14767500D01*
X17496214Y-14781786D01*
X17510500Y-14796071D01*
X17524786Y-14824643D01*
X17524786Y-14896071D01*
X17510500Y-14924643D01*
X17496214Y-14938929D01*
X17467643Y-14953214D01*
X17381928Y-14953214D01*
X17353357Y-14938929D01*
X17339071Y-14924643D01*
X17639071Y-14681786D02*
X17653357Y-14667500D01*
X17681928Y-14653214D01*
X17753357Y-14653214D01*
X17781928Y-14667500D01*
X17796214Y-14681786D01*
X17810500Y-14710357D01*
X17810500Y-14738929D01*
X17796214Y-14781786D01*
X17624786Y-14953214D01*
X17810500Y-14953214D01*
X17924786Y-14653214D02*
X17924786Y-14710357D01*
X18039071Y-14653214D02*
X18039071Y-14710357D01*
X18481928Y-15067500D02*
X18467643Y-15053214D01*
X18439071Y-15010357D01*
X18424786Y-14981786D01*
X18410500Y-14938929D01*
X18396214Y-14867500D01*
X18396214Y-14810357D01*
X18410500Y-14738929D01*
X18424786Y-14696071D01*
X18439071Y-14667500D01*
X18467643Y-14624643D01*
X18481928Y-14610357D01*
X18581928Y-14681786D02*
X18596214Y-14667500D01*
X18624786Y-14653214D01*
X18696214Y-14653214D01*
X18724786Y-14667500D01*
X18739071Y-14681786D01*
X18753357Y-14710357D01*
X18753357Y-14738929D01*
X18739071Y-14781786D01*
X18567643Y-14953214D01*
X18753357Y-14953214D01*
X19110500Y-14953214D02*
X19110500Y-14653214D01*
X19239071Y-14953214D02*
X19239071Y-14796071D01*
X19224786Y-14767500D01*
X19196214Y-14753214D01*
X19153357Y-14753214D01*
X19124786Y-14767500D01*
X19110500Y-14781786D01*
X19424786Y-14953214D02*
X19396214Y-14938929D01*
X19381928Y-14924643D01*
X19367643Y-14896071D01*
X19367643Y-14810357D01*
X19381928Y-14781786D01*
X19396214Y-14767500D01*
X19424786Y-14753214D01*
X19467643Y-14753214D01*
X19496214Y-14767500D01*
X19510500Y-14781786D01*
X19524786Y-14810357D01*
X19524786Y-14896071D01*
X19510500Y-14924643D01*
X19496214Y-14938929D01*
X19467643Y-14953214D01*
X19424786Y-14953214D01*
X19696214Y-14953214D02*
X19667643Y-14938929D01*
X19653357Y-14910357D01*
X19653357Y-14653214D01*
X19924786Y-14938929D02*
X19896214Y-14953214D01*
X19839071Y-14953214D01*
X19810500Y-14938929D01*
X19796214Y-14910357D01*
X19796214Y-14796071D01*
X19810500Y-14767500D01*
X19839071Y-14753214D01*
X19896214Y-14753214D01*
X19924786Y-14767500D01*
X19939071Y-14796071D01*
X19939071Y-14824643D01*
X19796214Y-14853214D01*
X20053357Y-14938929D02*
X20081929Y-14953214D01*
X20139071Y-14953214D01*
X20167643Y-14938929D01*
X20181929Y-14910357D01*
X20181929Y-14896071D01*
X20167643Y-14867500D01*
X20139071Y-14853214D01*
X20096214Y-14853214D01*
X20067643Y-14838929D01*
X20053357Y-14810357D01*
X20053357Y-14796071D01*
X20067643Y-14767500D01*
X20096214Y-14753214D01*
X20139071Y-14753214D01*
X20167643Y-14767500D01*
X20281928Y-15067500D02*
X20296214Y-15053214D01*
X20324786Y-15010357D01*
X20339071Y-14981786D01*
X20353357Y-14938929D01*
X20367643Y-14867500D01*
X20367643Y-14810357D01*
X20353357Y-14738929D01*
X20339071Y-14696071D01*
X20324786Y-14667500D01*
X20296214Y-14624643D01*
X20281928Y-14610357D01*
X13769860Y-15254140D02*
X13810500Y-15213500D01*
X13769860Y-15172860D01*
X13729220Y-15213500D01*
X13769860Y-15254140D01*
X14139071Y-15049214D02*
X14167643Y-15049214D01*
X14196214Y-15063500D01*
X14210500Y-15077786D01*
X14224786Y-15106357D01*
X14239071Y-15163500D01*
X14239071Y-15234929D01*
X14224786Y-15292071D01*
X14210500Y-15320643D01*
X14196214Y-15334929D01*
X14167643Y-15349214D01*
X14139071Y-15349214D01*
X14110500Y-15334929D01*
X14096214Y-15320643D01*
X14081928Y-15292071D01*
X14067643Y-15234929D01*
X14067643Y-15163500D01*
X14081928Y-15106357D01*
X14096214Y-15077786D01*
X14110500Y-15063500D01*
X14139071Y-15049214D01*
X14367643Y-15320643D02*
X14381928Y-15334929D01*
X14367643Y-15349214D01*
X14353357Y-15334929D01*
X14367643Y-15320643D01*
X14367643Y-15349214D01*
X14553357Y-15177786D02*
X14524786Y-15163500D01*
X14510500Y-15149214D01*
X14496214Y-15120643D01*
X14496214Y-15106357D01*
X14510500Y-15077786D01*
X14524786Y-15063500D01*
X14553357Y-15049214D01*
X14610500Y-15049214D01*
X14639071Y-15063500D01*
X14653357Y-15077786D01*
X14667643Y-15106357D01*
X14667643Y-15120643D01*
X14653357Y-15149214D01*
X14639071Y-15163500D01*
X14610500Y-15177786D01*
X14553357Y-15177786D01*
X14524786Y-15192071D01*
X14510500Y-15206357D01*
X14496214Y-15234929D01*
X14496214Y-15292071D01*
X14510500Y-15320643D01*
X14524786Y-15334929D01*
X14553357Y-15349214D01*
X14610500Y-15349214D01*
X14639071Y-15334929D01*
X14653357Y-15320643D01*
X14667643Y-15292071D01*
X14667643Y-15234929D01*
X14653357Y-15206357D01*
X14639071Y-15192071D01*
X14610500Y-15177786D01*
X14953357Y-15349214D02*
X14781928Y-15349214D01*
X14867643Y-15349214D02*
X14867643Y-15049214D01*
X14839071Y-15092071D01*
X14810500Y-15120643D01*
X14781928Y-15134929D01*
X15081928Y-15349214D02*
X15081928Y-15149214D01*
X15081928Y-15177786D02*
X15096214Y-15163500D01*
X15124786Y-15149214D01*
X15167643Y-15149214D01*
X15196214Y-15163500D01*
X15210500Y-15192071D01*
X15210500Y-15349214D01*
X15210500Y-15192071D02*
X15224786Y-15163500D01*
X15253357Y-15149214D01*
X15296214Y-15149214D01*
X15324786Y-15163500D01*
X15339071Y-15192071D01*
X15339071Y-15349214D01*
X15481928Y-15349214D02*
X15481928Y-15149214D01*
X15481928Y-15177786D02*
X15496214Y-15163500D01*
X15524786Y-15149214D01*
X15567643Y-15149214D01*
X15596214Y-15163500D01*
X15610500Y-15192071D01*
X15610500Y-15349214D01*
X15610500Y-15192071D02*
X15624786Y-15163500D01*
X15653357Y-15149214D01*
X15696214Y-15149214D01*
X15724786Y-15163500D01*
X15739071Y-15192071D01*
X15739071Y-15349214D01*
X16324786Y-15034929D02*
X16067643Y-15420643D01*
X16710500Y-15049214D02*
X16739071Y-15049214D01*
X16767643Y-15063500D01*
X16781928Y-15077786D01*
X16796214Y-15106357D01*
X16810500Y-15163500D01*
X16810500Y-15234929D01*
X16796214Y-15292071D01*
X16781928Y-15320643D01*
X16767643Y-15334929D01*
X16739071Y-15349214D01*
X16710500Y-15349214D01*
X16681928Y-15334929D01*
X16667643Y-15320643D01*
X16653357Y-15292071D01*
X16639071Y-15234929D01*
X16639071Y-15163500D01*
X16653357Y-15106357D01*
X16667643Y-15077786D01*
X16681928Y-15063500D01*
X16710500Y-15049214D01*
X16939071Y-15320643D02*
X16953357Y-15334929D01*
X16939071Y-15349214D01*
X16924786Y-15334929D01*
X16939071Y-15320643D01*
X16939071Y-15349214D01*
X17139071Y-15049214D02*
X17167643Y-15049214D01*
X17196214Y-15063500D01*
X17210500Y-15077786D01*
X17224786Y-15106357D01*
X17239071Y-15163500D01*
X17239071Y-15234929D01*
X17224786Y-15292071D01*
X17210500Y-15320643D01*
X17196214Y-15334929D01*
X17167643Y-15349214D01*
X17139071Y-15349214D01*
X17110500Y-15334929D01*
X17096214Y-15320643D01*
X17081928Y-15292071D01*
X17067643Y-15234929D01*
X17067643Y-15163500D01*
X17081928Y-15106357D01*
X17096214Y-15077786D01*
X17110500Y-15063500D01*
X17139071Y-15049214D01*
X17339071Y-15049214D02*
X17524786Y-15049214D01*
X17424786Y-15163500D01*
X17467643Y-15163500D01*
X17496214Y-15177786D01*
X17510500Y-15192071D01*
X17524786Y-15220643D01*
X17524786Y-15292071D01*
X17510500Y-15320643D01*
X17496214Y-15334929D01*
X17467643Y-15349214D01*
X17381928Y-15349214D01*
X17353357Y-15334929D01*
X17339071Y-15320643D01*
X17639071Y-15077786D02*
X17653357Y-15063500D01*
X17681928Y-15049214D01*
X17753357Y-15049214D01*
X17781928Y-15063500D01*
X17796214Y-15077786D01*
X17810500Y-15106357D01*
X17810500Y-15134929D01*
X17796214Y-15177786D01*
X17624786Y-15349214D01*
X17810500Y-15349214D01*
X17924786Y-15049214D02*
X17924786Y-15106357D01*
X18039071Y-15049214D02*
X18039071Y-15106357D01*
X18481928Y-15463500D02*
X18467643Y-15449214D01*
X18439071Y-15406357D01*
X18424786Y-15377786D01*
X18410500Y-15334929D01*
X18396214Y-15263500D01*
X18396214Y-15206357D01*
X18410500Y-15134929D01*
X18424786Y-15092071D01*
X18439071Y-15063500D01*
X18467643Y-15020643D01*
X18481928Y-15006357D01*
X18567643Y-15049214D02*
X18753357Y-15049214D01*
X18653357Y-15163500D01*
X18696214Y-15163500D01*
X18724786Y-15177786D01*
X18739071Y-15192071D01*
X18753357Y-15220643D01*
X18753357Y-15292071D01*
X18739071Y-15320643D01*
X18724786Y-15334929D01*
X18696214Y-15349214D01*
X18610500Y-15349214D01*
X18581928Y-15334929D01*
X18567643Y-15320643D01*
X19110500Y-15349214D02*
X19110500Y-15049214D01*
X19239071Y-15349214D02*
X19239071Y-15192071D01*
X19224786Y-15163500D01*
X19196214Y-15149214D01*
X19153357Y-15149214D01*
X19124786Y-15163500D01*
X19110500Y-15177786D01*
X19424786Y-15349214D02*
X19396214Y-15334929D01*
X19381928Y-15320643D01*
X19367643Y-15292071D01*
X19367643Y-15206357D01*
X19381928Y-15177786D01*
X19396214Y-15163500D01*
X19424786Y-15149214D01*
X19467643Y-15149214D01*
X19496214Y-15163500D01*
X19510500Y-15177786D01*
X19524786Y-15206357D01*
X19524786Y-15292071D01*
X19510500Y-15320643D01*
X19496214Y-15334929D01*
X19467643Y-15349214D01*
X19424786Y-15349214D01*
X19696214Y-15349214D02*
X19667643Y-15334929D01*
X19653357Y-15306357D01*
X19653357Y-15049214D01*
X19924786Y-15334929D02*
X19896214Y-15349214D01*
X19839071Y-15349214D01*
X19810500Y-15334929D01*
X19796214Y-15306357D01*
X19796214Y-15192071D01*
X19810500Y-15163500D01*
X19839071Y-15149214D01*
X19896214Y-15149214D01*
X19924786Y-15163500D01*
X19939071Y-15192071D01*
X19939071Y-15220643D01*
X19796214Y-15249214D01*
X20053357Y-15334929D02*
X20081929Y-15349214D01*
X20139071Y-15349214D01*
X20167643Y-15334929D01*
X20181929Y-15306357D01*
X20181929Y-15292071D01*
X20167643Y-15263500D01*
X20139071Y-15249214D01*
X20096214Y-15249214D01*
X20067643Y-15234929D01*
X20053357Y-15206357D01*
X20053357Y-15192071D01*
X20067643Y-15163500D01*
X20096214Y-15149214D01*
X20139071Y-15149214D01*
X20167643Y-15163500D01*
X20281928Y-15463500D02*
X20296214Y-15449214D01*
X20324786Y-15406357D01*
X20339071Y-15377786D01*
X20353357Y-15334929D01*
X20367643Y-15263500D01*
X20367643Y-15206357D01*
X20353357Y-15134929D01*
X20339071Y-15092071D01*
X20324786Y-15063500D01*
X20296214Y-15020643D01*
X20281928Y-15006357D01*
X13710424Y-15559462D02*
X13810500Y-15659538D01*
X13810500Y-15559462D02*
X13710424Y-15659538D01*
X13810500Y-15609500D02*
G75*
G03X13810500Y-15609500I-50038J0D01*
G01*
X14239071Y-15745214D02*
X14067643Y-15745214D01*
X14153357Y-15745214D02*
X14153357Y-15445214D01*
X14124786Y-15488071D01*
X14096214Y-15516643D01*
X14067643Y-15530929D01*
X14367643Y-15716643D02*
X14381928Y-15730929D01*
X14367643Y-15745214D01*
X14353357Y-15730929D01*
X14367643Y-15716643D01*
X14367643Y-15745214D01*
X14567643Y-15445214D02*
X14596214Y-15445214D01*
X14624786Y-15459500D01*
X14639071Y-15473786D01*
X14653357Y-15502357D01*
X14667643Y-15559500D01*
X14667643Y-15630929D01*
X14653357Y-15688071D01*
X14639071Y-15716643D01*
X14624786Y-15730929D01*
X14596214Y-15745214D01*
X14567643Y-15745214D01*
X14539071Y-15730929D01*
X14524786Y-15716643D01*
X14510500Y-15688071D01*
X14496214Y-15630929D01*
X14496214Y-15559500D01*
X14510500Y-15502357D01*
X14524786Y-15473786D01*
X14539071Y-15459500D01*
X14567643Y-15445214D01*
X14853357Y-15445214D02*
X14881928Y-15445214D01*
X14910500Y-15459500D01*
X14924786Y-15473786D01*
X14939071Y-15502357D01*
X14953357Y-15559500D01*
X14953357Y-15630929D01*
X14939071Y-15688071D01*
X14924786Y-15716643D01*
X14910500Y-15730929D01*
X14881928Y-15745214D01*
X14853357Y-15745214D01*
X14824786Y-15730929D01*
X14810500Y-15716643D01*
X14796214Y-15688071D01*
X14781928Y-15630929D01*
X14781928Y-15559500D01*
X14796214Y-15502357D01*
X14810500Y-15473786D01*
X14824786Y-15459500D01*
X14853357Y-15445214D01*
X15081928Y-15745214D02*
X15081928Y-15545214D01*
X15081928Y-15573786D02*
X15096214Y-15559500D01*
X15124786Y-15545214D01*
X15167643Y-15545214D01*
X15196214Y-15559500D01*
X15210500Y-15588071D01*
X15210500Y-15745214D01*
X15210500Y-15588071D02*
X15224786Y-15559500D01*
X15253357Y-15545214D01*
X15296214Y-15545214D01*
X15324786Y-15559500D01*
X15339071Y-15588071D01*
X15339071Y-15745214D01*
X15481928Y-15745214D02*
X15481928Y-15545214D01*
X15481928Y-15573786D02*
X15496214Y-15559500D01*
X15524786Y-15545214D01*
X15567643Y-15545214D01*
X15596214Y-15559500D01*
X15610500Y-15588071D01*
X15610500Y-15745214D01*
X15610500Y-15588071D02*
X15624786Y-15559500D01*
X15653357Y-15545214D01*
X15696214Y-15545214D01*
X15724786Y-15559500D01*
X15739071Y-15588071D01*
X15739071Y-15745214D01*
X16324786Y-15430929D02*
X16067643Y-15816643D01*
X16710500Y-15445214D02*
X16739071Y-15445214D01*
X16767643Y-15459500D01*
X16781928Y-15473786D01*
X16796214Y-15502357D01*
X16810500Y-15559500D01*
X16810500Y-15630929D01*
X16796214Y-15688071D01*
X16781928Y-15716643D01*
X16767643Y-15730929D01*
X16739071Y-15745214D01*
X16710500Y-15745214D01*
X16681928Y-15730929D01*
X16667643Y-15716643D01*
X16653357Y-15688071D01*
X16639071Y-15630929D01*
X16639071Y-15559500D01*
X16653357Y-15502357D01*
X16667643Y-15473786D01*
X16681928Y-15459500D01*
X16710500Y-15445214D01*
X16939071Y-15716643D02*
X16953357Y-15730929D01*
X16939071Y-15745214D01*
X16924786Y-15730929D01*
X16939071Y-15716643D01*
X16939071Y-15745214D01*
X17139071Y-15445214D02*
X17167643Y-15445214D01*
X17196214Y-15459500D01*
X17210500Y-15473786D01*
X17224786Y-15502357D01*
X17239071Y-15559500D01*
X17239071Y-15630929D01*
X17224786Y-15688071D01*
X17210500Y-15716643D01*
X17196214Y-15730929D01*
X17167643Y-15745214D01*
X17139071Y-15745214D01*
X17110500Y-15730929D01*
X17096214Y-15716643D01*
X17081928Y-15688071D01*
X17067643Y-15630929D01*
X17067643Y-15559500D01*
X17081928Y-15502357D01*
X17096214Y-15473786D01*
X17110500Y-15459500D01*
X17139071Y-15445214D01*
X17339071Y-15445214D02*
X17524786Y-15445214D01*
X17424786Y-15559500D01*
X17467643Y-15559500D01*
X17496214Y-15573786D01*
X17510500Y-15588071D01*
X17524786Y-15616643D01*
X17524786Y-15688071D01*
X17510500Y-15716643D01*
X17496214Y-15730929D01*
X17467643Y-15745214D01*
X17381928Y-15745214D01*
X17353357Y-15730929D01*
X17339071Y-15716643D01*
X17667643Y-15745214D02*
X17724786Y-15745214D01*
X17753357Y-15730929D01*
X17767643Y-15716643D01*
X17796214Y-15673786D01*
X17810500Y-15616643D01*
X17810500Y-15502357D01*
X17796214Y-15473786D01*
X17781928Y-15459500D01*
X17753357Y-15445214D01*
X17696214Y-15445214D01*
X17667643Y-15459500D01*
X17653357Y-15473786D01*
X17639071Y-15502357D01*
X17639071Y-15573786D01*
X17653357Y-15602357D01*
X17667643Y-15616643D01*
X17696214Y-15630929D01*
X17753357Y-15630929D01*
X17781928Y-15616643D01*
X17796214Y-15602357D01*
X17810500Y-15573786D01*
X17924786Y-15445214D02*
X17924786Y-15502357D01*
X18039071Y-15445214D02*
X18039071Y-15502357D01*
X18481928Y-15859500D02*
X18467643Y-15845214D01*
X18439071Y-15802357D01*
X18424786Y-15773786D01*
X18410500Y-15730929D01*
X18396214Y-15659500D01*
X18396214Y-15602357D01*
X18410500Y-15530929D01*
X18424786Y-15488071D01*
X18439071Y-15459500D01*
X18467643Y-15416643D01*
X18481928Y-15402357D01*
X18653357Y-15445214D02*
X18681928Y-15445214D01*
X18710500Y-15459500D01*
X18724786Y-15473786D01*
X18739071Y-15502357D01*
X18753357Y-15559500D01*
X18753357Y-15630929D01*
X18739071Y-15688071D01*
X18724786Y-15716643D01*
X18710500Y-15730929D01*
X18681928Y-15745214D01*
X18653357Y-15745214D01*
X18624786Y-15730929D01*
X18610500Y-15716643D01*
X18596214Y-15688071D01*
X18581928Y-15630929D01*
X18581928Y-15559500D01*
X18596214Y-15502357D01*
X18610500Y-15473786D01*
X18624786Y-15459500D01*
X18653357Y-15445214D01*
X19110500Y-15745214D02*
X19110500Y-15445214D01*
X19239071Y-15745214D02*
X19239071Y-15588071D01*
X19224786Y-15559500D01*
X19196214Y-15545214D01*
X19153357Y-15545214D01*
X19124786Y-15559500D01*
X19110500Y-15573786D01*
X19424786Y-15745214D02*
X19396214Y-15730929D01*
X19381928Y-15716643D01*
X19367643Y-15688071D01*
X19367643Y-15602357D01*
X19381928Y-15573786D01*
X19396214Y-15559500D01*
X19424786Y-15545214D01*
X19467643Y-15545214D01*
X19496214Y-15559500D01*
X19510500Y-15573786D01*
X19524786Y-15602357D01*
X19524786Y-15688071D01*
X19510500Y-15716643D01*
X19496214Y-15730929D01*
X19467643Y-15745214D01*
X19424786Y-15745214D01*
X19696214Y-15745214D02*
X19667643Y-15730929D01*
X19653357Y-15702357D01*
X19653357Y-15445214D01*
X19924786Y-15730929D02*
X19896214Y-15745214D01*
X19839071Y-15745214D01*
X19810500Y-15730929D01*
X19796214Y-15702357D01*
X19796214Y-15588071D01*
X19810500Y-15559500D01*
X19839071Y-15545214D01*
X19896214Y-15545214D01*
X19924786Y-15559500D01*
X19939071Y-15588071D01*
X19939071Y-15616643D01*
X19796214Y-15645214D01*
X20053357Y-15730929D02*
X20081929Y-15745214D01*
X20139071Y-15745214D01*
X20167643Y-15730929D01*
X20181929Y-15702357D01*
X20181929Y-15688071D01*
X20167643Y-15659500D01*
X20139071Y-15645214D01*
X20096214Y-15645214D01*
X20067643Y-15630929D01*
X20053357Y-15602357D01*
X20053357Y-15588071D01*
X20067643Y-15559500D01*
X20096214Y-15545214D01*
X20139071Y-15545214D01*
X20167643Y-15559500D01*
X20539071Y-15630929D02*
X20767643Y-15630929D01*
X20653357Y-15745214D02*
X20653357Y-15516643D01*
X21110500Y-15445214D02*
X21296214Y-15445214D01*
X21196214Y-15559500D01*
X21239071Y-15559500D01*
X21267643Y-15573786D01*
X21281928Y-15588071D01*
X21296214Y-15616643D01*
X21296214Y-15688071D01*
X21281928Y-15716643D01*
X21267643Y-15730929D01*
X21239071Y-15745214D01*
X21153357Y-15745214D01*
X21124786Y-15730929D01*
X21110500Y-15716643D01*
X21639071Y-15730929D02*
X21667643Y-15745214D01*
X21724786Y-15745214D01*
X21753357Y-15730929D01*
X21767643Y-15702357D01*
X21767643Y-15688071D01*
X21753357Y-15659500D01*
X21724786Y-15645214D01*
X21681928Y-15645214D01*
X21653357Y-15630929D01*
X21639071Y-15602357D01*
X21639071Y-15588071D01*
X21653357Y-15559500D01*
X21681928Y-15545214D01*
X21724786Y-15545214D01*
X21753357Y-15559500D01*
X21939071Y-15745214D02*
X21910500Y-15730929D01*
X21896214Y-15702357D01*
X21896214Y-15445214D01*
X22096214Y-15745214D02*
X22067643Y-15730929D01*
X22053357Y-15716643D01*
X22039071Y-15688071D01*
X22039071Y-15602357D01*
X22053357Y-15573786D01*
X22067643Y-15559500D01*
X22096214Y-15545214D01*
X22139071Y-15545214D01*
X22167643Y-15559500D01*
X22181928Y-15573786D01*
X22196214Y-15602357D01*
X22196214Y-15688071D01*
X22181928Y-15716643D01*
X22167643Y-15730929D01*
X22139071Y-15745214D01*
X22096214Y-15745214D01*
X22281928Y-15545214D02*
X22396214Y-15545214D01*
X22324786Y-15445214D02*
X22324786Y-15702357D01*
X22339071Y-15730929D01*
X22367643Y-15745214D01*
X22396214Y-15745214D01*
X22481928Y-15730929D02*
X22510500Y-15745214D01*
X22567643Y-15745214D01*
X22596214Y-15730929D01*
X22610500Y-15702357D01*
X22610500Y-15688071D01*
X22596214Y-15659500D01*
X22567643Y-15645214D01*
X22524786Y-15645214D01*
X22496214Y-15630929D01*
X22481928Y-15602357D01*
X22481928Y-15588071D01*
X22496214Y-15559500D01*
X22524786Y-15545214D01*
X22567643Y-15545214D01*
X22596214Y-15559500D01*
X22710500Y-15859500D02*
X22724786Y-15845214D01*
X22753357Y-15802357D01*
X22767643Y-15773786D01*
X22781928Y-15730929D01*
X22796214Y-15659500D01*
X22796214Y-15602357D01*
X22781928Y-15530929D01*
X22767643Y-15488071D01*
X22753357Y-15459500D01*
X22724786Y-15416643D01*
X22710500Y-15402357D01*
X13708900Y-15954700D02*
X13810500Y-16056300D01*
X13810500Y-15954700D02*
X13708900Y-16056300D01*
X13759700Y-15954700D02*
X13759700Y-16056300D01*
X13708900Y-16005500D02*
X13810500Y-16005500D01*
X14239071Y-16141214D02*
X14067643Y-16141214D01*
X14153357Y-16141214D02*
X14153357Y-15841214D01*
X14124786Y-15884071D01*
X14096214Y-15912643D01*
X14067643Y-15926929D01*
X14367643Y-16112643D02*
X14381928Y-16126929D01*
X14367643Y-16141214D01*
X14353357Y-16126929D01*
X14367643Y-16112643D01*
X14367643Y-16141214D01*
X14567643Y-15841214D02*
X14596214Y-15841214D01*
X14624786Y-15855500D01*
X14639071Y-15869786D01*
X14653357Y-15898357D01*
X14667643Y-15955500D01*
X14667643Y-16026929D01*
X14653357Y-16084071D01*
X14639071Y-16112643D01*
X14624786Y-16126929D01*
X14596214Y-16141214D01*
X14567643Y-16141214D01*
X14539071Y-16126929D01*
X14524786Y-16112643D01*
X14510500Y-16084071D01*
X14496214Y-16026929D01*
X14496214Y-15955500D01*
X14510500Y-15898357D01*
X14524786Y-15869786D01*
X14539071Y-15855500D01*
X14567643Y-15841214D01*
X14781928Y-15869786D02*
X14796214Y-15855500D01*
X14824786Y-15841214D01*
X14896214Y-15841214D01*
X14924786Y-15855500D01*
X14939071Y-15869786D01*
X14953357Y-15898357D01*
X14953357Y-15926929D01*
X14939071Y-15969786D01*
X14767643Y-16141214D01*
X14953357Y-16141214D01*
X15081928Y-16141214D02*
X15081928Y-15941214D01*
X15081928Y-15969786D02*
X15096214Y-15955500D01*
X15124786Y-15941214D01*
X15167643Y-15941214D01*
X15196214Y-15955500D01*
X15210500Y-15984071D01*
X15210500Y-16141214D01*
X15210500Y-15984071D02*
X15224786Y-15955500D01*
X15253357Y-15941214D01*
X15296214Y-15941214D01*
X15324786Y-15955500D01*
X15339071Y-15984071D01*
X15339071Y-16141214D01*
X15481928Y-16141214D02*
X15481928Y-15941214D01*
X15481928Y-15969786D02*
X15496214Y-15955500D01*
X15524786Y-15941214D01*
X15567643Y-15941214D01*
X15596214Y-15955500D01*
X15610500Y-15984071D01*
X15610500Y-16141214D01*
X15610500Y-15984071D02*
X15624786Y-15955500D01*
X15653357Y-15941214D01*
X15696214Y-15941214D01*
X15724786Y-15955500D01*
X15739071Y-15984071D01*
X15739071Y-16141214D01*
X16324786Y-15826929D02*
X16067643Y-16212643D01*
X16710500Y-15841214D02*
X16739071Y-15841214D01*
X16767643Y-15855500D01*
X16781928Y-15869786D01*
X16796214Y-15898357D01*
X16810500Y-15955500D01*
X16810500Y-16026929D01*
X16796214Y-16084071D01*
X16781928Y-16112643D01*
X16767643Y-16126929D01*
X16739071Y-16141214D01*
X16710500Y-16141214D01*
X16681928Y-16126929D01*
X16667643Y-16112643D01*
X16653357Y-16084071D01*
X16639071Y-16026929D01*
X16639071Y-15955500D01*
X16653357Y-15898357D01*
X16667643Y-15869786D01*
X16681928Y-15855500D01*
X16710500Y-15841214D01*
X16939071Y-16112643D02*
X16953357Y-16126929D01*
X16939071Y-16141214D01*
X16924786Y-16126929D01*
X16939071Y-16112643D01*
X16939071Y-16141214D01*
X17139071Y-15841214D02*
X17167643Y-15841214D01*
X17196214Y-15855500D01*
X17210500Y-15869786D01*
X17224786Y-15898357D01*
X17239071Y-15955500D01*
X17239071Y-16026929D01*
X17224786Y-16084071D01*
X17210500Y-16112643D01*
X17196214Y-16126929D01*
X17167643Y-16141214D01*
X17139071Y-16141214D01*
X17110500Y-16126929D01*
X17096214Y-16112643D01*
X17081928Y-16084071D01*
X17067643Y-16026929D01*
X17067643Y-15955500D01*
X17081928Y-15898357D01*
X17096214Y-15869786D01*
X17110500Y-15855500D01*
X17139071Y-15841214D01*
X17496214Y-15941214D02*
X17496214Y-16141214D01*
X17424786Y-15826929D02*
X17353357Y-16041214D01*
X17539071Y-16041214D01*
X17710500Y-15841214D02*
X17739071Y-15841214D01*
X17767643Y-15855500D01*
X17781928Y-15869786D01*
X17796214Y-15898357D01*
X17810500Y-15955500D01*
X17810500Y-16026929D01*
X17796214Y-16084071D01*
X17781928Y-16112643D01*
X17767643Y-16126929D01*
X17739071Y-16141214D01*
X17710500Y-16141214D01*
X17681928Y-16126929D01*
X17667643Y-16112643D01*
X17653357Y-16084071D01*
X17639071Y-16026929D01*
X17639071Y-15955500D01*
X17653357Y-15898357D01*
X17667643Y-15869786D01*
X17681928Y-15855500D01*
X17710500Y-15841214D01*
X17924786Y-15841214D02*
X17924786Y-15898357D01*
X18039071Y-15841214D02*
X18039071Y-15898357D01*
X18481928Y-16255500D02*
X18467643Y-16241214D01*
X18439071Y-16198357D01*
X18424786Y-16169786D01*
X18410500Y-16126929D01*
X18396214Y-16055500D01*
X18396214Y-15998357D01*
X18410500Y-15926929D01*
X18424786Y-15884071D01*
X18439071Y-15855500D01*
X18467643Y-15812643D01*
X18481928Y-15798357D01*
X18639071Y-15969786D02*
X18610500Y-15955500D01*
X18596214Y-15941214D01*
X18581928Y-15912643D01*
X18581928Y-15898357D01*
X18596214Y-15869786D01*
X18610500Y-15855500D01*
X18639071Y-15841214D01*
X18696214Y-15841214D01*
X18724786Y-15855500D01*
X18739071Y-15869786D01*
X18753357Y-15898357D01*
X18753357Y-15912643D01*
X18739071Y-15941214D01*
X18724786Y-15955500D01*
X18696214Y-15969786D01*
X18639071Y-15969786D01*
X18610500Y-15984071D01*
X18596214Y-15998357D01*
X18581928Y-16026929D01*
X18581928Y-16084071D01*
X18596214Y-16112643D01*
X18610500Y-16126929D01*
X18639071Y-16141214D01*
X18696214Y-16141214D01*
X18724786Y-16126929D01*
X18739071Y-16112643D01*
X18753357Y-16084071D01*
X18753357Y-16026929D01*
X18739071Y-15998357D01*
X18724786Y-15984071D01*
X18696214Y-15969786D01*
X19110500Y-16141214D02*
X19110500Y-15841214D01*
X19239071Y-16141214D02*
X19239071Y-15984071D01*
X19224786Y-15955500D01*
X19196214Y-15941214D01*
X19153357Y-15941214D01*
X19124786Y-15955500D01*
X19110500Y-15969786D01*
X19424786Y-16141214D02*
X19396214Y-16126929D01*
X19381928Y-16112643D01*
X19367643Y-16084071D01*
X19367643Y-15998357D01*
X19381928Y-15969786D01*
X19396214Y-15955500D01*
X19424786Y-15941214D01*
X19467643Y-15941214D01*
X19496214Y-15955500D01*
X19510500Y-15969786D01*
X19524786Y-15998357D01*
X19524786Y-16084071D01*
X19510500Y-16112643D01*
X19496214Y-16126929D01*
X19467643Y-16141214D01*
X19424786Y-16141214D01*
X19696214Y-16141214D02*
X19667643Y-16126929D01*
X19653357Y-16098357D01*
X19653357Y-15841214D01*
X19924786Y-16126929D02*
X19896214Y-16141214D01*
X19839071Y-16141214D01*
X19810500Y-16126929D01*
X19796214Y-16098357D01*
X19796214Y-15984071D01*
X19810500Y-15955500D01*
X19839071Y-15941214D01*
X19896214Y-15941214D01*
X19924786Y-15955500D01*
X19939071Y-15984071D01*
X19939071Y-16012643D01*
X19796214Y-16041214D01*
X20053357Y-16126929D02*
X20081929Y-16141214D01*
X20139071Y-16141214D01*
X20167643Y-16126929D01*
X20181929Y-16098357D01*
X20181929Y-16084071D01*
X20167643Y-16055500D01*
X20139071Y-16041214D01*
X20096214Y-16041214D01*
X20067643Y-16026929D01*
X20053357Y-15998357D01*
X20053357Y-15984071D01*
X20067643Y-15955500D01*
X20096214Y-15941214D01*
X20139071Y-15941214D01*
X20167643Y-15955500D01*
X20281928Y-16255500D02*
X20296214Y-16241214D01*
X20324786Y-16198357D01*
X20339071Y-16169786D01*
X20353357Y-16126929D01*
X20367643Y-16055500D01*
X20367643Y-15998357D01*
X20353357Y-15926929D01*
X20339071Y-15884071D01*
X20324786Y-15855500D01*
X20296214Y-15812643D01*
X20281928Y-15798357D01*
X13690612Y-16341556D02*
X13810500Y-16461444D01*
X13810500Y-16341556D02*
X13690612Y-16461444D01*
X13792943Y-16443887D02*
X13792943Y-16359113D01*
X13708169Y-16359113D01*
X13708169Y-16443887D01*
X13792943Y-16443887D01*
X14239071Y-16537214D02*
X14067643Y-16537214D01*
X14153357Y-16537214D02*
X14153357Y-16237214D01*
X14124786Y-16280071D01*
X14096214Y-16308643D01*
X14067643Y-16322929D01*
X14367643Y-16508643D02*
X14381928Y-16522929D01*
X14367643Y-16537214D01*
X14353357Y-16522929D01*
X14367643Y-16508643D01*
X14367643Y-16537214D01*
X14496214Y-16265786D02*
X14510500Y-16251500D01*
X14539071Y-16237214D01*
X14610500Y-16237214D01*
X14639071Y-16251500D01*
X14653357Y-16265786D01*
X14667643Y-16294357D01*
X14667643Y-16322929D01*
X14653357Y-16365786D01*
X14481928Y-16537214D01*
X14667643Y-16537214D01*
X14853357Y-16237214D02*
X14881928Y-16237214D01*
X14910500Y-16251500D01*
X14924786Y-16265786D01*
X14939071Y-16294357D01*
X14953357Y-16351500D01*
X14953357Y-16422929D01*
X14939071Y-16480071D01*
X14924786Y-16508643D01*
X14910500Y-16522929D01*
X14881928Y-16537214D01*
X14853357Y-16537214D01*
X14824786Y-16522929D01*
X14810500Y-16508643D01*
X14796214Y-16480071D01*
X14781928Y-16422929D01*
X14781928Y-16351500D01*
X14796214Y-16294357D01*
X14810500Y-16265786D01*
X14824786Y-16251500D01*
X14853357Y-16237214D01*
X15081928Y-16537214D02*
X15081928Y-16337214D01*
X15081928Y-16365786D02*
X15096214Y-16351500D01*
X15124786Y-16337214D01*
X15167643Y-16337214D01*
X15196214Y-16351500D01*
X15210500Y-16380071D01*
X15210500Y-16537214D01*
X15210500Y-16380071D02*
X15224786Y-16351500D01*
X15253357Y-16337214D01*
X15296214Y-16337214D01*
X15324786Y-16351500D01*
X15339071Y-16380071D01*
X15339071Y-16537214D01*
X15481928Y-16537214D02*
X15481928Y-16337214D01*
X15481928Y-16365786D02*
X15496214Y-16351500D01*
X15524786Y-16337214D01*
X15567643Y-16337214D01*
X15596214Y-16351500D01*
X15610500Y-16380071D01*
X15610500Y-16537214D01*
X15610500Y-16380071D02*
X15624786Y-16351500D01*
X15653357Y-16337214D01*
X15696214Y-16337214D01*
X15724786Y-16351500D01*
X15739071Y-16380071D01*
X15739071Y-16537214D01*
X16324786Y-16222929D02*
X16067643Y-16608643D01*
X16710500Y-16237214D02*
X16739071Y-16237214D01*
X16767643Y-16251500D01*
X16781928Y-16265786D01*
X16796214Y-16294357D01*
X16810500Y-16351500D01*
X16810500Y-16422929D01*
X16796214Y-16480071D01*
X16781928Y-16508643D01*
X16767643Y-16522929D01*
X16739071Y-16537214D01*
X16710500Y-16537214D01*
X16681928Y-16522929D01*
X16667643Y-16508643D01*
X16653357Y-16480071D01*
X16639071Y-16422929D01*
X16639071Y-16351500D01*
X16653357Y-16294357D01*
X16667643Y-16265786D01*
X16681928Y-16251500D01*
X16710500Y-16237214D01*
X16939071Y-16508643D02*
X16953357Y-16522929D01*
X16939071Y-16537214D01*
X16924786Y-16522929D01*
X16939071Y-16508643D01*
X16939071Y-16537214D01*
X17139071Y-16237214D02*
X17167643Y-16237214D01*
X17196214Y-16251500D01*
X17210500Y-16265786D01*
X17224786Y-16294357D01*
X17239071Y-16351500D01*
X17239071Y-16422929D01*
X17224786Y-16480071D01*
X17210500Y-16508643D01*
X17196214Y-16522929D01*
X17167643Y-16537214D01*
X17139071Y-16537214D01*
X17110500Y-16522929D01*
X17096214Y-16508643D01*
X17081928Y-16480071D01*
X17067643Y-16422929D01*
X17067643Y-16351500D01*
X17081928Y-16294357D01*
X17096214Y-16265786D01*
X17110500Y-16251500D01*
X17139071Y-16237214D01*
X17496214Y-16337214D02*
X17496214Y-16537214D01*
X17424786Y-16222929D02*
X17353357Y-16437214D01*
X17539071Y-16437214D01*
X17624786Y-16237214D02*
X17824786Y-16237214D01*
X17696214Y-16537214D01*
X17924786Y-16237214D02*
X17924786Y-16294357D01*
X18039071Y-16237214D02*
X18039071Y-16294357D01*
X18481928Y-16651500D02*
X18467643Y-16637214D01*
X18439071Y-16594357D01*
X18424786Y-16565786D01*
X18410500Y-16522929D01*
X18396214Y-16451500D01*
X18396214Y-16394357D01*
X18410500Y-16322929D01*
X18424786Y-16280071D01*
X18439071Y-16251500D01*
X18467643Y-16208643D01*
X18481928Y-16194357D01*
X18581928Y-16265786D02*
X18596214Y-16251500D01*
X18624786Y-16237214D01*
X18696214Y-16237214D01*
X18724786Y-16251500D01*
X18739071Y-16265786D01*
X18753357Y-16294357D01*
X18753357Y-16322929D01*
X18739071Y-16365786D01*
X18567643Y-16537214D01*
X18753357Y-16537214D01*
X19110500Y-16537214D02*
X19110500Y-16237214D01*
X19239071Y-16537214D02*
X19239071Y-16380071D01*
X19224786Y-16351500D01*
X19196214Y-16337214D01*
X19153357Y-16337214D01*
X19124786Y-16351500D01*
X19110500Y-16365786D01*
X19424786Y-16537214D02*
X19396214Y-16522929D01*
X19381928Y-16508643D01*
X19367643Y-16480071D01*
X19367643Y-16394357D01*
X19381928Y-16365786D01*
X19396214Y-16351500D01*
X19424786Y-16337214D01*
X19467643Y-16337214D01*
X19496214Y-16351500D01*
X19510500Y-16365786D01*
X19524786Y-16394357D01*
X19524786Y-16480071D01*
X19510500Y-16508643D01*
X19496214Y-16522929D01*
X19467643Y-16537214D01*
X19424786Y-16537214D01*
X19696214Y-16537214D02*
X19667643Y-16522929D01*
X19653357Y-16494357D01*
X19653357Y-16237214D01*
X19924786Y-16522929D02*
X19896214Y-16537214D01*
X19839071Y-16537214D01*
X19810500Y-16522929D01*
X19796214Y-16494357D01*
X19796214Y-16380071D01*
X19810500Y-16351500D01*
X19839071Y-16337214D01*
X19896214Y-16337214D01*
X19924786Y-16351500D01*
X19939071Y-16380071D01*
X19939071Y-16408643D01*
X19796214Y-16437214D01*
X20053357Y-16522929D02*
X20081929Y-16537214D01*
X20139071Y-16537214D01*
X20167643Y-16522929D01*
X20181929Y-16494357D01*
X20181929Y-16480071D01*
X20167643Y-16451500D01*
X20139071Y-16437214D01*
X20096214Y-16437214D01*
X20067643Y-16422929D01*
X20053357Y-16394357D01*
X20053357Y-16380071D01*
X20067643Y-16351500D01*
X20096214Y-16337214D01*
X20139071Y-16337214D01*
X20167643Y-16351500D01*
X20281928Y-16651500D02*
X20296214Y-16637214D01*
X20324786Y-16594357D01*
X20339071Y-16565786D01*
X20353357Y-16522929D01*
X20367643Y-16451500D01*
X20367643Y-16394357D01*
X20353357Y-16322929D01*
X20339071Y-16280071D01*
X20324786Y-16251500D01*
X20296214Y-16208643D01*
X20281928Y-16194357D01*
M02*
