G04 #@! TF.FileFunction,Copper,L2,Bot,Signal*
%FSLAX46Y46*%
G04 Gerber Fmt 4.6, Leading zero omitted, Abs format (unit mm)*
G04 Created by KiCad (PCBNEW (2015-08-28 BZR 6132, Git 156d5f5)-product) date 30-Aug-15 1:46:12 AM*
%MOMM*%
G01*
G04 APERTURE LIST*
%ADD10C,0.100000*%
%ADD11R,0.406400X1.270000*%
%ADD12R,1.501140X2.999740*%
%ADD13R,2.000000X1.600000*%
%ADD14C,1.501140*%
%ADD15R,3.500120X3.500120*%
%ADD16R,2.032000X1.727200*%
%ADD17O,2.032000X1.727200*%
%ADD18R,0.400000X1.350000*%
%ADD19O,1.250000X0.950000*%
%ADD20O,1.000000X1.550000*%
%ADD21R,0.800100X0.800100*%
%ADD22R,2.000000X1.700000*%
%ADD23R,1.700000X2.000000*%
%ADD24C,1.524000*%
%ADD25R,2.032000X3.657600*%
%ADD26R,2.032000X1.016000*%
%ADD27O,2.499360X1.998980*%
%ADD28C,0.762000*%
%ADD29C,0.177800*%
%ADD30C,0.254000*%
G04 APERTURE END LIST*
D10*
D11*
X151596280Y-115891040D03*
X150961280Y-115891040D03*
X150300880Y-115891040D03*
X149640480Y-115891040D03*
X149005480Y-115891040D03*
X148345080Y-115891040D03*
X147684680Y-115891040D03*
X147049680Y-115891040D03*
X146389280Y-115891040D03*
X145754280Y-115891040D03*
X145754280Y-110557040D03*
X146389280Y-110557040D03*
X147049680Y-110557040D03*
X147684680Y-110557040D03*
X148345080Y-110557040D03*
X149005480Y-110557040D03*
X149640480Y-110557040D03*
X150300880Y-110557040D03*
X150961280Y-110557040D03*
X151596280Y-110557040D03*
D12*
X163315840Y-110889780D03*
X163315840Y-114887740D03*
X155071000Y-110905020D03*
X155071000Y-114902980D03*
D13*
X146619400Y-107468400D03*
X150619400Y-107468400D03*
X146675280Y-118867920D03*
X150675280Y-118867920D03*
D14*
X159262000Y-112015000D03*
X159262000Y-114555000D03*
D13*
X168247000Y-90806000D03*
X164247000Y-90806000D03*
D15*
X168660000Y-115593860D03*
X168660000Y-121593340D03*
X173359000Y-118593600D03*
D16*
X171885800Y-104699800D03*
D17*
X171885800Y-107239800D03*
X171885800Y-109779800D03*
D18*
X147182180Y-121719900D03*
X146532180Y-121719900D03*
X145882180Y-121719900D03*
X145232180Y-121719900D03*
X144582180Y-121719900D03*
D19*
X148382180Y-121719900D03*
X143382180Y-121719900D03*
D20*
X149382180Y-124419900D03*
X142382180Y-124419900D03*
D16*
X141228000Y-80011000D03*
D17*
X141228000Y-82551000D03*
X141228000Y-85091000D03*
X141228000Y-87631000D03*
X141228000Y-90171000D03*
D21*
X153562240Y-83755000D03*
X153562240Y-81855000D03*
X155561220Y-82805000D03*
X153562240Y-89724000D03*
X153562240Y-87824000D03*
X155561220Y-88774000D03*
D22*
X148943000Y-97918000D03*
X144943000Y-97918000D03*
D23*
X160278000Y-96235000D03*
X160278000Y-92235000D03*
D22*
X148943000Y-80265000D03*
X144943000Y-80265000D03*
X148816000Y-93854000D03*
X144816000Y-93854000D03*
X148943000Y-84964000D03*
X144943000Y-84964000D03*
X148943000Y-89409000D03*
X144943000Y-89409000D03*
D23*
X160405000Y-87345000D03*
X160405000Y-83345000D03*
D24*
X169549000Y-79122000D03*
X172089000Y-79122000D03*
X167009000Y-79122000D03*
D25*
X161672460Y-121829560D03*
D26*
X155068460Y-121829560D03*
X155068460Y-119543560D03*
X155068460Y-124115560D03*
D27*
X141410880Y-111733060D03*
X141410880Y-116614940D03*
D28*
X147578000Y-117222000D03*
X173359000Y-118593600D03*
X168660000Y-121593340D03*
X150626000Y-119000000D03*
X158754000Y-82932000D03*
X155198000Y-110872000D03*
X164342000Y-92330000D03*
X155960000Y-100458000D03*
X150910430Y-97158320D03*
X152912000Y-116460000D03*
X141736000Y-102998000D03*
X146308000Y-117222000D03*
X168660000Y-115593860D03*
X168406000Y-90806000D03*
X159516000Y-108840000D03*
X160278000Y-96140000D03*
X146562000Y-107316000D03*
X157250410Y-91185488D03*
X162564000Y-87504000D03*
X149102000Y-98426000D03*
X146054000Y-87250000D03*
X149696232Y-112976606D03*
X148256123Y-112890009D03*
X153674000Y-89536000D03*
D29*
X147578000Y-117222000D02*
X147578000Y-115997720D01*
X147578000Y-115997720D02*
X147684680Y-115891040D01*
X155068460Y-124115560D02*
X149686520Y-124115560D01*
X149686520Y-124115560D02*
X149382180Y-124419900D01*
X158754000Y-82932000D02*
X159167000Y-83345000D01*
X159167000Y-83345000D02*
X160405000Y-83345000D01*
X164342000Y-92330000D02*
X164342000Y-90901000D01*
X164342000Y-90901000D02*
X164247000Y-90806000D01*
X155960000Y-100458000D02*
X155960000Y-89172780D01*
X155960000Y-89172780D02*
X155561220Y-88774000D01*
X155561220Y-88774000D02*
X155561220Y-82805000D01*
X150910430Y-97158320D02*
X152660320Y-97158320D01*
X152660320Y-97158320D02*
X155960000Y-100458000D01*
X150910430Y-97158320D02*
X150620430Y-97158320D01*
X150620430Y-97158320D02*
X150263409Y-96801299D01*
X150263409Y-96801299D02*
X147237501Y-96801299D01*
X147237501Y-96801299D02*
X146120800Y-97918000D01*
X146120800Y-97918000D02*
X144943000Y-97918000D01*
X152912000Y-116460000D02*
X152165240Y-116460000D01*
X152165240Y-116460000D02*
X151596280Y-115891040D01*
X144943000Y-97918000D02*
X144943000Y-99791000D01*
X144943000Y-99791000D02*
X141736000Y-102998000D01*
X142382180Y-124419900D02*
X149382180Y-124419900D01*
X148382180Y-121719900D02*
X148382180Y-124097700D01*
X148382180Y-124097700D02*
X148704380Y-124419900D01*
X148704380Y-124419900D02*
X149382180Y-124419900D01*
X145232180Y-121719900D02*
X144582180Y-121719900D01*
X143382180Y-121719900D02*
X145232180Y-121719900D01*
X142382180Y-124419900D02*
X142382180Y-122569900D01*
X142382180Y-122569900D02*
X143232180Y-121719900D01*
X143232180Y-121719900D02*
X143382180Y-121719900D01*
X160405000Y-83345000D02*
X156101220Y-83345000D01*
X156101220Y-83345000D02*
X155561220Y-82805000D01*
X147049680Y-115891040D02*
X147049680Y-116480320D01*
X147049680Y-116480320D02*
X146308000Y-117222000D01*
X168406000Y-90267185D02*
X168406000Y-90806000D01*
X168406000Y-78493613D02*
X168406000Y-90267185D01*
X159348370Y-77737688D02*
X167650075Y-77737688D01*
X154894469Y-82191589D02*
X159348370Y-77737688D01*
X167650075Y-77737688D02*
X168406000Y-78493613D01*
X158443103Y-82030299D02*
X161420361Y-82030299D01*
X168025001Y-91186999D02*
X168406000Y-90806000D01*
X165710299Y-93501701D02*
X168025001Y-91186999D01*
X161420361Y-82030299D02*
X161521701Y-82131639D01*
X159341639Y-84611701D02*
X156569609Y-87383731D01*
X154894469Y-82191589D02*
X155007759Y-82078299D01*
X158650609Y-93501701D02*
X165710299Y-93501701D01*
X155007759Y-82078299D02*
X158395103Y-82078299D01*
X158395103Y-82078299D02*
X158443103Y-82030299D01*
X161521701Y-82131639D02*
X161521701Y-84558361D01*
X161521701Y-84558361D02*
X161468361Y-84611701D01*
X161468361Y-84611701D02*
X159341639Y-84611701D01*
X156569609Y-87383731D02*
X156569609Y-91420701D01*
X156569609Y-91420701D02*
X158650609Y-93501701D01*
X150530391Y-94970701D02*
X154894469Y-90606623D01*
X154894469Y-90606623D02*
X154894469Y-82191589D01*
X147110501Y-94970701D02*
X150530391Y-94970701D01*
X145993800Y-93854000D02*
X147110501Y-94970701D01*
X144816000Y-93854000D02*
X145993800Y-93854000D01*
X154894469Y-90105593D02*
X154894469Y-82191589D01*
X150029361Y-94970701D02*
X154894469Y-90105593D01*
X147602639Y-94970701D02*
X150029361Y-94970701D01*
X144943000Y-92311062D02*
X147602639Y-94970701D01*
X144943000Y-89409000D02*
X144943000Y-92311062D01*
X144943000Y-89409000D02*
X144943000Y-93727000D01*
X144943000Y-93727000D02*
X144816000Y-93854000D01*
X141228000Y-85091000D02*
X141380400Y-85091000D01*
X141380400Y-85091000D02*
X144943000Y-88653600D01*
X144943000Y-88653600D02*
X144943000Y-89409000D01*
X168247000Y-90806000D02*
X168447000Y-90806000D01*
X168447000Y-90806000D02*
X173168501Y-95527501D01*
X173168501Y-95527501D02*
X173168501Y-106109499D01*
X173168501Y-106109499D02*
X172038200Y-107239800D01*
X172038200Y-107239800D02*
X171885800Y-107239800D01*
X164085460Y-114887740D02*
X163315840Y-114887740D01*
X171733400Y-107239800D02*
X164085460Y-114887740D01*
X171885800Y-107239800D02*
X171733400Y-107239800D01*
X163315840Y-114887740D02*
X162387470Y-114887740D01*
X162387470Y-114887740D02*
X157731650Y-119543560D01*
X157731650Y-119543560D02*
X156262260Y-119543560D01*
X156262260Y-119543560D02*
X155068460Y-119543560D01*
X153559701Y-115924061D02*
X152538620Y-114902980D01*
X153559701Y-116770897D02*
X153559701Y-115924061D01*
X153222897Y-117107701D02*
X153559701Y-116770897D01*
X150044341Y-117107701D02*
X153222897Y-117107701D01*
X149640480Y-116703840D02*
X150044341Y-117107701D01*
X155071000Y-114902980D02*
X155071000Y-113635522D01*
X155071000Y-113635522D02*
X159516000Y-109190522D01*
X159516000Y-109190522D02*
X159516000Y-108840000D01*
X155071000Y-116580650D02*
X155071000Y-114902980D01*
X153430148Y-118221502D02*
X155071000Y-116580650D01*
X154560460Y-121829560D02*
X153430148Y-120699248D01*
X155068460Y-121829560D02*
X154560460Y-121829560D01*
X153430148Y-120699248D02*
X153430148Y-118221502D01*
X149640480Y-115891040D02*
X149640480Y-116703840D01*
X152538620Y-114902980D02*
X154142630Y-114902980D01*
X149005480Y-111369840D02*
X152538620Y-114902980D01*
X149005480Y-110557040D02*
X149005480Y-111369840D01*
X154142630Y-114902980D02*
X155071000Y-114902980D01*
X146675280Y-118867920D02*
X147853080Y-118867920D01*
X147853080Y-118867920D02*
X149640480Y-117080520D01*
X149640480Y-117080520D02*
X149640480Y-116703840D01*
X146562000Y-107316000D02*
X149005480Y-109759480D01*
X149005480Y-109759480D02*
X149005480Y-110557040D01*
X160163702Y-108529102D02*
X159909702Y-108275102D01*
X160163702Y-109150898D02*
X160163702Y-108529102D01*
X156297821Y-113016779D02*
X160163702Y-109150898D01*
X153785759Y-118822199D02*
X156297821Y-116310137D01*
X161033398Y-104699800D02*
X171885800Y-104699800D01*
X153785759Y-120264921D02*
X153785759Y-118822199D01*
X153839099Y-120318261D02*
X153785759Y-120264921D01*
X156297821Y-120318261D02*
X153839099Y-120318261D01*
X156401959Y-120422399D02*
X156297821Y-120318261D01*
X156401959Y-122604261D02*
X156401959Y-120422399D01*
X159909702Y-108275102D02*
X159909702Y-105823496D01*
X159909702Y-105823496D02*
X161033398Y-104699800D01*
X152101938Y-120867100D02*
X153839099Y-122604261D01*
X153839099Y-122604261D02*
X156401959Y-122604261D01*
X156297821Y-116310137D02*
X156297821Y-113016779D01*
X147559980Y-120867100D02*
X152101938Y-120867100D01*
X147182180Y-121244900D02*
X147559980Y-120867100D01*
X147182180Y-121719900D02*
X147182180Y-121244900D01*
X168037701Y-78628223D02*
X167502777Y-78093299D01*
X157250410Y-88169528D02*
X157250410Y-90646673D01*
X167502777Y-78093299D02*
X166515223Y-78093299D01*
X161018793Y-86078299D02*
X159341639Y-86078299D01*
X165980299Y-81116793D02*
X161018793Y-86078299D01*
X165980299Y-78628223D02*
X165980299Y-81116793D01*
X159341639Y-86078299D02*
X157250410Y-88169528D01*
X157250410Y-90646673D02*
X157250410Y-91185488D01*
X166515223Y-78093299D02*
X165980299Y-78628223D01*
X168037701Y-82030299D02*
X168037701Y-78628223D01*
X162564000Y-87504000D02*
X168037701Y-82030299D01*
X144943000Y-80265000D02*
X144943000Y-81292800D01*
X144943000Y-81292800D02*
X143676299Y-82559501D01*
X143676299Y-82559501D02*
X143676299Y-86027361D01*
X143676299Y-86027361D02*
X144898938Y-87250000D01*
X144898938Y-87250000D02*
X146054000Y-87250000D01*
X150077231Y-113357605D02*
X149696232Y-112976606D01*
X150961280Y-114241654D02*
X150077231Y-113357605D01*
X150961280Y-115891040D02*
X150961280Y-114241654D01*
X148637122Y-113271008D02*
X148256123Y-112890009D01*
X150300880Y-115891040D02*
X150300880Y-114934766D01*
X150300880Y-114934766D02*
X148637122Y-113271008D01*
X146532180Y-121004882D02*
X145284379Y-119757081D01*
X146532180Y-121719900D02*
X146532180Y-121004882D01*
X145284379Y-119757081D02*
X145284379Y-115042679D01*
X145284379Y-115042679D02*
X145337719Y-114989339D01*
X145337719Y-114989339D02*
X148256179Y-114989339D01*
X148256179Y-114989339D02*
X148345080Y-115078240D01*
X148345080Y-115078240D02*
X148345080Y-115891040D01*
X146532180Y-120867100D02*
X146532180Y-121719900D01*
X148560968Y-114633728D02*
X149005480Y-115078240D01*
X145882180Y-121719900D02*
X145882180Y-120857791D01*
X145190421Y-114633728D02*
X148560968Y-114633728D01*
X144928768Y-114895381D02*
X145190421Y-114633728D01*
X145882180Y-120857791D02*
X144928768Y-119904379D01*
X144928768Y-119904379D02*
X144928768Y-114895381D01*
X149005480Y-115078240D02*
X149005480Y-115891040D01*
X148816000Y-92826200D02*
X148816000Y-93854000D01*
X147676299Y-87547299D02*
X147676299Y-91686499D01*
X145093000Y-84964000D02*
X147676299Y-87547299D01*
X144943000Y-84964000D02*
X145093000Y-84964000D01*
X147676299Y-91686499D02*
X148816000Y-92826200D01*
X145124200Y-83755000D02*
X144943000Y-83936200D01*
X153562240Y-83755000D02*
X145124200Y-83755000D01*
X144943000Y-83936200D02*
X144943000Y-84964000D01*
X153562240Y-81855000D02*
X149505200Y-81855000D01*
X149505200Y-81855000D02*
X148943000Y-81292800D01*
X148943000Y-81292800D02*
X148943000Y-80265000D01*
X148943000Y-89409000D02*
X153547000Y-89409000D01*
X153547000Y-89409000D02*
X153674000Y-89536000D01*
X153674000Y-89536000D02*
X153674000Y-89612240D01*
X153674000Y-89612240D02*
X153562240Y-89724000D01*
X148943000Y-84964000D02*
X151280090Y-84964000D01*
X151280090Y-84964000D02*
X153562240Y-87246150D01*
X153562240Y-87246150D02*
X153562240Y-87824000D01*
X160278000Y-92235000D02*
X160278000Y-87472000D01*
X160278000Y-87472000D02*
X160405000Y-87345000D01*
X167009000Y-80591000D02*
X167009000Y-79122000D01*
X160405000Y-87195000D02*
X167009000Y-80591000D01*
X160405000Y-87345000D02*
X160405000Y-87195000D01*
D30*
G36*
X160797801Y-83887801D02*
X159341639Y-83887801D01*
X159064614Y-83942905D01*
X158829764Y-84099826D01*
X158829762Y-84099829D01*
X156057734Y-86871856D01*
X155900813Y-87106706D01*
X155900813Y-87106707D01*
X155845708Y-87383731D01*
X155845709Y-87383736D01*
X155845709Y-91420696D01*
X155845708Y-91420701D01*
X155867430Y-91529900D01*
X155900813Y-91697726D01*
X155996757Y-91841317D01*
X156057734Y-91932576D01*
X158138732Y-94013573D01*
X158138734Y-94013576D01*
X158373584Y-94170497D01*
X158650609Y-94225601D01*
X165710294Y-94225601D01*
X165710299Y-94225602D01*
X165941362Y-94179640D01*
X165987324Y-94170497D01*
X166222174Y-94013576D01*
X167982310Y-92253440D01*
X168870690Y-92253440D01*
X172444601Y-95827350D01*
X172444601Y-103188760D01*
X170869800Y-103188760D01*
X170634483Y-103233038D01*
X170418359Y-103372110D01*
X170273369Y-103584310D01*
X170222360Y-103836200D01*
X170222360Y-103975900D01*
X161033398Y-103975900D01*
X160756373Y-104031004D01*
X160521523Y-104187925D01*
X159397827Y-105311621D01*
X159240906Y-105546471D01*
X159240906Y-105546472D01*
X159185801Y-105823496D01*
X159185802Y-105823501D01*
X159185802Y-107877122D01*
X158941234Y-107978175D01*
X158655179Y-108263731D01*
X158500176Y-108637018D01*
X158499824Y-109041208D01*
X158541266Y-109141506D01*
X154927102Y-112755670D01*
X154320430Y-112755670D01*
X154085113Y-112799948D01*
X153868989Y-112939020D01*
X153723999Y-113151220D01*
X153672990Y-113403110D01*
X153672990Y-114179080D01*
X152838469Y-114179080D01*
X150498870Y-111839480D01*
X150504080Y-111839480D01*
X150635742Y-111814706D01*
X150758080Y-111839480D01*
X151164480Y-111839480D01*
X151282976Y-111817183D01*
X151393080Y-111839480D01*
X151799480Y-111839480D01*
X152034797Y-111795202D01*
X152250921Y-111656130D01*
X152395911Y-111443930D01*
X152446920Y-111192040D01*
X152446920Y-109922040D01*
X152402642Y-109686723D01*
X152263570Y-109470599D01*
X152051370Y-109325609D01*
X151799480Y-109274600D01*
X151393080Y-109274600D01*
X151274584Y-109296897D01*
X151164480Y-109274600D01*
X150758080Y-109274600D01*
X150626418Y-109299374D01*
X150504080Y-109274600D01*
X150097680Y-109274600D01*
X149966018Y-109299374D01*
X149843680Y-109274600D01*
X149535392Y-109274600D01*
X149517355Y-109247605D01*
X149517352Y-109247603D01*
X148266840Y-107997090D01*
X148266840Y-106668400D01*
X148222562Y-106433083D01*
X148083490Y-106216959D01*
X147871290Y-106071969D01*
X147619400Y-106020960D01*
X145619400Y-106020960D01*
X145384083Y-106065238D01*
X145167959Y-106204310D01*
X145022969Y-106416510D01*
X144971960Y-106668400D01*
X144971960Y-108268400D01*
X145016238Y-108503717D01*
X145155310Y-108719841D01*
X145367510Y-108864831D01*
X145619400Y-108915840D01*
X147138090Y-108915840D01*
X147496851Y-109274600D01*
X147481480Y-109274600D01*
X147362984Y-109296897D01*
X147252880Y-109274600D01*
X146846480Y-109274600D01*
X146714818Y-109299374D01*
X146592480Y-109274600D01*
X146186080Y-109274600D01*
X146067584Y-109296897D01*
X145957480Y-109274600D01*
X145551080Y-109274600D01*
X145315763Y-109318878D01*
X145099639Y-109457950D01*
X144954649Y-109670150D01*
X144903640Y-109922040D01*
X144903640Y-111192040D01*
X144947918Y-111427357D01*
X145086990Y-111643481D01*
X145299190Y-111788471D01*
X145551080Y-111839480D01*
X145957480Y-111839480D01*
X146075976Y-111817183D01*
X146186080Y-111839480D01*
X146592480Y-111839480D01*
X146724142Y-111814706D01*
X146846480Y-111839480D01*
X147252880Y-111839480D01*
X147371376Y-111817183D01*
X147481480Y-111839480D01*
X147887880Y-111839480D01*
X148019542Y-111814706D01*
X148141880Y-111839480D01*
X148465385Y-111839480D01*
X148493605Y-111881715D01*
X148505226Y-111893336D01*
X148459105Y-111874185D01*
X148054915Y-111873833D01*
X147681357Y-112028184D01*
X147395302Y-112313740D01*
X147240299Y-112687027D01*
X147239947Y-113091217D01*
X147394298Y-113464775D01*
X147679854Y-113750830D01*
X148053141Y-113905833D01*
X148248367Y-113906003D01*
X148252192Y-113909828D01*
X145190421Y-113909828D01*
X144913396Y-113964932D01*
X144678546Y-114121853D01*
X144678544Y-114121856D01*
X144416893Y-114383506D01*
X144259972Y-114618356D01*
X144258460Y-114625956D01*
X144204867Y-114895381D01*
X144204868Y-114895386D01*
X144204868Y-119904374D01*
X144204867Y-119904379D01*
X144234144Y-120051560D01*
X144259972Y-120181404D01*
X144363327Y-120336086D01*
X144416893Y-120416254D01*
X145036559Y-121035919D01*
X145034740Y-121044900D01*
X145034740Y-122394900D01*
X145079018Y-122630217D01*
X145218090Y-122846341D01*
X145430290Y-122991331D01*
X145682180Y-123042340D01*
X146082180Y-123042340D01*
X146211769Y-123017956D01*
X146332180Y-123042340D01*
X146732180Y-123042340D01*
X146861769Y-123017956D01*
X146982180Y-123042340D01*
X147382180Y-123042340D01*
X147617497Y-122998062D01*
X147833621Y-122858990D01*
X147978611Y-122646790D01*
X148029620Y-122394900D01*
X148029620Y-121591000D01*
X151802088Y-121591000D01*
X153327222Y-123116133D01*
X153327224Y-123116136D01*
X153484146Y-123220987D01*
X153513718Y-123240746D01*
X140212706Y-123443043D01*
X140242700Y-117954242D01*
X140498275Y-118125012D01*
X141123767Y-118249430D01*
X141697993Y-118249430D01*
X142323485Y-118125012D01*
X142853752Y-117770699D01*
X143208065Y-117240432D01*
X143332483Y-116614940D01*
X143208065Y-115989448D01*
X142853752Y-115459181D01*
X142323485Y-115104868D01*
X141697993Y-114980450D01*
X141123767Y-114980450D01*
X140498275Y-115104868D01*
X140257390Y-115265822D01*
X140269279Y-113090122D01*
X140498275Y-113243132D01*
X141123767Y-113367550D01*
X141697993Y-113367550D01*
X142323485Y-113243132D01*
X142853752Y-112888819D01*
X143208065Y-112358552D01*
X143332483Y-111733060D01*
X143208065Y-111107568D01*
X142853752Y-110577301D01*
X142323485Y-110222988D01*
X141697993Y-110098570D01*
X141123767Y-110098570D01*
X140498275Y-110222988D01*
X140284165Y-110366052D01*
X140356832Y-97068000D01*
X147295560Y-97068000D01*
X147295560Y-98768000D01*
X147339838Y-99003317D01*
X147478910Y-99219441D01*
X147691110Y-99364431D01*
X147943000Y-99415440D01*
X148835479Y-99415440D01*
X148899018Y-99441824D01*
X149303208Y-99442176D01*
X149367914Y-99415440D01*
X149943000Y-99415440D01*
X150178317Y-99371162D01*
X150394441Y-99232090D01*
X150539431Y-99019890D01*
X150590440Y-98768000D01*
X150590440Y-97068000D01*
X150546162Y-96832683D01*
X150407090Y-96616559D01*
X150194890Y-96471569D01*
X149943000Y-96420560D01*
X147943000Y-96420560D01*
X147707683Y-96464838D01*
X147491559Y-96603910D01*
X147346569Y-96816110D01*
X147295560Y-97068000D01*
X140356832Y-97068000D01*
X140401086Y-88969635D01*
X140469766Y-89015526D01*
X141043255Y-89129600D01*
X141412745Y-89129600D01*
X141986234Y-89015526D01*
X142472415Y-88690670D01*
X142797271Y-88204489D01*
X142908907Y-87643256D01*
X143438384Y-88172734D01*
X143346569Y-88307110D01*
X143295560Y-88559000D01*
X143295560Y-90259000D01*
X143339838Y-90494317D01*
X143478910Y-90710441D01*
X143691110Y-90855431D01*
X143943000Y-90906440D01*
X144219100Y-90906440D01*
X144219100Y-92311057D01*
X144219099Y-92311062D01*
X144219100Y-92311067D01*
X144219100Y-92356560D01*
X143816000Y-92356560D01*
X143580683Y-92400838D01*
X143364559Y-92539910D01*
X143219569Y-92752110D01*
X143168560Y-93004000D01*
X143168560Y-94704000D01*
X143212838Y-94939317D01*
X143351910Y-95155441D01*
X143564110Y-95300431D01*
X143816000Y-95351440D01*
X145816000Y-95351440D01*
X146051317Y-95307162D01*
X146267441Y-95168090D01*
X146274220Y-95158169D01*
X146598624Y-95482573D01*
X146598626Y-95482576D01*
X146720084Y-95563731D01*
X146833477Y-95639498D01*
X147110501Y-95694602D01*
X147110506Y-95694601D01*
X147602634Y-95694601D01*
X147602639Y-95694602D01*
X147602644Y-95694601D01*
X150029356Y-95694601D01*
X150029361Y-95694602D01*
X150029366Y-95694601D01*
X150530386Y-95694601D01*
X150530391Y-95694602D01*
X150761454Y-95648640D01*
X150807416Y-95639497D01*
X151042266Y-95482576D01*
X151289841Y-95235000D01*
X158780560Y-95235000D01*
X158780560Y-97235000D01*
X158824838Y-97470317D01*
X158963910Y-97686441D01*
X159176110Y-97831431D01*
X159428000Y-97882440D01*
X161128000Y-97882440D01*
X161363317Y-97838162D01*
X161579441Y-97699090D01*
X161724431Y-97486890D01*
X161775440Y-97235000D01*
X161775440Y-95235000D01*
X161731162Y-94999683D01*
X161592090Y-94783559D01*
X161379890Y-94638569D01*
X161128000Y-94587560D01*
X159428000Y-94587560D01*
X159192683Y-94631838D01*
X158976559Y-94770910D01*
X158831569Y-94983110D01*
X158780560Y-95235000D01*
X151289841Y-95235000D01*
X155406341Y-91118500D01*
X155406344Y-91118498D01*
X155563265Y-90883648D01*
X155618369Y-90606623D01*
X155618369Y-90105598D01*
X155618370Y-90105593D01*
X155618369Y-90105588D01*
X155618369Y-82802199D01*
X158395098Y-82802199D01*
X158395103Y-82802200D01*
X158636414Y-82754199D01*
X160797801Y-82754199D01*
X160797801Y-83887801D01*
X160797801Y-83887801D01*
G37*
X160797801Y-83887801D02*
X159341639Y-83887801D01*
X159064614Y-83942905D01*
X158829764Y-84099826D01*
X158829762Y-84099829D01*
X156057734Y-86871856D01*
X155900813Y-87106706D01*
X155900813Y-87106707D01*
X155845708Y-87383731D01*
X155845709Y-87383736D01*
X155845709Y-91420696D01*
X155845708Y-91420701D01*
X155867430Y-91529900D01*
X155900813Y-91697726D01*
X155996757Y-91841317D01*
X156057734Y-91932576D01*
X158138732Y-94013573D01*
X158138734Y-94013576D01*
X158373584Y-94170497D01*
X158650609Y-94225601D01*
X165710294Y-94225601D01*
X165710299Y-94225602D01*
X165941362Y-94179640D01*
X165987324Y-94170497D01*
X166222174Y-94013576D01*
X167982310Y-92253440D01*
X168870690Y-92253440D01*
X172444601Y-95827350D01*
X172444601Y-103188760D01*
X170869800Y-103188760D01*
X170634483Y-103233038D01*
X170418359Y-103372110D01*
X170273369Y-103584310D01*
X170222360Y-103836200D01*
X170222360Y-103975900D01*
X161033398Y-103975900D01*
X160756373Y-104031004D01*
X160521523Y-104187925D01*
X159397827Y-105311621D01*
X159240906Y-105546471D01*
X159240906Y-105546472D01*
X159185801Y-105823496D01*
X159185802Y-105823501D01*
X159185802Y-107877122D01*
X158941234Y-107978175D01*
X158655179Y-108263731D01*
X158500176Y-108637018D01*
X158499824Y-109041208D01*
X158541266Y-109141506D01*
X154927102Y-112755670D01*
X154320430Y-112755670D01*
X154085113Y-112799948D01*
X153868989Y-112939020D01*
X153723999Y-113151220D01*
X153672990Y-113403110D01*
X153672990Y-114179080D01*
X152838469Y-114179080D01*
X150498870Y-111839480D01*
X150504080Y-111839480D01*
X150635742Y-111814706D01*
X150758080Y-111839480D01*
X151164480Y-111839480D01*
X151282976Y-111817183D01*
X151393080Y-111839480D01*
X151799480Y-111839480D01*
X152034797Y-111795202D01*
X152250921Y-111656130D01*
X152395911Y-111443930D01*
X152446920Y-111192040D01*
X152446920Y-109922040D01*
X152402642Y-109686723D01*
X152263570Y-109470599D01*
X152051370Y-109325609D01*
X151799480Y-109274600D01*
X151393080Y-109274600D01*
X151274584Y-109296897D01*
X151164480Y-109274600D01*
X150758080Y-109274600D01*
X150626418Y-109299374D01*
X150504080Y-109274600D01*
X150097680Y-109274600D01*
X149966018Y-109299374D01*
X149843680Y-109274600D01*
X149535392Y-109274600D01*
X149517355Y-109247605D01*
X149517352Y-109247603D01*
X148266840Y-107997090D01*
X148266840Y-106668400D01*
X148222562Y-106433083D01*
X148083490Y-106216959D01*
X147871290Y-106071969D01*
X147619400Y-106020960D01*
X145619400Y-106020960D01*
X145384083Y-106065238D01*
X145167959Y-106204310D01*
X145022969Y-106416510D01*
X144971960Y-106668400D01*
X144971960Y-108268400D01*
X145016238Y-108503717D01*
X145155310Y-108719841D01*
X145367510Y-108864831D01*
X145619400Y-108915840D01*
X147138090Y-108915840D01*
X147496851Y-109274600D01*
X147481480Y-109274600D01*
X147362984Y-109296897D01*
X147252880Y-109274600D01*
X146846480Y-109274600D01*
X146714818Y-109299374D01*
X146592480Y-109274600D01*
X146186080Y-109274600D01*
X146067584Y-109296897D01*
X145957480Y-109274600D01*
X145551080Y-109274600D01*
X145315763Y-109318878D01*
X145099639Y-109457950D01*
X144954649Y-109670150D01*
X144903640Y-109922040D01*
X144903640Y-111192040D01*
X144947918Y-111427357D01*
X145086990Y-111643481D01*
X145299190Y-111788471D01*
X145551080Y-111839480D01*
X145957480Y-111839480D01*
X146075976Y-111817183D01*
X146186080Y-111839480D01*
X146592480Y-111839480D01*
X146724142Y-111814706D01*
X146846480Y-111839480D01*
X147252880Y-111839480D01*
X147371376Y-111817183D01*
X147481480Y-111839480D01*
X147887880Y-111839480D01*
X148019542Y-111814706D01*
X148141880Y-111839480D01*
X148465385Y-111839480D01*
X148493605Y-111881715D01*
X148505226Y-111893336D01*
X148459105Y-111874185D01*
X148054915Y-111873833D01*
X147681357Y-112028184D01*
X147395302Y-112313740D01*
X147240299Y-112687027D01*
X147239947Y-113091217D01*
X147394298Y-113464775D01*
X147679854Y-113750830D01*
X148053141Y-113905833D01*
X148248367Y-113906003D01*
X148252192Y-113909828D01*
X145190421Y-113909828D01*
X144913396Y-113964932D01*
X144678546Y-114121853D01*
X144678544Y-114121856D01*
X144416893Y-114383506D01*
X144259972Y-114618356D01*
X144258460Y-114625956D01*
X144204867Y-114895381D01*
X144204868Y-114895386D01*
X144204868Y-119904374D01*
X144204867Y-119904379D01*
X144234144Y-120051560D01*
X144259972Y-120181404D01*
X144363327Y-120336086D01*
X144416893Y-120416254D01*
X145036559Y-121035919D01*
X145034740Y-121044900D01*
X145034740Y-122394900D01*
X145079018Y-122630217D01*
X145218090Y-122846341D01*
X145430290Y-122991331D01*
X145682180Y-123042340D01*
X146082180Y-123042340D01*
X146211769Y-123017956D01*
X146332180Y-123042340D01*
X146732180Y-123042340D01*
X146861769Y-123017956D01*
X146982180Y-123042340D01*
X147382180Y-123042340D01*
X147617497Y-122998062D01*
X147833621Y-122858990D01*
X147978611Y-122646790D01*
X148029620Y-122394900D01*
X148029620Y-121591000D01*
X151802088Y-121591000D01*
X153327222Y-123116133D01*
X153327224Y-123116136D01*
X153484146Y-123220987D01*
X153513718Y-123240746D01*
X140212706Y-123443043D01*
X140242700Y-117954242D01*
X140498275Y-118125012D01*
X141123767Y-118249430D01*
X141697993Y-118249430D01*
X142323485Y-118125012D01*
X142853752Y-117770699D01*
X143208065Y-117240432D01*
X143332483Y-116614940D01*
X143208065Y-115989448D01*
X142853752Y-115459181D01*
X142323485Y-115104868D01*
X141697993Y-114980450D01*
X141123767Y-114980450D01*
X140498275Y-115104868D01*
X140257390Y-115265822D01*
X140269279Y-113090122D01*
X140498275Y-113243132D01*
X141123767Y-113367550D01*
X141697993Y-113367550D01*
X142323485Y-113243132D01*
X142853752Y-112888819D01*
X143208065Y-112358552D01*
X143332483Y-111733060D01*
X143208065Y-111107568D01*
X142853752Y-110577301D01*
X142323485Y-110222988D01*
X141697993Y-110098570D01*
X141123767Y-110098570D01*
X140498275Y-110222988D01*
X140284165Y-110366052D01*
X140356832Y-97068000D01*
X147295560Y-97068000D01*
X147295560Y-98768000D01*
X147339838Y-99003317D01*
X147478910Y-99219441D01*
X147691110Y-99364431D01*
X147943000Y-99415440D01*
X148835479Y-99415440D01*
X148899018Y-99441824D01*
X149303208Y-99442176D01*
X149367914Y-99415440D01*
X149943000Y-99415440D01*
X150178317Y-99371162D01*
X150394441Y-99232090D01*
X150539431Y-99019890D01*
X150590440Y-98768000D01*
X150590440Y-97068000D01*
X150546162Y-96832683D01*
X150407090Y-96616559D01*
X150194890Y-96471569D01*
X149943000Y-96420560D01*
X147943000Y-96420560D01*
X147707683Y-96464838D01*
X147491559Y-96603910D01*
X147346569Y-96816110D01*
X147295560Y-97068000D01*
X140356832Y-97068000D01*
X140401086Y-88969635D01*
X140469766Y-89015526D01*
X141043255Y-89129600D01*
X141412745Y-89129600D01*
X141986234Y-89015526D01*
X142472415Y-88690670D01*
X142797271Y-88204489D01*
X142908907Y-87643256D01*
X143438384Y-88172734D01*
X143346569Y-88307110D01*
X143295560Y-88559000D01*
X143295560Y-90259000D01*
X143339838Y-90494317D01*
X143478910Y-90710441D01*
X143691110Y-90855431D01*
X143943000Y-90906440D01*
X144219100Y-90906440D01*
X144219100Y-92311057D01*
X144219099Y-92311062D01*
X144219100Y-92311067D01*
X144219100Y-92356560D01*
X143816000Y-92356560D01*
X143580683Y-92400838D01*
X143364559Y-92539910D01*
X143219569Y-92752110D01*
X143168560Y-93004000D01*
X143168560Y-94704000D01*
X143212838Y-94939317D01*
X143351910Y-95155441D01*
X143564110Y-95300431D01*
X143816000Y-95351440D01*
X145816000Y-95351440D01*
X146051317Y-95307162D01*
X146267441Y-95168090D01*
X146274220Y-95158169D01*
X146598624Y-95482573D01*
X146598626Y-95482576D01*
X146720084Y-95563731D01*
X146833477Y-95639498D01*
X147110501Y-95694602D01*
X147110506Y-95694601D01*
X147602634Y-95694601D01*
X147602639Y-95694602D01*
X147602644Y-95694601D01*
X150029356Y-95694601D01*
X150029361Y-95694602D01*
X150029366Y-95694601D01*
X150530386Y-95694601D01*
X150530391Y-95694602D01*
X150761454Y-95648640D01*
X150807416Y-95639497D01*
X151042266Y-95482576D01*
X151289841Y-95235000D01*
X158780560Y-95235000D01*
X158780560Y-97235000D01*
X158824838Y-97470317D01*
X158963910Y-97686441D01*
X159176110Y-97831431D01*
X159428000Y-97882440D01*
X161128000Y-97882440D01*
X161363317Y-97838162D01*
X161579441Y-97699090D01*
X161724431Y-97486890D01*
X161775440Y-97235000D01*
X161775440Y-95235000D01*
X161731162Y-94999683D01*
X161592090Y-94783559D01*
X161379890Y-94638569D01*
X161128000Y-94587560D01*
X159428000Y-94587560D01*
X159192683Y-94631838D01*
X158976559Y-94770910D01*
X158831569Y-94983110D01*
X158780560Y-95235000D01*
X151289841Y-95235000D01*
X155406341Y-91118500D01*
X155406344Y-91118498D01*
X155563265Y-90883648D01*
X155618369Y-90606623D01*
X155618369Y-90105598D01*
X155618370Y-90105593D01*
X155618369Y-90105588D01*
X155618369Y-82802199D01*
X158395098Y-82802199D01*
X158395103Y-82802200D01*
X158636414Y-82754199D01*
X160797801Y-82754199D01*
X160797801Y-83887801D01*
G36*
X170316529Y-110353289D02*
X170641385Y-110839470D01*
X171127566Y-111164326D01*
X171701055Y-111278400D01*
X172070545Y-111278400D01*
X172644034Y-111164326D01*
X173130215Y-110839470D01*
X173393859Y-110444900D01*
X173359345Y-122938912D01*
X163335900Y-123091360D01*
X163335900Y-120000760D01*
X163291622Y-119765443D01*
X163152550Y-119549319D01*
X162940350Y-119404329D01*
X162688460Y-119353320D01*
X160656460Y-119353320D01*
X160421143Y-119397598D01*
X160205019Y-119536670D01*
X160060029Y-119748870D01*
X160009020Y-120000760D01*
X160009020Y-123141959D01*
X156802193Y-123190732D01*
X156913834Y-123116136D01*
X157070755Y-122881286D01*
X157125859Y-122604261D01*
X157125859Y-120422399D01*
X157095040Y-120267460D01*
X157731645Y-120267460D01*
X157731650Y-120267461D01*
X157962713Y-120221499D01*
X158008675Y-120212356D01*
X158243525Y-120055435D01*
X161917830Y-116381129D01*
X161917830Y-116387610D01*
X161962108Y-116622927D01*
X162101180Y-116839051D01*
X162313380Y-116984041D01*
X162565270Y-117035050D01*
X164066410Y-117035050D01*
X164301727Y-116990772D01*
X164517851Y-116851700D01*
X164662841Y-116639500D01*
X164713850Y-116387610D01*
X164713850Y-115283100D01*
X166290267Y-113706683D01*
X166262500Y-113843800D01*
X166262500Y-117343920D01*
X166306778Y-117579237D01*
X166445850Y-117795361D01*
X166658050Y-117940351D01*
X166909940Y-117991360D01*
X170410060Y-117991360D01*
X170645377Y-117947082D01*
X170861501Y-117808010D01*
X171006491Y-117595810D01*
X171057500Y-117343920D01*
X171057500Y-113843800D01*
X171013222Y-113608483D01*
X170874150Y-113392359D01*
X170661950Y-113247369D01*
X170410060Y-113196360D01*
X166909940Y-113196360D01*
X166775245Y-113221705D01*
X170204893Y-109792056D01*
X170316529Y-110353289D01*
X170316529Y-110353289D01*
G37*
X170316529Y-110353289D02*
X170641385Y-110839470D01*
X171127566Y-111164326D01*
X171701055Y-111278400D01*
X172070545Y-111278400D01*
X172644034Y-111164326D01*
X173130215Y-110839470D01*
X173393859Y-110444900D01*
X173359345Y-122938912D01*
X163335900Y-123091360D01*
X163335900Y-120000760D01*
X163291622Y-119765443D01*
X163152550Y-119549319D01*
X162940350Y-119404329D01*
X162688460Y-119353320D01*
X160656460Y-119353320D01*
X160421143Y-119397598D01*
X160205019Y-119536670D01*
X160060029Y-119748870D01*
X160009020Y-120000760D01*
X160009020Y-123141959D01*
X156802193Y-123190732D01*
X156913834Y-123116136D01*
X157070755Y-122881286D01*
X157125859Y-122604261D01*
X157125859Y-120422399D01*
X157095040Y-120267460D01*
X157731645Y-120267460D01*
X157731650Y-120267461D01*
X157962713Y-120221499D01*
X158008675Y-120212356D01*
X158243525Y-120055435D01*
X161917830Y-116381129D01*
X161917830Y-116387610D01*
X161962108Y-116622927D01*
X162101180Y-116839051D01*
X162313380Y-116984041D01*
X162565270Y-117035050D01*
X164066410Y-117035050D01*
X164301727Y-116990772D01*
X164517851Y-116851700D01*
X164662841Y-116639500D01*
X164713850Y-116387610D01*
X164713850Y-115283100D01*
X166290267Y-113706683D01*
X166262500Y-113843800D01*
X166262500Y-117343920D01*
X166306778Y-117579237D01*
X166445850Y-117795361D01*
X166658050Y-117940351D01*
X166909940Y-117991360D01*
X170410060Y-117991360D01*
X170645377Y-117947082D01*
X170861501Y-117808010D01*
X171006491Y-117595810D01*
X171057500Y-117343920D01*
X171057500Y-113843800D01*
X171013222Y-113608483D01*
X170874150Y-113392359D01*
X170661950Y-113247369D01*
X170410060Y-113196360D01*
X166909940Y-113196360D01*
X166775245Y-113221705D01*
X170204893Y-109792056D01*
X170316529Y-110353289D01*
G36*
X150044341Y-117831602D02*
X150044346Y-117831601D01*
X152836773Y-117831601D01*
X152761352Y-117944477D01*
X152761352Y-117944478D01*
X152706247Y-118221502D01*
X152706248Y-118221507D01*
X152706248Y-120447660D01*
X152613813Y-120355225D01*
X152558492Y-120318261D01*
X152378963Y-120198304D01*
X152332164Y-120188995D01*
X152101938Y-120143199D01*
X152101933Y-120143200D01*
X148109331Y-120143200D01*
X148126721Y-120132010D01*
X148271711Y-119919810D01*
X148322720Y-119667920D01*
X148322720Y-119408015D01*
X148364955Y-119379795D01*
X149934914Y-117809835D01*
X150044341Y-117831602D01*
X150044341Y-117831602D01*
G37*
X150044341Y-117831602D02*
X150044346Y-117831601D01*
X152836773Y-117831601D01*
X152761352Y-117944477D01*
X152761352Y-117944478D01*
X152706247Y-118221502D01*
X152706248Y-118221507D01*
X152706248Y-120447660D01*
X152613813Y-120355225D01*
X152558492Y-120318261D01*
X152378963Y-120198304D01*
X152332164Y-120188995D01*
X152101938Y-120143199D01*
X152101933Y-120143200D01*
X148109331Y-120143200D01*
X148126721Y-120132010D01*
X148271711Y-119919810D01*
X148322720Y-119667920D01*
X148322720Y-119408015D01*
X148364955Y-119379795D01*
X149934914Y-117809835D01*
X150044341Y-117831602D01*
G36*
X170222360Y-105563400D02*
X170266638Y-105798717D01*
X170405710Y-106014841D01*
X170617910Y-106159831D01*
X170659239Y-106168200D01*
X170641385Y-106180130D01*
X170316529Y-106666311D01*
X170202455Y-107239800D01*
X170286604Y-107662847D01*
X164689736Y-113259714D01*
X164669572Y-113152553D01*
X164530500Y-112936429D01*
X164318300Y-112791439D01*
X164066410Y-112740430D01*
X162565270Y-112740430D01*
X162329953Y-112784708D01*
X162113829Y-112923780D01*
X161968839Y-113135980D01*
X161917830Y-113387870D01*
X161917830Y-114347645D01*
X161875595Y-114375865D01*
X161875593Y-114375868D01*
X157431800Y-118819660D01*
X156691276Y-118819660D01*
X156687622Y-118800243D01*
X156548550Y-118584119D01*
X156336350Y-118439129D01*
X156084460Y-118388120D01*
X155243588Y-118388120D01*
X156809693Y-116822014D01*
X156809696Y-116822012D01*
X156966617Y-116587162D01*
X157021721Y-116310137D01*
X157021721Y-114829398D01*
X157876190Y-114829398D01*
X158086686Y-115338837D01*
X158476113Y-115728944D01*
X158985184Y-115940329D01*
X159536398Y-115940810D01*
X160045837Y-115730314D01*
X160435944Y-115340887D01*
X160647329Y-114831816D01*
X160647810Y-114280602D01*
X160437314Y-113771163D01*
X160047887Y-113381056D01*
X159538816Y-113169671D01*
X158987602Y-113169190D01*
X158478163Y-113379686D01*
X158088056Y-113769113D01*
X157876671Y-114278184D01*
X157876190Y-114829398D01*
X157021721Y-114829398D01*
X157021721Y-113316629D01*
X160675574Y-109662775D01*
X160675577Y-109662773D01*
X160832498Y-109427923D01*
X160887602Y-109150898D01*
X160887602Y-108529102D01*
X160832498Y-108252077D01*
X160675577Y-108017227D01*
X160675574Y-108017225D01*
X160633602Y-107975253D01*
X160633602Y-106123346D01*
X161333248Y-105423700D01*
X170222360Y-105423700D01*
X170222360Y-105563400D01*
X170222360Y-105563400D01*
G37*
X170222360Y-105563400D02*
X170266638Y-105798717D01*
X170405710Y-106014841D01*
X170617910Y-106159831D01*
X170659239Y-106168200D01*
X170641385Y-106180130D01*
X170316529Y-106666311D01*
X170202455Y-107239800D01*
X170286604Y-107662847D01*
X164689736Y-113259714D01*
X164669572Y-113152553D01*
X164530500Y-112936429D01*
X164318300Y-112791439D01*
X164066410Y-112740430D01*
X162565270Y-112740430D01*
X162329953Y-112784708D01*
X162113829Y-112923780D01*
X161968839Y-113135980D01*
X161917830Y-113387870D01*
X161917830Y-114347645D01*
X161875595Y-114375865D01*
X161875593Y-114375868D01*
X157431800Y-118819660D01*
X156691276Y-118819660D01*
X156687622Y-118800243D01*
X156548550Y-118584119D01*
X156336350Y-118439129D01*
X156084460Y-118388120D01*
X155243588Y-118388120D01*
X156809693Y-116822014D01*
X156809696Y-116822012D01*
X156966617Y-116587162D01*
X157021721Y-116310137D01*
X157021721Y-114829398D01*
X157876190Y-114829398D01*
X158086686Y-115338837D01*
X158476113Y-115728944D01*
X158985184Y-115940329D01*
X159536398Y-115940810D01*
X160045837Y-115730314D01*
X160435944Y-115340887D01*
X160647329Y-114831816D01*
X160647810Y-114280602D01*
X160437314Y-113771163D01*
X160047887Y-113381056D01*
X159538816Y-113169671D01*
X158987602Y-113169190D01*
X158478163Y-113379686D01*
X158088056Y-113769113D01*
X157876671Y-114278184D01*
X157876190Y-114829398D01*
X157021721Y-114829398D01*
X157021721Y-113316629D01*
X160675574Y-109662775D01*
X160675577Y-109662773D01*
X160832498Y-109427923D01*
X160887602Y-109150898D01*
X160887602Y-108529102D01*
X160832498Y-108252077D01*
X160675577Y-108017227D01*
X160675574Y-108017225D01*
X160633602Y-107975253D01*
X160633602Y-106123346D01*
X161333248Y-105423700D01*
X170222360Y-105423700D01*
X170222360Y-105563400D01*
G36*
X173437153Y-94772404D02*
X169894440Y-91229690D01*
X169894440Y-90006000D01*
X169850162Y-89770683D01*
X169711090Y-89554559D01*
X169498890Y-89409569D01*
X169247000Y-89358560D01*
X169129900Y-89358560D01*
X169129900Y-80460624D01*
X169269900Y-80518757D01*
X169825661Y-80519242D01*
X170339303Y-80307010D01*
X170732629Y-79914370D01*
X170945757Y-79401100D01*
X170946242Y-78845339D01*
X170734010Y-78331697D01*
X170341370Y-77938371D01*
X169828100Y-77725243D01*
X169272339Y-77724758D01*
X168839669Y-77903533D01*
X168161950Y-77225813D01*
X168148760Y-77217000D01*
X173485648Y-77217000D01*
X173437153Y-94772404D01*
X173437153Y-94772404D01*
G37*
X173437153Y-94772404D02*
X169894440Y-91229690D01*
X169894440Y-90006000D01*
X169850162Y-89770683D01*
X169711090Y-89554559D01*
X169498890Y-89409569D01*
X169247000Y-89358560D01*
X169129900Y-89358560D01*
X169129900Y-80460624D01*
X169269900Y-80518757D01*
X169825661Y-80519242D01*
X170339303Y-80307010D01*
X170732629Y-79914370D01*
X170945757Y-79401100D01*
X170946242Y-78845339D01*
X170734010Y-78331697D01*
X170341370Y-77938371D01*
X169828100Y-77725243D01*
X169272339Y-77724758D01*
X168839669Y-77903533D01*
X168161950Y-77225813D01*
X168148760Y-77217000D01*
X173485648Y-77217000D01*
X173437153Y-94772404D01*
G36*
X167682100Y-89358560D02*
X167247000Y-89358560D01*
X167011683Y-89402838D01*
X166795559Y-89541910D01*
X166650569Y-89754110D01*
X166599560Y-90006000D01*
X166599560Y-91588690D01*
X165410449Y-92777801D01*
X161775440Y-92777801D01*
X161775440Y-91235000D01*
X161731162Y-90999683D01*
X161592090Y-90783559D01*
X161379890Y-90638569D01*
X161128000Y-90587560D01*
X161001900Y-90587560D01*
X161001900Y-88992440D01*
X161255000Y-88992440D01*
X161490317Y-88948162D01*
X161706441Y-88809090D01*
X161851431Y-88596890D01*
X161902440Y-88345000D01*
X161902440Y-88279381D01*
X161987731Y-88364821D01*
X162361018Y-88519824D01*
X162765208Y-88520176D01*
X163138766Y-88365825D01*
X163424821Y-88080269D01*
X163579824Y-87706982D01*
X163579994Y-87511756D01*
X167682100Y-83409649D01*
X167682100Y-89358560D01*
X167682100Y-89358560D01*
G37*
X167682100Y-89358560D02*
X167247000Y-89358560D01*
X167011683Y-89402838D01*
X166795559Y-89541910D01*
X166650569Y-89754110D01*
X166599560Y-90006000D01*
X166599560Y-91588690D01*
X165410449Y-92777801D01*
X161775440Y-92777801D01*
X161775440Y-91235000D01*
X161731162Y-90999683D01*
X161592090Y-90783559D01*
X161379890Y-90638569D01*
X161128000Y-90587560D01*
X161001900Y-90587560D01*
X161001900Y-88992440D01*
X161255000Y-88992440D01*
X161490317Y-88948162D01*
X161706441Y-88809090D01*
X161851431Y-88596890D01*
X161902440Y-88345000D01*
X161902440Y-88279381D01*
X161987731Y-88364821D01*
X162361018Y-88519824D01*
X162765208Y-88520176D01*
X163138766Y-88365825D01*
X163424821Y-88080269D01*
X163579824Y-87706982D01*
X163579994Y-87511756D01*
X167682100Y-83409649D01*
X167682100Y-89358560D01*
M02*
